<?xml version="1.0" encoding="UTF-8" standalone="no"?>
<!DOCTYPE svg PUBLIC "-//W3C//DTD SVG 1.1//EN"
 "http://www.w3.org/Graphics/SVG/1.1/DTD/svg11.dtd">
<!-- Generated by graphviz version 2.43.0 (0)
 -->
<!-- Title: HPL2 Pages: 1 -->
<svg width="811pt" height="249pt"
 viewBox="0.00 0.00 811.00 249.00" xmlns="http://www.w3.org/2000/svg" xmlns:xlink="http://www.w3.org/1999/xlink">
<g id="graph0" class="graph" transform="scale(1 1) rotate(0) translate(4 245)">
<title>HPL2</title>
<!-- Node1 -->
<g id="Node000001" class="node">
<title>Node1</title>
<g id="a_Node000001"><a xlink:title="generic interface for C++ to the Fortran routine">
<polygon fill="#999999" stroke="#666666" points="803,-171 762,-171 762,-152 803,-152 803,-171"/>
<text text-anchor="middle" x="782.5" y="-159" font-family="Helvetica,sans-Serif" font-size="10.00">HPL2</text>
</a>
</g>
</g>
<!-- Node2 -->
<g id="Node000002" class="node">
<title>Node2</title>
<g id="a_Node000002"><a xlink:href="coefffunc_8cpp.html#a7ece00b95f55884cf6f7ab54f0bfc193" target="_top" xlink:title="eq. (B.6) in [Vermaseren, Vogt, Moch; Nucl. Phys. B, 724 (1&#45;2), 3, 2005] This expression was obtained...">
<polygon fill="white" stroke="#666666" points="715,-227 605,-227 605,-208 715,-208 715,-227"/>
<text text-anchor="middle" x="660" y="-215" font-family="Helvetica,sans-Serif" font-size="10.00">c2g_2_0_reg_exact</text>
</a>
</g>
</g>
<!-- Node1&#45;&gt;Node2 -->
<g id="edge1_Node000001_Node000002" class="edge">
<title>Node1&#45;&gt;Node2</title>
<g id="a_edge1_Node000001_Node000002"><a xlink:title=" ">
<path fill="none" stroke="#63b8ff" d="M761.68,-177.45C751.5,-185 738.61,-193.64 726,-199.5 718.89,-202.81 711.04,-205.62 703.34,-207.96"/>
<polygon fill="#63b8ff" stroke="#63b8ff" points="764.05,-180.04 769.85,-171.18 759.79,-174.49 764.05,-180.04"/>
</a>
</g>
</g>
<!-- Node9 -->
<g id="Node000009" class="node">
<title>Node9</title>
<g id="a_Node000009"><a xlink:href="coefffunc_8cpp.html#abb9c274bc2808466e11aabe7a6cea51f" target="_top" xlink:title="eq. (B.5) in [Vermaseren, Vogt, Moch; Nucl. Phys. B, 724 (1&#45;2), 3, 2005] This expression was obtained...">
<polygon fill="white" stroke="#666666" points="726,-190 594,-190 594,-171 726,-171 726,-190"/>
<text text-anchor="middle" x="660" y="-178" font-family="Helvetica,sans-Serif" font-size="10.00">c2q_ns_2_01_reg_exact</text>
</a>
</g>
</g>
<!-- Node1&#45;&gt;Node9 -->
<g id="edge9_Node000001_Node000009" class="edge">
<title>Node1&#45;&gt;Node9</title>
<g id="a_edge9_Node000001_Node000009"><a xlink:title=" ">
<path fill="none" stroke="#63b8ff" d="M751.73,-166.19C742.52,-167.65 732.02,-169.3 721.51,-170.96"/>
<polygon fill="#63b8ff" stroke="#63b8ff" points="752.54,-169.61 761.87,-164.59 751.45,-162.7 752.54,-169.61"/>
</a>
</g>
</g>
<!-- Node10 -->
<g id="Node000010" class="node">
<title>Node10</title>
<g id="a_Node000010"><a xlink:href="coefffunc_8cpp.html#a7c695fe49b1078f555ebea2fcf0937e7" target="_top" xlink:title="eq. (B.7) in [Vermaseren, Vogt, Moch; Nucl. Phys. B, 724 (1&#45;2), 3, 2005] This expression was obtained...">
<polygon fill="white" stroke="#666666" points="723,-153 597,-153 597,-134 723,-134 723,-153"/>
<text text-anchor="middle" x="660" y="-141" font-family="Helvetica,sans-Serif" font-size="10.00">c2q_ps_2_0_reg_exact</text>
</a>
</g>
</g>
<!-- Node1&#45;&gt;Node10 -->
<g id="edge11_Node000001_Node000010" class="edge">
<title>Node1&#45;&gt;Node10</title>
<g id="a_edge11_Node000001_Node000010"><a xlink:title=" ">
<path fill="none" stroke="#63b8ff" d="M751.83,-157.07C743.05,-155.76 733.1,-154.27 723.08,-152.77"/>
<polygon fill="#63b8ff" stroke="#63b8ff" points="751.46,-160.55 761.87,-158.57 752.5,-153.63 751.46,-160.55"/>
</a>
</g>
</g>
<!-- Node11 -->
<g id="Node000011" class="node">
<title>Node11</title>
<g id="a_Node000011"><a xlink:href="hqcoeff_8cpp.html#aefcfbc062d44707454fb2f83709d46c4" target="_top" xlink:title="O(ln(muR2/m2)^0)">
<polygon fill="white" stroke="#666666" points="694,-98 626,-98 626,-79 694,-79 694,-98"/>
<text text-anchor="middle" x="660" y="-86" font-family="Helvetica,sans-Serif" font-size="10.00">I_hqhelper</text>
</a>
</g>
</g>
<!-- Node1&#45;&gt;Node11 -->
<g id="edge13_Node000001_Node000011" class="edge">
<title>Node1&#45;&gt;Node11</title>
<g id="a_edge13_Node000001_Node000011"><a xlink:title=" ">
<path fill="none" stroke="#63b8ff" d="M758.53,-146.18C748.61,-139.67 736.82,-132.08 726,-125.5 710.14,-115.85 691.71,-105.44 678.54,-98.12"/>
<polygon fill="#63b8ff" stroke="#63b8ff" points="756.77,-149.2 767.04,-151.79 760.62,-143.36 756.77,-149.2"/>
</a>
</g>
</g>
<!-- Node3 -->
<g id="Node000003" class="node">
<title>Node3</title>
<g id="a_Node000003"><a xlink:href="structfunc_8cpp.html#a044b52046382624819e333543ca5a2a6" target="_top" xlink:title="Computes all contributions to F2 that need to be numerically integrated over, i.e....">
<polygon fill="white" stroke="#666666" points="539,-199 464,-199 464,-180 539,-180 539,-199"/>
<text text-anchor="middle" x="501.5" y="-187" font-family="Helvetica,sans-Serif" font-size="10.00">F2integrand</text>
</a>
</g>
</g>
<!-- Node2&#45;&gt;Node3 -->
<g id="edge2_Node000002_Node000003" class="edge">
<title>Node2&#45;&gt;Node3</title>
<g id="a_edge2_Node000002_Node000003"><a xlink:title=" ">
<path fill="none" stroke="#63b8ff" d="M595.72,-206.18C576.59,-202.76 556.22,-199.11 539.42,-196.11"/>
<polygon fill="#63b8ff" stroke="#63b8ff" points="595.12,-209.63 605.58,-207.94 596.35,-202.74 595.12,-209.63"/>
</a>
</g>
</g>
<!-- Node4 -->
<g id="Node000004" class="node">
<title>Node4</title>
<g id="a_Node000004"><a xlink:href="structfunc_8cpp.html#a44cedd32ed45579222c28d0552bfb79c" target="_top" xlink:title="transformation of F2integrand that samples closer to small z">
<polygon fill="white" stroke="#666666" points="409,-204 284,-204 284,-185 409,-185 409,-204"/>
<text text-anchor="middle" x="346.5" y="-192" font-family="Helvetica,sans-Serif" font-size="10.00">F2integrand_logtrafo1</text>
</a>
</g>
</g>
<!-- Node3&#45;&gt;Node4 -->
<g id="edge3_Node000003_Node000004" class="edge">
<title>Node3&#45;&gt;Node4</title>
<g id="a_edge3_Node000003_Node000004"><a xlink:title=" ">
<path fill="none" stroke="#63b8ff" d="M453.51,-191.04C439.53,-191.49 424.01,-192 409.24,-192.48"/>
<polygon fill="#63b8ff" stroke="#63b8ff" points="453.97,-194.52 463.85,-190.7 453.74,-187.53 453.97,-194.52"/>
</a>
</g>
</g>
<!-- Node7 -->
<g id="Node000007" class="node">
<title>Node7</title>
<g id="a_Node000007"><a xlink:href="structfunc_8cpp.html#a4e44bade023d83c7dc1b833a90262798" target="_top" xlink:title="transformation of F2integrand that samples closer to large z">
<polygon fill="white" stroke="#666666" points="409,-241 284,-241 284,-222 409,-222 409,-241"/>
<text text-anchor="middle" x="346.5" y="-229" font-family="Helvetica,sans-Serif" font-size="10.00">F2integrand_logtrafo2</text>
</a>
</g>
</g>
<!-- Node3&#45;&gt;Node7 -->
<g id="edge6_Node000003_Node000007" class="edge">
<title>Node3&#45;&gt;Node7</title>
<g id="a_edge6_Node000003_Node000007"><a xlink:title=" ">
<path fill="none" stroke="#63b8ff" d="M456.06,-201.7C432.59,-208.14 404.2,-215.93 382.35,-221.93"/>
<polygon fill="#63b8ff" stroke="#63b8ff" points="457.07,-205.05 465.78,-199.03 455.21,-198.3 457.07,-205.05"/>
</a>
</g>
</g>
<!-- Node8 -->
<g id="Node000008" class="node">
<title>Node8</title>
<g id="a_Node000008"><a xlink:href="testF2integrand_8cpp.html#ae66f6b31b5ad750f1fe042a706a4e3d4" target="_top" xlink:title=" ">
<polygon fill="white" stroke="#666666" points="367,-167 326,-167 326,-148 367,-148 367,-167"/>
<text text-anchor="middle" x="346.5" y="-155" font-family="Helvetica,sans-Serif" font-size="10.00">main</text>
</a>
</g>
</g>
<!-- Node3&#45;&gt;Node8 -->
<g id="edge8_Node000003_Node000008" class="edge">
<title>Node3&#45;&gt;Node8</title>
<g id="a_edge8_Node000003_Node000008"><a xlink:title=" ">
<path fill="none" stroke="#63b8ff" d="M453.88,-179.75C424.76,-173.66 388.81,-166.14 367.04,-161.59"/>
<polygon fill="#63b8ff" stroke="#63b8ff" points="453.35,-183.21 463.85,-181.84 454.78,-176.36 453.35,-183.21"/>
</a>
</g>
</g>
<!-- Node5 -->
<g id="Node000005" class="node">
<title>Node5</title>
<g id="a_Node000005"><a xlink:href="structfunc_8cpp.html#ae41cf5482bf531dd2f6525474e6a67b1" target="_top" xlink:title="massless electromagnetic structure functions F2 from photon interaction">
<polygon fill="white" stroke="#666666" points="209,-222 180,-222 180,-203 209,-203 209,-222"/>
<text text-anchor="middle" x="194.5" y="-210" font-family="Helvetica,sans-Serif" font-size="10.00">F2</text>
</a>
</g>
</g>
<!-- Node4&#45;&gt;Node5 -->
<g id="edge4_Node000004_Node000005" class="edge">
<title>Node4&#45;&gt;Node5</title>
<g id="a_edge4_Node000004_Node000005"><a xlink:title=" ">
<path fill="none" stroke="#63b8ff" d="M273.52,-203.14C248.94,-206.09 223.93,-209.09 209.07,-210.87"/>
<polygon fill="#63b8ff" stroke="#63b8ff" points="274.11,-206.59 283.62,-201.93 273.28,-199.64 274.11,-206.59"/>
</a>
</g>
</g>
<!-- Node6 -->
<g id="Node000006" class="node">
<title>Node6</title>
<g id="a_Node000006"><a xlink:href="teststructfunc_8cpp.html#ae66f6b31b5ad750f1fe042a706a4e3d4" target="_top" xlink:title=" ">
<polygon fill="white" stroke="#666666" points="73,-222 32,-222 32,-203 73,-203 73,-222"/>
<text text-anchor="middle" x="52.5" y="-210" font-family="Helvetica,sans-Serif" font-size="10.00">main</text>
</a>
</g>
</g>
<!-- Node5&#45;&gt;Node6 -->
<g id="edge5_Node000005_Node000006" class="edge">
<title>Node5&#45;&gt;Node6</title>
<g id="a_edge5_Node000005_Node000006"><a xlink:title=" ">
<path fill="none" stroke="#63b8ff" d="M169.64,-212.5C142.47,-212.5 98.59,-212.5 73.26,-212.5"/>
<polygon fill="#63b8ff" stroke="#63b8ff" points="169.82,-216 179.82,-212.5 169.82,-209 169.82,-216"/>
</a>
</g>
</g>
<!-- Node7&#45;&gt;Node5 -->
<g id="edge7_Node000007_Node000005" class="edge">
<title>Node7&#45;&gt;Node5</title>
<g id="a_edge7_Node000007_Node000005"><a xlink:title=" ">
<path fill="none" stroke="#63b8ff" d="M273.52,-222.38C248.94,-219.27 223.93,-216.1 209.07,-214.22"/>
<polygon fill="#63b8ff" stroke="#63b8ff" points="273.26,-225.88 283.62,-223.66 274.14,-218.93 273.26,-225.88"/>
</a>
</g>
</g>
<!-- Node9&#45;&gt;Node3 -->
<g id="edge10_Node000009_Node000003" class="edge">
<title>Node9&#45;&gt;Node3</title>
<g id="a_edge10_Node000009_Node000003"><a xlink:title=" ">
<path fill="none" stroke="#63b8ff" d="M583.86,-184.82C568.38,-185.71 552.74,-186.61 539.36,-187.38"/>
<polygon fill="#63b8ff" stroke="#63b8ff" points="584.21,-188.31 593.99,-184.24 583.81,-181.32 584.21,-188.31"/>
</a>
</g>
</g>
<!-- Node10&#45;&gt;Node3 -->
<g id="edge12_Node000010_Node000003" class="edge">
<title>Node10&#45;&gt;Node3</title>
<g id="a_edge12_Node000010_Node000003"><a xlink:title=" ">
<path fill="none" stroke="#63b8ff" d="M616.57,-155.89C609.05,-158.09 601.29,-160.36 594,-162.5 574.29,-168.29 552.21,-174.8 534.68,-179.98"/>
<polygon fill="#63b8ff" stroke="#63b8ff" points="617.65,-159.22 626.26,-153.05 615.68,-152.5 617.65,-159.22"/>
</a>
</g>
</g>
<!-- Node12 -->
<g id="Node000012" class="node">
<title>Node12</title>
<g id="a_Node000012"><a xlink:href="hqcoeff_8cpp.html#a1a77eb0a791f23627e05a20fbb46fd32" target="_top" xlink:title="from [Riemersma, Smith, van Neerven; Phys. Let. B, 347 (1&#45;2), 143, 1995] eq. (19)">
<polygon fill="white" stroke="#666666" points="558,-98 445,-98 445,-79 558,-79 558,-98"/>
<text text-anchor="middle" x="501.5" y="-86" font-family="Helvetica,sans-Serif" font-size="10.00">chL_g_2_0_asympG</text>
</a>
</g>
</g>
<!-- Node11&#45;&gt;Node12 -->
<g id="edge14_Node000011_Node000012" class="edge">
<title>Node11&#45;&gt;Node12</title>
<g id="a_edge14_Node000011_Node000012"><a xlink:title=" ">
<path fill="none" stroke="#63b8ff" d="M615.71,-88.5C597.9,-88.5 577.05,-88.5 558.12,-88.5"/>
<polygon fill="#63b8ff" stroke="#63b8ff" points="615.81,-92 625.81,-88.5 615.81,-85 615.81,-92"/>
</a>
</g>
</g>
<!-- Node18 -->
<g id="Node000018" class="node">
<title>Node18</title>
<g id="a_Node000018"><a xlink:href="hqcoeff_8cpp.html#a125f14b4de4e555efaed0afa9a9f4547" target="_top" xlink:title="from [Riemersma, Smith, van Neerven; Phys. Let. B, 347 (1&#45;2), 143, 1995] eq. (20)">
<polygon fill="white" stroke="#666666" points="558,-56 445,-56 445,-37 558,-37 558,-56"/>
<text text-anchor="middle" x="501.5" y="-44" font-family="Helvetica,sans-Serif" font-size="10.00">chT_g_2_0_asympG</text>
</a>
</g>
</g>
<!-- Node11&#45;&gt;Node18 -->
<g id="edge21_Node000011_Node000018" class="edge">
<title>Node11&#45;&gt;Node18</title>
<g id="a_edge21_Node000011_Node000018"><a xlink:title=" ">
<path fill="none" stroke="#63b8ff" d="M616.06,-76.97C591.57,-70.4 561.24,-62.26 538.09,-56.05"/>
<polygon fill="#63b8ff" stroke="#63b8ff" points="615.24,-80.38 625.81,-79.59 617.06,-73.62 615.24,-80.38"/>
</a>
</g>
</g>
<!-- Node13 -->
<g id="Node000013" class="node">
<title>Node13</title>
<g id="a_Node000013"><a xlink:href="hqcoeff_8cpp.html#aa59fd4910fe7d35619155c1b89045d48" target="_top" xlink:title="Longitudinal part.">
<polygon fill="white" stroke="#666666" points="380,-130 313,-130 313,-111 380,-111 380,-130"/>
<text text-anchor="middle" x="346.5" y="-118" font-family="Helvetica,sans-Serif" font-size="10.00">chL_g_2_0</text>
</a>
</g>
</g>
<!-- Node12&#45;&gt;Node13 -->
<g id="edge15_Node000012_Node000013" class="edge">
<title>Node12&#45;&gt;Node13</title>
<g id="a_edge15_Node000012_Node000013"><a xlink:title=" ">
<path fill="none" stroke="#63b8ff" d="M444.94,-100.12C423.29,-104.65 399.23,-109.68 380.43,-113.61"/>
<polygon fill="#63b8ff" stroke="#63b8ff" points="445.94,-103.49 455.01,-98.01 444.5,-96.64 445.94,-103.49"/>
</a>
</g>
</g>
<!-- Node16 -->
<g id="Node000016" class="node">
<title>Node16</title>
<g id="a_Node000016"><a xlink:href="hqcoeff_8cpp.html#aed8304e7e3c70f3cdbcc781c15c3cfde" target="_top" xlink:title="O(ln(muR2/m2)^0)">
<polygon fill="white" stroke="#666666" points="399.5,-93 293.5,-93 293.5,-74 399.5,-74 399.5,-93"/>
<text text-anchor="middle" x="346.5" y="-81" font-family="Helvetica,sans-Serif" font-size="10.00">chL_q_2_0_Hcoupl</text>
</a>
</g>
</g>
<!-- Node12&#45;&gt;Node16 -->
<g id="edge18_Node000012_Node000016" class="edge">
<title>Node12&#45;&gt;Node16</title>
<g id="a_edge18_Node000012_Node000016"><a xlink:title=" ">
<path fill="none" stroke="#63b8ff" d="M434.64,-86.35C422.91,-85.96 410.84,-85.57 399.56,-85.2"/>
<polygon fill="#63b8ff" stroke="#63b8ff" points="434.72,-89.85 444.83,-86.68 434.95,-82.86 434.72,-89.85"/>
</a>
</g>
</g>
<!-- Node14 -->
<g id="Node000014" class="node">
<title>Node14</title>
<g id="a_Node000014"><a xlink:href="hqcoeff_8cpp.html#a3dc48c2fbe787981cfd65df741765e2d" target="_top" xlink:title="2 part">
<polygon fill="white" stroke="#666666" points="228.5,-93 160.5,-93 160.5,-74 228.5,-74 228.5,-93"/>
<text text-anchor="middle" x="194.5" y="-81" font-family="Helvetica,sans-Serif" font-size="10.00">ch2_g_2_0</text>
</a>
</g>
</g>
<!-- Node13&#45;&gt;Node14 -->
<g id="edge16_Node000013_Node000014" class="edge">
<title>Node13&#45;&gt;Node14</title>
<g id="a_edge16_Node000013_Node000014"><a xlink:title=" ">
<path fill="none" stroke="#63b8ff" d="M303.18,-110.06C279.52,-104.22 250.47,-97.06 228.5,-91.64"/>
<polygon fill="#63b8ff" stroke="#63b8ff" points="302.41,-113.47 312.95,-112.47 304.08,-106.68 302.41,-113.47"/>
</a>
</g>
</g>
<!-- Node15 -->
<g id="Node000015" class="node">
<title>Node15</title>
<g id="a_Node000015"><a xlink:href="structfunc_8cpp.html#ae97306c88ea1474d650300c3d8e0546f" target="_top" xlink:title="implementation of [Laenen, Riemersma, Smith, v. Neerven; Nucl. Phys. B, 392 (1), 162,...">
<polygon fill="white" stroke="#666666" points="105,-75 0,-75 0,-56 105,-56 105,-75"/>
<text text-anchor="middle" x="52.5" y="-63" font-family="Helvetica,sans-Serif" font-size="10.00">F2heavyintegrand</text>
</a>
</g>
</g>
<!-- Node14&#45;&gt;Node15 -->
<g id="edge17_Node000014_Node000015" class="edge">
<title>Node14&#45;&gt;Node15</title>
<g id="a_edge17_Node000014_Node000015"><a xlink:title=" ">
<path fill="none" stroke="#63b8ff" d="M150.26,-77.94C135.96,-76.1 119.91,-74.04 105.05,-72.13"/>
<polygon fill="#63b8ff" stroke="#63b8ff" points="149.96,-81.43 160.32,-79.23 150.85,-74.49 149.96,-81.43"/>
</a>
</g>
</g>
<!-- Node17 -->
<g id="Node000017" class="node">
<title>Node17</title>
<g id="a_Node000017"><a xlink:href="hqcoeff_8cpp.html#afacc4dee82e2f72b93effe0046ca7753" target="_top" xlink:title="2 part">
<polygon fill="white" stroke="#666666" points="248,-56 141,-56 141,-37 248,-37 248,-56"/>
<text text-anchor="middle" x="194.5" y="-44" font-family="Helvetica,sans-Serif" font-size="10.00">ch2_q_2_0_Hcoupl</text>
</a>
</g>
</g>
<!-- Node16&#45;&gt;Node17 -->
<g id="edge19_Node000016_Node000017" class="edge">
<title>Node16&#45;&gt;Node17</title>
<g id="a_edge19_Node000016_Node000017"><a xlink:title=" ">
<path fill="none" stroke="#63b8ff" d="M297.16,-71.57C276.81,-66.56 253.45,-60.79 234.26,-56.06"/>
<polygon fill="#63b8ff" stroke="#63b8ff" points="296.32,-74.97 306.87,-73.97 298,-68.18 296.32,-74.97"/>
</a>
</g>
</g>
<!-- Node17&#45;&gt;Node15 -->
<g id="edge20_Node000017_Node000015" class="edge">
<title>Node17&#45;&gt;Node15</title>
<g id="a_edge20_Node000017_Node000015"><a xlink:title=" ">
<path fill="none" stroke="#63b8ff" d="M131.02,-54.98C122.46,-56.14 113.74,-57.32 105.39,-58.46"/>
<polygon fill="#63b8ff" stroke="#63b8ff" points="131.53,-58.44 140.97,-53.63 130.59,-51.51 131.53,-58.44"/>
</a>
</g>
</g>
<!-- Node19 -->
<g id="Node000019" class="node">
<title>Node19</title>
<g id="a_Node000019"><a xlink:href="hqcoeff_8cpp.html#ace7857dc0c0eaf4489710364347d5db2" target="_top" xlink:title="Transversal part.">
<polygon fill="white" stroke="#666666" points="380.5,-56 312.5,-56 312.5,-37 380.5,-37 380.5,-56"/>
<text text-anchor="middle" x="346.5" y="-44" font-family="Helvetica,sans-Serif" font-size="10.00">chT_g_2_0</text>
</a>
</g>
</g>
<!-- Node18&#45;&gt;Node19 -->
<g id="edge22_Node000018_Node000019" class="edge">
<title>Node18&#45;&gt;Node19</title>
<g id="a_edge22_Node000018_Node000019"><a xlink:title=" ">
<path fill="none" stroke="#63b8ff" d="M434.59,-46.5C415.95,-46.5 396.46,-46.5 380.65,-46.5"/>
<polygon fill="#63b8ff" stroke="#63b8ff" points="434.83,-50 444.83,-46.5 434.83,-43 434.83,-50"/>
</a>
</g>
</g>
<!-- Node20 -->
<g id="Node000020" class="node">
<title>Node20</title>
<g id="a_Node000020"><a xlink:href="hqcoeff_8cpp.html#af70a378910e84f8bd4bf08c0d372287e" target="_top" xlink:title="Transversal part.">
<polygon fill="white" stroke="#666666" points="400,-19 293,-19 293,0 400,0 400,-19"/>
<text text-anchor="middle" x="346.5" y="-7" font-family="Helvetica,sans-Serif" font-size="10.00">chT_q_2_0_Hcoupl</text>
</a>
</g>
</g>
<!-- Node18&#45;&gt;Node20 -->
<g id="edge24_Node000018_Node000020" class="edge">
<title>Node18&#45;&gt;Node20</title>
<g id="a_edge24_Node000018_Node000020"><a xlink:title=" ">
<path fill="none" stroke="#63b8ff" d="M451.19,-34.57C430.43,-29.56 406.61,-23.79 387.03,-19.06"/>
<polygon fill="#63b8ff" stroke="#63b8ff" points="450.56,-38.02 461.1,-36.97 452.2,-31.22 450.56,-38.02"/>
</a>
</g>
</g>
<!-- Node19&#45;&gt;Node14 -->
<g id="edge23_Node000019_Node000014" class="edge">
<title>Node19&#45;&gt;Node14</title>
<g id="a_edge23_Node000019_Node000014"><a xlink:title=" ">
<path fill="none" stroke="#63b8ff" d="M302.19,-57.18C278.78,-62.96 250.33,-69.98 228.7,-75.31"/>
<polygon fill="#63b8ff" stroke="#63b8ff" points="303.34,-60.5 312.21,-54.71 301.66,-53.71 303.34,-60.5"/>
</a>
</g>
</g>
<!-- Node20&#45;&gt;Node17 -->
<g id="edge25_Node000020_Node000017" class="edge">
<title>Node20&#45;&gt;Node17</title>
<g id="a_edge25_Node000020_Node000017"><a xlink:title=" ">
<path fill="none" stroke="#63b8ff" d="M297.16,-21.43C276.81,-26.44 253.45,-32.21 234.26,-36.94"/>
<polygon fill="#63b8ff" stroke="#63b8ff" points="298,-24.82 306.87,-19.03 296.32,-18.03 298,-24.82"/>
</a>
</g>
</g>
</g>
</svg>
