<?xml version="1.0" encoding="UTF-8" standalone="no"?>
<!DOCTYPE svg PUBLIC "-//W3C//DTD SVG 1.1//EN"
 "http://www.w3.org/Graphics/SVG/1.1/DTD/svg11.dtd">
<!-- Generated by graphviz version 2.43.0 (0)
 -->
<!-- Title: HPL2 Pages: 1 -->
<svg width="832pt" height="323pt"
 viewBox="0.00 0.00 832.00 323.00" xmlns="http://www.w3.org/2000/svg" xmlns:xlink="http://www.w3.org/1999/xlink">
<g id="graph0" class="graph" transform="scale(1 1) rotate(0) translate(4 319)">
<title>HPL2</title>
<!-- Node1 -->
<g id="Node000001" class="node">
<title>Node1</title>
<g id="a_Node000001"><a xlink:title="generic interface for C++ to the Fortran routine">
<polygon fill="#999999" stroke="#666666" points="824,-185 783,-185 783,-166 824,-166 824,-185"/>
<text text-anchor="middle" x="803.5" y="-173" font-family="Helvetica,sans-Serif" font-size="10.00">HPL2</text>
</a>
</g>
</g>
<!-- Node2 -->
<g id="Node000002" class="node">
<title>Node2</title>
<g id="a_Node000002"><a xlink:href="coefffunc_8cpp.html#a7ece00b95f55884cf6f7ab54f0bfc193" target="_top" xlink:title="eq. (B.6) in [Vogt, Moch; Nucl. Phys. B, 724 (1&#45;2), 3, 2005] This expression was obtained after some ...">
<polygon fill="white" stroke="#666666" points="736,-241 626,-241 626,-222 736,-222 736,-241"/>
<text text-anchor="middle" x="681" y="-229" font-family="Helvetica,sans-Serif" font-size="10.00">c2g_2_0_reg_exact</text>
</a>
</g>
</g>
<!-- Node1&#45;&gt;Node2 -->
<g id="edge1_Node000001_Node000002" class="edge">
<title>Node1&#45;&gt;Node2</title>
<g id="a_edge1_Node000001_Node000002"><a xlink:title=" ">
<path fill="none" stroke="#63b8ff" d="M782.68,-191.45C772.5,-199 759.61,-207.64 747,-213.5 739.89,-216.81 732.04,-219.62 724.34,-221.96"/>
<polygon fill="#63b8ff" stroke="#63b8ff" points="785.05,-194.04 790.85,-185.18 780.79,-188.49 785.05,-194.04"/>
</a>
</g>
</g>
<!-- Node10 -->
<g id="Node000010" class="node">
<title>Node10</title>
<g id="a_Node000010"><a xlink:href="coefffunc_8cpp.html#a58267764a35aed9e32e4c85f4a5398e4" target="_top" xlink:title="eq. (B.5) in [Vogt, Moch; Nucl. Phys. B, 724 (1&#45;2), 3, 2005] This expression was obtained after some ...">
<polygon fill="white" stroke="#666666" points="747,-204 615,-204 615,-185 747,-185 747,-204"/>
<text text-anchor="middle" x="681" y="-192" font-family="Helvetica,sans-Serif" font-size="10.00">c2q_ns_2_01_reg_exact</text>
</a>
</g>
</g>
<!-- Node1&#45;&gt;Node10 -->
<g id="edge10_Node000001_Node000010" class="edge">
<title>Node1&#45;&gt;Node10</title>
<g id="a_edge10_Node000001_Node000010"><a xlink:title=" ">
<path fill="none" stroke="#63b8ff" d="M772.73,-180.19C763.52,-181.65 753.02,-183.3 742.51,-184.96"/>
<polygon fill="#63b8ff" stroke="#63b8ff" points="773.54,-183.61 782.87,-178.59 772.45,-176.7 773.54,-183.61"/>
</a>
</g>
</g>
<!-- Node11 -->
<g id="Node000011" class="node">
<title>Node11</title>
<g id="a_Node000011"><a xlink:href="coefffunc_8cpp.html#a7c695fe49b1078f555ebea2fcf0937e7" target="_top" xlink:title="eq. (B.7) in [Vogt, Moch; Nucl. Phys. B, 724 (1&#45;2), 3, 2005] This expression was obtained after some ...">
<polygon fill="white" stroke="#666666" points="744,-167 618,-167 618,-148 744,-148 744,-167"/>
<text text-anchor="middle" x="681" y="-155" font-family="Helvetica,sans-Serif" font-size="10.00">c2q_ps_2_0_reg_exact</text>
</a>
</g>
</g>
<!-- Node1&#45;&gt;Node11 -->
<g id="edge12_Node000001_Node000011" class="edge">
<title>Node1&#45;&gt;Node11</title>
<g id="a_edge12_Node000001_Node000011"><a xlink:title=" ">
<path fill="none" stroke="#63b8ff" d="M772.83,-171.07C764.05,-169.76 754.1,-168.27 744.08,-166.77"/>
<polygon fill="#63b8ff" stroke="#63b8ff" points="772.46,-174.55 782.87,-172.57 773.5,-167.63 772.46,-174.55"/>
</a>
</g>
</g>
<!-- Node12 -->
<g id="Node000012" class="node">
<title>Node12</title>
<g id="a_Node000012"><a xlink:href="hqcoeff_8cpp.html#aefcfbc062d44707454fb2f83709d46c4" target="_top" xlink:title="O(ln(muR2/m2)^0)">
<polygon fill="white" stroke="#666666" points="715,-102 647,-102 647,-83 715,-83 715,-102"/>
<text text-anchor="middle" x="681" y="-90" font-family="Helvetica,sans-Serif" font-size="10.00">I_hqhelper</text>
</a>
</g>
</g>
<!-- Node1&#45;&gt;Node12 -->
<g id="edge14_Node000001_Node000012" class="edge">
<title>Node1&#45;&gt;Node12</title>
<g id="a_edge14_Node000001_Node000012"><a xlink:title=" ">
<path fill="none" stroke="#63b8ff" d="M780.32,-160.22C755.71,-143.27 716.75,-116.43 696.03,-102.17"/>
<polygon fill="#63b8ff" stroke="#63b8ff" points="778.46,-163.19 788.68,-165.98 782.43,-157.42 778.46,-163.19"/>
</a>
</g>
</g>
<!-- Node3 -->
<g id="Node000003" class="node">
<title>Node3</title>
<g id="a_Node000003"><a xlink:href="structfunc_8cpp.html#aa4dc5cbd2ddc07970850d275ce8b8a44" target="_top" xlink:title="Computes all contributions to F2 that need to be numerically integrated over, i.e....">
<polygon fill="white" stroke="#666666" points="560,-222 485,-222 485,-203 560,-203 560,-222"/>
<text text-anchor="middle" x="522.5" y="-210" font-family="Helvetica,sans-Serif" font-size="10.00">F2integrand</text>
</a>
</g>
</g>
<!-- Node2&#45;&gt;Node3 -->
<g id="edge2_Node000002_Node000003" class="edge">
<title>Node2&#45;&gt;Node3</title>
<g id="a_edge2_Node000002_Node000003"><a xlink:title=" ">
<path fill="none" stroke="#63b8ff" d="M615.61,-223.68C596.65,-221.38 576.57,-218.94 560.01,-216.93"/>
<polygon fill="#63b8ff" stroke="#63b8ff" points="615.35,-227.18 625.7,-224.91 616.2,-220.23 615.35,-227.18"/>
</a>
</g>
</g>
<!-- Node4 -->
<g id="Node000004" class="node">
<title>Node4</title>
<g id="a_Node000004"><a xlink:href="structfunc_8cpp.html#a4c319327b228b6185e2cd88bf2c4b4f2" target="_top" xlink:title="transformation of F2integrand that samples closer to small z">
<polygon fill="white" stroke="#666666" points="419.5,-204 294.5,-204 294.5,-185 419.5,-185 419.5,-204"/>
<text text-anchor="middle" x="357" y="-192" font-family="Helvetica,sans-Serif" font-size="10.00">F2integrand_logtrafo1</text>
</a>
</g>
</g>
<!-- Node3&#45;&gt;Node4 -->
<g id="edge3_Node000003_Node000004" class="edge">
<title>Node3&#45;&gt;Node4</title>
<g id="a_edge3_Node000003_Node000004"><a xlink:title=" ">
<path fill="none" stroke="#63b8ff" d="M474.51,-207.33C457.4,-205.44 437.79,-203.28 419.6,-201.28"/>
<polygon fill="#63b8ff" stroke="#63b8ff" points="474.48,-210.85 484.81,-208.46 475.25,-203.89 474.48,-210.85"/>
</a>
</g>
</g>
<!-- Node6 -->
<g id="Node000006" class="node">
<title>Node6</title>
<g id="a_Node000006"><a xlink:href="structfunc_8cpp.html#ab11cf77595fed93c0944a1e81dd5ab25" target="_top" xlink:title=" ">
<polygon fill="white" stroke="#666666" points="430,-167 284,-167 284,-148 430,-148 430,-167"/>
<text text-anchor="middle" x="357" y="-155" font-family="Helvetica,sans-Serif" font-size="10.00">F2integrand_logtrafo1_par</text>
</a>
</g>
</g>
<!-- Node3&#45;&gt;Node6 -->
<g id="edge5_Node000003_Node000006" class="edge">
<title>Node3&#45;&gt;Node6</title>
<g id="a_edge5_Node000003_Node000006"><a xlink:title=" ">
<path fill="none" stroke="#63b8ff" d="M489.53,-198.86C472.11,-191.7 450.07,-183.07 430,-176.5 419.56,-173.08 408.11,-169.84 397.48,-167.03"/>
<polygon fill="#63b8ff" stroke="#63b8ff" points="488.63,-202.28 499.21,-202.88 491.31,-195.81 488.63,-202.28"/>
</a>
</g>
</g>
<!-- Node7 -->
<g id="Node000007" class="node">
<title>Node7</title>
<g id="a_Node000007"><a xlink:href="structfunc_8cpp.html#a64eeaa69975afd512f27d80d18b0d02f" target="_top" xlink:title="transformation of F2integrand that samples closer to large z">
<polygon fill="white" stroke="#666666" points="419.5,-241 294.5,-241 294.5,-222 419.5,-222 419.5,-241"/>
<text text-anchor="middle" x="357" y="-229" font-family="Helvetica,sans-Serif" font-size="10.00">F2integrand_logtrafo2</text>
</a>
</g>
</g>
<!-- Node3&#45;&gt;Node7 -->
<g id="edge6_Node000003_Node000007" class="edge">
<title>Node3&#45;&gt;Node7</title>
<g id="a_edge6_Node000003_Node000007"><a xlink:title=" ">
<path fill="none" stroke="#63b8ff" d="M474.51,-217.96C457.4,-219.95 437.79,-222.23 419.6,-224.34"/>
<polygon fill="#63b8ff" stroke="#63b8ff" points="475.28,-221.39 484.81,-216.76 474.47,-214.44 475.28,-221.39"/>
</a>
</g>
</g>
<!-- Node8 -->
<g id="Node000008" class="node">
<title>Node8</title>
<g id="a_Node000008"><a xlink:href="structfunc_8cpp.html#a0aa52c0449b6c8886d2942097ab71bf9" target="_top" xlink:title=" ">
<polygon fill="white" stroke="#666666" points="430,-315 284,-315 284,-296 430,-296 430,-315"/>
<text text-anchor="middle" x="357" y="-303" font-family="Helvetica,sans-Serif" font-size="10.00">F2integrand_logtrafo2_par</text>
</a>
</g>
</g>
<!-- Node3&#45;&gt;Node8 -->
<g id="edge8_Node000003_Node000008" class="edge">
<title>Node3&#45;&gt;Node8</title>
<g id="a_edge8_Node000003_Node000008"><a xlink:title=" ">
<path fill="none" stroke="#63b8ff" d="M505.63,-229.31C488.53,-246.44 459.76,-272.54 430,-287.5 423.21,-290.91 415.72,-293.71 408.22,-295.99"/>
<polygon fill="#63b8ff" stroke="#63b8ff" points="508.14,-231.75 512.62,-222.15 503.13,-226.86 508.14,-231.75"/>
</a>
</g>
</g>
<!-- Node9 -->
<g id="Node000009" class="node">
<title>Node9</title>
<g id="a_Node000009"><a xlink:href="testF2integrand_8cpp.html#ae66f6b31b5ad750f1fe042a706a4e3d4" target="_top" xlink:title=" ">
<polygon fill="white" stroke="#666666" points="377.5,-278 336.5,-278 336.5,-259 377.5,-259 377.5,-278"/>
<text text-anchor="middle" x="357" y="-266" font-family="Helvetica,sans-Serif" font-size="10.00">main</text>
</a>
</g>
</g>
<!-- Node3&#45;&gt;Node9 -->
<g id="edge9_Node000003_Node000009" class="edge">
<title>Node3&#45;&gt;Node9</title>
<g id="a_edge9_Node000003_Node000009"><a xlink:title=" ">
<path fill="none" stroke="#63b8ff" d="M491.53,-226.27C473.87,-234.05 450.95,-243.58 430,-250.5 412.63,-256.24 392.38,-261.15 377.78,-264.39"/>
<polygon fill="#63b8ff" stroke="#63b8ff" points="493.05,-229.43 500.76,-222.16 490.2,-223.03 493.05,-229.43"/>
</a>
</g>
</g>
<!-- Node5 -->
<g id="Node000005" class="node">
<title>Node5</title>
<g id="a_Node000005"><a xlink:href="structfunc_8cpp.html#a3ae6414607e5f42d0a4c34df3a0d7626" target="_top" xlink:title="electromagnetic structure function F2 from photon interaction">
<polygon fill="white" stroke="#666666" points="209,-222 180,-222 180,-203 209,-203 209,-222"/>
<text text-anchor="middle" x="194.5" y="-210" font-family="Helvetica,sans-Serif" font-size="10.00">F2</text>
</a>
</g>
</g>
<!-- Node4&#45;&gt;Node5 -->
<g id="edge4_Node000004_Node000005" class="edge">
<title>Node4&#45;&gt;Node5</title>
<g id="a_edge4_Node000004_Node000005"><a xlink:title=" ">
<path fill="none" stroke="#63b8ff" d="M284.39,-202.53C255.85,-205.73 225.83,-209.1 209,-210.99"/>
<polygon fill="#63b8ff" stroke="#63b8ff" points="284.86,-206 294.41,-201.41 284.08,-199.04 284.86,-206"/>
</a>
</g>
</g>
<!-- Node7&#45;&gt;Node5 -->
<g id="edge7_Node000007_Node000005" class="edge">
<title>Node7&#45;&gt;Node5</title>
<g id="a_edge7_Node000007_Node000005"><a xlink:title=" ">
<path fill="none" stroke="#63b8ff" d="M284.39,-223.02C255.85,-219.64 225.83,-216.09 209,-214.1"/>
<polygon fill="#63b8ff" stroke="#63b8ff" points="284.06,-226.51 294.41,-224.21 284.89,-219.56 284.06,-226.51"/>
</a>
</g>
</g>
<!-- Node10&#45;&gt;Node3 -->
<g id="edge11_Node000010_Node000003" class="edge">
<title>Node10&#45;&gt;Node3</title>
<g id="a_edge11_Node000010_Node000003"><a xlink:title=" ">
<path fill="none" stroke="#63b8ff" d="M604.86,-203.14C589.38,-204.92 573.74,-206.72 560.36,-208.26"/>
<polygon fill="#63b8ff" stroke="#63b8ff" points="605.45,-206.6 614.99,-201.98 604.66,-199.64 605.45,-206.6"/>
</a>
</g>
</g>
<!-- Node11&#45;&gt;Node3 -->
<g id="edge13_Node000011_Node000003" class="edge">
<title>Node11&#45;&gt;Node3</title>
<g id="a_edge13_Node000011_Node000003"><a xlink:title=" ">
<path fill="none" stroke="#63b8ff" d="M635.23,-170.01C628.42,-172.08 621.5,-174.28 615,-176.5 591.26,-184.62 564.61,-195.29 546.23,-202.9"/>
<polygon fill="#63b8ff" stroke="#63b8ff" points="636.49,-173.29 645.07,-167.08 634.49,-166.58 636.49,-173.29"/>
</a>
</g>
</g>
<!-- Node13 -->
<g id="Node000013" class="node">
<title>Node13</title>
<g id="a_Node000013"><a xlink:href="hqcoeff_8cpp.html#a1a77eb0a791f23627e05a20fbb46fd32" target="_top" xlink:title="from [Riemersma, Smith, van Neerven; Phys. Let. B, 347 (1&#45;2), 143, 1995] eq. (19)">
<polygon fill="white" stroke="#666666" points="579,-102 466,-102 466,-83 579,-83 579,-102"/>
<text text-anchor="middle" x="522.5" y="-90" font-family="Helvetica,sans-Serif" font-size="10.00">chL_g_2_0_asympG</text>
</a>
</g>
</g>
<!-- Node12&#45;&gt;Node13 -->
<g id="edge15_Node000012_Node000013" class="edge">
<title>Node12&#45;&gt;Node13</title>
<g id="a_edge15_Node000012_Node000013"><a xlink:title=" ">
<path fill="none" stroke="#63b8ff" d="M636.71,-92.5C618.9,-92.5 598.05,-92.5 579.12,-92.5"/>
<polygon fill="#63b8ff" stroke="#63b8ff" points="636.81,-96 646.81,-92.5 636.81,-89 636.81,-96"/>
</a>
</g>
</g>
<!-- Node19 -->
<g id="Node000019" class="node">
<title>Node19</title>
<g id="a_Node000019"><a xlink:href="hqcoeff_8cpp.html#a125f14b4de4e555efaed0afa9a9f4547" target="_top" xlink:title="from [Riemersma, Smith, van Neerven; Phys. Let. B, 347 (1&#45;2), 143, 1995] eq. (20)">
<polygon fill="white" stroke="#666666" points="579,-56 466,-56 466,-37 579,-37 579,-56"/>
<text text-anchor="middle" x="522.5" y="-44" font-family="Helvetica,sans-Serif" font-size="10.00">chT_g_2_0_asympG</text>
</a>
</g>
</g>
<!-- Node12&#45;&gt;Node19 -->
<g id="edge22_Node000012_Node000019" class="edge">
<title>Node12&#45;&gt;Node19</title>
<g id="a_edge22_Node000012_Node000019"><a xlink:title=" ">
<path fill="none" stroke="#63b8ff" d="M637.71,-80.07C611.96,-72.5 579.59,-62.99 555.89,-56.02"/>
<polygon fill="#63b8ff" stroke="#63b8ff" points="636.99,-83.51 647.57,-82.97 638.97,-76.79 636.99,-83.51"/>
</a>
</g>
</g>
<!-- Node14 -->
<g id="Node000014" class="node">
<title>Node14</title>
<g id="a_Node000014"><a xlink:href="hqcoeff_8cpp.html#aa59fd4910fe7d35619155c1b89045d48" target="_top" xlink:title="Longitudinal part.">
<polygon fill="white" stroke="#666666" points="390.5,-130 323.5,-130 323.5,-111 390.5,-111 390.5,-130"/>
<text text-anchor="middle" x="357" y="-118" font-family="Helvetica,sans-Serif" font-size="10.00">chL_g_2_0</text>
</a>
</g>
</g>
<!-- Node13&#45;&gt;Node14 -->
<g id="edge16_Node000013_Node000014" class="edge">
<title>Node13&#45;&gt;Node14</title>
<g id="a_edge16_Node000013_Node000014"><a xlink:title=" ">
<path fill="none" stroke="#63b8ff" d="M455.57,-103.79C433.25,-107.61 409.28,-111.72 390.69,-114.9"/>
<polygon fill="#63b8ff" stroke="#63b8ff" points="456.42,-107.2 465.69,-102.06 455.24,-100.3 456.42,-107.2"/>
</a>
</g>
</g>
<!-- Node17 -->
<g id="Node000017" class="node">
<title>Node17</title>
<g id="a_Node000017"><a xlink:href="hqcoeff_8cpp.html#aed8304e7e3c70f3cdbcc781c15c3cfde" target="_top" xlink:title="O(ln(muR2/m2)^0)">
<polygon fill="white" stroke="#666666" points="410,-93 304,-93 304,-74 410,-74 410,-93"/>
<text text-anchor="middle" x="357" y="-81" font-family="Helvetica,sans-Serif" font-size="10.00">chL_q_2_0_Hcoupl</text>
</a>
</g>
</g>
<!-- Node13&#45;&gt;Node17 -->
<g id="edge19_Node000013_Node000017" class="edge">
<title>Node13&#45;&gt;Node17</title>
<g id="a_edge19_Node000013_Node000017"><a xlink:title=" ">
<path fill="none" stroke="#63b8ff" d="M455.42,-88.86C440.39,-88.04 424.62,-87.17 410.25,-86.38"/>
<polygon fill="#63b8ff" stroke="#63b8ff" points="455.51,-92.37 465.69,-89.43 455.9,-85.38 455.51,-92.37"/>
</a>
</g>
</g>
<!-- Node15 -->
<g id="Node000015" class="node">
<title>Node15</title>
<g id="a_Node000015"><a xlink:href="hqcoeff_8cpp.html#a3dc48c2fbe787981cfd65df741765e2d" target="_top" xlink:title="2 part">
<polygon fill="white" stroke="#666666" points="228.5,-93 160.5,-93 160.5,-74 228.5,-74 228.5,-93"/>
<text text-anchor="middle" x="194.5" y="-81" font-family="Helvetica,sans-Serif" font-size="10.00">ch2_g_2_0</text>
</a>
</g>
</g>
<!-- Node14&#45;&gt;Node15 -->
<g id="edge17_Node000014_Node000015" class="edge">
<title>Node14&#45;&gt;Node15</title>
<g id="a_edge17_Node000014_Node000015"><a xlink:title=" ">
<path fill="none" stroke="#63b8ff" d="M313.34,-110.66C286.78,-104.54 253.13,-96.79 228.6,-91.13"/>
<polygon fill="#63b8ff" stroke="#63b8ff" points="312.6,-114.09 323.13,-112.92 314.17,-107.27 312.6,-114.09"/>
</a>
</g>
</g>
<!-- Node16 -->
<g id="Node000016" class="node">
<title>Node16</title>
<g id="a_Node000016"><a xlink:href="structfunc_8cpp.html#af0603b77d3ca61bbf50c4b6579f41f92" target="_top" xlink:title="implementation of [Laenen, Riemersma, Smith, v. Neerven; Nucl. Phys. B, 392 (1), 162,...">
<polygon fill="white" stroke="#666666" points="105,-74 0,-74 0,-55 105,-55 105,-74"/>
<text text-anchor="middle" x="52.5" y="-62" font-family="Helvetica,sans-Serif" font-size="10.00">F2heavyintegrand</text>
</a>
</g>
</g>
<!-- Node15&#45;&gt;Node16 -->
<g id="edge18_Node000015_Node000016" class="edge">
<title>Node15&#45;&gt;Node16</title>
<g id="a_edge18_Node000015_Node000016"><a xlink:title=" ">
<path fill="none" stroke="#63b8ff" d="M150.26,-77.63C135.96,-75.69 119.91,-73.51 105.05,-71.5"/>
<polygon fill="#63b8ff" stroke="#63b8ff" points="149.94,-81.12 160.32,-79 150.88,-74.18 149.94,-81.12"/>
</a>
</g>
</g>
<!-- Node18 -->
<g id="Node000018" class="node">
<title>Node18</title>
<g id="a_Node000018"><a xlink:href="hqcoeff_8cpp.html#afacc4dee82e2f72b93effe0046ca7753" target="_top" xlink:title="2 part">
<polygon fill="white" stroke="#666666" points="248,-56 141,-56 141,-37 248,-37 248,-56"/>
<text text-anchor="middle" x="194.5" y="-44" font-family="Helvetica,sans-Serif" font-size="10.00">ch2_q_2_0_Hcoupl</text>
</a>
</g>
</g>
<!-- Node17&#45;&gt;Node18 -->
<g id="edge20_Node000017_Node000018" class="edge">
<title>Node17&#45;&gt;Node18</title>
<g id="a_edge20_Node000017_Node000018"><a xlink:title=" ">
<path fill="none" stroke="#63b8ff" d="M304.86,-71.71C282.95,-66.66 257.69,-60.84 236.97,-56.06"/>
<polygon fill="#63b8ff" stroke="#63b8ff" points="304.14,-75.14 314.67,-73.97 305.71,-68.31 304.14,-75.14"/>
</a>
</g>
</g>
<!-- Node18&#45;&gt;Node16 -->
<g id="edge21_Node000018_Node000016" class="edge">
<title>Node18&#45;&gt;Node16</title>
<g id="a_edge21_Node000018_Node000016"><a xlink:title=" ">
<path fill="none" stroke="#63b8ff" d="M131.02,-54.53C122.46,-55.63 113.74,-56.75 105.39,-57.83"/>
<polygon fill="#63b8ff" stroke="#63b8ff" points="131.5,-58 140.97,-53.25 130.61,-51.06 131.5,-58"/>
</a>
</g>
</g>
<!-- Node20 -->
<g id="Node000020" class="node">
<title>Node20</title>
<g id="a_Node000020"><a xlink:href="hqcoeff_8cpp.html#ace7857dc0c0eaf4489710364347d5db2" target="_top" xlink:title="Transversal part.">
<polygon fill="white" stroke="#666666" points="391,-56 323,-56 323,-37 391,-37 391,-56"/>
<text text-anchor="middle" x="357" y="-44" font-family="Helvetica,sans-Serif" font-size="10.00">chT_g_2_0</text>
</a>
</g>
</g>
<!-- Node19&#45;&gt;Node20 -->
<g id="edge23_Node000019_Node000020" class="edge">
<title>Node19&#45;&gt;Node20</title>
<g id="a_edge23_Node000019_Node000020"><a xlink:title=" ">
<path fill="none" stroke="#63b8ff" d="M455.65,-46.5C433.49,-46.5 409.71,-46.5 391.17,-46.5"/>
<polygon fill="#63b8ff" stroke="#63b8ff" points="455.69,-50 465.69,-46.5 455.69,-43 455.69,-50"/>
</a>
</g>
</g>
<!-- Node21 -->
<g id="Node000021" class="node">
<title>Node21</title>
<g id="a_Node000021"><a xlink:href="hqcoeff_8cpp.html#af70a378910e84f8bd4bf08c0d372287e" target="_top" xlink:title="Transversal part.">
<polygon fill="white" stroke="#666666" points="410.5,-19 303.5,-19 303.5,0 410.5,0 410.5,-19"/>
<text text-anchor="middle" x="357" y="-7" font-family="Helvetica,sans-Serif" font-size="10.00">chT_q_2_0_Hcoupl</text>
</a>
</g>
</g>
<!-- Node19&#45;&gt;Node21 -->
<g id="edge25_Node000019_Node000021" class="edge">
<title>Node19&#45;&gt;Node21</title>
<g id="a_edge25_Node000019_Node000021"><a xlink:title=" ">
<path fill="none" stroke="#63b8ff" d="M469.41,-34.71C447.09,-29.66 421.35,-23.84 400.25,-19.06"/>
<polygon fill="#63b8ff" stroke="#63b8ff" points="468.87,-38.18 479.39,-36.97 470.41,-31.35 468.87,-38.18"/>
</a>
</g>
</g>
<!-- Node20&#45;&gt;Node15 -->
<g id="edge24_Node000020_Node000015" class="edge">
<title>Node20&#45;&gt;Node15</title>
<g id="a_edge24_Node000020_Node000015"><a xlink:title=" ">
<path fill="none" stroke="#63b8ff" d="M312.98,-56.42C286.52,-62.52 253.13,-70.22 228.71,-75.84"/>
<polygon fill="#63b8ff" stroke="#63b8ff" points="313.79,-59.82 322.74,-54.17 312.21,-53 313.79,-59.82"/>
</a>
</g>
</g>
<!-- Node21&#45;&gt;Node18 -->
<g id="edge26_Node000021_Node000018" class="edge">
<title>Node21&#45;&gt;Node18</title>
<g id="a_edge26_Node000021_Node000018"><a xlink:title=" ">
<path fill="none" stroke="#63b8ff" d="M304.86,-21.29C282.95,-26.34 257.69,-32.16 236.97,-36.94"/>
<polygon fill="#63b8ff" stroke="#63b8ff" points="305.71,-24.69 314.67,-19.03 304.14,-17.86 305.71,-24.69"/>
</a>
</g>
</g>
</g>
</svg>
