<?xml version="1.0" encoding="UTF-8" standalone="no"?>
<!DOCTYPE svg PUBLIC "-//W3C//DTD SVG 1.1//EN"
 "http://www.w3.org/Graphics/SVG/1.1/DTD/svg11.dtd">
<!-- Generated by graphviz version 2.43.0 (0)
 -->
<!-- Title: hpl3_ Pages: 1 -->
<svg width="710pt" height="101pt"
 viewBox="0.00 0.00 710.00 101.00" xmlns="http://www.w3.org/2000/svg" xmlns:xlink="http://www.w3.org/1999/xlink">
<g id="graph0" class="graph" transform="scale(1 1) rotate(0) translate(4 97)">
<title>hpl3_</title>
<!-- Node1 -->
<g id="Node000001" class="node">
<title>Node1</title>
<g id="a_Node000001"><a xlink:title=" ">
<polygon fill="#999999" stroke="#666666" points="702,-56 659,-56 659,-37 702,-37 702,-56"/>
<text text-anchor="middle" x="680.5" y="-44" font-family="Helvetica,sans-Serif" font-size="10.00">hpl3_</text>
</a>
</g>
</g>
<!-- Node2 -->
<g id="Node000002" class="node">
<title>Node2</title>
<g id="a_Node000002"><a xlink:href="chaplin_8h.html#aac5f579574c1c43d98622e0244adf526" target="_top" xlink:title="generic interface for C++ to the Fortran routine">
<polygon fill="white" stroke="#666666" points="623,-56 582,-56 582,-37 623,-37 623,-56"/>
<text text-anchor="middle" x="602.5" y="-44" font-family="Helvetica,sans-Serif" font-size="10.00">HPL3</text>
</a>
</g>
</g>
<!-- Node1&#45;&gt;Node2 -->
<g id="edge1_Node000001_Node000002" class="edge">
<title>Node1&#45;&gt;Node2</title>
<g id="a_edge1_Node000001_Node000002"><a xlink:title=" ">
<path fill="none" stroke="#63b8ff" d="M648.63,-46.5C640.04,-46.5 630.95,-46.5 623.2,-46.5"/>
<polygon fill="#63b8ff" stroke="#63b8ff" points="648.73,-50 658.73,-46.5 648.73,-43 648.73,-50"/>
</a>
</g>
</g>
<!-- Node3 -->
<g id="Node000003" class="node">
<title>Node3</title>
<g id="a_Node000003"><a xlink:href="coefffunc_8cpp.html#a7ece00b95f55884cf6f7ab54f0bfc193" target="_top" xlink:title="eq. (B.6) in [Vermaseren, Vogt, Moch; Nucl. Phys. B, 724 (1&#45;2), 3, 2005] This expression was obtained...">
<polygon fill="white" stroke="#666666" points="535,-93 425,-93 425,-74 535,-74 535,-93"/>
<text text-anchor="middle" x="480" y="-81" font-family="Helvetica,sans-Serif" font-size="10.00">c2g_2_0_reg_exact</text>
</a>
</g>
</g>
<!-- Node2&#45;&gt;Node3 -->
<g id="edge2_Node000002_Node000003" class="edge">
<title>Node2&#45;&gt;Node3</title>
<g id="a_edge2_Node000002_Node000003"><a xlink:title=" ">
<path fill="none" stroke="#63b8ff" d="M572.34,-56.85C563.88,-59.75 554.6,-62.84 546,-65.5 536.6,-68.41 526.37,-71.34 516.87,-73.98"/>
<polygon fill="#63b8ff" stroke="#63b8ff" points="573.52,-60.14 581.82,-53.56 571.22,-53.53 573.52,-60.14"/>
</a>
</g>
</g>
<!-- Node10 -->
<g id="Node000010" class="node">
<title>Node10</title>
<g id="a_Node000010"><a xlink:href="coefffunc_8cpp.html#abb9c274bc2808466e11aabe7a6cea51f" target="_top" xlink:title="eq. (B.5) in [Vermaseren, Vogt, Moch; Nucl. Phys. B, 724 (1&#45;2), 3, 2005] This expression was obtained...">
<polygon fill="white" stroke="#666666" points="546,-56 414,-56 414,-37 546,-37 546,-56"/>
<text text-anchor="middle" x="480" y="-44" font-family="Helvetica,sans-Serif" font-size="10.00">c2q_ns_2_01_reg_exact</text>
</a>
</g>
</g>
<!-- Node2&#45;&gt;Node10 -->
<g id="edge10_Node000002_Node000010" class="edge">
<title>Node2&#45;&gt;Node10</title>
<g id="a_edge10_Node000002_Node000010"><a xlink:title=" ">
<path fill="none" stroke="#63b8ff" d="M571.82,-46.5C563.97,-46.5 555.17,-46.5 546.23,-46.5"/>
<polygon fill="#63b8ff" stroke="#63b8ff" points="571.87,-50 581.87,-46.5 571.87,-43 571.87,-50"/>
</a>
</g>
</g>
<!-- Node11 -->
<g id="Node000011" class="node">
<title>Node11</title>
<g id="a_Node000011"><a xlink:href="coefffunc_8cpp.html#a7c695fe49b1078f555ebea2fcf0937e7" target="_top" xlink:title="eq. (B.7) in [Vermaseren, Vogt, Moch; Nucl. Phys. B, 724 (1&#45;2), 3, 2005] This expression was obtained...">
<polygon fill="white" stroke="#666666" points="543,-19 417,-19 417,0 543,0 543,-19"/>
<text text-anchor="middle" x="480" y="-7" font-family="Helvetica,sans-Serif" font-size="10.00">c2q_ps_2_0_reg_exact</text>
</a>
</g>
</g>
<!-- Node2&#45;&gt;Node11 -->
<g id="edge12_Node000002_Node000011" class="edge">
<title>Node2&#45;&gt;Node11</title>
<g id="a_edge12_Node000002_Node000011"><a xlink:title=" ">
<path fill="none" stroke="#63b8ff" d="M572.34,-36.15C563.88,-33.25 554.6,-30.16 546,-27.5 536.6,-24.59 526.37,-21.66 516.87,-19.02"/>
<polygon fill="#63b8ff" stroke="#63b8ff" points="571.22,-39.47 581.82,-39.44 573.52,-32.86 571.22,-39.47"/>
</a>
</g>
</g>
<!-- Node4 -->
<g id="Node000004" class="node">
<title>Node4</title>
<g id="a_Node000004"><a xlink:href="structfunc_8cpp.html#a044b52046382624819e333543ca5a2a6" target="_top" xlink:title="Computes all contributions to F2 that need to be numerically integrated over, i.e....">
<polygon fill="white" stroke="#666666" points="378,-56 303,-56 303,-37 378,-37 378,-56"/>
<text text-anchor="middle" x="340.5" y="-44" font-family="Helvetica,sans-Serif" font-size="10.00">F2integrand</text>
</a>
</g>
</g>
<!-- Node3&#45;&gt;Node4 -->
<g id="edge3_Node000003_Node000004" class="edge">
<title>Node3&#45;&gt;Node4</title>
<g id="a_edge3_Node000003_Node000004"><a xlink:title=" ">
<path fill="none" stroke="#63b8ff" d="M433.7,-71.31C415.37,-66.38 394.51,-60.76 377.27,-56.12"/>
<polygon fill="#63b8ff" stroke="#63b8ff" points="433.02,-74.75 443.59,-73.97 434.84,-67.99 433.02,-74.75"/>
</a>
</g>
</g>
<!-- Node5 -->
<g id="Node000005" class="node">
<title>Node5</title>
<g id="a_Node000005"><a xlink:href="structfunc_8cpp.html#a44cedd32ed45579222c28d0552bfb79c" target="_top" xlink:title="transformation of F2integrand that samples closer to small z">
<polygon fill="white" stroke="#666666" points="267,-93 142,-93 142,-74 267,-74 267,-93"/>
<text text-anchor="middle" x="204.5" y="-81" font-family="Helvetica,sans-Serif" font-size="10.00">F2integrand_logtrafo1</text>
</a>
</g>
</g>
<!-- Node4&#45;&gt;Node5 -->
<g id="edge4_Node000004_Node000005" class="edge">
<title>Node4&#45;&gt;Node5</title>
<g id="a_edge4_Node000004_Node000005"><a xlink:title=" ">
<path fill="none" stroke="#63b8ff" d="M294.86,-58.83C277.11,-63.73 257,-69.28 240.36,-73.88"/>
<polygon fill="#63b8ff" stroke="#63b8ff" points="296.28,-62.06 304.99,-56.03 294.42,-55.32 296.28,-62.06"/>
</a>
</g>
</g>
<!-- Node8 -->
<g id="Node000008" class="node">
<title>Node8</title>
<g id="a_Node000008"><a xlink:href="structfunc_8cpp.html#a4e44bade023d83c7dc1b833a90262798" target="_top" xlink:title="transformation of F2integrand that samples closer to large z">
<polygon fill="white" stroke="#666666" points="267,-56 142,-56 142,-37 267,-37 267,-56"/>
<text text-anchor="middle" x="204.5" y="-44" font-family="Helvetica,sans-Serif" font-size="10.00">F2integrand_logtrafo2</text>
</a>
</g>
</g>
<!-- Node4&#45;&gt;Node8 -->
<g id="edge7_Node000004_Node000008" class="edge">
<title>Node4&#45;&gt;Node8</title>
<g id="a_edge7_Node000004_Node000008"><a xlink:title=" ">
<path fill="none" stroke="#63b8ff" d="M292.69,-46.5C284.41,-46.5 275.68,-46.5 267.07,-46.5"/>
<polygon fill="#63b8ff" stroke="#63b8ff" points="292.88,-50 302.88,-46.5 292.88,-43 292.88,-50"/>
</a>
</g>
</g>
<!-- Node9 -->
<g id="Node000009" class="node">
<title>Node9</title>
<g id="a_Node000009"><a xlink:href="testF2integrand_8cpp.html#ae66f6b31b5ad750f1fe042a706a4e3d4" target="_top" xlink:title=" ">
<polygon fill="white" stroke="#666666" points="225,-19 184,-19 184,0 225,0 225,-19"/>
<text text-anchor="middle" x="204.5" y="-7" font-family="Helvetica,sans-Serif" font-size="10.00">main</text>
</a>
</g>
</g>
<!-- Node4&#45;&gt;Node9 -->
<g id="edge9_Node000004_Node000009" class="edge">
<title>Node4&#45;&gt;Node9</title>
<g id="a_edge9_Node000004_Node000009"><a xlink:title=" ">
<path fill="none" stroke="#63b8ff" d="M295.17,-34.26C271.55,-27.74 243.67,-20.04 225.34,-14.98"/>
<polygon fill="#63b8ff" stroke="#63b8ff" points="294.42,-37.68 304.99,-36.97 296.28,-30.94 294.42,-37.68"/>
</a>
</g>
</g>
<!-- Node6 -->
<g id="Node000006" class="node">
<title>Node6</title>
<g id="a_Node000006"><a xlink:href="structfunc_8cpp.html#ae41cf5482bf531dd2f6525474e6a67b1" target="_top" xlink:title="massless electromagnetic structure functions F2 from photon interaction">
<polygon fill="white" stroke="#666666" points="106,-74 77,-74 77,-55 106,-55 106,-74"/>
<text text-anchor="middle" x="91.5" y="-62" font-family="Helvetica,sans-Serif" font-size="10.00">F2</text>
</a>
</g>
</g>
<!-- Node5&#45;&gt;Node6 -->
<g id="edge5_Node000005_Node000006" class="edge">
<title>Node5&#45;&gt;Node6</title>
<g id="a_edge5_Node000005_Node000006"><a xlink:title=" ">
<path fill="none" stroke="#63b8ff" d="M137.53,-72.21C125.57,-70.16 114.29,-68.23 106.01,-66.81"/>
<polygon fill="#63b8ff" stroke="#63b8ff" points="137.23,-75.71 147.67,-73.94 138.41,-68.81 137.23,-75.71"/>
</a>
</g>
</g>
<!-- Node7 -->
<g id="Node000007" class="node">
<title>Node7</title>
<g id="a_Node000007"><a xlink:href="teststructfunc_8cpp.html#ae66f6b31b5ad750f1fe042a706a4e3d4" target="_top" xlink:title=" ">
<polygon fill="white" stroke="#666666" points="41,-74 0,-74 0,-55 41,-55 41,-74"/>
<text text-anchor="middle" x="20.5" y="-62" font-family="Helvetica,sans-Serif" font-size="10.00">main</text>
</a>
</g>
</g>
<!-- Node6&#45;&gt;Node7 -->
<g id="edge6_Node000006_Node000007" class="edge">
<title>Node6&#45;&gt;Node7</title>
<g id="a_edge6_Node000006_Node000007"><a xlink:title=" ">
<path fill="none" stroke="#63b8ff" d="M66.63,-64.5C58.3,-64.5 49.06,-64.5 41.11,-64.5"/>
<polygon fill="#63b8ff" stroke="#63b8ff" points="66.87,-68 76.87,-64.5 66.87,-61 66.87,-68"/>
</a>
</g>
</g>
<!-- Node8&#45;&gt;Node6 -->
<g id="edge8_Node000008_Node000006" class="edge">
<title>Node8&#45;&gt;Node6</title>
<g id="a_edge8_Node000008_Node000006"><a xlink:title=" ">
<path fill="none" stroke="#63b8ff" d="M134.76,-57.65C124.03,-59.39 114.01,-61.01 106.42,-62.24"/>
<polygon fill="#63b8ff" stroke="#63b8ff" points="135.44,-61.08 144.75,-56.03 134.32,-54.17 135.44,-61.08"/>
</a>
</g>
</g>
<!-- Node10&#45;&gt;Node4 -->
<g id="edge11_Node000010_Node000004" class="edge">
<title>Node10&#45;&gt;Node4</title>
<g id="a_edge11_Node000010_Node000004"><a xlink:title=" ">
<path fill="none" stroke="#63b8ff" d="M403.85,-46.5C395,-46.5 386.29,-46.5 378.31,-46.5"/>
<polygon fill="#63b8ff" stroke="#63b8ff" points="403.87,-50 413.87,-46.5 403.87,-43 403.87,-50"/>
</a>
</g>
</g>
<!-- Node11&#45;&gt;Node4 -->
<g id="edge13_Node000011_Node000004" class="edge">
<title>Node11&#45;&gt;Node4</title>
<g id="a_edge13_Node000011_Node000004"><a xlink:title=" ">
<path fill="none" stroke="#63b8ff" d="M433.7,-21.69C415.37,-26.62 394.51,-32.24 377.27,-36.88"/>
<polygon fill="#63b8ff" stroke="#63b8ff" points="434.84,-25.01 443.59,-19.03 433.02,-18.25 434.84,-25.01"/>
</a>
</g>
</g>
</g>
</svg>
