<?xml version="1.0" encoding="UTF-8" standalone="no"?>
<!DOCTYPE svg PUBLIC "-//W3C//DTD SVG 1.1//EN"
 "http://www.w3.org/Graphics/SVG/1.1/DTD/svg11.dtd">
<!-- Generated by graphviz version 2.43.0 (0)
 -->
<!-- Title: Pdf::xf Pages: 1 -->
<svg width="640pt" height="206pt"
 viewBox="0.00 0.00 640.00 206.18" xmlns="http://www.w3.org/2000/svg" xmlns:xlink="http://www.w3.org/1999/xlink">
<g id="graph0" class="graph" transform="scale(1 1) rotate(0) translate(4 202.18)">
<title>Pdf::xf</title>
<!-- Node1 -->
<g id="Node000001" class="node">
<title>Node1</title>
<g id="a_Node000001"><a xlink:title=" ">
<polygon fill="#999999" stroke="#666666" points="632,-113 585,-113 585,-94 632,-94 632,-113"/>
<text text-anchor="middle" x="608.5" y="-101" font-family="Helvetica,sans-Serif" font-size="10.00">Pdf::xf</text>
</a>
</g>
</g>
<!-- Node2 -->
<g id="Node000002" class="node">
<title>Node2</title>
<g id="a_Node000002"><a xlink:href="structfunc_8cpp.html#ae41cf5482bf531dd2f6525474e6a67b1" target="_top" xlink:title="massless electromagnetic structure functions F2 from photon interaction">
<polygon fill="white" stroke="#666666" points="106,-151 77,-151 77,-132 106,-132 106,-151"/>
<text text-anchor="middle" x="91.5" y="-139" font-family="Helvetica,sans-Serif" font-size="10.00">F2</text>
</a>
</g>
</g>
<!-- Node1&#45;&gt;Node2 -->
<g id="edge1_Node000001_Node000002" class="edge">
<title>Node1&#45;&gt;Node2</title>
<g id="a_edge1_Node000001_Node000002"><a xlink:title=" ">
<path fill="none" stroke="#63b8ff" d="M594.54,-121.42C583.96,-134.43 567.72,-151.01 549,-158.5 381.07,-225.74 319.86,-193.46 142,-160.5 129.51,-158.19 116.1,-152.84 106.39,-148.41"/>
<polygon fill="#63b8ff" stroke="#63b8ff" points="597.59,-123.19 600.93,-113.14 592.05,-118.92 597.59,-123.19"/>
</a>
</g>
</g>
<!-- Node4 -->
<g id="Node000004" class="node">
<title>Node4</title>
<g id="a_Node000004"><a xlink:href="structfunc_8cpp.html#ae97306c88ea1474d650300c3d8e0546f" target="_top" xlink:title="implementation of [Laenen, Riemersma, Smith, v. Neerven; Nucl. Phys. B, 392 (1), 162,...">
<polygon fill="white" stroke="#666666" points="408,-95 303,-95 303,-76 408,-76 408,-95"/>
<text text-anchor="middle" x="355.5" y="-83" font-family="Helvetica,sans-Serif" font-size="10.00">F2heavyintegrand</text>
</a>
</g>
</g>
<!-- Node1&#45;&gt;Node4 -->
<g id="edge3_Node000001_Node000004" class="edge">
<title>Node1&#45;&gt;Node4</title>
<g id="a_edge3_Node000001_Node000004"><a xlink:title=" ">
<path fill="none" stroke="#63b8ff" d="M588.08,-87.76C577.27,-80.02 563.16,-71.51 549,-67.5 493.29,-51.73 425.25,-65.39 386.8,-75.97"/>
<polygon fill="#63b8ff" stroke="#63b8ff" points="586.22,-90.75 596.32,-93.97 590.44,-85.15 586.22,-90.75"/>
</a>
</g>
</g>
<!-- Node5 -->
<g id="Node000005" class="node">
<title>Node5</title>
<g id="a_Node000005"><a xlink:href="structfunc_8cpp.html#a044b52046382624819e333543ca5a2a6" target="_top" xlink:title="Computes all contributions to F2 that need to be numerically integrated over, i.e....">
<polygon fill="white" stroke="#666666" points="393,-132 318,-132 318,-113 393,-113 393,-132"/>
<text text-anchor="middle" x="355.5" y="-120" font-family="Helvetica,sans-Serif" font-size="10.00">F2integrand</text>
</a>
</g>
</g>
<!-- Node1&#45;&gt;Node5 -->
<g id="edge4_Node000001_Node000005" class="edge">
<title>Node1&#45;&gt;Node5</title>
<g id="a_edge4_Node000001_Node000005"><a xlink:title=" ">
<path fill="none" stroke="#63b8ff" d="M588.95,-119.54C578.09,-127.86 563.66,-137.16 549,-141.5 492.65,-158.19 423.39,-143.19 385.2,-132.02"/>
<polygon fill="#63b8ff" stroke="#63b8ff" points="591.23,-122.2 596.83,-113.2 586.84,-116.74 591.23,-122.2"/>
</a>
</g>
</g>
<!-- Node9 -->
<g id="Node000009" class="node">
<title>Node9</title>
<g id="a_Node000009"><a xlink:href="testF2heavyintegrand_8cpp.html#ae66f6b31b5ad750f1fe042a706a4e3d4" target="_top" xlink:title=" ">
<polygon fill="white" stroke="#666666" points="517,-19 476,-19 476,0 517,0 517,-19"/>
<text text-anchor="middle" x="496.5" y="-7" font-family="Helvetica,sans-Serif" font-size="10.00">main</text>
</a>
</g>
</g>
<!-- Node1&#45;&gt;Node9 -->
<g id="edge10_Node000001_Node000009" class="edge">
<title>Node1&#45;&gt;Node9</title>
<g id="a_edge10_Node000001_Node000009"><a xlink:title=" ">
<path fill="none" stroke="#63b8ff" d="M595.56,-85.1C584.84,-69.73 567.93,-48.05 549,-33.5 539.46,-26.17 527.32,-20.37 517.22,-16.31"/>
<polygon fill="#63b8ff" stroke="#63b8ff" points="592.89,-87.41 601.39,-93.74 598.69,-83.49 592.89,-87.41"/>
</a>
</g>
</g>
<!-- Node10 -->
<g id="Node000010" class="node">
<title>Node10</title>
<g id="a_Node000010"><a xlink:href="classPdf.html#a6065a88d8acf0096cceef987840bc0a6" target="_top" xlink:title="$\sum_i Q_i^2 x f(x,Q^2)$">
<polygon fill="white" stroke="#666666" points="540,-132 453,-132 453,-113 540,-113 540,-132"/>
<text text-anchor="middle" x="496.5" y="-120" font-family="Helvetica,sans-Serif" font-size="10.00">Pdf::xfiQi2sum</text>
</a>
</g>
</g>
<!-- Node1&#45;&gt;Node10 -->
<g id="edge11_Node000001_Node000010" class="edge">
<title>Node1&#45;&gt;Node10</title>
<g id="a_edge11_Node000001_Node000010"><a xlink:title=" ">
<path fill="none" stroke="#63b8ff" d="M574.98,-109.12C564.02,-111.01 551.63,-113.15 540.01,-115.16"/>
<polygon fill="#63b8ff" stroke="#63b8ff" points="575.72,-112.54 584.97,-107.39 574.52,-105.64 575.72,-112.54"/>
</a>
</g>
</g>
<!-- Node11 -->
<g id="Node000011" class="node">
<title>Node11</title>
<g id="a_Node000011"><a xlink:href="classPdf.html#a16b7d71ae024d46fff26cabedfe73da8" target="_top" xlink:title="x times singlet combination of quark PDFs">
<polygon fill="white" stroke="#666666" points="549,-95 444,-95 444,-76 549,-76 549,-95"/>
<text text-anchor="middle" x="496.5" y="-83" font-family="Helvetica,sans-Serif" font-size="10.00">Pdf::xfiSingletSum</text>
</a>
</g>
</g>
<!-- Node1&#45;&gt;Node11 -->
<g id="edge15_Node000001_Node000011" class="edge">
<title>Node1&#45;&gt;Node11</title>
<g id="a_edge15_Node000001_Node000011"><a xlink:title=" ">
<path fill="none" stroke="#63b8ff" d="M574.84,-98.15C566.72,-96.83 557.83,-95.37 549.06,-93.94"/>
<polygon fill="#63b8ff" stroke="#63b8ff" points="574.54,-101.65 584.97,-99.81 575.67,-94.74 574.54,-101.65"/>
</a>
</g>
</g>
<!-- Node3 -->
<g id="Node000003" class="node">
<title>Node3</title>
<g id="a_Node000003"><a xlink:href="teststructfunc_8cpp.html#ae66f6b31b5ad750f1fe042a706a4e3d4" target="_top" xlink:title=" ">
<polygon fill="white" stroke="#666666" points="41,-151 0,-151 0,-132 41,-132 41,-151"/>
<text text-anchor="middle" x="20.5" y="-139" font-family="Helvetica,sans-Serif" font-size="10.00">main</text>
</a>
</g>
</g>
<!-- Node2&#45;&gt;Node3 -->
<g id="edge2_Node000002_Node000003" class="edge">
<title>Node2&#45;&gt;Node3</title>
<g id="a_edge2_Node000002_Node000003"><a xlink:title=" ">
<path fill="none" stroke="#63b8ff" d="M66.63,-141.5C58.3,-141.5 49.06,-141.5 41.11,-141.5"/>
<polygon fill="#63b8ff" stroke="#63b8ff" points="66.87,-145 76.87,-141.5 66.87,-138 66.87,-145"/>
</a>
</g>
</g>
<!-- Node6 -->
<g id="Node000006" class="node">
<title>Node6</title>
<g id="a_Node000006"><a xlink:href="structfunc_8cpp.html#a44cedd32ed45579222c28d0552bfb79c" target="_top" xlink:title="transformation of F2integrand that samples closer to small z">
<polygon fill="white" stroke="#666666" points="267,-132 142,-132 142,-113 267,-113 267,-132"/>
<text text-anchor="middle" x="204.5" y="-120" font-family="Helvetica,sans-Serif" font-size="10.00">F2integrand_logtrafo1</text>
</a>
</g>
</g>
<!-- Node5&#45;&gt;Node6 -->
<g id="edge5_Node000005_Node000006" class="edge">
<title>Node5&#45;&gt;Node6</title>
<g id="a_edge5_Node000005_Node000006"><a xlink:title=" ">
<path fill="none" stroke="#63b8ff" d="M307.29,-122.5C294.54,-122.5 280.55,-122.5 267.13,-122.5"/>
<polygon fill="#63b8ff" stroke="#63b8ff" points="307.67,-126 317.67,-122.5 307.67,-119 307.67,-126"/>
</a>
</g>
</g>
<!-- Node7 -->
<g id="Node000007" class="node">
<title>Node7</title>
<g id="a_Node000007"><a xlink:href="structfunc_8cpp.html#a4e44bade023d83c7dc1b833a90262798" target="_top" xlink:title="transformation of F2integrand that samples closer to large z">
<polygon fill="white" stroke="#666666" points="267,-58 142,-58 142,-39 267,-39 267,-58"/>
<text text-anchor="middle" x="204.5" y="-46" font-family="Helvetica,sans-Serif" font-size="10.00">F2integrand_logtrafo2</text>
</a>
</g>
</g>
<!-- Node5&#45;&gt;Node7 -->
<g id="edge7_Node000005_Node000007" class="edge">
<title>Node5&#45;&gt;Node7</title>
<g id="a_edge7_Node000005_Node000007"><a xlink:title=" ">
<path fill="none" stroke="#63b8ff" d="M310.68,-108.82C308.02,-107.49 305.43,-106.05 303,-104.5 283.65,-92.16 286.57,-79.48 267,-67.5 260.81,-63.71 253.79,-60.62 246.77,-58.11"/>
<polygon fill="#63b8ff" stroke="#63b8ff" points="309.38,-112.07 319.94,-112.92 312.22,-105.67 309.38,-112.07"/>
</a>
</g>
</g>
<!-- Node8 -->
<g id="Node000008" class="node">
<title>Node8</title>
<g id="a_Node000008"><a xlink:href="testF2integrand_8cpp.html#ae66f6b31b5ad750f1fe042a706a4e3d4" target="_top" xlink:title=" ">
<polygon fill="white" stroke="#666666" points="225,-95 184,-95 184,-76 225,-76 225,-95"/>
<text text-anchor="middle" x="204.5" y="-83" font-family="Helvetica,sans-Serif" font-size="10.00">main</text>
</a>
</g>
</g>
<!-- Node5&#45;&gt;Node8 -->
<g id="edge9_Node000005_Node000008" class="edge">
<title>Node5&#45;&gt;Node8</title>
<g id="a_edge9_Node000005_Node000008"><a xlink:title=" ">
<path fill="none" stroke="#63b8ff" d="M307.71,-110.88C279.85,-103.96 245.95,-95.55 225.05,-90.35"/>
<polygon fill="#63b8ff" stroke="#63b8ff" points="307.12,-114.34 317.67,-113.35 308.81,-107.55 307.12,-114.34"/>
</a>
</g>
</g>
<!-- Node6&#45;&gt;Node2 -->
<g id="edge6_Node000006_Node000002" class="edge">
<title>Node6&#45;&gt;Node2</title>
<g id="a_edge6_Node000006_Node000002"><a xlink:title=" ">
<path fill="none" stroke="#63b8ff" d="M137.53,-133.79C125.57,-135.84 114.29,-137.77 106.01,-139.19"/>
<polygon fill="#63b8ff" stroke="#63b8ff" points="138.41,-137.19 147.67,-132.06 137.23,-130.29 138.41,-137.19"/>
</a>
</g>
</g>
<!-- Node7&#45;&gt;Node2 -->
<g id="edge8_Node000007_Node000002" class="edge">
<title>Node7&#45;&gt;Node2</title>
<g id="a_edge8_Node000007_Node000002"><a xlink:title=" ">
<path fill="none" stroke="#63b8ff" d="M150.04,-62.4C147.22,-63.93 144.52,-65.62 142,-67.5 118.95,-84.68 103.26,-115.96 96.41,-131.78"/>
<polygon fill="#63b8ff" stroke="#63b8ff" points="151.78,-65.46 159.37,-58.07 148.82,-59.11 151.78,-65.46"/>
</a>
</g>
</g>
<!-- Node10&#45;&gt;Node2 -->
<g id="edge12_Node000010_Node000002" class="edge">
<title>Node10&#45;&gt;Node2</title>
<g id="a_edge12_Node000010_Node000002"><a xlink:title=" ">
<path fill="none" stroke="#63b8ff" d="M450.05,-134.3C436.61,-137.26 421.79,-140.02 408,-141.5 291.72,-153.98 149.95,-145.64 106.09,-142.53"/>
<polygon fill="#63b8ff" stroke="#63b8ff" points="451.06,-137.66 460.02,-132.01 449.49,-130.83 451.06,-137.66"/>
</a>
</g>
</g>
<!-- Node10&#45;&gt;Node4 -->
<g id="edge13_Node000010_Node000004" class="edge">
<title>Node10&#45;&gt;Node4</title>
<g id="a_edge13_Node000010_Node000004"><a xlink:title=" ">
<path fill="none" stroke="#63b8ff" d="M449.97,-110.38C431.37,-105.43 410.16,-99.78 392.66,-95.12"/>
<polygon fill="#63b8ff" stroke="#63b8ff" points="449.14,-113.78 459.7,-112.97 450.94,-107.02 449.14,-113.78"/>
</a>
</g>
</g>
<!-- Node10&#45;&gt;Node5 -->
<g id="edge14_Node000010_Node000005" class="edge">
<title>Node10&#45;&gt;Node5</title>
<g id="a_edge14_Node000010_Node000005"><a xlink:title=" ">
<path fill="none" stroke="#63b8ff" d="M442.63,-122.5C426.19,-122.5 408.43,-122.5 393.33,-122.5"/>
<polygon fill="#63b8ff" stroke="#63b8ff" points="442.66,-126 452.66,-122.5 442.66,-119 442.66,-126"/>
</a>
</g>
</g>
<!-- Node11&#45;&gt;Node4 -->
<g id="edge16_Node000011_Node000004" class="edge">
<title>Node11&#45;&gt;Node4</title>
<g id="a_edge16_Node000011_Node000004"><a xlink:title=" ">
<path fill="none" stroke="#63b8ff" d="M433.56,-85.5C425.12,-85.5 416.53,-85.5 408.3,-85.5"/>
<polygon fill="#63b8ff" stroke="#63b8ff" points="433.74,-89 443.74,-85.5 433.74,-82 433.74,-89"/>
</a>
</g>
</g>
<!-- Node11&#45;&gt;Node5 -->
<g id="edge17_Node000011_Node000005" class="edge">
<title>Node11&#45;&gt;Node5</title>
<g id="a_edge17_Node000011_Node000005"><a xlink:title=" ">
<path fill="none" stroke="#63b8ff" d="M449.97,-97.62C431.37,-102.57 410.16,-108.22 392.66,-112.88"/>
<polygon fill="#63b8ff" stroke="#63b8ff" points="450.94,-100.98 459.7,-95.03 449.14,-94.22 450.94,-100.98"/>
</a>
</g>
</g>
</g>
</svg>
