<?xml version="1.0" encoding="UTF-8" standalone="no"?>
<!DOCTYPE svg PUBLIC "-//W3C//DTD SVG 1.1//EN"
 "http://www.w3.org/Graphics/SVG/1.1/DTD/svg11.dtd">
<!-- Generated by graphviz version 2.43.0 (0)
 -->
<!-- Title: Pdf::alphas Pages: 1 -->
<svg width="225pt" height="27pt"
 viewBox="0.00 0.00 225.00 27.00" xmlns="http://www.w3.org/2000/svg" xmlns:xlink="http://www.w3.org/1999/xlink">
<g id="graph0" class="graph" transform="scale(1 1) rotate(0) translate(4 23)">
<title>Pdf::alphas</title>
<!-- Node1 -->
<g id="Node000001" class="node">
<title>Node1</title>
<g id="a_Node000001"><a xlink:title=" ">
<polygon fill="#999999" stroke="#666666" points="70,-19 0,-19 0,0 70,0 70,-19"/>
<text text-anchor="middle" x="35" y="-7" font-family="Helvetica,sans-Serif" font-size="10.00">Pdf::alphas</text>
</a>
</g>
</g>
<!-- Node2 -->
<g id="Node000002" class="node">
<title>Node2</title>
<g id="a_Node000002"><a xlink:href="pdf_8cpp.html#a14bf67cdb9f9b37c6c440904ed983e78" target="_top" xlink:title="add here the PDF sampling functionality from openQCDrad such that we can compare predicitions">
<polygon fill="white" stroke="#666666" points="141,-19 106,-19 106,0 141,0 141,-19"/>
<text text-anchor="middle" x="123.5" y="-7" font-family="Helvetica,sans-Serif" font-size="10.00">xqg</text>
</a>
</g>
</g>
<!-- Node1&#45;&gt;Node2 -->
<g id="edge1_Node000001_Node000002" class="edge">
<title>Node1&#45;&gt;Node2</title>
<g id="a_edge1_Node000001_Node000002"><a xlink:title=" ">
<path fill="none" stroke="#63b8ff" d="M70.19,-9.5C78.72,-9.5 87.75,-9.5 95.87,-9.5"/>
<polygon fill="#63b8ff" stroke="#63b8ff" points="95.88,-13 105.88,-9.5 95.88,-6 95.88,-13"/>
</a>
</g>
</g>
<!-- Node3 -->
<g id="Node000003" class="node">
<title>Node3</title>
<g id="a_Node000003"><a xlink:href="fortransymbols_8h.html#acb54bff484c2dd77796eafee4e46516d" target="_top" xlink:title=" ">
<polygon fill="white" stroke="#666666" points="217,-19 177,-19 177,0 217,0 217,-19"/>
<text text-anchor="middle" x="197" y="-7" font-family="Helvetica,sans-Serif" font-size="10.00">xqg_</text>
</a>
</g>
</g>
<!-- Node2&#45;&gt;Node3 -->
<g id="edge2_Node000002_Node000003" class="edge">
<title>Node2&#45;&gt;Node3</title>
<g id="a_edge2_Node000002_Node000003"><a xlink:title=" ">
<path fill="none" stroke="#63b8ff" d="M141.08,-9.5C148.71,-9.5 157.99,-9.5 166.73,-9.5"/>
<polygon fill="#63b8ff" stroke="#63b8ff" points="166.98,-13 176.98,-9.5 166.98,-6 166.98,-13"/>
</a>
</g>
</g>
</g>
</svg>
