<?xml version="1.0" encoding="UTF-8" standalone="no"?>
<!DOCTYPE svg PUBLIC "-//W3C//DTD SVG 1.1//EN"
 "http://www.w3.org/Graphics/SVG/1.1/DTD/svg11.dtd">
<!-- Generated by graphviz version 2.43.0 (0)
 -->
<!-- Title: Pdf::get Pages: 1 -->
<svg width="500pt" height="120pt"
 viewBox="0.00 0.00 500.00 120.21" xmlns="http://www.w3.org/2000/svg" xmlns:xlink="http://www.w3.org/1999/xlink">
<g id="graph0" class="graph" transform="scale(1 1) rotate(0) translate(4 116.21)">
<title>Pdf::get</title>
<!-- Node1 -->
<g id="Node000001" class="node">
<title>Node1</title>
<g id="a_Node000001"><a xlink:title=" ">
<polygon fill="#999999" stroke="#666666" points="492,-81.3 439,-81.3 439,-62.3 492,-62.3 492,-81.3"/>
<text text-anchor="middle" x="465.5" y="-69.3" font-family="Helvetica,sans-Serif" font-size="10.00">Pdf::get</text>
</a>
</g>
</g>
<!-- Node2 -->
<g id="Node000002" class="node">
<title>Node2</title>
<g id="a_Node000002"><a xlink:href="structfunc_8h.html#acf0236700b00bcb374259219e1fedc05" target="_top" xlink:title=" ">
<polygon fill="white" stroke="#666666" points="29,-62.3 0,-62.3 0,-43.3 29,-43.3 29,-62.3"/>
<text text-anchor="middle" x="14.5" y="-50.3" font-family="Helvetica,sans-Serif" font-size="10.00">F2</text>
</a>
</g>
</g>
<!-- Node1&#45;&gt;Node2 -->
<g id="edge1_Node000001_Node000002" class="edge">
<title>Node1&#45;&gt;Node2</title>
<g id="a_edge1_Node000001_Node000002"><a xlink:title=" ">
<path fill="none" stroke="#63b8ff" d="M429.01,-81.97C357.75,-100.56 193.15,-134.32 65,-90.8 48.59,-85.23 33.35,-71.78 24.24,-62.48"/>
<polygon fill="#63b8ff" stroke="#63b8ff" points="430.07,-85.31 438.83,-79.34 428.26,-78.54 430.07,-85.31"/>
</a>
</g>
</g>
<!-- Node3 -->
<g id="Node000003" class="node">
<title>Node3</title>
<g id="a_Node000003"><a xlink:href="structfunc_8h.html#aa4dc5cbd2ddc07970850d275ce8b8a44" target="_top" xlink:title="Computes all contributions to F2 that need to be integrated over, i.e. all contributions from coeffic...">
<polygon fill="white" stroke="#666666" points="301,-63.3 226,-63.3 226,-44.3 301,-44.3 301,-63.3"/>
<text text-anchor="middle" x="263.5" y="-51.3" font-family="Helvetica,sans-Serif" font-size="10.00">F2integrand</text>
</a>
</g>
</g>
<!-- Node1&#45;&gt;Node3 -->
<g id="edge2_Node000001_Node000003" class="edge">
<title>Node1&#45;&gt;Node3</title>
<g id="a_edge2_Node000001_Node000003"><a xlink:title=" ">
<path fill="none" stroke="#63b8ff" d="M428.72,-68.58C392.78,-65.35 337.66,-60.39 301.34,-57.12"/>
<polygon fill="#63b8ff" stroke="#63b8ff" points="428.49,-72.08 438.76,-69.49 429.12,-65.11 428.49,-72.08"/>
</a>
</g>
</g>
<!-- Node6 -->
<g id="Node000006" class="node">
<title>Node6</title>
<g id="a_Node000006"><a xlink:href="pdf_8h.html#a9baddbed7ad5f04071a998eb417a5b31" target="_top" xlink:title="Computes $\sum_i Q_i^2 x f(x,Q^2)$.">
<polygon fill="white" stroke="#666666" points="403,-43.3 337,-43.3 337,-24.3 403,-24.3 403,-43.3"/>
<text text-anchor="middle" x="370" y="-31.3" font-family="Helvetica,sans-Serif" font-size="10.00">xfiQi2sum</text>
</a>
</g>
</g>
<!-- Node1&#45;&gt;Node6 -->
<g id="edge7_Node000001_Node000006" class="edge">
<title>Node1&#45;&gt;Node6</title>
<g id="a_edge7_Node000001_Node000006"><a xlink:title=" ">
<path fill="none" stroke="#63b8ff" d="M431.5,-58.39C419.32,-53.44 405.77,-47.93 394.59,-43.39"/>
<polygon fill="#63b8ff" stroke="#63b8ff" points="430.32,-61.69 440.91,-62.21 432.96,-55.21 430.32,-61.69"/>
</a>
</g>
</g>
<!-- Node4 -->
<g id="Node000004" class="node">
<title>Node4</title>
<g id="a_Node000004"><a xlink:href="structfunc_8h.html#a72b9ad89e5a9cd71c67bbf6b73cfb3d6" target="_top" xlink:title=" ">
<polygon fill="white" stroke="#666666" points="190,-81.3 65,-81.3 65,-62.3 190,-62.3 190,-81.3"/>
<text text-anchor="middle" x="127.5" y="-69.3" font-family="Helvetica,sans-Serif" font-size="10.00">F2integrand_logtrafo0</text>
</a>
</g>
</g>
<!-- Node3&#45;&gt;Node4 -->
<g id="edge3_Node000003_Node000004" class="edge">
<title>Node3&#45;&gt;Node4</title>
<g id="a_edge3_Node000003_Node000004"><a xlink:title=" ">
<path fill="none" stroke="#63b8ff" d="M215.96,-60.06C207.6,-61.18 198.78,-62.36 190.07,-63.53"/>
<polygon fill="#63b8ff" stroke="#63b8ff" points="216.44,-63.52 225.88,-58.72 215.51,-56.59 216.44,-63.52"/>
</a>
</g>
</g>
<!-- Node5 -->
<g id="Node000005" class="node">
<title>Node5</title>
<g id="a_Node000005"><a xlink:href="structfunc_8h.html#a4c319327b228b6185e2cd88bf2c4b4f2" target="_top" xlink:title=" ">
<polygon fill="white" stroke="#666666" points="190,-44.3 65,-44.3 65,-25.3 190,-25.3 190,-44.3"/>
<text text-anchor="middle" x="127.5" y="-32.3" font-family="Helvetica,sans-Serif" font-size="10.00">F2integrand_logtrafo1</text>
</a>
</g>
</g>
<!-- Node3&#45;&gt;Node5 -->
<g id="edge5_Node000003_Node000005" class="edge">
<title>Node3&#45;&gt;Node5</title>
<g id="a_edge5_Node000003_Node000005"><a xlink:title=" ">
<path fill="none" stroke="#63b8ff" d="M215.96,-47.21C207.6,-46.02 198.78,-44.77 190.07,-43.53"/>
<polygon fill="#63b8ff" stroke="#63b8ff" points="215.49,-50.67 225.88,-48.61 216.47,-43.74 215.49,-50.67"/>
</a>
</g>
</g>
<!-- Node4&#45;&gt;Node2 -->
<g id="edge4_Node000004_Node000002" class="edge">
<title>Node4&#45;&gt;Node2</title>
<g id="a_edge4_Node000004_Node000002"><a xlink:title=" ">
<path fill="none" stroke="#63b8ff" d="M60.53,-60.51C48.57,-58.47 37.29,-56.53 29.01,-55.12"/>
<polygon fill="#63b8ff" stroke="#63b8ff" points="60.23,-64.01 70.67,-62.25 61.41,-57.11 60.23,-64.01"/>
</a>
</g>
</g>
<!-- Node5&#45;&gt;Node2 -->
<g id="edge6_Node000005_Node000002" class="edge">
<title>Node5&#45;&gt;Node2</title>
<g id="a_edge6_Node000005_Node000002"><a xlink:title=" ">
<path fill="none" stroke="#63b8ff" d="M57.76,-45.95C47.03,-47.69 37.01,-49.32 29.42,-50.55"/>
<polygon fill="#63b8ff" stroke="#63b8ff" points="58.44,-49.39 67.75,-44.33 57.32,-42.48 58.44,-49.39"/>
</a>
</g>
</g>
<!-- Node6&#45;&gt;Node2 -->
<g id="edge8_Node000006_Node000002" class="edge">
<title>Node6&#45;&gt;Node2</title>
<g id="a_edge8_Node000006_Node000002"><a xlink:title=" ">
<path fill="none" stroke="#63b8ff" d="M327.07,-21.71C267.23,-6.57 154.64,13.99 65,-15.8 48.91,-21.15 33.83,-33.99 24.64,-43.04"/>
<polygon fill="#63b8ff" stroke="#63b8ff" points="326.36,-25.14 336.92,-24.27 328.12,-18.37 326.36,-25.14"/>
</a>
</g>
</g>
<!-- Node6&#45;&gt;Node3 -->
<g id="edge9_Node000006_Node000003" class="edge">
<title>Node6&#45;&gt;Node3</title>
<g id="a_edge9_Node000006_Node000003"><a xlink:title=" ">
<path fill="none" stroke="#63b8ff" d="M326.71,-41.9C318.25,-43.52 309.42,-45.21 301.17,-46.79"/>
<polygon fill="#63b8ff" stroke="#63b8ff" points="327.63,-45.29 336.79,-39.97 326.31,-38.41 327.63,-45.29"/>
</a>
</g>
</g>
</g>
</svg>
