<?xml version="1.0" encoding="UTF-8" standalone="no"?>
<!DOCTYPE svg PUBLIC "-//W3C//DTD SVG 1.1//EN"
 "http://www.w3.org/Graphics/SVG/1.1/DTD/svg11.dtd">
<!-- Generated by graphviz version 2.43.0 (0)
 -->
<!-- Title: c2q_1_0_plus Pages: 1 -->
<svg width="427pt" height="64pt"
 viewBox="0.00 0.00 427.00 64.00" xmlns="http://www.w3.org/2000/svg" xmlns:xlink="http://www.w3.org/1999/xlink">
<g id="graph0" class="graph" transform="scale(1 1) rotate(0) translate(4 60)">
<title>c2q_1_0_plus</title>
<!-- Node1 -->
<g id="Node000001" class="node">
<title>Node1</title>
<g id="a_Node000001"><a xlink:title="from [Zijlstra, van Neerven; Nucl. Phys. B. 383 (3), 525, 1992] eq. B.2">
<polygon fill="#999999" stroke="#666666" points="419,-37 337,-37 337,-18 419,-18 419,-37"/>
<text text-anchor="middle" x="378" y="-25" font-family="Helvetica,sans-Serif" font-size="10.00">c2q_1_0_plus</text>
</a>
</g>
</g>
<!-- Node2 -->
<g id="Node000002" class="node">
<title>Node2</title>
<g id="a_Node000002"><a xlink:href="structfunc_8h.html#aa4dc5cbd2ddc07970850d275ce8b8a44" target="_top" xlink:title="Computes all contributions to F2 that need to be integrated over, i.e. all contributions from coeffic...">
<polygon fill="white" stroke="#666666" points="301,-37 226,-37 226,-18 301,-18 301,-37"/>
<text text-anchor="middle" x="263.5" y="-25" font-family="Helvetica,sans-Serif" font-size="10.00">F2integrand</text>
</a>
</g>
</g>
<!-- Node1&#45;&gt;Node2 -->
<g id="edge1_Node000001_Node000002" class="edge">
<title>Node1&#45;&gt;Node2</title>
<g id="a_edge1_Node000001_Node000002"><a xlink:title=" ">
<path fill="none" stroke="#63b8ff" d="M326.45,-27.5C317.93,-27.5 309.23,-27.5 301.15,-27.5"/>
<polygon fill="#63b8ff" stroke="#63b8ff" points="326.7,-31 336.7,-27.5 326.7,-24 326.7,-31"/>
</a>
</g>
</g>
<!-- Node3 -->
<g id="Node000003" class="node">
<title>Node3</title>
<g id="a_Node000003"><a xlink:href="structfunc_8h.html#a72b9ad89e5a9cd71c67bbf6b73cfb3d6" target="_top" xlink:title=" ">
<polygon fill="white" stroke="#666666" points="190,-56 65,-56 65,-37 190,-37 190,-56"/>
<text text-anchor="middle" x="127.5" y="-44" font-family="Helvetica,sans-Serif" font-size="10.00">F2integrand_logtrafo0</text>
</a>
</g>
</g>
<!-- Node2&#45;&gt;Node3 -->
<g id="edge2_Node000002_Node000003" class="edge">
<title>Node2&#45;&gt;Node3</title>
<g id="a_edge2_Node000002_Node000003"><a xlink:title=" ">
<path fill="none" stroke="#63b8ff" d="M215.96,-34.1C207.6,-35.28 198.78,-36.54 190.07,-37.77"/>
<polygon fill="#63b8ff" stroke="#63b8ff" points="216.47,-37.56 225.88,-32.69 215.49,-30.63 216.47,-37.56"/>
</a>
</g>
</g>
<!-- Node5 -->
<g id="Node000005" class="node">
<title>Node5</title>
<g id="a_Node000005"><a xlink:href="structfunc_8h.html#a4c319327b228b6185e2cd88bf2c4b4f2" target="_top" xlink:title=" ">
<polygon fill="white" stroke="#666666" points="190,-19 65,-19 65,0 190,0 190,-19"/>
<text text-anchor="middle" x="127.5" y="-7" font-family="Helvetica,sans-Serif" font-size="10.00">F2integrand_logtrafo1</text>
</a>
</g>
</g>
<!-- Node2&#45;&gt;Node5 -->
<g id="edge4_Node000002_Node000005" class="edge">
<title>Node2&#45;&gt;Node5</title>
<g id="a_edge4_Node000002_Node000005"><a xlink:title=" ">
<path fill="none" stroke="#63b8ff" d="M215.96,-21.25C207.6,-20.13 198.78,-18.94 190.07,-17.77"/>
<polygon fill="#63b8ff" stroke="#63b8ff" points="215.51,-24.72 225.88,-22.58 216.44,-17.78 215.51,-24.72"/>
</a>
</g>
</g>
<!-- Node4 -->
<g id="Node000004" class="node">
<title>Node4</title>
<g id="a_Node000004"><a xlink:href="structfunc_8h.html#acf0236700b00bcb374259219e1fedc05" target="_top" xlink:title=" ">
<polygon fill="white" stroke="#666666" points="29,-37 0,-37 0,-18 29,-18 29,-37"/>
<text text-anchor="middle" x="14.5" y="-25" font-family="Helvetica,sans-Serif" font-size="10.00">F2</text>
</a>
</g>
</g>
<!-- Node3&#45;&gt;Node4 -->
<g id="edge3_Node000003_Node000004" class="edge">
<title>Node3&#45;&gt;Node4</title>
<g id="a_edge3_Node000003_Node000004"><a xlink:title=" ">
<path fill="none" stroke="#63b8ff" d="M60.53,-35.21C48.57,-33.16 37.29,-31.23 29.01,-29.81"/>
<polygon fill="#63b8ff" stroke="#63b8ff" points="60.23,-38.71 70.67,-36.94 61.41,-31.81 60.23,-38.71"/>
</a>
</g>
</g>
<!-- Node5&#45;&gt;Node4 -->
<g id="edge5_Node000005_Node000004" class="edge">
<title>Node5&#45;&gt;Node4</title>
<g id="a_edge5_Node000005_Node000004"><a xlink:title=" ">
<path fill="none" stroke="#63b8ff" d="M57.76,-20.65C47.03,-22.39 37.01,-24.01 29.42,-25.24"/>
<polygon fill="#63b8ff" stroke="#63b8ff" points="58.44,-24.08 67.75,-19.03 57.32,-17.17 58.44,-24.08"/>
</a>
</g>
</g>
</g>
</svg>
