<?xml version="1.0" encoding="UTF-8" standalone="no"?>
<!DOCTYPE svg PUBLIC "-//W3C//DTD SVG 1.1//EN"
 "http://www.w3.org/Graphics/SVG/1.1/DTD/svg11.dtd">
<!-- Generated by graphviz version 2.43.0 (0)
 -->
<!-- Title: include/constants.h Pages: 1 -->
<svg width="263pt" height="192pt"
 viewBox="0.00 0.00 263.00 192.00" xmlns="http://www.w3.org/2000/svg" xmlns:xlink="http://www.w3.org/1999/xlink">
<g id="graph0" class="graph" transform="scale(1 1) rotate(0) translate(4 188)">
<title>include/constants.h</title>
<!-- Node1 -->
<g id="Node000001" class="node">
<title>Node1</title>
<g id="a_Node000001"><a xlink:title=" ">
<polygon fill="#999999" stroke="#666666" points="193,-184 82,-184 82,-165 193,-165 193,-184"/>
<text text-anchor="middle" x="137.5" y="-172" font-family="Helvetica,sans-Serif" font-size="10.00">include/constants.h</text>
</a>
</g>
</g>
<!-- Node2 -->
<g id="Node000002" class="node">
<title>Node2</title>
<g id="a_Node000002"><a xlink:href="coefffunc_8h.html" target="_top" xlink:title=" ">
<polygon fill="white" stroke="#666666" points="109,-129 0,-129 0,-110 109,-110 109,-129"/>
<text text-anchor="middle" x="54.5" y="-117" font-family="Helvetica,sans-Serif" font-size="10.00">include/coefffunc.h</text>
</a>
</g>
</g>
<!-- Node1&#45;&gt;Node2 -->
<g id="edge1_Node000001_Node000002" class="edge">
<title>Node1&#45;&gt;Node2</title>
<g id="a_edge1_Node000001_Node000002"><a xlink:title=" ">
<path fill="none" stroke="#63b8ff" d="M115.46,-159.42C100.39,-149.81 80.91,-137.37 68.08,-129.17"/>
<polygon fill="#63b8ff" stroke="#63b8ff" points="113.85,-162.55 124.16,-164.98 117.62,-156.65 113.85,-162.55"/>
</a>
</g>
</g>
<!-- Node3 -->
<g id="Node000003" class="node">
<title>Node3</title>
<g id="a_Node000003"><a xlink:href="structfunc_8h.html" target="_top" xlink:title=" ">
<polygon fill="white" stroke="#666666" points="152,-74 39,-74 39,-55 152,-55 152,-74"/>
<text text-anchor="middle" x="95.5" y="-62" font-family="Helvetica,sans-Serif" font-size="10.00">include/structfunc.h</text>
</a>
</g>
</g>
<!-- Node1&#45;&gt;Node3 -->
<g id="edge4_Node000001_Node000003" class="edge">
<title>Node1&#45;&gt;Node3</title>
<g id="a_edge4_Node000001_Node000003"><a xlink:title=" ">
<path fill="none" stroke="#63b8ff" d="M132.88,-154.76C129.48,-141.94 124.43,-124.69 118.5,-110 113.29,-97.1 105.61,-82.94 100.58,-74.14"/>
<polygon fill="#63b8ff" stroke="#63b8ff" points="129.55,-155.88 135.42,-164.7 136.33,-154.14 129.55,-155.88"/>
</a>
</g>
</g>
<!-- Node5 -->
<g id="Node000005" class="node">
<title>Node5</title>
<g id="a_Node000005"><a xlink:href="specV2_8cpp.html" target="_top" xlink:title=" ">
<polygon fill="white" stroke="#666666" points="255,-129 166,-129 166,-110 255,-110 255,-129"/>
<text text-anchor="middle" x="210.5" y="-117" font-family="Helvetica,sans-Serif" font-size="10.00">src/specV2.cpp</text>
</a>
</g>
</g>
<!-- Node1&#45;&gt;Node5 -->
<g id="edge5_Node000001_Node000005" class="edge">
<title>Node1&#45;&gt;Node5</title>
<g id="a_edge5_Node000001_Node000005"><a xlink:title=" ">
<path fill="none" stroke="#63b8ff" d="M157.64,-158.88C170.78,-149.34 187.48,-137.21 198.56,-129.17"/>
<polygon fill="#63b8ff" stroke="#63b8ff" points="155.26,-156.28 149.23,-164.98 159.38,-161.94 155.26,-156.28"/>
</a>
</g>
</g>
<!-- Node2&#45;&gt;Node3 -->
<g id="edge2_Node000002_Node000003" class="edge">
<title>Node2&#45;&gt;Node3</title>
<g id="a_edge2_Node000002_Node000003"><a xlink:title=" ">
<path fill="none" stroke="#63b8ff" d="M67.52,-101.67C74.62,-92.5 83.1,-81.52 88.86,-74.09"/>
<polygon fill="#63b8ff" stroke="#63b8ff" points="64.62,-99.7 61.27,-109.75 70.16,-103.98 64.62,-99.7"/>
</a>
</g>
</g>
<!-- Node4 -->
<g id="Node000004" class="node">
<title>Node4</title>
<g id="a_Node000004"><a xlink:href="structfunctest_8cpp.html" target="_top" xlink:title=" ">
<polygon fill="white" stroke="#666666" points="156.5,-19 34.5,-19 34.5,0 156.5,0 156.5,-19"/>
<text text-anchor="middle" x="95.5" y="-7" font-family="Helvetica,sans-Serif" font-size="10.00">src/structfunctest.cpp</text>
</a>
</g>
</g>
<!-- Node3&#45;&gt;Node4 -->
<g id="edge3_Node000003_Node000004" class="edge">
<title>Node3&#45;&gt;Node4</title>
<g id="a_edge3_Node000003_Node000004"><a xlink:title=" ">
<path fill="none" stroke="#63b8ff" d="M95.5,-44.66C95.5,-35.93 95.5,-25.99 95.5,-19.09"/>
<polygon fill="#63b8ff" stroke="#63b8ff" points="92,-44.75 95.5,-54.75 99,-44.75 92,-44.75"/>
</a>
</g>
</g>
</g>
</svg>
