<?xml version="1.0" encoding="UTF-8" standalone="no"?>
<!DOCTYPE svg PUBLIC "-//W3C//DTD SVG 1.1//EN"
 "http://www.w3.org/Graphics/SVG/1.1/DTD/svg11.dtd">
<!-- Generated by graphviz version 2.43.0 (0)
 -->
<!-- Title: include/debugmsg.h Pages: 1 -->
<svg width="281pt" height="192pt"
 viewBox="0.00 0.00 280.50 192.00" xmlns="http://www.w3.org/2000/svg" xmlns:xlink="http://www.w3.org/1999/xlink">
<g id="graph0" class="graph" transform="scale(1 1) rotate(0) translate(4 188)">
<title>include/debugmsg.h</title>
<!-- Node1 -->
<g id="Node000001" class="node">
<title>Node1</title>
<g id="a_Node000001"><a xlink:title=" ">
<polygon fill="#999999" stroke="#666666" points="272.5,-184 157.5,-184 157.5,-165 272.5,-165 272.5,-184"/>
<text text-anchor="middle" x="215" y="-172" font-family="Helvetica,sans-Serif" font-size="10.00">include/debugmsg.h</text>
</a>
</g>
</g>
<!-- Node2 -->
<g id="Node000002" class="node">
<title>Node2</title>
<g id="a_Node000002"><a xlink:href="uninitfunc_8h.html" target="_top" xlink:title=" ">
<polygon fill="white" stroke="#666666" points="229.5,-129 116.5,-129 116.5,-110 229.5,-110 229.5,-129"/>
<text text-anchor="middle" x="173" y="-117" font-family="Helvetica,sans-Serif" font-size="10.00">include/uninitfunc.h</text>
</a>
</g>
</g>
<!-- Node1&#45;&gt;Node2 -->
<g id="edge1_Node000001_Node000002" class="edge">
<title>Node1&#45;&gt;Node2</title>
<g id="a_edge1_Node000001_Node000002"><a xlink:title=" ">
<path fill="none" stroke="#63b8ff" d="M201.67,-156.67C194.39,-147.5 185.7,-136.52 179.81,-129.09"/>
<polygon fill="#63b8ff" stroke="#63b8ff" points="199.11,-159.08 208.06,-164.75 204.6,-154.74 199.11,-159.08"/>
</a>
</g>
</g>
<!-- Node4 -->
<g id="Node000004" class="node">
<title>Node4</title>
<g id="a_Node000004"><a xlink:href="specV2_8cpp.html" target="_top" xlink:title=" ">
<polygon fill="white" stroke="#666666" points="223.5,-19 134.5,-19 134.5,0 223.5,0 223.5,-19"/>
<text text-anchor="middle" x="179" y="-7" font-family="Helvetica,sans-Serif" font-size="10.00">src/specV2.cpp</text>
</a>
</g>
</g>
<!-- Node1&#45;&gt;Node4 -->
<g id="edge6_Node000001_Node000004" class="edge">
<title>Node1&#45;&gt;Node4</title>
<g id="a_edge6_Node000001_Node000004"><a xlink:title=" ">
<path fill="none" stroke="#63b8ff" d="M226.42,-156.15C230.98,-148.22 235.69,-138.49 238,-129 245.77,-97.04 252.67,-84.44 238,-55 229.76,-38.46 212.12,-26.45 198.27,-19.1"/>
<polygon fill="#63b8ff" stroke="#63b8ff" points="223.36,-154.45 221.1,-164.8 229.32,-158.11 223.36,-154.45"/>
</a>
</g>
</g>
<!-- Node3 -->
<g id="Node000003" class="node">
<title>Node3</title>
<g id="a_Node000003"><a xlink:href="freezeout_8h.html" target="_top" xlink:title=" ">
<polygon fill="white" stroke="#666666" points="110,-74 0,-74 0,-55 110,-55 110,-74"/>
<text text-anchor="middle" x="55" y="-62" font-family="Helvetica,sans-Serif" font-size="10.00">include/freezeout.h</text>
</a>
</g>
</g>
<!-- Node2&#45;&gt;Node3 -->
<g id="edge2_Node000002_Node000003" class="edge">
<title>Node2&#45;&gt;Node3</title>
<g id="a_edge2_Node000002_Node000003"><a xlink:title=" ">
<path fill="none" stroke="#63b8ff" d="M144.65,-105.77C122.88,-95.99 93.41,-82.75 74.3,-74.17"/>
<polygon fill="#63b8ff" stroke="#63b8ff" points="143.49,-109.08 154.04,-109.98 146.35,-102.69 143.49,-109.08"/>
</a>
</g>
</g>
<!-- Node5 -->
<g id="Node000005" class="node">
<title>Node5</title>
<g id="a_Node000005"><a xlink:href="initdata_8h.html" target="_top" xlink:title=" ">
<polygon fill="white" stroke="#666666" points="229.5,-74 128.5,-74 128.5,-55 229.5,-55 229.5,-74"/>
<text text-anchor="middle" x="179" y="-62" font-family="Helvetica,sans-Serif" font-size="10.00">include/initdata.h</text>
</a>
</g>
</g>
<!-- Node2&#45;&gt;Node5 -->
<g id="edge4_Node000002_Node000005" class="edge">
<title>Node2&#45;&gt;Node5</title>
<g id="a_edge4_Node000002_Node000005"><a xlink:title=" ">
<path fill="none" stroke="#63b8ff" d="M175.13,-99.66C176.12,-90.93 177.25,-80.99 178.03,-74.09"/>
<polygon fill="#63b8ff" stroke="#63b8ff" points="171.64,-99.42 173.99,-109.75 178.59,-100.21 171.64,-99.42"/>
</a>
</g>
</g>
<!-- Node3&#45;&gt;Node4 -->
<g id="edge3_Node000003_Node000004" class="edge">
<title>Node3&#45;&gt;Node4</title>
<g id="a_edge3_Node000003_Node000004"><a xlink:title=" ">
<path fill="none" stroke="#63b8ff" d="M84.18,-51.03C107.11,-41.23 138.45,-27.83 158.71,-19.17"/>
<polygon fill="#63b8ff" stroke="#63b8ff" points="82.74,-47.84 74.92,-54.98 85.49,-54.27 82.74,-47.84"/>
</a>
</g>
</g>
<!-- Node5&#45;&gt;Node4 -->
<g id="edge5_Node000005_Node000004" class="edge">
<title>Node5&#45;&gt;Node4</title>
<g id="a_edge5_Node000005_Node000004"><a xlink:title=" ">
<path fill="none" stroke="#63b8ff" d="M179,-44.66C179,-35.93 179,-25.99 179,-19.09"/>
<polygon fill="#63b8ff" stroke="#63b8ff" points="175.5,-44.75 179,-54.75 182.5,-44.75 175.5,-44.75"/>
</a>
</g>
</g>
</g>
</svg>
