<?xml version="1.0" encoding="UTF-8" standalone="no"?>
<!DOCTYPE svg PUBLIC "-//W3C//DTD SVG 1.1//EN"
 "http://www.w3.org/Graphics/SVG/1.1/DTD/svg11.dtd">
<!-- Generated by graphviz version 2.43.0 (0)
 -->
<!-- Title: readcsv Pages: 1 -->
<svg width="301pt" height="64pt"
 viewBox="0.00 0.00 301.00 64.00" xmlns="http://www.w3.org/2000/svg" xmlns:xlink="http://www.w3.org/1999/xlink">
<g id="graph0" class="graph" transform="scale(1 1) rotate(0) translate(4 60)">
<title>readcsv</title>
<!-- Node1 -->
<g id="Node000001" class="node">
<title>Node1</title>
<g id="a_Node000001"><a xlink:title=" ">
<polygon fill="#999999" stroke="#666666" points="293,-37 238,-37 238,-18 293,-18 293,-37"/>
<text text-anchor="middle" x="265.5" y="-25" font-family="Helvetica,sans-Serif" font-size="10.00">readcsv</text>
</a>
</g>
</g>
<!-- Node2 -->
<g id="Node000002" class="node">
<title>Node2</title>
<g id="a_Node000002"><a xlink:href="freezeout_8h.html#a648ff02ea415c6d21a9d67f18b760748" target="_top" xlink:title=" ">
<polygon fill="white" stroke="#666666" points="202,-56 77,-56 77,-37 202,-37 202,-56"/>
<text text-anchor="middle" x="139.5" y="-44" font-family="Helvetica,sans-Serif" font-size="10.00">ProcessFreezeoutData</text>
</a>
</g>
</g>
<!-- Node1&#45;&gt;Node2 -->
<g id="edge1_Node000001_Node000002" class="edge">
<title>Node1&#45;&gt;Node2</title>
<g id="a_edge1_Node000001_Node000002"><a xlink:title=" ">
<path fill="none" stroke="#63b8ff" d="M227.76,-33.13C219.7,-34.36 210.96,-35.7 202.22,-37.04"/>
<polygon fill="#63b8ff" stroke="#63b8ff" points="228.54,-36.55 237.9,-31.58 227.48,-29.63 228.54,-36.55"/>
</a>
</g>
</g>
<!-- Node4 -->
<g id="Node000004" class="node">
<title>Node4</title>
<g id="a_Node000004"><a xlink:href="initdata_8h.html#adb67cc27cb6accb49529dfa82de80b86" target="_top" xlink:title=" ">
<polygon fill="white" stroke="#666666" points="192,-19 87,-19 87,0 192,0 192,-19"/>
<text text-anchor="middle" x="139.5" y="-7" font-family="Helvetica,sans-Serif" font-size="10.00">ProcessInitialData</text>
</a>
</g>
</g>
<!-- Node1&#45;&gt;Node4 -->
<g id="edge3_Node000001_Node000004" class="edge">
<title>Node1&#45;&gt;Node4</title>
<g id="a_edge3_Node000001_Node000004"><a xlink:title=" ">
<path fill="none" stroke="#63b8ff" d="M228,-22.2C216.75,-20.57 204.14,-18.74 192.07,-16.99"/>
<polygon fill="#63b8ff" stroke="#63b8ff" points="227.5,-25.67 237.9,-23.64 228.51,-18.74 227.5,-25.67"/>
</a>
</g>
</g>
<!-- Node3 -->
<g id="Node000003" class="node">
<title>Node3</title>
<g id="a_Node000003"><a xlink:href="specV2_8cpp.html#adacbe0175a79dff748855d8c9839f82b" target="_top" xlink:title=" ">
<polygon fill="white" stroke="#666666" points="41,-37 0,-37 0,-18 41,-18 41,-37"/>
<text text-anchor="middle" x="20.5" y="-25" font-family="Helvetica,sans-Serif" font-size="10.00">main</text>
</a>
</g>
</g>
<!-- Node2&#45;&gt;Node3 -->
<g id="edge2_Node000002_Node000003" class="edge">
<title>Node2&#45;&gt;Node3</title>
<g id="a_edge2_Node000002_Node000003"><a xlink:title=" ">
<path fill="none" stroke="#63b8ff" d="M69.62,-35.31C59.24,-33.63 49.32,-32.02 41.21,-30.7"/>
<polygon fill="#63b8ff" stroke="#63b8ff" points="69.23,-38.8 79.66,-36.94 70.35,-31.89 69.23,-38.8"/>
</a>
</g>
</g>
<!-- Node4&#45;&gt;Node3 -->
<g id="edge4_Node000004_Node000003" class="edge">
<title>Node4&#45;&gt;Node3</title>
<g id="a_edge4_Node000004_Node000003"><a xlink:title=" ">
<path fill="none" stroke="#63b8ff" d="M76.95,-18.97C64.01,-20.96 51.26,-22.92 41.26,-24.46"/>
<polygon fill="#63b8ff" stroke="#63b8ff" points="77.49,-22.43 86.84,-17.45 76.43,-15.51 77.49,-22.43"/>
</a>
</g>
</g>
</g>
</svg>
