<?xml version="1.0" encoding="UTF-8" standalone="no"?>
<!DOCTYPE svg PUBLIC "-//W3C//DTD SVG 1.1//EN"
 "http://www.w3.org/Graphics/SVG/1.1/DTD/svg11.dtd">
<!-- Generated by graphviz version 2.43.0 (0)
 -->
<!-- Title: ProcessFreezeoutData Pages: 1 -->
<svg width="270pt" height="64pt"
 viewBox="0.00 0.00 270.00 64.00" xmlns="http://www.w3.org/2000/svg" xmlns:xlink="http://www.w3.org/1999/xlink">
<g id="graph0" class="graph" transform="scale(1 1) rotate(0) translate(4 60)">
<title>ProcessFreezeoutData</title>
<!-- Node1 -->
<g id="Node000001" class="node">
<title>Node1</title>
<g id="a_Node000001"><a xlink:title=" ">
<polygon fill="#999999" stroke="#666666" points="125,-37 0,-37 0,-18 125,-18 125,-37"/>
<text text-anchor="middle" x="62.5" y="-25" font-family="Helvetica,sans-Serif" font-size="10.00">ProcessFreezeoutData</text>
</a>
</g>
</g>
<!-- Node2 -->
<g id="Node000002" class="node">
<title>Node2</title>
<g id="a_Node000002"><a xlink:href="extrapolate_8h.html#a9934822b458cce1bab6b6511a168692c" target="_top" xlink:title=" ">
<polygon fill="white" stroke="#666666" points="262,-56 161,-56 161,-37 262,-37 262,-56"/>
<text text-anchor="middle" x="211.5" y="-44" font-family="Helvetica,sans-Serif" font-size="10.00">linearExtrapolate</text>
</a>
</g>
</g>
<!-- Node1&#45;&gt;Node2 -->
<g id="edge1_Node000001_Node000002" class="edge">
<title>Node1&#45;&gt;Node2</title>
<g id="a_edge1_Node000001_Node000002"><a xlink:title=" ">
<path fill="none" stroke="#63b8ff" d="M125.42,-35.5C133.78,-36.58 142.36,-37.69 150.69,-38.77"/>
<polygon fill="#63b8ff" stroke="#63b8ff" points="150.33,-42.25 160.7,-40.06 151.23,-35.31 150.33,-42.25"/>
</a>
</g>
</g>
<!-- Node3 -->
<g id="Node000003" class="node">
<title>Node3</title>
<g id="a_Node000003"><a xlink:href="filereader_8h.html#a49ce595d6717f4010b9aed7327ec1022" target="_top" xlink:title=" ">
<polygon fill="white" stroke="#666666" points="239,-19 184,-19 184,0 239,0 239,-19"/>
<text text-anchor="middle" x="211.5" y="-7" font-family="Helvetica,sans-Serif" font-size="10.00">readcsv</text>
</a>
</g>
</g>
<!-- Node1&#45;&gt;Node3 -->
<g id="edge2_Node000001_Node000003" class="edge">
<title>Node1&#45;&gt;Node3</title>
<g id="a_edge2_Node000001_Node000003"><a xlink:title=" ">
<path fill="none" stroke="#63b8ff" d="M125.42,-19.92C141.83,-17.91 159.04,-15.8 173.65,-14.01"/>
<polygon fill="#63b8ff" stroke="#63b8ff" points="174.28,-17.46 183.78,-12.77 173.43,-10.51 174.28,-17.46"/>
</a>
</g>
</g>
</g>
</svg>
