<?xml version="1.0" encoding="UTF-8" standalone="no"?>
<!DOCTYPE svg PUBLIC "-//W3C//DTD SVG 1.1//EN"
 "http://www.w3.org/Graphics/SVG/1.1/DTD/svg11.dtd">
<!-- Generated by graphviz version 2.43.0 (0)
 -->
<!-- Title: chL_g_2_0 Pages: 1 -->
<svg width="554pt" height="180pt"
 viewBox="0.00 0.00 554.00 180.00" xmlns="http://www.w3.org/2000/svg" xmlns:xlink="http://www.w3.org/1999/xlink">
<g id="graph0" class="graph" transform="scale(1 1) rotate(0) translate(4 176)">
<title>chL_g_2_0</title>
<!-- Node1 -->
<g id="Node000001" class="node">
<title>Node1</title>
<g id="a_Node000001"><a xlink:title="Longitudinal part.">
<polygon fill="#999999" stroke="#666666" points="67,-98 0,-98 0,-79 67,-79 67,-98"/>
<text text-anchor="middle" x="33.5" y="-86" font-family="Helvetica,sans-Serif" font-size="10.00">chL_g_2_0</text>
</a>
</g>
</g>
<!-- Node2 -->
<g id="Node000002" class="node">
<title>Node2</title>
<g id="a_Node000002"><a xlink:href="hqcoeff_8cpp.html#a574c2259f2d118cab926b5070274c20f" target="_top" xlink:title="from [Riemersma, Smith, van Neerven; Phys. Let. B, 347 (1&#45;2), 143, 1995] eq. (15)">
<polygon fill="white" stroke="#666666" points="226,-172 103,-172 103,-153 226,-153 226,-172"/>
<text text-anchor="middle" x="164.5" y="-160" font-family="Helvetica,sans-Serif" font-size="10.00">chL_g_2_0_A_asympE</text>
</a>
</g>
</g>
<!-- Node1&#45;&gt;Node2 -->
<g id="edge1_Node000001_Node000002" class="edge">
<title>Node1&#45;&gt;Node2</title>
<g id="a_edge1_Node000001_Node000002"><a xlink:title=" ">
<path fill="none" stroke="#63b8ff" d="M43.81,-98.2C56.23,-110.61 79.38,-131.99 103,-144.5 106.44,-146.32 110.09,-147.99 113.83,-149.5"/>
<polygon fill="#63b8ff" stroke="#63b8ff" points="112.64,-152.79 123.23,-152.96 115.06,-146.22 112.64,-152.79"/>
</a>
</g>
</g>
<!-- Node3 -->
<g id="Node000003" class="node">
<title>Node3</title>
<g id="a_Node000003"><a xlink:href="hqcoeff_8cpp.html#a3630ee20fe9087089ab615472a65297e" target="_top" xlink:title=" ">
<polygon fill="white" stroke="#666666" points="221,-98 108,-98 108,-79 221,-79 221,-98"/>
<text text-anchor="middle" x="164.5" y="-86" font-family="Helvetica,sans-Serif" font-size="10.00">chL_g_2_0_A_interp</text>
</a>
</g>
</g>
<!-- Node1&#45;&gt;Node3 -->
<g id="edge2_Node000001_Node000003" class="edge">
<title>Node1&#45;&gt;Node3</title>
<g id="a_edge2_Node000001_Node000003"><a xlink:title=" ">
<path fill="none" stroke="#63b8ff" d="M67.05,-88.5C76.44,-88.5 87.04,-88.5 97.68,-88.5"/>
<polygon fill="#63b8ff" stroke="#63b8ff" points="97.87,-92 107.87,-88.5 97.87,-85 97.87,-92"/>
</a>
</g>
</g>
<!-- Node7 -->
<g id="Node000007" class="node">
<title>Node7</title>
<g id="a_Node000007"><a xlink:href="hqcoeff_8cpp.html#a1a77eb0a791f23627e05a20fbb46fd32" target="_top" xlink:title="from [Riemersma, Smith, van Neerven; Phys. Let. B, 347 (1&#45;2), 143, 1995] eq. (19)">
<polygon fill="white" stroke="#666666" points="221,-135 108,-135 108,-116 221,-116 221,-135"/>
<text text-anchor="middle" x="164.5" y="-123" font-family="Helvetica,sans-Serif" font-size="10.00">chL_g_2_0_asympG</text>
</a>
</g>
</g>
<!-- Node1&#45;&gt;Node7 -->
<g id="edge6_Node000001_Node000007" class="edge">
<title>Node1&#45;&gt;Node7</title>
<g id="a_edge6_Node000001_Node000007"><a xlink:title=" ">
<path fill="none" stroke="#63b8ff" d="M67.05,-97.84C83.15,-102.45 102.8,-108.09 120.15,-113.07"/>
<polygon fill="#63b8ff" stroke="#63b8ff" points="119.48,-116.52 130.06,-115.91 121.41,-109.79 119.48,-116.52"/>
</a>
</g>
</g>
<!-- Node12 -->
<g id="Node000012" class="node">
<title>Node12</title>
<g id="a_Node000012"><a xlink:href="hqcoeff_8cpp.html#a312e65b324370a24fa5a633f80e15ace" target="_top" xlink:title="from [Riemersma, Smith, van Neerven; Phys. Let. B, 347 (1&#45;2), 143, 1995] eq. (13)">
<polygon fill="white" stroke="#666666" points="225.5,-61 103.5,-61 103.5,-42 225.5,-42 225.5,-61"/>
<text text-anchor="middle" x="164.5" y="-49" font-family="Helvetica,sans-Serif" font-size="10.00">chL_g_2_0_F_asympE</text>
</a>
</g>
</g>
<!-- Node1&#45;&gt;Node12 -->
<g id="edge11_Node000001_Node000012" class="edge">
<title>Node1&#45;&gt;Node12</title>
<g id="a_edge11_Node000001_Node000012"><a xlink:title=" ">
<path fill="none" stroke="#63b8ff" d="M67.05,-79.16C83.15,-74.55 102.8,-68.91 120.15,-63.93"/>
<polygon fill="#63b8ff" stroke="#63b8ff" points="121.41,-67.21 130.06,-61.09 119.48,-60.48 121.41,-67.21"/>
</a>
</g>
</g>
<!-- Node13 -->
<g id="Node000013" class="node">
<title>Node13</title>
<g id="a_Node000013"><a xlink:href="hqcoeff_8cpp.html#a6715634388ceaf2d87c9a53918d17bf3" target="_top" xlink:title=" ">
<polygon fill="white" stroke="#666666" points="220.5,-24 108.5,-24 108.5,-5 220.5,-5 220.5,-24"/>
<text text-anchor="middle" x="164.5" y="-12" font-family="Helvetica,sans-Serif" font-size="10.00">chL_g_2_0_F_interp</text>
</a>
</g>
</g>
<!-- Node1&#45;&gt;Node13 -->
<g id="edge12_Node000001_Node000013" class="edge">
<title>Node1&#45;&gt;Node13</title>
<g id="a_edge12_Node000001_Node000013"><a xlink:title=" ">
<path fill="none" stroke="#63b8ff" d="M44.31,-78.61C56.89,-66.44 79.86,-45.86 103,-33.5 107.04,-31.34 111.37,-29.38 115.78,-27.62"/>
<polygon fill="#63b8ff" stroke="#63b8ff" points="117.32,-30.78 125.5,-24.05 114.91,-24.21 117.32,-30.78"/>
</a>
</g>
</g>
<!-- Node4 -->
<g id="Node000004" class="node">
<title>Node4</title>
<g id="a_Node000004"><a xlink:href="hqcoeff_8cpp.html#a0f2bd73fb80ae5fda9fd8b4023cd40e4" target="_top" xlink:title="Find the interpolated value of a function f(x,y), where f is given as a 2D grid farr[Nx][Ny] with res...">
<polygon fill="white" stroke="#666666" points="336,-33 262,-33 262,-14 336,-14 336,-33"/>
<text text-anchor="middle" x="299" y="-21" font-family="Helvetica,sans-Serif" font-size="10.00">myInterp2D</text>
</a>
</g>
</g>
<!-- Node3&#45;&gt;Node4 -->
<g id="edge3_Node000003_Node000004" class="edge">
<title>Node3&#45;&gt;Node4</title>
<g id="a_edge3_Node000003_Node000004"><a xlink:title=" ">
<path fill="none" stroke="#63b8ff" d="M203.88,-78.91C211.36,-76.53 219.04,-73.72 226,-70.5 244.33,-62.01 263.41,-49.36 277.31,-39.32"/>
<polygon fill="#63b8ff" stroke="#63b8ff" points="279.68,-41.92 285.65,-33.17 275.52,-36.29 279.68,-41.92"/>
</a>
</g>
</g>
<!-- Node5 -->
<g id="Node000005" class="node">
<title>Node5</title>
<g id="a_Node000005"><a xlink:href="hqcoeff_8cpp.html#a9a59dacb0dd3b28d6e70c02b379f613d" target="_top" xlink:title="returns index of gridpoint in xarr[Nx] to the left or equal to x">
<polygon fill="white" stroke="#666666" points="444.5,-56 394.5,-56 394.5,-37 444.5,-37 444.5,-56"/>
<text text-anchor="middle" x="419.5" y="-44" font-family="Helvetica,sans-Serif" font-size="10.00">findIdx</text>
</a>
</g>
</g>
<!-- Node4&#45;&gt;Node5 -->
<g id="edge4_Node000004_Node000005" class="edge">
<title>Node4&#45;&gt;Node5</title>
<g id="a_edge4_Node000004_Node000005"><a xlink:title=" ">
<path fill="none" stroke="#63b8ff" d="M336.2,-30.53C351.57,-33.51 369.4,-36.97 384.52,-39.91"/>
<polygon fill="#63b8ff" stroke="#63b8ff" points="384.01,-43.37 394.5,-41.84 385.35,-36.5 384.01,-43.37"/>
</a>
</g>
</g>
<!-- Node6 -->
<g id="Node000006" class="node">
<title>Node6</title>
<g id="a_Node000006"><a xlink:href="hqcoeff_8cpp.html#ab42c78400cc617afc6dd48f6b9804a94" target="_top" xlink:title="1 dimensional quadratic interpolation (3pt Lagrange)">
<polygon fill="white" stroke="#666666" points="467,-19 372,-19 372,0 467,0 467,-19"/>
<text text-anchor="middle" x="419.5" y="-7" font-family="Helvetica,sans-Serif" font-size="10.00">myInterp1D_3pt</text>
</a>
</g>
</g>
<!-- Node4&#45;&gt;Node6 -->
<g id="edge5_Node000004_Node000006" class="edge">
<title>Node4&#45;&gt;Node6</title>
<g id="a_edge5_Node000004_Node000006"><a xlink:title=" ">
<path fill="none" stroke="#63b8ff" d="M336.2,-19.22C344.22,-18.28 352.91,-17.25 361.54,-16.23"/>
<polygon fill="#63b8ff" stroke="#63b8ff" points="362.07,-19.69 371.59,-15.04 361.25,-12.74 362.07,-19.69"/>
</a>
</g>
</g>
<!-- Node8 -->
<g id="Node000008" class="node">
<title>Node8</title>
<g id="a_Node000008"><a xlink:href="hqcoeff_8cpp.html#aefcfbc062d44707454fb2f83709d46c4" target="_top" xlink:title="O(ln(muR2/m2)^0)">
<polygon fill="white" stroke="#666666" points="333,-111 265,-111 265,-92 333,-92 333,-111"/>
<text text-anchor="middle" x="299" y="-99" font-family="Helvetica,sans-Serif" font-size="10.00">I_hqhelper</text>
</a>
</g>
</g>
<!-- Node7&#45;&gt;Node8 -->
<g id="edge7_Node000007_Node000008" class="edge">
<title>Node7&#45;&gt;Node8</title>
<g id="a_edge7_Node000007_Node000008"><a xlink:title=" ">
<path fill="none" stroke="#63b8ff" d="M218.25,-115.95C230.42,-113.74 243.22,-111.42 254.92,-109.3"/>
<polygon fill="#63b8ff" stroke="#63b8ff" points="255.66,-112.73 264.87,-107.5 254.41,-105.84 255.66,-112.73"/>
</a>
</g>
</g>
<!-- Node11 -->
<g id="Node000011" class="node">
<title>Node11</title>
<g id="a_Node000011"><a xlink:href="hqcoeff_8cpp.html#afbf32e618df6e4929c5e941c15cc4cab" target="_top" xlink:title="from [Riemersma, Smith, van Neerven; Phys. Let. B, 347 (1&#45;2), 143, 1995] eq. (23)">
<polygon fill="white" stroke="#666666" points="333,-148 265,-148 265,-129 333,-129 333,-148"/>
<text text-anchor="middle" x="299" y="-136" font-family="Helvetica,sans-Serif" font-size="10.00">J_hqhelper</text>
</a>
</g>
</g>
<!-- Node7&#45;&gt;Node11 -->
<g id="edge10_Node000007_Node000011" class="edge">
<title>Node7&#45;&gt;Node11</title>
<g id="a_edge10_Node000007_Node000011"><a xlink:title=" ">
<path fill="none" stroke="#63b8ff" d="M221.31,-130.98C232.56,-132.08 244.23,-133.22 254.97,-134.28"/>
<polygon fill="#63b8ff" stroke="#63b8ff" points="254.64,-137.76 264.93,-135.26 255.32,-130.8 254.64,-137.76"/>
</a>
</g>
</g>
<!-- Node9 -->
<g id="Node000009" class="node">
<title>Node9</title>
<g id="a_Node000009"><a xlink:href="chaplin_8h.html#ab5340425c31d2f2ab20f8b281db2c3f1" target="_top" xlink:title="generic interface for C++ to the Fortran routine">
<polygon fill="white" stroke="#666666" points="440,-111 399,-111 399,-92 440,-92 440,-111"/>
<text text-anchor="middle" x="419.5" y="-99" font-family="Helvetica,sans-Serif" font-size="10.00">HPL2</text>
</a>
</g>
</g>
<!-- Node8&#45;&gt;Node9 -->
<g id="edge8_Node000008_Node000009" class="edge">
<title>Node8&#45;&gt;Node9</title>
<g id="a_edge8_Node000008_Node000009"><a xlink:title=" ">
<path fill="none" stroke="#63b8ff" d="M333.01,-101.5C350.42,-101.5 371.63,-101.5 388.56,-101.5"/>
<polygon fill="#63b8ff" stroke="#63b8ff" points="388.99,-105 398.99,-101.5 388.99,-98 388.99,-105"/>
</a>
</g>
</g>
<!-- Node10 -->
<g id="Node000010" class="node">
<title>Node10</title>
<g id="a_Node000010"><a xlink:href="chaplin_8h.html#a3ba3e7e3cf17242e56dc59d885bcac68" target="_top" xlink:title=" ">
<polygon fill="white" stroke="#666666" points="546,-111 503,-111 503,-92 546,-92 546,-111"/>
<text text-anchor="middle" x="524.5" y="-99" font-family="Helvetica,sans-Serif" font-size="10.00">hpl2_</text>
</a>
</g>
</g>
<!-- Node9&#45;&gt;Node10 -->
<g id="edge9_Node000009_Node000010" class="edge">
<title>Node9&#45;&gt;Node10</title>
<g id="a_edge9_Node000009_Node000010"><a xlink:title=" ">
<path fill="none" stroke="#63b8ff" d="M440.36,-101.5C455.27,-101.5 475.96,-101.5 492.97,-101.5"/>
<polygon fill="#63b8ff" stroke="#63b8ff" points="493,-105 503,-101.5 493,-98 493,-105"/>
</a>
</g>
</g>
<!-- Node13&#45;&gt;Node4 -->
<g id="edge13_Node000013_Node000004" class="edge">
<title>Node13&#45;&gt;Node4</title>
<g id="a_edge13_Node000013_Node000004"><a xlink:title=" ">
<path fill="none" stroke="#63b8ff" d="M220.54,-18.24C230.88,-18.94 241.6,-19.67 251.65,-20.35"/>
<polygon fill="#63b8ff" stroke="#63b8ff" points="251.62,-23.86 261.83,-21.04 252.09,-16.87 251.62,-23.86"/>
</a>
</g>
</g>
</g>
</svg>
