<?xml version="1.0" encoding="UTF-8" standalone="no"?>
<!DOCTYPE svg PUBLIC "-//W3C//DTD SVG 1.1//EN"
 "http://www.w3.org/Graphics/SVG/1.1/DTD/svg11.dtd">
<!-- Generated by graphviz version 2.43.0 (0)
 -->
<!-- Title: ch2_q_2_1_Hcoupl Pages: 1 -->
<svg width="675pt" height="156pt"
 viewBox="0.00 0.00 675.00 156.00" xmlns="http://www.w3.org/2000/svg" xmlns:xlink="http://www.w3.org/1999/xlink">
<g id="graph0" class="graph" transform="scale(1 1) rotate(0) translate(4 152)">
<title>ch2_q_2_1_Hcoupl</title>
<!-- Node1 -->
<g id="Node000001" class="node">
<title>Node1</title>
<g id="a_Node000001"><a xlink:title="2 part">
<polygon fill="#999999" stroke="#666666" points="107,-92 0,-92 0,-73 107,-73 107,-92"/>
<text text-anchor="middle" x="53.5" y="-80" font-family="Helvetica,sans-Serif" font-size="10.00">ch2_q_2_1_Hcoupl</text>
</a>
</g>
</g>
<!-- Node2 -->
<g id="Node000002" class="node">
<title>Node2</title>
<g id="a_Node000002"><a xlink:href="hqcoeff_8cpp.html#a1d6dfa2dad043b3b0cc058b4d2d4ab00" target="_top" xlink:title="O(ln(muR2/m2)^1)">
<polygon fill="white" stroke="#666666" points="249.5,-111 143.5,-111 143.5,-92 249.5,-92 249.5,-111"/>
<text text-anchor="middle" x="196.5" y="-99" font-family="Helvetica,sans-Serif" font-size="10.00">chL_q_2_1_Hcoupl</text>
</a>
</g>
</g>
<!-- Node1&#45;&gt;Node2 -->
<g id="edge1_Node000001_Node000002" class="edge">
<title>Node1&#45;&gt;Node2</title>
<g id="a_edge1_Node000001_Node000002"><a xlink:title=" ">
<path fill="none" stroke="#63b8ff" d="M107,-89.57C115.56,-90.73 124.49,-91.93 133.25,-93.11"/>
<polygon fill="#63b8ff" stroke="#63b8ff" points="133.04,-96.62 143.42,-94.48 133.98,-89.68 133.04,-96.62"/>
</a>
</g>
</g>
<!-- Node9 -->
<g id="Node000009" class="node">
<title>Node9</title>
<g id="a_Node000009"><a xlink:href="hqcoeff_8cpp.html#a422f7216c9b4a091f1fb0d9216f0a365" target="_top" xlink:title="from [Riemersma, Smith, van Neerven; Phys. Let. B, 347 (1&#45;2), 143, 1995] eq. (27)">
<polygon fill="white" stroke="#666666" points="250,-74 143,-74 143,-55 250,-55 250,-74"/>
<text text-anchor="middle" x="196.5" y="-62" font-family="Helvetica,sans-Serif" font-size="10.00">chT_q_2_1_Hcoupl</text>
</a>
</g>
</g>
<!-- Node1&#45;&gt;Node9 -->
<g id="edge8_Node000001_Node000009" class="edge">
<title>Node1&#45;&gt;Node9</title>
<g id="a_edge8_Node000001_Node000009"><a xlink:title=" ">
<path fill="none" stroke="#63b8ff" d="M107,-75.8C115.44,-74.72 124.26,-73.6 132.9,-72.49"/>
<polygon fill="#63b8ff" stroke="#63b8ff" points="133.48,-75.95 142.95,-71.21 132.59,-69 133.48,-75.95"/>
</a>
</g>
</g>
<!-- Node3 -->
<g id="Node000003" class="node">
<title>Node3</title>
<g id="a_Node000003"><a xlink:href="hqcoeff_8cpp.html#aecf716e28846262d503538e5f5295ca2" target="_top" xlink:title="from [Riemersma, Smith, van Neerven; Phys. Let. B, 347 (1&#45;2), 143, 1995] eq. (21)">
<polygon fill="white" stroke="#666666" points="412.5,-148 299.5,-148 299.5,-129 412.5,-129 412.5,-148"/>
<text text-anchor="middle" x="356" y="-136" font-family="Helvetica,sans-Serif" font-size="10.00">chL_g_2_1_asympG</text>
</a>
</g>
</g>
<!-- Node2&#45;&gt;Node3 -->
<g id="edge2_Node000002_Node000003" class="edge">
<title>Node2&#45;&gt;Node3</title>
<g id="a_edge2_Node000002_Node000003"><a xlink:title=" ">
<path fill="none" stroke="#63b8ff" d="M238.06,-111.03C258.28,-115.78 282.94,-121.57 304.38,-126.61"/>
<polygon fill="#63b8ff" stroke="#63b8ff" points="303.77,-130.06 314.3,-128.94 305.37,-123.25 303.77,-130.06"/>
</a>
</g>
</g>
<!-- Node5 -->
<g id="Node000005" class="node">
<title>Node5</title>
<g id="a_Node000005"><a xlink:href="hqcoeff_8cpp.html#a2291adbd19a097ec55ae20cce68105ee" target="_top" xlink:title=" ">
<polygon fill="white" stroke="#666666" points="426,-111 286,-111 286,-92 426,-92 426,-111"/>
<text text-anchor="middle" x="356" y="-99" font-family="Helvetica,sans-Serif" font-size="10.00">chL_q_2_1_Hcoupl_interp</text>
</a>
</g>
</g>
<!-- Node2&#45;&gt;Node5 -->
<g id="edge4_Node000002_Node000005" class="edge">
<title>Node2&#45;&gt;Node5</title>
<g id="a_edge4_Node000002_Node000005"><a xlink:title=" ">
<path fill="none" stroke="#63b8ff" d="M249.51,-101.5C257.97,-101.5 266.9,-101.5 275.84,-101.5"/>
<polygon fill="#63b8ff" stroke="#63b8ff" points="275.91,-105 285.91,-101.5 275.91,-98 275.91,-105"/>
</a>
</g>
</g>
<!-- Node4 -->
<g id="Node000004" class="node">
<title>Node4</title>
<g id="a_Node000004"><a xlink:href="hqcoeff_8cpp.html#afbf32e618df6e4929c5e941c15cc4cab" target="_top" xlink:title="from [Riemersma, Smith, van Neerven; Phys. Let. B, 347 (1&#45;2), 143, 1995] eq. (23)">
<polygon fill="white" stroke="#666666" points="533,-111 465,-111 465,-92 533,-92 533,-111"/>
<text text-anchor="middle" x="499" y="-99" font-family="Helvetica,sans-Serif" font-size="10.00">J_hqhelper</text>
</a>
</g>
</g>
<!-- Node3&#45;&gt;Node4 -->
<g id="edge3_Node000003_Node000004" class="edge">
<title>Node3&#45;&gt;Node4</title>
<g id="a_edge3_Node000003_Node000004"><a xlink:title=" ">
<path fill="none" stroke="#63b8ff" d="M393.53,-128.99C404.02,-126.26 415.46,-123.26 426,-120.5 435.37,-118.04 445.43,-115.39 454.97,-112.88"/>
<polygon fill="#63b8ff" stroke="#63b8ff" points="455.89,-116.25 464.67,-110.32 454.11,-109.48 455.89,-116.25"/>
</a>
</g>
</g>
<!-- Node6 -->
<g id="Node000006" class="node">
<title>Node6</title>
<g id="a_Node000006"><a xlink:href="hqcoeff_8cpp.html#a0f2bd73fb80ae5fda9fd8b4023cd40e4" target="_top" xlink:title="Find the interpolated value of a function f(x,y), where f is given as a 2D grid farr[Nx][Ny] with res...">
<polygon fill="white" stroke="#666666" points="536,-37 462,-37 462,-18 536,-18 536,-37"/>
<text text-anchor="middle" x="499" y="-25" font-family="Helvetica,sans-Serif" font-size="10.00">myInterp2D</text>
</a>
</g>
</g>
<!-- Node5&#45;&gt;Node6 -->
<g id="edge5_Node000005_Node000006" class="edge">
<title>Node5&#45;&gt;Node6</title>
<g id="a_edge5_Node000005_Node000006"><a xlink:title=" ">
<path fill="none" stroke="#63b8ff" d="M404.32,-91.89C411.76,-89.61 419.23,-86.84 426,-83.5 446.47,-73.41 466.7,-56.94 480.49,-44.46"/>
<polygon fill="#63b8ff" stroke="#63b8ff" points="483.24,-46.68 488.18,-37.31 478.47,-41.55 483.24,-46.68"/>
</a>
</g>
</g>
<!-- Node7 -->
<g id="Node000007" class="node">
<title>Node7</title>
<g id="a_Node000007"><a xlink:href="hqcoeff_8cpp.html#a9a59dacb0dd3b28d6e70c02b379f613d" target="_top" xlink:title="returns index of gridpoint in xarr[Nx] to the left or equal to x">
<polygon fill="white" stroke="#666666" points="644.5,-56 594.5,-56 594.5,-37 644.5,-37 644.5,-56"/>
<text text-anchor="middle" x="619.5" y="-44" font-family="Helvetica,sans-Serif" font-size="10.00">findIdx</text>
</a>
</g>
</g>
<!-- Node6&#45;&gt;Node7 -->
<g id="edge6_Node000006_Node000007" class="edge">
<title>Node6&#45;&gt;Node7</title>
<g id="a_edge6_Node000006_Node000007"><a xlink:title=" ">
<path fill="none" stroke="#63b8ff" d="M536.2,-33.3C551.57,-35.77 569.4,-38.63 584.52,-41.05"/>
<polygon fill="#63b8ff" stroke="#63b8ff" points="584.07,-44.52 594.5,-42.65 585.18,-37.61 584.07,-44.52"/>
</a>
</g>
</g>
<!-- Node8 -->
<g id="Node000008" class="node">
<title>Node8</title>
<g id="a_Node000008"><a xlink:href="hqcoeff_8cpp.html#ab42c78400cc617afc6dd48f6b9804a94" target="_top" xlink:title="1 dimensional quadratic interpolation (3pt Lagrange)">
<polygon fill="white" stroke="#666666" points="667,-19 572,-19 572,0 667,0 667,-19"/>
<text text-anchor="middle" x="619.5" y="-7" font-family="Helvetica,sans-Serif" font-size="10.00">myInterp1D_3pt</text>
</a>
</g>
</g>
<!-- Node6&#45;&gt;Node8 -->
<g id="edge7_Node000006_Node000008" class="edge">
<title>Node6&#45;&gt;Node8</title>
<g id="a_edge7_Node000006_Node000008"><a xlink:title=" ">
<path fill="none" stroke="#63b8ff" d="M536.2,-22C544.22,-20.78 552.91,-19.46 561.54,-18.15"/>
<polygon fill="#63b8ff" stroke="#63b8ff" points="562.23,-21.59 571.59,-16.63 561.18,-14.67 562.23,-21.59"/>
</a>
</g>
</g>
<!-- Node10 -->
<g id="Node000010" class="node">
<title>Node10</title>
<g id="a_Node000010"><a xlink:href="hqcoeff_8cpp.html#ad41caec5018f3b44dfa1f4d6938b9e59" target="_top" xlink:title="from [Riemersma, Smith, van Neerven; Phys. Let. B, 347 (1&#45;2), 143, 1995] eq. (22)">
<polygon fill="white" stroke="#666666" points="412.5,-74 299.5,-74 299.5,-55 412.5,-55 412.5,-74"/>
<text text-anchor="middle" x="356" y="-62" font-family="Helvetica,sans-Serif" font-size="10.00">chT_g_2_1_asympG</text>
</a>
</g>
</g>
<!-- Node9&#45;&gt;Node10 -->
<g id="edge9_Node000009_Node000010" class="edge">
<title>Node9&#45;&gt;Node10</title>
<g id="a_edge9_Node000009_Node000010"><a xlink:title=" ">
<path fill="none" stroke="#63b8ff" d="M250.38,-64.5C262.79,-64.5 276.17,-64.5 289.07,-64.5"/>
<polygon fill="#63b8ff" stroke="#63b8ff" points="289.29,-68 299.29,-64.5 289.29,-61 289.29,-68"/>
</a>
</g>
</g>
<!-- Node11 -->
<g id="Node000011" class="node">
<title>Node11</title>
<g id="a_Node000011"><a xlink:href="hqcoeff_8cpp.html#a3c04d1ad79326b72eff975826ee330c1" target="_top" xlink:title=" ">
<polygon fill="white" stroke="#666666" points="426,-37 286,-37 286,-18 426,-18 426,-37"/>
<text text-anchor="middle" x="356" y="-25" font-family="Helvetica,sans-Serif" font-size="10.00">chT_q_2_1_Hcoupl_interp</text>
</a>
</g>
</g>
<!-- Node9&#45;&gt;Node11 -->
<g id="edge11_Node000009_Node000011" class="edge">
<title>Node9&#45;&gt;Node11</title>
<g id="a_edge11_Node000009_Node000011"><a xlink:title=" ">
<path fill="none" stroke="#63b8ff" d="M238.06,-54.97C258.28,-50.22 282.94,-44.43 304.38,-39.39"/>
<polygon fill="#63b8ff" stroke="#63b8ff" points="305.37,-42.75 314.3,-37.06 303.77,-35.94 305.37,-42.75"/>
</a>
</g>
</g>
<!-- Node10&#45;&gt;Node4 -->
<g id="edge10_Node000010_Node000004" class="edge">
<title>Node10&#45;&gt;Node4</title>
<g id="a_edge10_Node000010_Node000004"><a xlink:title=" ">
<path fill="none" stroke="#63b8ff" d="M393.31,-74.03C412.07,-78.95 435.09,-84.99 454.77,-90.16"/>
<polygon fill="#63b8ff" stroke="#63b8ff" points="454.15,-93.61 464.71,-92.76 455.93,-86.84 454.15,-93.61"/>
</a>
</g>
</g>
<!-- Node11&#45;&gt;Node6 -->
<g id="edge12_Node000011_Node000006" class="edge">
<title>Node11&#45;&gt;Node6</title>
<g id="a_edge12_Node000011_Node000006"><a xlink:title=" ">
<path fill="none" stroke="#63b8ff" d="M426.26,-27.5C434.88,-27.5 443.52,-27.5 451.68,-27.5"/>
<polygon fill="#63b8ff" stroke="#63b8ff" points="451.7,-31 461.7,-27.5 451.7,-24 451.7,-31"/>
</a>
</g>
</g>
</g>
</svg>
