<?xml version="1.0" encoding="UTF-8" standalone="no"?>
<!DOCTYPE svg PUBLIC "-//W3C//DTD SVG 1.1//EN"
 "http://www.w3.org/Graphics/SVG/1.1/DTD/svg11.dtd">
<!-- Generated by graphviz version 2.43.0 (0)
 -->
<!-- Title: chT_q_2_0_Lcoupl Pages: 1 -->
<svg width="393pt" height="27pt"
 viewBox="0.00 0.00 393.00 27.00" xmlns="http://www.w3.org/2000/svg" xmlns:xlink="http://www.w3.org/1999/xlink">
<g id="graph0" class="graph" transform="scale(1 1) rotate(0) translate(4 23)">
<title>chT_q_2_0_Lcoupl</title>
<!-- Node1 -->
<g id="Node000001" class="node">
<title>Node1</title>
<g id="a_Node000001"><a xlink:title="from [Riemersma, Smith, van Neerven; Phys. Let. B, 347 (1&#45;2), 143, 1995] eq. (28)">
<polygon fill="#999999" stroke="#666666" points="385,-19 281,-19 281,0 385,0 385,-19"/>
<text text-anchor="middle" x="333" y="-7" font-family="Helvetica,sans-Serif" font-size="10.00">chT_q_2_0_Lcoupl</text>
</a>
</g>
</g>
<!-- Node2 -->
<g id="Node000002" class="node">
<title>Node2</title>
<g id="a_Node000002"><a xlink:href="hqcoeff_8cpp.html#a1c45edf26d5f02288cfa28c2454482a4" target="_top" xlink:title="2 part">
<polygon fill="white" stroke="#666666" points="245,-19 141,-19 141,0 245,0 245,-19"/>
<text text-anchor="middle" x="193" y="-7" font-family="Helvetica,sans-Serif" font-size="10.00">ch2_q_2_0_Lcoupl</text>
</a>
</g>
</g>
<!-- Node1&#45;&gt;Node2 -->
<g id="edge1_Node000001_Node000002" class="edge">
<title>Node1&#45;&gt;Node2</title>
<g id="a_edge1_Node000001_Node000002"><a xlink:title=" ">
<path fill="none" stroke="#63b8ff" d="M270.5,-9.5C262.13,-9.5 253.6,-9.5 245.43,-9.5"/>
<polygon fill="#63b8ff" stroke="#63b8ff" points="270.61,-13 280.61,-9.5 270.61,-6 270.61,-13"/>
</a>
</g>
</g>
<!-- Node3 -->
<g id="Node000003" class="node">
<title>Node3</title>
<g id="a_Node000003"><a xlink:href="structfunc_8cpp.html#ae97306c88ea1474d650300c3d8e0546f" target="_top" xlink:title="implementation of [Laenen, Riemersma, Smith, v. Neerven; Nucl. Phys. B, 392 (1), 162,...">
<polygon fill="white" stroke="#666666" points="105,-19 0,-19 0,0 105,0 105,-19"/>
<text text-anchor="middle" x="52.5" y="-7" font-family="Helvetica,sans-Serif" font-size="10.00">F2heavyintegrand</text>
</a>
</g>
</g>
<!-- Node2&#45;&gt;Node3 -->
<g id="edge2_Node000002_Node000003" class="edge">
<title>Node2&#45;&gt;Node3</title>
<g id="a_edge2_Node000002_Node000003"><a xlink:title=" ">
<path fill="none" stroke="#63b8ff" d="M130.65,-9.5C122.22,-9.5 113.63,-9.5 105.39,-9.5"/>
<polygon fill="#63b8ff" stroke="#63b8ff" points="130.82,-13 140.82,-9.5 130.82,-6 130.82,-13"/>
</a>
</g>
</g>
</g>
</svg>
