<?xml version="1.0" encoding="UTF-8" standalone="no"?>
<!DOCTYPE svg PUBLIC "-//W3C//DTD SVG 1.1//EN"
 "http://www.w3.org/Graphics/SVG/1.1/DTD/svg11.dtd">
<!-- Generated by graphviz version 2.43.0 (0)
 -->
<!-- Title: chT_g_2_0 Pages: 1 -->
<svg width="556pt" height="180pt"
 viewBox="0.00 0.00 556.00 180.00" xmlns="http://www.w3.org/2000/svg" xmlns:xlink="http://www.w3.org/1999/xlink">
<g id="graph0" class="graph" transform="scale(1 1) rotate(0) translate(4 176)">
<title>chT_g_2_0</title>
<!-- Node1 -->
<g id="Node000001" class="node">
<title>Node1</title>
<g id="a_Node000001"><a xlink:title="Transversal part.">
<polygon fill="#999999" stroke="#666666" points="68,-98 0,-98 0,-79 68,-79 68,-98"/>
<text text-anchor="middle" x="34" y="-86" font-family="Helvetica,sans-Serif" font-size="10.00">chT_g_2_0</text>
</a>
</g>
</g>
<!-- Node2 -->
<g id="Node000002" class="node">
<title>Node2</title>
<g id="a_Node000002"><a xlink:href="hqcoeff_8cpp.html#a2fb05ecb615054f0fafd2cad702054e5" target="_top" xlink:title="from [Riemersma, Smith, van Neerven; Phys. Let. B, 347 (1&#45;2), 143, 1995] eq. (16)">
<polygon fill="white" stroke="#666666" points="228,-172 104,-172 104,-153 228,-153 228,-172"/>
<text text-anchor="middle" x="166" y="-160" font-family="Helvetica,sans-Serif" font-size="10.00">chT_g_2_0_A_asympE</text>
</a>
</g>
</g>
<!-- Node1&#45;&gt;Node2 -->
<g id="edge1_Node000001_Node000002" class="edge">
<title>Node1&#45;&gt;Node2</title>
<g id="a_edge1_Node000001_Node000002"><a xlink:title=" ">
<path fill="none" stroke="#63b8ff" d="M44.39,-98.21C56.9,-110.62 80.24,-132 104,-144.5 107.47,-146.33 111.16,-147.99 114.93,-149.51"/>
<polygon fill="#63b8ff" stroke="#63b8ff" points="113.81,-152.83 124.41,-152.97 116.22,-146.25 113.81,-152.83"/>
</a>
</g>
</g>
<!-- Node3 -->
<g id="Node000003" class="node">
<title>Node3</title>
<g id="a_Node000003"><a xlink:href="hqcoeff_8cpp.html#a889a508329d999090497eddd3eb01d4a" target="_top" xlink:title=" ">
<polygon fill="white" stroke="#666666" points="222.5,-98 109.5,-98 109.5,-79 222.5,-79 222.5,-98"/>
<text text-anchor="middle" x="166" y="-86" font-family="Helvetica,sans-Serif" font-size="10.00">chT_g_2_0_A_interp</text>
</a>
</g>
</g>
<!-- Node1&#45;&gt;Node3 -->
<g id="edge2_Node000001_Node000003" class="edge">
<title>Node1&#45;&gt;Node3</title>
<g id="a_edge2_Node000001_Node000003"><a xlink:title=" ">
<path fill="none" stroke="#63b8ff" d="M68.14,-88.5C77.66,-88.5 88.39,-88.5 99.16,-88.5"/>
<polygon fill="#63b8ff" stroke="#63b8ff" points="99.44,-92 109.44,-88.5 99.44,-85 99.44,-92"/>
</a>
</g>
</g>
<!-- Node7 -->
<g id="Node000007" class="node">
<title>Node7</title>
<g id="a_Node000007"><a xlink:href="hqcoeff_8cpp.html#a125f14b4de4e555efaed0afa9a9f4547" target="_top" xlink:title="from [Riemersma, Smith, van Neerven; Phys. Let. B, 347 (1&#45;2), 143, 1995] eq. (20)">
<polygon fill="white" stroke="#666666" points="222.5,-135 109.5,-135 109.5,-116 222.5,-116 222.5,-135"/>
<text text-anchor="middle" x="166" y="-123" font-family="Helvetica,sans-Serif" font-size="10.00">chT_g_2_0_asympG</text>
</a>
</g>
</g>
<!-- Node1&#45;&gt;Node7 -->
<g id="edge6_Node000001_Node000007" class="edge">
<title>Node1&#45;&gt;Node7</title>
<g id="a_edge6_Node000001_Node000007"><a xlink:title=" ">
<path fill="none" stroke="#63b8ff" d="M68.14,-97.93C84.37,-102.55 104.11,-108.17 121.53,-113.13"/>
<polygon fill="#63b8ff" stroke="#63b8ff" points="120.89,-116.58 131.47,-115.96 122.81,-109.85 120.89,-116.58"/>
</a>
</g>
</g>
<!-- Node12 -->
<g id="Node000012" class="node">
<title>Node12</title>
<g id="a_Node000012"><a xlink:href="hqcoeff_8cpp.html#a12953fcfa61203346ff104331e653a08" target="_top" xlink:title="from [Riemersma, Smith, van Neerven; Phys. Let. B, 347 (1&#45;2), 143, 1995] eq. (14)">
<polygon fill="white" stroke="#666666" points="227.5,-61 104.5,-61 104.5,-42 227.5,-42 227.5,-61"/>
<text text-anchor="middle" x="166" y="-49" font-family="Helvetica,sans-Serif" font-size="10.00">chT_g_2_0_F_asympE</text>
</a>
</g>
</g>
<!-- Node1&#45;&gt;Node12 -->
<g id="edge11_Node000001_Node000012" class="edge">
<title>Node1&#45;&gt;Node12</title>
<g id="a_edge11_Node000001_Node000012"><a xlink:title=" ">
<path fill="none" stroke="#63b8ff" d="M68.14,-79.07C84.37,-74.45 104.11,-68.83 121.53,-63.87"/>
<polygon fill="#63b8ff" stroke="#63b8ff" points="122.81,-67.15 131.47,-61.04 120.89,-60.42 122.81,-67.15"/>
</a>
</g>
</g>
<!-- Node13 -->
<g id="Node000013" class="node">
<title>Node13</title>
<g id="a_Node000013"><a xlink:href="hqcoeff_8cpp.html#ada1d029fd3ede5adb9620ecf080700a6" target="_top" xlink:title=" ">
<polygon fill="white" stroke="#666666" points="222.5,-24 109.5,-24 109.5,-5 222.5,-5 222.5,-24"/>
<text text-anchor="middle" x="166" y="-12" font-family="Helvetica,sans-Serif" font-size="10.00">chT_g_2_0_F_interp</text>
</a>
</g>
</g>
<!-- Node1&#45;&gt;Node13 -->
<g id="edge12_Node000001_Node000013" class="edge">
<title>Node1&#45;&gt;Node13</title>
<g id="a_edge12_Node000001_Node000013"><a xlink:title=" ">
<path fill="none" stroke="#63b8ff" d="M44.89,-78.61C57.57,-66.43 80.72,-45.84 104,-33.5 108.19,-31.28 112.68,-29.27 117.26,-27.46"/>
<polygon fill="#63b8ff" stroke="#63b8ff" points="118.49,-30.74 126.7,-24.04 116.1,-24.16 118.49,-30.74"/>
</a>
</g>
</g>
<!-- Node4 -->
<g id="Node000004" class="node">
<title>Node4</title>
<g id="a_Node000004"><a xlink:href="hqcoeff_8cpp.html#a0f2bd73fb80ae5fda9fd8b4023cd40e4" target="_top" xlink:title="Find the interpolated value of a function f(x,y), where f is given as a 2D grid farr[Nx][Ny] with res...">
<polygon fill="white" stroke="#666666" points="338,-33 264,-33 264,-14 338,-14 338,-33"/>
<text text-anchor="middle" x="301" y="-21" font-family="Helvetica,sans-Serif" font-size="10.00">myInterp2D</text>
</a>
</g>
</g>
<!-- Node3&#45;&gt;Node4 -->
<g id="edge3_Node000003_Node000004" class="edge">
<title>Node3&#45;&gt;Node4</title>
<g id="a_edge3_Node000003_Node000004"><a xlink:title=" ">
<path fill="none" stroke="#63b8ff" d="M205.7,-78.93C213.24,-76.55 220.98,-73.74 228,-70.5 246.34,-62.03 265.42,-49.38 279.32,-39.33"/>
<polygon fill="#63b8ff" stroke="#63b8ff" points="281.69,-41.94 287.65,-33.18 277.53,-36.31 281.69,-41.94"/>
</a>
</g>
</g>
<!-- Node5 -->
<g id="Node000005" class="node">
<title>Node5</title>
<g id="a_Node000005"><a xlink:href="hqcoeff_8cpp.html#a9a59dacb0dd3b28d6e70c02b379f613d" target="_top" xlink:title="returns index of gridpoint in xarr[Nx] to the left or equal to x">
<polygon fill="white" stroke="#666666" points="446.5,-56 396.5,-56 396.5,-37 446.5,-37 446.5,-56"/>
<text text-anchor="middle" x="421.5" y="-44" font-family="Helvetica,sans-Serif" font-size="10.00">findIdx</text>
</a>
</g>
</g>
<!-- Node4&#45;&gt;Node5 -->
<g id="edge4_Node000004_Node000005" class="edge">
<title>Node4&#45;&gt;Node5</title>
<g id="a_edge4_Node000004_Node000005"><a xlink:title=" ">
<path fill="none" stroke="#63b8ff" d="M338.2,-30.53C353.57,-33.51 371.4,-36.97 386.52,-39.91"/>
<polygon fill="#63b8ff" stroke="#63b8ff" points="386.01,-43.37 396.5,-41.84 387.35,-36.5 386.01,-43.37"/>
</a>
</g>
</g>
<!-- Node6 -->
<g id="Node000006" class="node">
<title>Node6</title>
<g id="a_Node000006"><a xlink:href="hqcoeff_8cpp.html#ab42c78400cc617afc6dd48f6b9804a94" target="_top" xlink:title="1 dimensional quadratic interpolation (3pt Lagrange)">
<polygon fill="white" stroke="#666666" points="469,-19 374,-19 374,0 469,0 469,-19"/>
<text text-anchor="middle" x="421.5" y="-7" font-family="Helvetica,sans-Serif" font-size="10.00">myInterp1D_3pt</text>
</a>
</g>
</g>
<!-- Node4&#45;&gt;Node6 -->
<g id="edge5_Node000004_Node000006" class="edge">
<title>Node4&#45;&gt;Node6</title>
<g id="a_edge5_Node000004_Node000006"><a xlink:title=" ">
<path fill="none" stroke="#63b8ff" d="M338.2,-19.22C346.22,-18.28 354.91,-17.25 363.54,-16.23"/>
<polygon fill="#63b8ff" stroke="#63b8ff" points="364.07,-19.69 373.59,-15.04 363.25,-12.74 364.07,-19.69"/>
</a>
</g>
</g>
<!-- Node8 -->
<g id="Node000008" class="node">
<title>Node8</title>
<g id="a_Node000008"><a xlink:href="hqcoeff_8cpp.html#aefcfbc062d44707454fb2f83709d46c4" target="_top" xlink:title="O(ln(muR2/m2)^0)">
<polygon fill="white" stroke="#666666" points="335,-111 267,-111 267,-92 335,-92 335,-111"/>
<text text-anchor="middle" x="301" y="-99" font-family="Helvetica,sans-Serif" font-size="10.00">I_hqhelper</text>
</a>
</g>
</g>
<!-- Node7&#45;&gt;Node8 -->
<g id="edge7_Node000007_Node000008" class="edge">
<title>Node7&#45;&gt;Node8</title>
<g id="a_edge7_Node000007_Node000008"><a xlink:title=" ">
<path fill="none" stroke="#63b8ff" d="M219.95,-115.95C232.16,-113.74 245.01,-111.42 256.76,-109.3"/>
<polygon fill="#63b8ff" stroke="#63b8ff" points="257.53,-112.72 266.75,-107.5 256.29,-105.83 257.53,-112.72"/>
</a>
</g>
</g>
<!-- Node11 -->
<g id="Node000011" class="node">
<title>Node11</title>
<g id="a_Node000011"><a xlink:href="hqcoeff_8cpp.html#afbf32e618df6e4929c5e941c15cc4cab" target="_top" xlink:title="from [Riemersma, Smith, van Neerven; Phys. Let. B, 347 (1&#45;2), 143, 1995] eq. (23)">
<polygon fill="white" stroke="#666666" points="335,-148 267,-148 267,-129 335,-129 335,-148"/>
<text text-anchor="middle" x="301" y="-136" font-family="Helvetica,sans-Serif" font-size="10.00">J_hqhelper</text>
</a>
</g>
</g>
<!-- Node7&#45;&gt;Node11 -->
<g id="edge10_Node000007_Node000011" class="edge">
<title>Node7&#45;&gt;Node11</title>
<g id="a_edge10_Node000007_Node000011"><a xlink:title=" ">
<path fill="none" stroke="#63b8ff" d="M222.63,-130.94C234.07,-132.06 245.95,-133.22 256.86,-134.28"/>
<polygon fill="#63b8ff" stroke="#63b8ff" points="256.69,-137.78 266.98,-135.27 257.37,-130.82 256.69,-137.78"/>
</a>
</g>
</g>
<!-- Node9 -->
<g id="Node000009" class="node">
<title>Node9</title>
<g id="a_Node000009"><a xlink:href="chaplin_8h.html#ab5340425c31d2f2ab20f8b281db2c3f1" target="_top" xlink:title="generic interface for C++ to the Fortran routine">
<polygon fill="white" stroke="#666666" points="442,-111 401,-111 401,-92 442,-92 442,-111"/>
<text text-anchor="middle" x="421.5" y="-99" font-family="Helvetica,sans-Serif" font-size="10.00">HPL2</text>
</a>
</g>
</g>
<!-- Node8&#45;&gt;Node9 -->
<g id="edge8_Node000008_Node000009" class="edge">
<title>Node8&#45;&gt;Node9</title>
<g id="a_edge8_Node000008_Node000009"><a xlink:title=" ">
<path fill="none" stroke="#63b8ff" d="M335.01,-101.5C352.42,-101.5 373.63,-101.5 390.56,-101.5"/>
<polygon fill="#63b8ff" stroke="#63b8ff" points="390.99,-105 400.99,-101.5 390.99,-98 390.99,-105"/>
</a>
</g>
</g>
<!-- Node10 -->
<g id="Node000010" class="node">
<title>Node10</title>
<g id="a_Node000010"><a xlink:href="chaplin_8h.html#a3ba3e7e3cf17242e56dc59d885bcac68" target="_top" xlink:title=" ">
<polygon fill="white" stroke="#666666" points="548,-111 505,-111 505,-92 548,-92 548,-111"/>
<text text-anchor="middle" x="526.5" y="-99" font-family="Helvetica,sans-Serif" font-size="10.00">hpl2_</text>
</a>
</g>
</g>
<!-- Node9&#45;&gt;Node10 -->
<g id="edge9_Node000009_Node000010" class="edge">
<title>Node9&#45;&gt;Node10</title>
<g id="a_edge9_Node000009_Node000010"><a xlink:title=" ">
<path fill="none" stroke="#63b8ff" d="M442.36,-101.5C457.27,-101.5 477.96,-101.5 494.97,-101.5"/>
<polygon fill="#63b8ff" stroke="#63b8ff" points="495,-105 505,-101.5 495,-98 495,-105"/>
</a>
</g>
</g>
<!-- Node13&#45;&gt;Node4 -->
<g id="edge13_Node000013_Node000004" class="edge">
<title>Node13&#45;&gt;Node4</title>
<g id="a_edge13_Node000013_Node000004"><a xlink:title=" ">
<path fill="none" stroke="#63b8ff" d="M222.63,-18.26C232.99,-18.97 243.7,-19.69 253.74,-20.37"/>
<polygon fill="#63b8ff" stroke="#63b8ff" points="253.7,-23.87 263.91,-21.06 254.17,-16.89 253.7,-23.87"/>
</a>
</g>
</g>
</g>
</svg>
