<?xml version="1.0" encoding="UTF-8" standalone="no"?>
<!DOCTYPE svg PUBLIC "-//W3C//DTD SVG 1.1//EN"
 "http://www.w3.org/Graphics/SVG/1.1/DTD/svg11.dtd">
<!-- Generated by graphviz version 2.43.0 (0)
 -->
<!-- Title: chT_q_2_1_Lcoupl_interp Pages: 1 -->
<svg width="387pt" height="64pt"
 viewBox="0.00 0.00 387.00 64.00" xmlns="http://www.w3.org/2000/svg" xmlns:xlink="http://www.w3.org/1999/xlink">
<g id="graph0" class="graph" transform="scale(1 1) rotate(0) translate(4 60)">
<title>chT_q_2_1_Lcoupl_interp</title>
<!-- Node1 -->
<g id="Node000001" class="node">
<title>Node1</title>
<g id="a_Node000001"><a xlink:title=" ">
<polygon fill="#999999" stroke="#666666" points="138,-37 0,-37 0,-18 138,-18 138,-37"/>
<text text-anchor="middle" x="69" y="-25" font-family="Helvetica,sans-Serif" font-size="10.00">chT_q_2_1_Lcoupl_interp</text>
</a>
</g>
</g>
<!-- Node2 -->
<g id="Node000002" class="node">
<title>Node2</title>
<g id="a_Node000002"><a xlink:href="hqcoeff_8cpp.html#a0f2bd73fb80ae5fda9fd8b4023cd40e4" target="_top" xlink:title="Find the interpolated value of a function f(x,y), where f is given as a 2D grid farr[Nx][Ny] with res...">
<polygon fill="white" stroke="#666666" points="248,-37 174,-37 174,-18 248,-18 248,-37"/>
<text text-anchor="middle" x="211" y="-25" font-family="Helvetica,sans-Serif" font-size="10.00">myInterp2D</text>
</a>
</g>
</g>
<!-- Node1&#45;&gt;Node2 -->
<g id="edge1_Node000001_Node000002" class="edge">
<title>Node1&#45;&gt;Node2</title>
<g id="a_edge1_Node000001_Node000002"><a xlink:title=" ">
<path fill="none" stroke="#63b8ff" d="M138.36,-27.5C146.95,-27.5 155.57,-27.5 163.71,-27.5"/>
<polygon fill="#63b8ff" stroke="#63b8ff" points="163.72,-31 173.72,-27.5 163.72,-24 163.72,-31"/>
</a>
</g>
</g>
<!-- Node3 -->
<g id="Node000003" class="node">
<title>Node3</title>
<g id="a_Node000003"><a xlink:href="hqcoeff_8cpp.html#a9a59dacb0dd3b28d6e70c02b379f613d" target="_top" xlink:title="returns index of gridpoint in xarr[Nx] to the left or equal to x">
<polygon fill="white" stroke="#666666" points="356.5,-56 306.5,-56 306.5,-37 356.5,-37 356.5,-56"/>
<text text-anchor="middle" x="331.5" y="-44" font-family="Helvetica,sans-Serif" font-size="10.00">findIdx</text>
</a>
</g>
</g>
<!-- Node2&#45;&gt;Node3 -->
<g id="edge2_Node000002_Node000003" class="edge">
<title>Node2&#45;&gt;Node3</title>
<g id="a_edge2_Node000002_Node000003"><a xlink:title=" ">
<path fill="none" stroke="#63b8ff" d="M248.2,-33.3C263.57,-35.77 281.4,-38.63 296.52,-41.05"/>
<polygon fill="#63b8ff" stroke="#63b8ff" points="296.07,-44.52 306.5,-42.65 297.18,-37.61 296.07,-44.52"/>
</a>
</g>
</g>
<!-- Node4 -->
<g id="Node000004" class="node">
<title>Node4</title>
<g id="a_Node000004"><a xlink:href="hqcoeff_8cpp.html#ab42c78400cc617afc6dd48f6b9804a94" target="_top" xlink:title="1 dimensional quadratic interpolation (3pt Lagrange)">
<polygon fill="white" stroke="#666666" points="379,-19 284,-19 284,0 379,0 379,-19"/>
<text text-anchor="middle" x="331.5" y="-7" font-family="Helvetica,sans-Serif" font-size="10.00">myInterp1D_3pt</text>
</a>
</g>
</g>
<!-- Node2&#45;&gt;Node4 -->
<g id="edge3_Node000002_Node000004" class="edge">
<title>Node2&#45;&gt;Node4</title>
<g id="a_edge3_Node000002_Node000004"><a xlink:title=" ">
<path fill="none" stroke="#63b8ff" d="M248.2,-22C256.22,-20.78 264.91,-19.46 273.54,-18.15"/>
<polygon fill="#63b8ff" stroke="#63b8ff" points="274.23,-21.59 283.59,-16.63 273.18,-14.67 274.23,-21.59"/>
</a>
</g>
</g>
</g>
</svg>
