<?xml version="1.0" encoding="UTF-8" standalone="no"?>
<!DOCTYPE svg PUBLIC "-//W3C//DTD SVG 1.1//EN"
 "http://www.w3.org/Graphics/SVG/1.1/DTD/svg11.dtd">
<!-- Generated by graphviz version 2.43.0 (0)
 -->
<!-- Title: chL_g_2_1_A_asympE Pages: 1 -->
<svg width="479pt" height="27pt"
 viewBox="0.00 0.00 479.00 27.00" xmlns="http://www.w3.org/2000/svg" xmlns:xlink="http://www.w3.org/1999/xlink">
<g id="graph0" class="graph" transform="scale(1 1) rotate(0) translate(4 23)">
<title>chL_g_2_1_A_asympE</title>
<!-- Node1 -->
<g id="Node000001" class="node">
<title>Node1</title>
<g id="a_Node000001"><a xlink:title="from [Riemersma, Smith, van Neerven; Phys. Let. B, 347 (1&#45;2), 143, 1995] eq. (17)">
<polygon fill="#999999" stroke="#666666" points="471,-19 348,-19 348,0 471,0 471,-19"/>
<text text-anchor="middle" x="409.5" y="-7" font-family="Helvetica,sans-Serif" font-size="10.00">chL_g_2_1_A_asympE</text>
</a>
</g>
</g>
<!-- Node2 -->
<g id="Node000002" class="node">
<title>Node2</title>
<g id="a_Node000002"><a xlink:href="hqcoeff_8cpp.html#a6eb022fae76373fd6be83168d4179d66" target="_top" xlink:title="O(ln(muR2/m2)^1)">
<polygon fill="white" stroke="#666666" points="312,-19 245,-19 245,0 312,0 312,-19"/>
<text text-anchor="middle" x="278.5" y="-7" font-family="Helvetica,sans-Serif" font-size="10.00">chL_g_2_1</text>
</a>
</g>
</g>
<!-- Node1&#45;&gt;Node2 -->
<g id="edge1_Node000001_Node000002" class="edge">
<title>Node1&#45;&gt;Node2</title>
<g id="a_edge1_Node000001_Node000002"><a xlink:title=" ">
<path fill="none" stroke="#63b8ff" d="M337.69,-9.5C328.79,-9.5 320.05,-9.5 312.16,-9.5"/>
<polygon fill="#63b8ff" stroke="#63b8ff" points="337.78,-13 347.78,-9.5 337.78,-6 337.78,-13"/>
</a>
</g>
</g>
<!-- Node3 -->
<g id="Node000003" class="node">
<title>Node3</title>
<g id="a_Node000003"><a xlink:href="hqcoeff_8cpp.html#a1ed938e0ee3427de9a4b4a5cf4926e06" target="_top" xlink:title="2 part">
<polygon fill="white" stroke="#666666" points="209,-19 141,-19 141,0 209,0 209,-19"/>
<text text-anchor="middle" x="175" y="-7" font-family="Helvetica,sans-Serif" font-size="10.00">ch2_g_2_1</text>
</a>
</g>
</g>
<!-- Node2&#45;&gt;Node3 -->
<g id="edge2_Node000002_Node000003" class="edge">
<title>Node2&#45;&gt;Node3</title>
<g id="a_edge2_Node000002_Node000003"><a xlink:title=" ">
<path fill="none" stroke="#63b8ff" d="M234.69,-9.5C226.21,-9.5 217.42,-9.5 209.31,-9.5"/>
<polygon fill="#63b8ff" stroke="#63b8ff" points="234.83,-13 244.83,-9.5 234.83,-6 234.83,-13"/>
</a>
</g>
</g>
<!-- Node4 -->
<g id="Node000004" class="node">
<title>Node4</title>
<g id="a_Node000004"><a xlink:href="structfunc_8cpp.html#ae97306c88ea1474d650300c3d8e0546f" target="_top" xlink:title="implementation of [Laenen, Riemersma, Smith, v. Neerven; Nucl. Phys. B, 392 (1), 162,...">
<polygon fill="white" stroke="#666666" points="105,-19 0,-19 0,0 105,0 105,-19"/>
<text text-anchor="middle" x="52.5" y="-7" font-family="Helvetica,sans-Serif" font-size="10.00">F2heavyintegrand</text>
</a>
</g>
</g>
<!-- Node3&#45;&gt;Node4 -->
<g id="edge3_Node000003_Node000004" class="edge">
<title>Node3&#45;&gt;Node4</title>
<g id="a_edge3_Node000003_Node000004"><a xlink:title=" ">
<path fill="none" stroke="#63b8ff" d="M130.6,-9.5C122.35,-9.5 113.65,-9.5 105.17,-9.5"/>
<polygon fill="#63b8ff" stroke="#63b8ff" points="130.75,-13 140.75,-9.5 130.75,-6 130.75,-13"/>
</a>
</g>
</g>
</g>
</svg>
