<?xml version="1.0" encoding="UTF-8" standalone="no"?>
<!DOCTYPE svg PUBLIC "-//W3C//DTD SVG 1.1//EN"
 "http://www.w3.org/Graphics/SVG/1.1/DTD/svg11.dtd">
<!-- Generated by graphviz version 2.43.0 (0)
 -->
<!-- Title: ProcessInitialData Pages: 1 -->
<svg width="250pt" height="64pt"
 viewBox="0.00 0.00 250.00 64.00" xmlns="http://www.w3.org/2000/svg" xmlns:xlink="http://www.w3.org/1999/xlink">
<g id="graph0" class="graph" transform="scale(1 1) rotate(0) translate(4 60)">
<title>ProcessInitialData</title>
<!-- Node1 -->
<g id="Node000001" class="node">
<title>Node1</title>
<g id="a_Node000001"><a xlink:title=" ">
<polygon fill="#999999" stroke="#666666" points="105,-37 0,-37 0,-18 105,-18 105,-37"/>
<text text-anchor="middle" x="52.5" y="-25" font-family="Helvetica,sans-Serif" font-size="10.00">ProcessInitialData</text>
</a>
</g>
</g>
<!-- Node2 -->
<g id="Node000002" class="node">
<title>Node2</title>
<g id="a_Node000002"><a xlink:href="extrapolate_8h.html#a9934822b458cce1bab6b6511a168692c" target="_top" xlink:title=" ">
<polygon fill="white" stroke="#666666" points="242,-56 141,-56 141,-37 242,-37 242,-56"/>
<text text-anchor="middle" x="191.5" y="-44" font-family="Helvetica,sans-Serif" font-size="10.00">linearExtrapolate</text>
</a>
</g>
</g>
<!-- Node1&#45;&gt;Node2 -->
<g id="edge1_Node000001_Node000002" class="edge">
<title>Node1&#45;&gt;Node2</title>
<g id="a_edge1_Node000001_Node000002"><a xlink:title=" ">
<path fill="none" stroke="#63b8ff" d="M105.29,-34.68C113.68,-35.85 122.42,-37.06 130.98,-38.24"/>
<polygon fill="#63b8ff" stroke="#63b8ff" points="130.51,-41.71 140.9,-39.62 131.47,-34.78 130.51,-41.71"/>
</a>
</g>
</g>
<!-- Node3 -->
<g id="Node000003" class="node">
<title>Node3</title>
<g id="a_Node000003"><a xlink:href="filereader_8h.html#a49ce595d6717f4010b9aed7327ec1022" target="_top" xlink:title=" ">
<polygon fill="white" stroke="#666666" points="219,-19 164,-19 164,0 219,0 219,-19"/>
<text text-anchor="middle" x="191.5" y="-7" font-family="Helvetica,sans-Serif" font-size="10.00">readcsv</text>
</a>
</g>
</g>
<!-- Node1&#45;&gt;Node3 -->
<g id="edge2_Node000001_Node000003" class="edge">
<title>Node1&#45;&gt;Node3</title>
<g id="a_edge2_Node000001_Node000003"><a xlink:title=" ">
<path fill="none" stroke="#63b8ff" d="M105.29,-20.69C121.39,-18.58 138.8,-16.29 153.66,-14.34"/>
<polygon fill="#63b8ff" stroke="#63b8ff" points="154.51,-17.76 163.97,-12.99 153.6,-10.82 154.51,-17.76"/>
</a>
</g>
</g>
</g>
</svg>
