<?xml version="1.0" encoding="UTF-8" standalone="no"?>
<!DOCTYPE svg PUBLIC "-//W3C//DTD SVG 1.1//EN"
 "http://www.w3.org/Graphics/SVG/1.1/DTD/svg11.dtd">
<!-- Generated by graphviz version 2.43.0 (0)
 -->
<!-- Title: include/initdata.h Pages: 1 -->
<svg width="748pt" height="203pt"
 viewBox="0.00 0.00 748.00 203.00" xmlns="http://www.w3.org/2000/svg" xmlns:xlink="http://www.w3.org/1999/xlink">
<g id="graph0" class="graph" transform="scale(1 1) rotate(0) translate(4 199)">
<title>include/initdata.h</title>
<!-- Node1 -->
<g id="Node000001" class="node">
<title>Node1</title>
<g id="a_Node000001"><a xlink:title=" ">
<polygon fill="#999999" stroke="#666666" points="426,-195 325,-195 325,-176 426,-176 426,-195"/>
<text text-anchor="middle" x="375.5" y="-183" font-family="Helvetica,sans-Serif" font-size="10.00">include/initdata.h</text>
</a>
</g>
</g>
<!-- Node2 -->
<g id="Node000002" class="node">
<title>Node2</title>
<g id="a_Node000002"><a xlink:title=" ">
<polygon fill="#e0e0e0" stroke="#999999" points="65,-74 0,-74 0,-55 65,-55 65,-74"/>
<text text-anchor="middle" x="32.5" y="-62" font-family="Helvetica,sans-Serif" font-size="10.00">functional</text>
</a>
</g>
</g>
<!-- Node1&#45;&gt;Node2 -->
<g id="edge1_Node000001_Node000002" class="edge">
<title>Node1&#45;&gt;Node2</title>
<g id="a_edge1_Node000001_Node000002"><a xlink:title=" ">
<path fill="none" stroke="#63b8ff" d="M324.87,-180.69C255.14,-174.73 133.82,-161.6 95.5,-140 71.59,-126.53 52.72,-100.27 42.08,-82.81"/>
<polygon fill="#63b8ff" stroke="#63b8ff" points="45.09,-81.03 37.03,-74.15 39.04,-84.55 45.09,-81.03"/>
</a>
</g>
</g>
<!-- Node3 -->
<g id="Node000003" class="node">
<title>Node3</title>
<g id="a_Node000003"><a xlink:title=" ">
<polygon fill="#e0e0e0" stroke="#999999" points="396.5,-74 352.5,-74 352.5,-55 396.5,-55 396.5,-74"/>
<text text-anchor="middle" x="374.5" y="-62" font-family="Helvetica,sans-Serif" font-size="10.00">string</text>
</a>
</g>
</g>
<!-- Node1&#45;&gt;Node3 -->
<g id="edge2_Node000001_Node000003" class="edge">
<title>Node1&#45;&gt;Node3</title>
<g id="a_edge2_Node000001_Node000003"><a xlink:title=" ">
<path fill="none" stroke="#63b8ff" d="M372.41,-175.77C369.45,-166.9 365.18,-152.69 363.5,-140 361.75,-126.78 361.89,-123.24 363.5,-110 364.56,-101.31 366.74,-91.87 368.88,-83.93"/>
<polygon fill="#63b8ff" stroke="#63b8ff" points="372.27,-84.83 371.67,-74.25 365.54,-82.89 372.27,-84.83"/>
</a>
</g>
</g>
<!-- Node4 -->
<g id="Node000004" class="node">
<title>Node4</title>
<g id="a_Node000004"><a xlink:title=" ">
<polygon fill="#e0e0e0" stroke="#999999" points="508,-134.5 461,-134.5 461,-115.5 508,-115.5 508,-134.5"/>
<text text-anchor="middle" x="484.5" y="-122.5" font-family="Helvetica,sans-Serif" font-size="10.00">cmath</text>
</a>
</g>
</g>
<!-- Node1&#45;&gt;Node4 -->
<g id="edge3_Node000001_Node000004" class="edge">
<title>Node1&#45;&gt;Node4</title>
<g id="a_edge3_Node000001_Node000004"><a xlink:title=" ">
<path fill="none" stroke="#63b8ff" d="M391.58,-175.87C409.45,-166.28 438.54,-150.67 459.41,-139.47"/>
<polygon fill="#63b8ff" stroke="#63b8ff" points="461.19,-142.48 468.35,-134.67 457.88,-136.31 461.19,-142.48"/>
</a>
</g>
</g>
<!-- Node5 -->
<g id="Node000005" class="node">
<title>Node5</title>
<g id="a_Node000005"><a xlink:title=" ">
<polygon fill="#e0e0e0" stroke="#999999" points="585,-134.5 526,-134.5 526,-115.5 585,-115.5 585,-134.5"/>
<text text-anchor="middle" x="555.5" y="-122.5" font-family="Helvetica,sans-Serif" font-size="10.00">complex</text>
</a>
</g>
</g>
<!-- Node1&#45;&gt;Node5 -->
<g id="edge4_Node000001_Node000005" class="edge">
<title>Node1&#45;&gt;Node5</title>
<g id="a_edge4_Node000001_Node000005"><a xlink:title=" ">
<path fill="none" stroke="#63b8ff" d="M404.19,-175.96C432.97,-167.29 478.49,-153.29 517.5,-140 519.35,-139.37 521.24,-138.71 523.15,-138.04"/>
<polygon fill="#63b8ff" stroke="#63b8ff" points="524.43,-141.3 532.66,-134.62 522.06,-134.71 524.43,-141.3"/>
</a>
</g>
</g>
<!-- Node6 -->
<g id="Node000006" class="node">
<title>Node6</title>
<g id="a_Node000006"><a xlink:title=" ">
<polygon fill="#e0e0e0" stroke="#999999" points="740,-140 603,-140 603,-110 740,-110 740,-140"/>
<text text-anchor="start" x="611" y="-128" font-family="Helvetica,sans-Serif" font-size="10.00">boost/math/interpolators</text>
<text text-anchor="middle" x="671.5" y="-117" font-family="Helvetica,sans-Serif" font-size="10.00">/pchip.hpp</text>
</a>
</g>
</g>
<!-- Node1&#45;&gt;Node6 -->
<g id="edge5_Node000001_Node000006" class="edge">
<title>Node1&#45;&gt;Node6</title>
<g id="a_edge5_Node000001_Node000006"><a xlink:title=" ">
<path fill="none" stroke="#63b8ff" d="M418.54,-175.99C464.15,-166.98 537.14,-152.55 593.03,-141.51"/>
<polygon fill="#63b8ff" stroke="#63b8ff" points="593.77,-144.93 602.9,-139.56 592.41,-138.06 593.77,-144.93"/>
</a>
</g>
</g>
<!-- Node7 -->
<g id="Node000007" class="node">
<title>Node7</title>
<g id="a_Node000007"><a xlink:href="filereader_8h.html" target="_top" xlink:title=" ">
<polygon fill="white" stroke="#666666" points="443,-134.5 372,-134.5 372,-115.5 443,-115.5 443,-134.5"/>
<text text-anchor="middle" x="407.5" y="-122.5" font-family="Helvetica,sans-Serif" font-size="10.00">filereader.h</text>
</a>
</g>
</g>
<!-- Node1&#45;&gt;Node7 -->
<g id="edge6_Node000001_Node000007" class="edge">
<title>Node1&#45;&gt;Node7</title>
<g id="a_edge6_Node000001_Node000007"><a xlink:title=" ">
<path fill="none" stroke="#63b8ff" d="M380.22,-175.87C384.85,-167.4 392.05,-154.24 397.89,-143.57"/>
<polygon fill="#63b8ff" stroke="#63b8ff" points="401.03,-145.12 402.76,-134.67 394.89,-141.76 401.03,-145.12"/>
</a>
</g>
</g>
<!-- Node12 -->
<g id="Node000012" class="node">
<title>Node12</title>
<g id="a_Node000012"><a xlink:href="uninitfunc_8h.html" target="_top" xlink:title=" ">
<polygon fill="white" stroke="#666666" points="178.5,-134.5 104.5,-134.5 104.5,-115.5 178.5,-115.5 178.5,-134.5"/>
<text text-anchor="middle" x="141.5" y="-122.5" font-family="Helvetica,sans-Serif" font-size="10.00">uninitfunc.h</text>
</a>
</g>
</g>
<!-- Node1&#45;&gt;Node12 -->
<g id="edge12_Node000001_Node000012" class="edge">
<title>Node1&#45;&gt;Node12</title>
<g id="a_edge12_Node000001_Node000012"><a xlink:title=" ">
<path fill="none" stroke="#63b8ff" d="M341.47,-175.99C300.23,-165.68 230.64,-148.28 185.39,-136.97"/>
<polygon fill="#63b8ff" stroke="#63b8ff" points="186.12,-133.55 175.57,-134.52 184.42,-140.34 186.12,-133.55"/>
</a>
</g>
</g>
<!-- Node15 -->
<g id="Node000015" class="node">
<title>Node15</title>
<g id="a_Node000015"><a xlink:href="extrapolate_8h.html" target="_top" xlink:title=" ">
<polygon fill="white" stroke="#666666" points="315.5,-134.5 233.5,-134.5 233.5,-115.5 315.5,-115.5 315.5,-134.5"/>
<text text-anchor="middle" x="274.5" y="-122.5" font-family="Helvetica,sans-Serif" font-size="10.00">extrapolate.h</text>
</a>
</g>
</g>
<!-- Node1&#45;&gt;Node15 -->
<g id="edge17_Node000001_Node000015" class="edge">
<title>Node1&#45;&gt;Node15</title>
<g id="a_edge17_Node000001_Node000015"><a xlink:title=" ">
<path fill="none" stroke="#63b8ff" d="M360.6,-175.87C344.19,-166.36 317.57,-150.95 298.27,-139.77"/>
<polygon fill="#63b8ff" stroke="#63b8ff" points="299.87,-136.65 289.46,-134.67 296.36,-142.71 299.87,-136.65"/>
</a>
</g>
</g>
<!-- Node7&#45;&gt;Node3 -->
<g id="edge8_Node000007_Node000003" class="edge">
<title>Node7&#45;&gt;Node3</title>
<g id="a_edge8_Node000007_Node000003"><a xlink:title=" ">
<path fill="none" stroke="#63b8ff" d="M402.63,-115.37C397.85,-106.9 390.43,-93.74 384.41,-83.07"/>
<polygon fill="#63b8ff" stroke="#63b8ff" points="387.35,-81.16 379.39,-74.17 381.25,-84.6 387.35,-81.16"/>
</a>
</g>
</g>
<!-- Node8 -->
<g id="Node000008" class="node">
<title>Node8</title>
<g id="a_Node000008"><a xlink:title=" ">
<polygon fill="#e0e0e0" stroke="#999999" points="508,-74 453,-74 453,-55 508,-55 508,-74"/>
<text text-anchor="middle" x="480.5" y="-62" font-family="Helvetica,sans-Serif" font-size="10.00">fstream</text>
</a>
</g>
</g>
<!-- Node7&#45;&gt;Node8 -->
<g id="edge7_Node000007_Node000008" class="edge">
<title>Node7&#45;&gt;Node8</title>
<g id="a_edge7_Node000007_Node000008"><a xlink:title=" ">
<path fill="none" stroke="#63b8ff" d="M418.27,-115.37C429.7,-106.21 447.98,-91.56 461.78,-80.51"/>
<polygon fill="#63b8ff" stroke="#63b8ff" points="464.07,-83.15 469.68,-74.17 459.69,-77.69 464.07,-83.15"/>
</a>
</g>
</g>
<!-- Node9 -->
<g id="Node000009" class="node">
<title>Node9</title>
<g id="a_Node000009"><a xlink:title=" ">
<polygon fill="#e0e0e0" stroke="#999999" points="288.5,-19 228.5,-19 228.5,0 288.5,0 288.5,-19"/>
<text text-anchor="middle" x="258.5" y="-7" font-family="Helvetica,sans-Serif" font-size="10.00">iostream</text>
</a>
</g>
</g>
<!-- Node7&#45;&gt;Node9 -->
<g id="edge9_Node000007_Node000009" class="edge">
<title>Node7&#45;&gt;Node9</title>
<g id="a_edge9_Node000007_Node000009"><a xlink:title=" ">
<path fill="none" stroke="#63b8ff" d="M410.17,-115.32C413.96,-101.11 419.04,-72.71 405.5,-55 380.76,-22.66 333.23,-13.07 298.9,-10.59"/>
<polygon fill="#63b8ff" stroke="#63b8ff" points="298.89,-7.09 288.71,-10.03 298.51,-14.07 298.89,-7.09"/>
</a>
</g>
</g>
<!-- Node10 -->
<g id="Node000010" class="node">
<title>Node10</title>
<g id="a_Node000010"><a xlink:title=" ">
<polygon fill="#e0e0e0" stroke="#999999" points="334,-74 287,-74 287,-55 334,-55 334,-74"/>
<text text-anchor="middle" x="310.5" y="-62" font-family="Helvetica,sans-Serif" font-size="10.00">vector</text>
</a>
</g>
</g>
<!-- Node7&#45;&gt;Node10 -->
<g id="edge10_Node000007_Node000010" class="edge">
<title>Node7&#45;&gt;Node10</title>
<g id="a_edge10_Node000007_Node000010"><a xlink:title=" ">
<path fill="none" stroke="#63b8ff" d="M393.19,-115.37C377.5,-105.91 352.1,-90.59 333.59,-79.42"/>
<polygon fill="#63b8ff" stroke="#63b8ff" points="335.24,-76.33 324.87,-74.17 331.63,-82.33 335.24,-76.33"/>
</a>
</g>
</g>
<!-- Node11 -->
<g id="Node000011" class="node">
<title>Node11</title>
<g id="a_Node000011"><a xlink:title=" ">
<polygon fill="#e0e0e0" stroke="#999999" points="570.5,-74 526.5,-74 526.5,-55 570.5,-55 570.5,-74"/>
<text text-anchor="middle" x="548.5" y="-62" font-family="Helvetica,sans-Serif" font-size="10.00">regex</text>
</a>
</g>
</g>
<!-- Node7&#45;&gt;Node11 -->
<g id="edge11_Node000007_Node000011" class="edge">
<title>Node7&#45;&gt;Node11</title>
<g id="a_edge11_Node000007_Node000011"><a xlink:title=" ">
<path fill="none" stroke="#63b8ff" d="M428,-115.49C451.81,-105.62 491.29,-89.23 518.54,-77.93"/>
<polygon fill="#63b8ff" stroke="#63b8ff" points="520.08,-81.08 527.97,-74.02 517.39,-74.62 520.08,-81.08"/>
</a>
</g>
</g>
<!-- Node12&#45;&gt;Node2 -->
<g id="edge13_Node000012_Node000002" class="edge">
<title>Node12&#45;&gt;Node2</title>
<g id="a_edge13_Node000012_Node000002"><a xlink:title=" ">
<path fill="none" stroke="#63b8ff" d="M125.42,-115.37C107.55,-105.78 78.46,-90.17 57.59,-78.97"/>
<polygon fill="#63b8ff" stroke="#63b8ff" points="59.12,-75.81 48.65,-74.17 55.81,-81.98 59.12,-75.81"/>
</a>
</g>
</g>
<!-- Node13 -->
<g id="Node000013" class="node">
<title>Node13</title>
<g id="a_Node000013"><a xlink:title=" ">
<polygon fill="#e0e0e0" stroke="#999999" points="230.5,-74 178.5,-74 178.5,-55 230.5,-55 230.5,-74"/>
<text text-anchor="middle" x="204.5" y="-62" font-family="Helvetica,sans-Serif" font-size="10.00">cassert</text>
</a>
</g>
</g>
<!-- Node12&#45;&gt;Node13 -->
<g id="edge14_Node000012_Node000013" class="edge">
<title>Node12&#45;&gt;Node13</title>
<g id="a_edge14_Node000012_Node000013"><a xlink:title=" ">
<path fill="none" stroke="#63b8ff" d="M150.8,-115.37C160.47,-106.38 175.84,-92.11 187.66,-81.14"/>
<polygon fill="#63b8ff" stroke="#63b8ff" points="190.22,-83.54 195.17,-74.17 185.46,-78.41 190.22,-83.54"/>
</a>
</g>
</g>
<!-- Node14 -->
<g id="Node000014" class="node">
<title>Node14</title>
<g id="a_Node000014"><a xlink:href="debugmsg_8h.html" target="_top" xlink:title=" ">
<polygon fill="white" stroke="#666666" points="160,-74 83,-74 83,-55 160,-55 160,-74"/>
<text text-anchor="middle" x="121.5" y="-62" font-family="Helvetica,sans-Serif" font-size="10.00">debugmsg.h</text>
</a>
</g>
</g>
<!-- Node12&#45;&gt;Node14 -->
<g id="edge15_Node000012_Node000014" class="edge">
<title>Node12&#45;&gt;Node14</title>
<g id="a_edge15_Node000012_Node000014"><a xlink:title=" ">
<path fill="none" stroke="#63b8ff" d="M138.55,-115.37C135.71,-107.07 131.34,-94.28 127.73,-83.72"/>
<polygon fill="#63b8ff" stroke="#63b8ff" points="131.01,-82.5 124.46,-74.17 124.39,-84.76 131.01,-82.5"/>
</a>
</g>
</g>
<!-- Node14&#45;&gt;Node9 -->
<g id="edge16_Node000014_Node000009" class="edge">
<title>Node14&#45;&gt;Node9</title>
<g id="a_edge16_Node000014_Node000009"><a xlink:title=" ">
<path fill="none" stroke="#63b8ff" d="M143.51,-54.98C165.95,-46.3 200.98,-32.75 226.49,-22.88"/>
<polygon fill="#63b8ff" stroke="#63b8ff" points="228.02,-26.04 236.09,-19.17 225.5,-19.51 228.02,-26.04"/>
</a>
</g>
</g>
<!-- Node15&#45;&gt;Node9 -->
<g id="edge18_Node000015_Node000009" class="edge">
<title>Node15&#45;&gt;Node9</title>
<g id="a_edge18_Node000015_Node000009"><a xlink:title=" ">
<path fill="none" stroke="#63b8ff" d="M273.3,-115.47C270.73,-97.23 264.64,-54.07 261.13,-29.14"/>
<polygon fill="#63b8ff" stroke="#63b8ff" points="264.58,-28.54 259.72,-19.13 257.65,-29.52 264.58,-28.54"/>
</a>
</g>
</g>
<!-- Node15&#45;&gt;Node10 -->
<g id="edge19_Node000015_Node000010" class="edge">
<title>Node15&#45;&gt;Node10</title>
<g id="a_edge19_Node000015_Node000010"><a xlink:title=" ">
<path fill="none" stroke="#63b8ff" d="M279.81,-115.37C285.08,-106.81 293.29,-93.47 299.89,-82.74"/>
<polygon fill="#63b8ff" stroke="#63b8ff" points="302.91,-84.52 305.17,-74.17 296.94,-80.85 302.91,-84.52"/>
</a>
</g>
</g>
</g>
</svg>
