<?xml version="1.0" encoding="UTF-8" standalone="no"?>
<!DOCTYPE svg PUBLIC "-//W3C//DTD SVG 1.1//EN"
 "http://www.w3.org/Graphics/SVG/1.1/DTD/svg11.dtd">
<!-- Generated by graphviz version 2.43.0 (0)
 -->
<!-- Title: D Pages: 1 -->
<svg width="476pt" height="85pt"
 viewBox="0.00 0.00 476.00 84.54" xmlns="http://www.w3.org/2000/svg" xmlns:xlink="http://www.w3.org/1999/xlink">
<g id="graph0" class="graph" transform="scale(1 1) rotate(0) translate(4 80.54)">
<title>D</title>
<!-- Node1 -->
<g id="Node000001" class="node">
<title>Node1</title>
<g id="a_Node000001"><a xlink:title="&lt; gluon">
<polygon fill="#999999" stroke="#666666" points="468,-75 439,-75 439,-56 468,-56 468,-75"/>
<text text-anchor="middle" x="453.5" y="-63" font-family="Helvetica,sans-Serif" font-size="10.00">D</text>
</a>
</g>
</g>
<!-- Node2 -->
<g id="Node000002" class="node">
<title>Node2</title>
<g id="a_Node000002"><a xlink:href="pdf_8h.html#a9baddbed7ad5f04071a998eb417a5b31" target="_top" xlink:title="Computes $\sum_i Q_i^2 x f(x,Q^2)$.">
<polygon fill="white" stroke="#666666" points="403,-75 337,-75 337,-56 403,-56 403,-75"/>
<text text-anchor="middle" x="370" y="-63" font-family="Helvetica,sans-Serif" font-size="10.00">xfiQi2sum</text>
</a>
</g>
</g>
<!-- Node1&#45;&gt;Node2 -->
<g id="edge1_Node000001_Node000002" class="edge">
<title>Node1&#45;&gt;Node2</title>
<g id="a_edge1_Node000001_Node000002"><a xlink:title=" ">
<path fill="none" stroke="#63b8ff" d="M428.63,-65.5C420.68,-65.5 411.69,-65.5 403.21,-65.5"/>
<polygon fill="#63b8ff" stroke="#63b8ff" points="428.67,-69 438.67,-65.5 428.67,-62 428.67,-69"/>
</a>
</g>
</g>
<!-- Node3 -->
<g id="Node000003" class="node">
<title>Node3</title>
<g id="a_Node000003"><a xlink:href="structfunc_8h.html#acf0236700b00bcb374259219e1fedc05" target="_top" xlink:title=" ">
<polygon fill="white" stroke="#666666" points="29,-56 0,-56 0,-37 29,-37 29,-56"/>
<text text-anchor="middle" x="14.5" y="-44" font-family="Helvetica,sans-Serif" font-size="10.00">F2</text>
</a>
</g>
</g>
<!-- Node2&#45;&gt;Node3 -->
<g id="edge2_Node000002_Node000003" class="edge">
<title>Node2&#45;&gt;Node3</title>
<g id="a_edge2_Node000002_Node000003"><a xlink:title=" ">
<path fill="none" stroke="#63b8ff" d="M326.61,-70.33C267.45,-75.98 157.04,-82.56 65,-65.5 52.51,-63.19 39.1,-57.84 29.39,-53.41"/>
<polygon fill="#63b8ff" stroke="#63b8ff" points="327.09,-73.8 336.7,-69.33 326.4,-66.83 327.09,-73.8"/>
</a>
</g>
</g>
<!-- Node4 -->
<g id="Node000004" class="node">
<title>Node4</title>
<g id="a_Node000004"><a xlink:href="structfunc_8h.html#aa4dc5cbd2ddc07970850d275ce8b8a44" target="_top" xlink:title="Computes all contributions to F2 that need to be integrated over, i.e. all contributions from coeffic...">
<polygon fill="white" stroke="#666666" points="301,-56 226,-56 226,-37 301,-37 301,-56"/>
<text text-anchor="middle" x="263.5" y="-44" font-family="Helvetica,sans-Serif" font-size="10.00">F2integrand</text>
</a>
</g>
</g>
<!-- Node2&#45;&gt;Node4 -->
<g id="edge3_Node000002_Node000004" class="edge">
<title>Node2&#45;&gt;Node4</title>
<g id="a_edge3_Node000002_Node000004"><a xlink:title=" ">
<path fill="none" stroke="#63b8ff" d="M326.71,-57.81C318.25,-56.27 309.42,-54.67 301.17,-53.17"/>
<polygon fill="#63b8ff" stroke="#63b8ff" points="326.33,-61.3 336.79,-59.64 327.58,-54.41 326.33,-61.3"/>
</a>
</g>
</g>
<!-- Node5 -->
<g id="Node000005" class="node">
<title>Node5</title>
<g id="a_Node000005"><a xlink:href="structfunc_8h.html#a72b9ad89e5a9cd71c67bbf6b73cfb3d6" target="_top" xlink:title=" ">
<polygon fill="white" stroke="#666666" points="190,-56 65,-56 65,-37 190,-37 190,-56"/>
<text text-anchor="middle" x="127.5" y="-44" font-family="Helvetica,sans-Serif" font-size="10.00">F2integrand_logtrafo0</text>
</a>
</g>
</g>
<!-- Node4&#45;&gt;Node5 -->
<g id="edge4_Node000004_Node000005" class="edge">
<title>Node4&#45;&gt;Node5</title>
<g id="a_edge4_Node000004_Node000005"><a xlink:title=" ">
<path fill="none" stroke="#63b8ff" d="M215.69,-46.5C207.41,-46.5 198.68,-46.5 190.07,-46.5"/>
<polygon fill="#63b8ff" stroke="#63b8ff" points="215.88,-50 225.88,-46.5 215.88,-43 215.88,-50"/>
</a>
</g>
</g>
<!-- Node6 -->
<g id="Node000006" class="node">
<title>Node6</title>
<g id="a_Node000006"><a xlink:href="structfunc_8h.html#a4c319327b228b6185e2cd88bf2c4b4f2" target="_top" xlink:title=" ">
<polygon fill="white" stroke="#666666" points="190,-19 65,-19 65,0 190,0 190,-19"/>
<text text-anchor="middle" x="127.5" y="-7" font-family="Helvetica,sans-Serif" font-size="10.00">F2integrand_logtrafo1</text>
</a>
</g>
</g>
<!-- Node4&#45;&gt;Node6 -->
<g id="edge6_Node000004_Node000006" class="edge">
<title>Node4&#45;&gt;Node6</title>
<g id="a_edge6_Node000004_Node000006"><a xlink:title=" ">
<path fill="none" stroke="#63b8ff" d="M217.86,-34.17C200.11,-29.27 180,-23.72 163.36,-19.12"/>
<polygon fill="#63b8ff" stroke="#63b8ff" points="217.42,-37.68 227.99,-36.97 219.28,-30.94 217.42,-37.68"/>
</a>
</g>
</g>
<!-- Node5&#45;&gt;Node3 -->
<g id="edge5_Node000005_Node000003" class="edge">
<title>Node5&#45;&gt;Node3</title>
<g id="a_edge5_Node000005_Node000003"><a xlink:title=" ">
<path fill="none" stroke="#63b8ff" d="M54.64,-46.5C45.06,-46.5 36.19,-46.5 29.32,-46.5"/>
<polygon fill="#63b8ff" stroke="#63b8ff" points="54.83,-50 64.83,-46.5 54.83,-43 54.83,-50"/>
</a>
</g>
</g>
<!-- Node6&#45;&gt;Node3 -->
<g id="edge7_Node000006_Node000003" class="edge">
<title>Node6&#45;&gt;Node3</title>
<g id="a_edge7_Node000006_Node000003"><a xlink:title=" ">
<path fill="none" stroke="#63b8ff" d="M82.41,-21.93C76.53,-23.72 70.6,-25.61 65,-27.5 52.79,-31.62 39.13,-36.92 29.26,-40.87"/>
<polygon fill="#63b8ff" stroke="#63b8ff" points="83.61,-25.22 92.19,-19 81.6,-18.52 83.61,-25.22"/>
</a>
</g>
</g>
</g>
</svg>
