<?xml version="1.0" encoding="UTF-8" standalone="no"?>
<!DOCTYPE svg PUBLIC "-//W3C//DTD SVG 1.1//EN"
 "http://www.w3.org/Graphics/SVG/1.1/DTD/svg11.dtd">
<!-- Generated by graphviz version 2.43.0 (0)
 -->
<!-- Title: xfiQi2sum Pages: 1 -->
<svg width="163pt" height="249pt"
 viewBox="0.00 0.00 163.00 249.00" xmlns="http://www.w3.org/2000/svg" xmlns:xlink="http://www.w3.org/1999/xlink">
<g id="graph0" class="graph" transform="scale(1 1) rotate(0) translate(4 245)">
<title>xfiQi2sum</title>
<!-- Node1 -->
<g id="Node000001" class="node">
<title>Node1</title>
<g id="a_Node000001"><a xlink:title="Computes $\sum_i Q_i^2 x f(x,Q^2)$.">
<polygon fill="#999999" stroke="#666666" points="66,-130 0,-130 0,-111 66,-111 66,-130"/>
<text text-anchor="middle" x="33" y="-118" font-family="Helvetica,sans-Serif" font-size="10.00">xfiQi2sum</text>
</a>
</g>
</g>
<!-- Node2 -->
<g id="Node000002" class="node">
<title>Node2</title>
<g id="a_Node000002"><a xlink:href="pdf_8h.html#a67a23f93417dbc43bb4f606cd9f4e33e" target="_top" xlink:title="&lt; gluon">
<polygon fill="white" stroke="#666666" points="143,-241 114,-241 114,-222 143,-222 143,-241"/>
<text text-anchor="middle" x="128.5" y="-229" font-family="Helvetica,sans-Serif" font-size="10.00">D</text>
</a>
</g>
</g>
<!-- Node1&#45;&gt;Node2 -->
<g id="edge1_Node000001_Node000002" class="edge">
<title>Node1&#45;&gt;Node2</title>
<g id="a_edge1_Node000001_Node000002"><a xlink:title=" ">
<path fill="none" stroke="#63b8ff" d="M39.66,-130.26C50.32,-148.13 74.76,-186.71 102,-213.5 103.22,-214.7 104.53,-215.88 105.89,-217.03"/>
<polygon fill="#63b8ff" stroke="#63b8ff" points="103.81,-219.84 113.89,-223.11 108.05,-214.27 103.81,-219.84"/>
</a>
</g>
</g>
<!-- Node3 -->
<g id="Node000003" class="node">
<title>Node3</title>
<g id="a_Node000003"><a xlink:href="pdf_8h.html#ad53d91f9bcb1537b9d08d3f240b77857" target="_top" xlink:title="&lt; down">
<polygon fill="white" stroke="#666666" points="144,-204 113,-204 113,-185 144,-185 144,-204"/>
<text text-anchor="middle" x="128.5" y="-192" font-family="Helvetica,sans-Serif" font-size="10.00">DB</text>
</a>
</g>
</g>
<!-- Node1&#45;&gt;Node3 -->
<g id="edge2_Node000001_Node000003" class="edge">
<title>Node1&#45;&gt;Node3</title>
<g id="a_edge2_Node000001_Node000003"><a xlink:title=" ">
<path fill="none" stroke="#63b8ff" d="M45.34,-130.28C58.67,-141.67 81.57,-160.91 102,-176.5 103.04,-177.3 104.11,-178.1 105.2,-178.91"/>
<polygon fill="#63b8ff" stroke="#63b8ff" points="103.44,-181.95 113.6,-184.97 107.54,-176.28 103.44,-181.95"/>
</a>
</g>
</g>
<!-- Node4 -->
<g id="Node000004" class="node">
<title>Node4</title>
<g id="a_Node000004"><a xlink:href="classPdf.html#a80fb579ab586ba61596bb084330d0ac6" target="_top" xlink:title=" ">
<polygon fill="white" stroke="#666666" points="155,-167 102,-167 102,-148 155,-148 155,-167"/>
<text text-anchor="middle" x="128.5" y="-155" font-family="Helvetica,sans-Serif" font-size="10.00">Pdf::get</text>
</a>
</g>
</g>
<!-- Node1&#45;&gt;Node4 -->
<g id="edge3_Node000001_Node000004" class="edge">
<title>Node1&#45;&gt;Node4</title>
<g id="a_edge3_Node000001_Node000004"><a xlink:title=" ">
<path fill="none" stroke="#63b8ff" d="M58.08,-130.03C68.9,-134.31 81.86,-139.44 93.64,-144.1"/>
<polygon fill="#63b8ff" stroke="#63b8ff" points="92.59,-147.45 103.18,-147.88 95.17,-140.94 92.59,-147.45"/>
</a>
</g>
</g>
<!-- Node5 -->
<g id="Node000005" class="node">
<title>Node5</title>
<g id="a_Node000005"><a xlink:href="pdf_8h.html#a40da31d93d3ca1e11efacfe87a364996" target="_top" xlink:title="&lt; anti up">
<polygon fill="white" stroke="#666666" points="143,-130 114,-130 114,-111 143,-111 143,-130"/>
<text text-anchor="middle" x="128.5" y="-118" font-family="Helvetica,sans-Serif" font-size="10.00">S</text>
</a>
</g>
</g>
<!-- Node1&#45;&gt;Node5 -->
<g id="edge4_Node000001_Node000005" class="edge">
<title>Node1&#45;&gt;Node5</title>
<g id="a_edge4_Node000001_Node000005"><a xlink:title=" ">
<path fill="none" stroke="#63b8ff" d="M66.18,-120.5C78.51,-120.5 92.34,-120.5 103.74,-120.5"/>
<polygon fill="#63b8ff" stroke="#63b8ff" points="103.8,-124 113.8,-120.5 103.8,-117 103.8,-124"/>
</a>
</g>
</g>
<!-- Node6 -->
<g id="Node000006" class="node">
<title>Node6</title>
<g id="a_Node000006"><a xlink:href="pdf_8h.html#a7fb4dfc7dfed3e505bab1f893062a149" target="_top" xlink:title="&lt; strange">
<polygon fill="white" stroke="#666666" points="143,-93 114,-93 114,-74 143,-74 143,-93"/>
<text text-anchor="middle" x="128.5" y="-81" font-family="Helvetica,sans-Serif" font-size="10.00">SB</text>
</a>
</g>
</g>
<!-- Node1&#45;&gt;Node6 -->
<g id="edge5_Node000001_Node000006" class="edge">
<title>Node1&#45;&gt;Node6</title>
<g id="a_edge5_Node000001_Node000006"><a xlink:title=" ">
<path fill="none" stroke="#63b8ff" d="M58.08,-110.97C72.36,-105.32 90.37,-98.2 104.46,-92.62"/>
<polygon fill="#63b8ff" stroke="#63b8ff" points="105.91,-95.81 113.92,-88.87 103.34,-89.3 105.91,-95.81"/>
</a>
</g>
</g>
<!-- Node7 -->
<g id="Node000007" class="node">
<title>Node7</title>
<g id="a_Node000007"><a xlink:href="pdf_8h.html#a62b42e36a523520ca8494d451d44c3ac" target="_top" xlink:title="&lt; anti down">
<polygon fill="white" stroke="#666666" points="143,-56 114,-56 114,-37 143,-37 143,-56"/>
<text text-anchor="middle" x="128.5" y="-44" font-family="Helvetica,sans-Serif" font-size="10.00">U</text>
</a>
</g>
</g>
<!-- Node1&#45;&gt;Node7 -->
<g id="edge6_Node000001_Node000007" class="edge">
<title>Node1&#45;&gt;Node7</title>
<g id="a_edge6_Node000001_Node000007"><a xlink:title=" ">
<path fill="none" stroke="#63b8ff" d="M45.92,-110.62C59.41,-99.49 82.09,-80.96 102,-65.5 103.38,-64.43 104.81,-63.33 106.25,-62.23"/>
<polygon fill="#63b8ff" stroke="#63b8ff" points="108.56,-64.87 114.45,-56.07 104.36,-59.28 108.56,-64.87"/>
</a>
</g>
</g>
<!-- Node8 -->
<g id="Node000008" class="node">
<title>Node8</title>
<g id="a_Node000008"><a xlink:href="pdf_8h.html#a22cfa0441665fad14b723bd2b14ec5d8" target="_top" xlink:title="&lt; up">
<polygon fill="white" stroke="#666666" points="144,-19 113,-19 113,0 144,0 144,-19"/>
<text text-anchor="middle" x="128.5" y="-7" font-family="Helvetica,sans-Serif" font-size="10.00">UB</text>
</a>
</g>
</g>
<!-- Node1&#45;&gt;Node8 -->
<g id="edge7_Node000001_Node000008" class="edge">
<title>Node1&#45;&gt;Node8</title>
<g id="a_edge7_Node000001_Node000008"><a xlink:title=" ">
<path fill="none" stroke="#63b8ff" d="M39.75,-110.92C50.55,-93.36 75.23,-55.38 102,-28.5 103.05,-27.45 104.16,-26.41 105.3,-25.39"/>
<polygon fill="#63b8ff" stroke="#63b8ff" points="107.56,-28.07 113.13,-19.06 103.16,-22.62 107.56,-28.07"/>
</a>
</g>
</g>
</g>
</svg>
