<?xml version="1.0" encoding="UTF-8" standalone="no"?>
<!DOCTYPE svg PUBLIC "-//W3C//DTD SVG 1.1//EN"
 "http://www.w3.org/Graphics/SVG/1.1/DTD/svg11.dtd">
<!-- Generated by graphviz version 2.43.0 (0)
 -->
<!-- Title: src/specV2.cpp Pages: 1 -->
<svg width="1955pt" height="258pt"
 viewBox="0.00 0.00 1954.51 258.00" xmlns="http://www.w3.org/2000/svg" xmlns:xlink="http://www.w3.org/1999/xlink">
<g id="graph0" class="graph" transform="scale(1 1) rotate(0) translate(4 254)">
<title>src/specV2.cpp</title>
<!-- Node1 -->
<g id="Node000001" class="node">
<title>Node1</title>
<g id="a_Node000001"><a xlink:title=" ">
<polygon fill="#999999" stroke="#666666" points="1102.01,-250 1013.01,-250 1013.01,-231 1102.01,-231 1102.01,-250"/>
<text text-anchor="middle" x="1057.51" y="-238" font-family="Helvetica,sans-Serif" font-size="10.00">src/specV2.cpp</text>
</a>
</g>
</g>
<!-- Node2 -->
<g id="Node000002" class="node">
<title>Node2</title>
<g id="a_Node000002"><a xlink:title=" ">
<polygon fill="#e0e0e0" stroke="#999999" points="397.51,-19 337.51,-19 337.51,0 397.51,0 397.51,-19"/>
<text text-anchor="middle" x="367.51" y="-7" font-family="Helvetica,sans-Serif" font-size="10.00">iostream</text>
</a>
</g>
</g>
<!-- Node1&#45;&gt;Node2 -->
<g id="edge1_Node000001_Node000002" class="edge">
<title>Node1&#45;&gt;Node2</title>
<g id="a_edge1_Node000001_Node000002"><a xlink:title=" ">
<path fill="none" stroke="#63b8ff" d="M1012.89,-239.15C836.19,-237.54 190.96,-229.34 106.51,-195 72.39,-181.13 67.28,-168.96 44.51,-140 19.26,-107.89 -17.53,-85.62 9.51,-55 30.3,-31.46 238.25,-17.49 327.34,-12.55"/>
<polygon fill="#63b8ff" stroke="#63b8ff" points="327.55,-16.04 337.34,-12 327.17,-9.05 327.55,-16.04"/>
</a>
</g>
</g>
<!-- Node3 -->
<g id="Node000003" class="node">
<title>Node3</title>
<g id="a_Node000003"><a xlink:title=" ">
<polygon fill="#e0e0e0" stroke="#999999" points="269.01,-134.5 222.01,-134.5 222.01,-115.5 269.01,-115.5 269.01,-134.5"/>
<text text-anchor="middle" x="245.51" y="-122.5" font-family="Helvetica,sans-Serif" font-size="10.00">cmath</text>
</a>
</g>
</g>
<!-- Node1&#45;&gt;Node3 -->
<g id="edge2_Node000001_Node000003" class="edge">
<title>Node1&#45;&gt;Node3</title>
<g id="a_edge2_Node000001_Node000003"><a xlink:title=" ">
<path fill="none" stroke="#63b8ff" d="M1012.76,-238.39C885.27,-234.93 522.01,-222.84 406.51,-195 355.83,-182.78 300.82,-155.98 270.02,-139.61"/>
<polygon fill="#63b8ff" stroke="#63b8ff" points="271.36,-136.36 260.9,-134.69 268.04,-142.52 271.36,-136.36"/>
</a>
</g>
</g>
<!-- Node4 -->
<g id="Node000004" class="node">
<title>Node4</title>
<g id="a_Node000004"><a xlink:title=" ">
<polygon fill="#e0e0e0" stroke="#999999" points="78.01,-74 19.01,-74 19.01,-55 78.01,-55 78.01,-74"/>
<text text-anchor="middle" x="48.51" y="-62" font-family="Helvetica,sans-Serif" font-size="10.00">complex</text>
</a>
</g>
</g>
<!-- Node1&#45;&gt;Node4 -->
<g id="edge3_Node000001_Node000004" class="edge">
<title>Node1&#45;&gt;Node4</title>
<g id="a_edge3_Node000001_Node000004"><a xlink:title=" ">
<path fill="none" stroke="#63b8ff" d="M1012.77,-239.79C893.63,-239.96 559,-236.39 284.51,-195 183.57,-179.78 131.16,-214.63 61.51,-140 47.69,-125.18 45.81,-101.14 46.5,-84.39"/>
<polygon fill="#63b8ff" stroke="#63b8ff" points="50,-84.4 47.27,-74.17 43.02,-83.87 50,-84.4"/>
</a>
</g>
</g>
<!-- Node5 -->
<g id="Node000005" class="node">
<title>Node5</title>
<g id="a_Node000005"><a xlink:title=" ">
<polygon fill="#e0e0e0" stroke="#999999" points="627.01,-74 562.01,-74 562.01,-55 627.01,-55 627.01,-74"/>
<text text-anchor="middle" x="594.51" y="-62" font-family="Helvetica,sans-Serif" font-size="10.00">functional</text>
</a>
</g>
</g>
<!-- Node1&#45;&gt;Node5 -->
<g id="edge4_Node000001_Node000005" class="edge">
<title>Node1&#45;&gt;Node5</title>
<g id="a_edge4_Node000001_Node000005"><a xlink:title=" ">
<path fill="none" stroke="#63b8ff" d="M1012.99,-231.51C986.23,-225.04 952.62,-213.81 927.51,-195 890.51,-167.27 906.81,-134.38 867.51,-110 781.9,-56.87 741.29,-90.15 637,-73.9"/>
<polygon fill="#63b8ff" stroke="#63b8ff" points="637.49,-70.44 627.05,-72.23 636.33,-77.34 637.49,-70.44"/>
</a>
</g>
</g>
<!-- Node6 -->
<g id="Node000006" class="node">
<title>Node6</title>
<g id="a_Node000006"><a xlink:title=" ">
<polygon fill="#e0e0e0" stroke="#999999" points="1041.51,-195 953.51,-195 953.51,-176 1041.51,-176 1041.51,-195"/>
<text text-anchor="middle" x="997.51" y="-183" font-family="Helvetica,sans-Serif" font-size="10.00">gsl/gsl_errno.h</text>
</a>
</g>
</g>
<!-- Node1&#45;&gt;Node6 -->
<g id="edge5_Node000001_Node000006" class="edge">
<title>Node1&#45;&gt;Node6</title>
<g id="a_edge5_Node000001_Node000006"><a xlink:title=" ">
<path fill="none" stroke="#63b8ff" d="M1047.87,-230.98C1039,-223.15 1025.64,-211.34 1014.91,-201.86"/>
<polygon fill="#63b8ff" stroke="#63b8ff" points="1017.14,-199.17 1007.33,-195.17 1012.51,-204.41 1017.14,-199.17"/>
</a>
</g>
</g>
<!-- Node7 -->
<g id="Node000007" class="node">
<title>Node7</title>
<g id="a_Node000007"><a xlink:title=" ">
<polygon fill="#e0e0e0" stroke="#999999" points="1175.51,-195 1059.51,-195 1059.51,-176 1175.51,-176 1175.51,-195"/>
<text text-anchor="middle" x="1117.51" y="-183" font-family="Helvetica,sans-Serif" font-size="10.00">gsl/gsl_integration.h</text>
</a>
</g>
</g>
<!-- Node1&#45;&gt;Node7 -->
<g id="edge6_Node000001_Node000007" class="edge">
<title>Node1&#45;&gt;Node7</title>
<g id="a_edge6_Node000001_Node000007"><a xlink:title=" ">
<path fill="none" stroke="#63b8ff" d="M1067.15,-230.98C1076.02,-223.15 1089.39,-211.34 1100.12,-201.86"/>
<polygon fill="#63b8ff" stroke="#63b8ff" points="1102.52,-204.41 1107.7,-195.17 1097.89,-199.17 1102.52,-204.41"/>
</a>
</g>
</g>
<!-- Node8 -->
<g id="Node000008" class="node">
<title>Node8</title>
<g id="a_Node000008"><a xlink:title=" ">
<polygon fill="#e0e0e0" stroke="#999999" points="1231.51,-195 1193.51,-195 1193.51,-176 1231.51,-176 1231.51,-195"/>
<text text-anchor="middle" x="1212.51" y="-183" font-family="Helvetica,sans-Serif" font-size="10.00">map</text>
</a>
</g>
</g>
<!-- Node1&#45;&gt;Node8 -->
<g id="edge7_Node000001_Node000008" class="edge">
<title>Node1&#45;&gt;Node8</title>
<g id="a_edge7_Node000001_Node000008"><a xlink:title=" ">
<path fill="none" stroke="#63b8ff" d="M1082.42,-230.98C1109.98,-221.56 1154.33,-206.39 1183.46,-196.44"/>
<polygon fill="#63b8ff" stroke="#63b8ff" points="1184.74,-199.7 1193.07,-193.15 1182.47,-193.07 1184.74,-199.7"/>
</a>
</g>
</g>
<!-- Node9 -->
<g id="Node000009" class="node">
<title>Node9</title>
<g id="a_Node000009"><a xlink:title=" ">
<polygon fill="#e0e0e0" stroke="#999999" points="859.01,-140 722.01,-140 722.01,-110 859.01,-110 859.01,-140"/>
<text text-anchor="start" x="730.01" y="-128" font-family="Helvetica,sans-Serif" font-size="10.00">boost/math/interpolators</text>
<text text-anchor="middle" x="790.51" y="-117" font-family="Helvetica,sans-Serif" font-size="10.00">/pchip.hpp</text>
</a>
</g>
</g>
<!-- Node1&#45;&gt;Node9 -->
<g id="edge8_Node000001_Node000009" class="edge">
<title>Node1&#45;&gt;Node9</title>
<g id="a_edge8_Node000001_Node000009"><a xlink:title=" ">
<path fill="none" stroke="#63b8ff" d="M1012.81,-234.48C974.28,-228.83 918.01,-217.35 873.51,-195 849.48,-182.93 826.31,-162.71 810.59,-147.27"/>
<polygon fill="#63b8ff" stroke="#63b8ff" points="813.02,-144.76 803.49,-140.13 808.06,-149.69 813.02,-144.76"/>
</a>
</g>
</g>
<!-- Node10 -->
<g id="Node000010" class="node">
<title>Node10</title>
<g id="a_Node000010"><a xlink:title=" ">
<polygon fill="#e0e0e0" stroke="#999999" points="1399.51,-195 1249.51,-195 1249.51,-176 1399.51,-176 1399.51,-195"/>
<text text-anchor="middle" x="1324.51" y="-183" font-family="Helvetica,sans-Serif" font-size="10.00">boost/program_options.hpp</text>
</a>
</g>
</g>
<!-- Node1&#45;&gt;Node10 -->
<g id="edge9_Node000001_Node000010" class="edge">
<title>Node1&#45;&gt;Node10</title>
<g id="a_edge9_Node000001_Node000010"><a xlink:title=" ">
<path fill="none" stroke="#63b8ff" d="M1100.41,-230.98C1146.89,-221.76 1221.1,-207.03 1271.27,-197.07"/>
<polygon fill="#63b8ff" stroke="#63b8ff" points="1272.15,-200.46 1281.28,-195.08 1270.79,-193.6 1272.15,-200.46"/>
</a>
</g>
</g>
<!-- Node11 -->
<g id="Node000011" class="node">
<title>Node11</title>
<g id="a_Node000011"><a xlink:title=" ">
<polygon fill="#e0e0e0" stroke="#999999" points="1485.51,-195 1417.51,-195 1417.51,-176 1485.51,-176 1485.51,-195"/>
<text text-anchor="middle" x="1451.51" y="-183" font-family="Helvetica,sans-Serif" font-size="10.00">filesystem</text>
</a>
</g>
</g>
<!-- Node1&#45;&gt;Node11 -->
<g id="edge10_Node000001_Node000011" class="edge">
<title>Node1&#45;&gt;Node11</title>
<g id="a_edge10_Node000001_Node000011"><a xlink:title=" ">
<path fill="none" stroke="#63b8ff" d="M1102.26,-234.83C1167.21,-227.83 1291.61,-213.59 1407.2,-195.11"/>
<polygon fill="#63b8ff" stroke="#63b8ff" points="1407.97,-198.54 1417.28,-193.49 1406.85,-191.62 1407.97,-198.54"/>
</a>
</g>
</g>
<!-- Node12 -->
<g id="Node000012" class="node">
<title>Node12</title>
<g id="a_Node000012"><a xlink:title=" ">
<polygon fill="#e0e0e0" stroke="#999999" points="1547.51,-195 1503.51,-195 1503.51,-176 1547.51,-176 1547.51,-195"/>
<text text-anchor="middle" x="1525.51" y="-183" font-family="Helvetica,sans-Serif" font-size="10.00">ctime</text>
</a>
</g>
</g>
<!-- Node1&#45;&gt;Node12 -->
<g id="edge11_Node000001_Node000012" class="edge">
<title>Node1&#45;&gt;Node12</title>
<g id="a_edge11_Node000001_Node000012"><a xlink:title=" ">
<path fill="none" stroke="#63b8ff" d="M1102.21,-237.4C1179.92,-233.23 1345.01,-222 1493.09,-194.96"/>
<polygon fill="#63b8ff" stroke="#63b8ff" points="1494.07,-198.34 1503.27,-193.08 1492.8,-191.46 1494.07,-198.34"/>
</a>
</g>
</g>
<!-- Node13 -->
<g id="Node000013" class="node">
<title>Node13</title>
<g id="a_Node000013"><a xlink:title=" ">
<polygon fill="#e0e0e0" stroke="#999999" points="1621.51,-195 1565.51,-195 1565.51,-176 1621.51,-176 1621.51,-195"/>
<text text-anchor="middle" x="1593.51" y="-183" font-family="Helvetica,sans-Serif" font-size="10.00">iomanip</text>
</a>
</g>
</g>
<!-- Node1&#45;&gt;Node13 -->
<g id="edge12_Node000001_Node000013" class="edge">
<title>Node1&#45;&gt;Node13</title>
<g id="a_edge12_Node000001_Node000013"><a xlink:title=" ">
<path fill="none" stroke="#63b8ff" d="M1102.16,-237.57C1188.08,-233.41 1382.49,-221.86 1555.27,-194.98"/>
<polygon fill="#63b8ff" stroke="#63b8ff" points="1555.98,-198.41 1565.31,-193.4 1554.89,-191.5 1555.98,-198.41"/>
</a>
</g>
</g>
<!-- Node14 -->
<g id="Node000014" class="node">
<title>Node14</title>
<g id="a_Node000014"><a xlink:title=" ">
<polygon fill="#e0e0e0" stroke="#999999" points="1687.01,-195 1640.01,-195 1640.01,-176 1687.01,-176 1687.01,-195"/>
<text text-anchor="middle" x="1663.51" y="-183" font-family="Helvetica,sans-Serif" font-size="10.00">omp.h</text>
</a>
</g>
</g>
<!-- Node1&#45;&gt;Node14 -->
<g id="edge13_Node000001_Node000014" class="edge">
<title>Node1&#45;&gt;Node14</title>
<g id="a_edge13_Node000001_Node000014"><a xlink:title=" ">
<path fill="none" stroke="#63b8ff" d="M1102.05,-238.68C1197.28,-236.37 1427.8,-227.74 1629.92,-194.77"/>
<polygon fill="#63b8ff" stroke="#63b8ff" points="1630.53,-198.21 1639.83,-193.13 1629.39,-191.31 1630.53,-198.21"/>
</a>
</g>
</g>
<!-- Node15 -->
<g id="Node000015" class="node">
<title>Node15</title>
<g id="a_Node000015"><a xlink:title=" ">
<polygon fill="#e0e0e0" stroke="#999999" points="1769.51,-195 1705.51,-195 1705.51,-176 1769.51,-176 1769.51,-195"/>
<text text-anchor="middle" x="1737.51" y="-183" font-family="Helvetica,sans-Serif" font-size="10.00">algorithm</text>
</a>
</g>
</g>
<!-- Node1&#45;&gt;Node15 -->
<g id="edge14_Node000001_Node000015" class="edge">
<title>Node1&#45;&gt;Node15</title>
<g id="a_edge14_Node000001_Node000015"><a xlink:title=" ">
<path fill="none" stroke="#63b8ff" d="M1102.27,-238.46C1205.25,-235.61 1466.99,-225.85 1695.2,-194.98"/>
<polygon fill="#63b8ff" stroke="#63b8ff" points="1695.92,-198.42 1705.36,-193.59 1694.97,-191.48 1695.92,-198.42"/>
</a>
</g>
</g>
<!-- Node16 -->
<g id="Node000016" class="node">
<title>Node16</title>
<g id="a_Node000016"><a xlink:title=" ">
<polygon fill="#e0e0e0" stroke="#999999" points="1841.01,-195 1788.01,-195 1788.01,-176 1841.01,-176 1841.01,-195"/>
<text text-anchor="middle" x="1814.51" y="-183" font-family="Helvetica,sans-Serif" font-size="10.00">iterator</text>
</a>
</g>
</g>
<!-- Node1&#45;&gt;Node16 -->
<g id="edge15_Node000001_Node000016" class="edge">
<title>Node1&#45;&gt;Node16</title>
<g id="a_edge15_Node000001_Node000016"><a xlink:title=" ">
<path fill="none" stroke="#63b8ff" d="M1102.09,-239.38C1214.15,-238.51 1516.68,-232.7 1777.82,-194.8"/>
<polygon fill="#63b8ff" stroke="#63b8ff" points="1778.49,-198.24 1787.88,-193.32 1777.47,-191.31 1778.49,-198.24"/>
</a>
</g>
</g>
<!-- Node17 -->
<g id="Node000017" class="node">
<title>Node17</title>
<g id="a_Node000017"><a xlink:href="savedata_8h.html" target="_top" xlink:title=" ">
<polygon fill="white" stroke="#666666" points="204.01,-134.5 133.01,-134.5 133.01,-115.5 204.01,-115.5 204.01,-134.5"/>
<text text-anchor="middle" x="168.51" y="-122.5" font-family="Helvetica,sans-Serif" font-size="10.00">savedata.h</text>
</a>
</g>
</g>
<!-- Node1&#45;&gt;Node17 -->
<g id="edge16_Node000001_Node000017" class="edge">
<title>Node1&#45;&gt;Node17</title>
<g id="a_edge16_Node000001_Node000017"><a xlink:title=" ">
<path fill="none" stroke="#63b8ff" d="M1012.72,-238.46C877.7,-235.05 476.1,-222.78 348.51,-195 291.96,-182.69 229.68,-155.52 195.21,-139.19"/>
<polygon fill="#63b8ff" stroke="#63b8ff" points="196.38,-135.87 185.85,-134.7 193.35,-142.18 196.38,-135.87"/>
</a>
</g>
</g>
<!-- Node22 -->
<g id="Node000022" class="node">
<title>Node22</title>
<g id="a_Node000022"><a xlink:href="freezeout_8h.html" target="_top" xlink:title=" ">
<polygon fill="white" stroke="#666666" points="487.51,-195 415.51,-195 415.51,-176 487.51,-176 487.51,-195"/>
<text text-anchor="middle" x="451.51" y="-183" font-family="Helvetica,sans-Serif" font-size="10.00">freezeout.h</text>
</a>
</g>
</g>
<!-- Node1&#45;&gt;Node22 -->
<g id="edge24_Node000001_Node000022" class="edge">
<title>Node1&#45;&gt;Node22</title>
<g id="a_edge24_Node000001_Node000022"><a xlink:title=" ">
<path fill="none" stroke="#63b8ff" d="M1012.98,-237.6C919.41,-233.25 695.37,-220.99 497.79,-195.03"/>
<polygon fill="#63b8ff" stroke="#63b8ff" points="498.18,-191.55 487.81,-193.7 497.26,-198.49 498.18,-191.55"/>
</a>
</g>
</g>
<!-- Node27 -->
<g id="Node000027" class="node">
<title>Node27</title>
<g id="a_Node000027"><a xlink:href="debugmsg_8h.html" target="_top" xlink:title=" ">
<polygon fill="white" stroke="#666666" points="793.01,-74 716.01,-74 716.01,-55 793.01,-55 793.01,-74"/>
<text text-anchor="middle" x="754.51" y="-62" font-family="Helvetica,sans-Serif" font-size="10.00">debugmsg.h</text>
</a>
</g>
</g>
<!-- Node1&#45;&gt;Node27 -->
<g id="edge55_Node000001_Node000027" class="edge">
<title>Node1&#45;&gt;Node27</title>
<g id="a_edge55_Node000001_Node000027"><a xlink:title=" ">
<path fill="none" stroke="#63b8ff" d="M1016.25,-230.96C992.94,-224.39 964.54,-213.24 944.51,-195 913.22,-166.49 933.94,-137.22 901.51,-110 873.9,-86.82 834.44,-75.71 803.36,-70.39"/>
<polygon fill="#63b8ff" stroke="#63b8ff" points="803.59,-66.89 793.17,-68.8 802.51,-73.8 803.59,-66.89"/>
</a>
</g>
</g>
<!-- Node29 -->
<g id="Node000029" class="node">
<title>Node29</title>
<g id="a_Node000029"><a xlink:href="initdata_8h.html" target="_top" xlink:title=" ">
<polygon fill="white" stroke="#666666" points="569.01,-195 506.01,-195 506.01,-176 569.01,-176 569.01,-195"/>
<text text-anchor="middle" x="537.51" y="-183" font-family="Helvetica,sans-Serif" font-size="10.00">initdata.h</text>
</a>
</g>
</g>
<!-- Node1&#45;&gt;Node29 -->
<g id="edge44_Node000001_Node000029" class="edge">
<title>Node1&#45;&gt;Node29</title>
<g id="a_edge44_Node000001_Node000029"><a xlink:title=" ">
<path fill="none" stroke="#63b8ff" d="M1012.73,-234.94C913.37,-224.81 675.68,-200.58 579.24,-190.75"/>
<polygon fill="#63b8ff" stroke="#63b8ff" points="579.58,-187.27 569.27,-189.74 578.87,-194.23 579.58,-187.27"/>
</a>
</g>
</g>
<!-- Node30 -->
<g id="Node000030" class="node">
<title>Node30</title>
<g id="a_Node000030"><a xlink:href="constants_8h.html" target="_top" xlink:title=" ">
<polygon fill="white" stroke="#666666" points="1932.01,-195 1859.01,-195 1859.01,-176 1932.01,-176 1932.01,-195"/>
<text text-anchor="middle" x="1895.51" y="-183" font-family="Helvetica,sans-Serif" font-size="10.00">constants.h</text>
</a>
</g>
</g>
<!-- Node1&#45;&gt;Node30 -->
<g id="edge53_Node000001_Node000030" class="edge">
<title>Node1&#45;&gt;Node30</title>
<g id="a_edge53_Node000001_Node000030"><a xlink:title=" ">
<path fill="none" stroke="#63b8ff" d="M1102.41,-239.03C1222.15,-237.34 1559.16,-229.74 1848.47,-195.1"/>
<polygon fill="#63b8ff" stroke="#63b8ff" points="1849.23,-198.53 1858.74,-193.85 1848.39,-191.58 1849.23,-198.53"/>
</a>
</g>
</g>
<!-- Node17&#45;&gt;Node2 -->
<g id="edge17_Node000017_Node000002" class="edge">
<title>Node17&#45;&gt;Node2</title>
<g id="a_edge17_Node000017_Node000002"><a xlink:title=" ">
<path fill="none" stroke="#63b8ff" d="M171.65,-115.36C177.41,-100.7 191.11,-70.98 212.51,-55 246.26,-29.8 293.87,-18.85 327.4,-14.11"/>
<polygon fill="#63b8ff" stroke="#63b8ff" points="327.85,-17.58 337.32,-12.82 326.95,-10.63 327.85,-17.58"/>
</a>
</g>
</g>
<!-- Node17&#45;&gt;Node4 -->
<g id="edge20_Node000017_Node000004" class="edge">
<title>Node17&#45;&gt;Node4</title>
<g id="a_edge20_Node000017_Node000004"><a xlink:title=" ">
<path fill="none" stroke="#63b8ff" d="M151.06,-115.49C131.16,-105.79 98.37,-89.81 75.24,-78.53"/>
<polygon fill="#63b8ff" stroke="#63b8ff" points="76.51,-75.25 65.98,-74.02 73.44,-81.54 76.51,-75.25"/>
</a>
</g>
</g>
<!-- Node17&#45;&gt;Node5 -->
<g id="edge22_Node000017_Node000005" class="edge">
<title>Node17&#45;&gt;Node5</title>
<g id="a_edge22_Node000017_Node000005"><a xlink:title=" ">
<path fill="none" stroke="#63b8ff" d="M192.5,-115.45C198.93,-113.41 205.93,-111.42 212.51,-110 228.93,-106.47 455.43,-81.01 551.71,-70.26"/>
<polygon fill="#63b8ff" stroke="#63b8ff" points="552.15,-73.74 561.7,-69.15 551.37,-66.78 552.15,-73.74"/>
</a>
</g>
</g>
<!-- Node18 -->
<g id="Node000018" class="node">
<title>Node18</title>
<g id="a_Node000018"><a xlink:title=" ">
<polygon fill="#e0e0e0" stroke="#999999" points="277.01,-74 222.01,-74 222.01,-55 277.01,-55 277.01,-74"/>
<text text-anchor="middle" x="249.51" y="-62" font-family="Helvetica,sans-Serif" font-size="10.00">fstream</text>
</a>
</g>
</g>
<!-- Node17&#45;&gt;Node18 -->
<g id="edge18_Node000017_Node000018" class="edge">
<title>Node17&#45;&gt;Node18</title>
<g id="a_edge18_Node000017_Node000018"><a xlink:title=" ">
<path fill="none" stroke="#63b8ff" d="M180.47,-115.37C193.27,-106.12 213.81,-91.28 229.17,-80.19"/>
<polygon fill="#63b8ff" stroke="#63b8ff" points="231.46,-82.86 237.51,-74.17 227.36,-77.18 231.46,-82.86"/>
</a>
</g>
</g>
<!-- Node19 -->
<g id="Node000019" class="node">
<title>Node19</title>
<g id="a_Node000019"><a xlink:title=" ">
<polygon fill="#e0e0e0" stroke="#999999" points="443.01,-74 396.01,-74 396.01,-55 443.01,-55 443.01,-74"/>
<text text-anchor="middle" x="419.51" y="-62" font-family="Helvetica,sans-Serif" font-size="10.00">vector</text>
</a>
</g>
</g>
<!-- Node17&#45;&gt;Node19 -->
<g id="edge19_Node000017_Node000019" class="edge">
<title>Node17&#45;&gt;Node19</title>
<g id="a_edge19_Node000017_Node000019"><a xlink:title=" ">
<path fill="none" stroke="#63b8ff" d="M193.98,-115.44C200.03,-113.53 206.47,-111.61 212.51,-110 272.97,-93.92 344.53,-79.56 385.71,-71.73"/>
<polygon fill="#63b8ff" stroke="#63b8ff" points="386.57,-75.13 395.74,-69.84 385.27,-68.25 386.57,-75.13"/>
</a>
</g>
</g>
<!-- Node20 -->
<g id="Node000020" class="node">
<title>Node20</title>
<g id="a_Node000020"><a xlink:title=" ">
<polygon fill="#e0e0e0" stroke="#999999" points="339.51,-74 295.51,-74 295.51,-55 339.51,-55 339.51,-74"/>
<text text-anchor="middle" x="317.51" y="-62" font-family="Helvetica,sans-Serif" font-size="10.00">string</text>
</a>
</g>
</g>
<!-- Node17&#45;&gt;Node20 -->
<g id="edge21_Node000017_Node000020" class="edge">
<title>Node17&#45;&gt;Node20</title>
<g id="a_edge21_Node000017_Node000020"><a xlink:title=" ">
<path fill="none" stroke="#63b8ff" d="M190.18,-115.49C215.45,-105.57 257.43,-89.09 286.23,-77.78"/>
<polygon fill="#63b8ff" stroke="#63b8ff" points="287.79,-80.93 295.82,-74.02 285.23,-74.41 287.79,-80.93"/>
</a>
</g>
</g>
<!-- Node21 -->
<g id="Node000021" class="node">
<title>Node21</title>
<g id="a_Node000021"><a xlink:title=" ">
<polygon fill="#e0e0e0" stroke="#999999" points="165.01,-74 96.01,-74 96.01,-55 165.01,-55 165.01,-74"/>
<text text-anchor="middle" x="130.51" y="-62" font-family="Helvetica,sans-Serif" font-size="10.00">type_traits</text>
</a>
</g>
</g>
<!-- Node17&#45;&gt;Node21 -->
<g id="edge23_Node000017_Node000021" class="edge">
<title>Node17&#45;&gt;Node21</title>
<g id="a_edge23_Node000017_Node000021"><a xlink:title=" ">
<path fill="none" stroke="#63b8ff" d="M162.91,-115.37C157.35,-106.81 148.68,-93.47 141.71,-82.74"/>
<polygon fill="#63b8ff" stroke="#63b8ff" points="144.53,-80.65 136.14,-74.17 138.66,-84.46 144.53,-80.65"/>
</a>
</g>
</g>
<!-- Node22&#45;&gt;Node3 -->
<g id="edge27_Node000022_Node000003" class="edge">
<title>Node22&#45;&gt;Node3</title>
<g id="a_edge27_Node000022_Node000003"><a xlink:title=" ">
<path fill="none" stroke="#63b8ff" d="M415.51,-176C381.3,-167.69 328.54,-154.22 283.51,-140 281.6,-139.4 279.65,-138.75 277.68,-138.09"/>
<polygon fill="#63b8ff" stroke="#63b8ff" points="278.49,-134.66 267.9,-134.64 276.17,-141.27 278.49,-134.66"/>
</a>
</g>
</g>
<!-- Node22&#45;&gt;Node4 -->
<g id="edge28_Node000022_Node000004" class="edge">
<title>Node22&#45;&gt;Node4</title>
<g id="a_edge28_Node000022_Node000004"><a xlink:title=" ">
<path fill="none" stroke="#63b8ff" d="M415.39,-184.1C334.76,-182.57 143.12,-175.22 90.51,-140 70.9,-126.86 59.45,-101.31 53.59,-83.82"/>
<polygon fill="#63b8ff" stroke="#63b8ff" points="56.9,-82.71 50.63,-74.17 50.21,-84.75 56.9,-82.71"/>
</a>
</g>
</g>
<!-- Node22&#45;&gt;Node5 -->
<g id="edge25_Node000022_Node000005" class="edge">
<title>Node22&#45;&gt;Node5</title>
<g id="a_edge25_Node000022_Node000005"><a xlink:title=" ">
<path fill="none" stroke="#63b8ff" d="M478.56,-175.93C498.4,-168.67 525.15,-156.74 544.51,-140 562.86,-124.14 577.38,-100.01 585.95,-83.55"/>
<polygon fill="#63b8ff" stroke="#63b8ff" points="589.17,-84.93 590.49,-74.42 582.9,-81.81 589.17,-84.93"/>
</a>
</g>
</g>
<!-- Node22&#45;&gt;Node9 -->
<g id="edge29_Node000022_Node000009" class="edge">
<title>Node22&#45;&gt;Node9</title>
<g id="a_edge29_Node000022_Node000009"><a xlink:title=" ">
<path fill="none" stroke="#63b8ff" d="M487.85,-177.57C490.78,-177.03 493.7,-176.5 496.51,-176 589.25,-159.52 614.98,-156.77 711.71,-140.12"/>
<polygon fill="#63b8ff" stroke="#63b8ff" points="712.36,-143.56 721.62,-138.41 711.17,-136.67 712.36,-143.56"/>
</a>
</g>
</g>
<!-- Node22&#45;&gt;Node20 -->
<g id="edge26_Node000022_Node000020" class="edge">
<title>Node22&#45;&gt;Node20</title>
<g id="a_edge26_Node000022_Node000020"><a xlink:title=" ">
<path fill="none" stroke="#63b8ff" d="M415.41,-182.76C385.11,-179.19 343.38,-168.92 321.51,-140 309.58,-124.22 310.47,-100.75 313.12,-84.38"/>
<polygon fill="#63b8ff" stroke="#63b8ff" points="316.59,-84.85 315.1,-74.37 309.73,-83.49 316.59,-84.85"/>
</a>
</g>
</g>
<!-- Node23 -->
<g id="Node000023" class="node">
<title>Node23</title>
<g id="a_Node000023"><a xlink:href="filereader_8h.html" target="_top" xlink:title=" ">
<polygon fill="white" stroke="#666666" points="435.01,-134.5 364.01,-134.5 364.01,-115.5 435.01,-115.5 435.01,-134.5"/>
<text text-anchor="middle" x="399.51" y="-122.5" font-family="Helvetica,sans-Serif" font-size="10.00">filereader.h</text>
</a>
</g>
</g>
<!-- Node22&#45;&gt;Node23 -->
<g id="edge30_Node000022_Node000023" class="edge">
<title>Node22&#45;&gt;Node23</title>
<g id="a_edge30_Node000022_Node000023"><a xlink:title=" ">
<path fill="none" stroke="#63b8ff" d="M443.84,-175.87C436.01,-167.05 423.66,-153.16 413.98,-142.27"/>
<polygon fill="#63b8ff" stroke="#63b8ff" points="416.48,-139.82 407.22,-134.67 411.25,-144.47 416.48,-139.82"/>
</a>
</g>
</g>
<!-- Node25 -->
<g id="Node000025" class="node">
<title>Node25</title>
<g id="a_Node000025"><a xlink:href="uninitfunc_8h.html" target="_top" xlink:title=" ">
<polygon fill="white" stroke="#666666" points="703.51,-134.5 629.51,-134.5 629.51,-115.5 703.51,-115.5 703.51,-134.5"/>
<text text-anchor="middle" x="666.51" y="-122.5" font-family="Helvetica,sans-Serif" font-size="10.00">uninitfunc.h</text>
</a>
</g>
</g>
<!-- Node22&#45;&gt;Node25 -->
<g id="edge36_Node000022_Node000025" class="edge">
<title>Node22&#45;&gt;Node25</title>
<g id="a_edge36_Node000022_Node000025"><a xlink:title=" ">
<path fill="none" stroke="#63b8ff" d="M482.78,-175.99C520.43,-165.75 583.81,-148.5 625.4,-137.19"/>
<polygon fill="#63b8ff" stroke="#63b8ff" points="626.48,-140.52 635.21,-134.52 624.65,-133.77 626.48,-140.52"/>
</a>
</g>
</g>
<!-- Node28 -->
<g id="Node000028" class="node">
<title>Node28</title>
<g id="a_Node000028"><a xlink:href="extrapolate_8h.html" target="_top" xlink:title=" ">
<polygon fill="white" stroke="#666666" points="535.51,-134.5 453.51,-134.5 453.51,-115.5 535.51,-115.5 535.51,-134.5"/>
<text text-anchor="middle" x="494.51" y="-122.5" font-family="Helvetica,sans-Serif" font-size="10.00">extrapolate.h</text>
</a>
</g>
</g>
<!-- Node22&#45;&gt;Node28 -->
<g id="edge41_Node000022_Node000028" class="edge">
<title>Node22&#45;&gt;Node28</title>
<g id="a_edge41_Node000022_Node000028"><a xlink:title=" ">
<path fill="none" stroke="#63b8ff" d="M457.86,-175.87C464.21,-167.23 474.15,-153.7 482.08,-142.92"/>
<polygon fill="#63b8ff" stroke="#63b8ff" points="485.04,-144.8 488.14,-134.67 479.4,-140.65 485.04,-144.8"/>
</a>
</g>
</g>
<!-- Node23&#45;&gt;Node2 -->
<g id="edge33_Node000023_Node000002" class="edge">
<title>Node23&#45;&gt;Node2</title>
<g id="a_edge33_Node000023_Node000002"><a xlink:title=" ">
<path fill="none" stroke="#63b8ff" d="M397.11,-115.47C391.94,-97.15 379.69,-53.68 372.68,-28.81"/>
<polygon fill="#63b8ff" stroke="#63b8ff" points="376.03,-27.8 369.95,-19.13 369.29,-29.7 376.03,-27.8"/>
</a>
</g>
</g>
<!-- Node23&#45;&gt;Node18 -->
<g id="edge31_Node000023_Node000018" class="edge">
<title>Node23&#45;&gt;Node18</title>
<g id="a_edge31_Node000023_Node000018"><a xlink:title=" ">
<path fill="none" stroke="#63b8ff" d="M377.7,-115.49C352.26,-105.57 310,-89.09 281.01,-77.78"/>
<polygon fill="#63b8ff" stroke="#63b8ff" points="281.94,-74.39 271.35,-74.02 279.4,-80.91 281.94,-74.39"/>
</a>
</g>
</g>
<!-- Node23&#45;&gt;Node19 -->
<g id="edge34_Node000023_Node000019" class="edge">
<title>Node23&#45;&gt;Node19</title>
<g id="a_edge34_Node000023_Node000019"><a xlink:title=" ">
<path fill="none" stroke="#63b8ff" d="M402.46,-115.37C405.3,-107.07 409.68,-94.28 413.28,-83.72"/>
<polygon fill="#63b8ff" stroke="#63b8ff" points="416.63,-84.76 416.55,-74.17 410,-82.5 416.63,-84.76"/>
</a>
</g>
</g>
<!-- Node23&#45;&gt;Node20 -->
<g id="edge32_Node000023_Node000020" class="edge">
<title>Node23&#45;&gt;Node20</title>
<g id="a_edge32_Node000023_Node000020"><a xlink:title=" ">
<path fill="none" stroke="#63b8ff" d="M387.41,-115.37C374.45,-106.12 353.66,-91.28 338.11,-80.19"/>
<polygon fill="#63b8ff" stroke="#63b8ff" points="339.84,-77.13 329.66,-74.17 335.77,-82.82 339.84,-77.13"/>
</a>
</g>
</g>
<!-- Node24 -->
<g id="Node000024" class="node">
<title>Node24</title>
<g id="a_Node000024"><a xlink:title=" ">
<polygon fill="#e0e0e0" stroke="#999999" points="505.51,-74 461.51,-74 461.51,-55 505.51,-55 505.51,-74"/>
<text text-anchor="middle" x="483.51" y="-62" font-family="Helvetica,sans-Serif" font-size="10.00">regex</text>
</a>
</g>
</g>
<!-- Node23&#45;&gt;Node24 -->
<g id="edge35_Node000023_Node000024" class="edge">
<title>Node23&#45;&gt;Node24</title>
<g id="a_edge35_Node000023_Node000024"><a xlink:title=" ">
<path fill="none" stroke="#63b8ff" d="M411.91,-115.37C425.31,-106.04 446.89,-91.01 462.86,-79.88"/>
<polygon fill="#63b8ff" stroke="#63b8ff" points="464.86,-82.75 471.07,-74.17 460.86,-77.01 464.86,-82.75"/>
</a>
</g>
</g>
<!-- Node25&#45;&gt;Node5 -->
<g id="edge37_Node000025_Node000005" class="edge">
<title>Node25&#45;&gt;Node5</title>
<g id="a_edge37_Node000025_Node000005"><a xlink:title=" ">
<path fill="none" stroke="#63b8ff" d="M655.89,-115.37C644.62,-106.21 626.59,-91.56 612.98,-80.51"/>
<polygon fill="#63b8ff" stroke="#63b8ff" points="615.15,-77.76 605.18,-74.17 610.74,-83.19 615.15,-77.76"/>
</a>
</g>
</g>
<!-- Node26 -->
<g id="Node000026" class="node">
<title>Node26</title>
<g id="a_Node000026"><a xlink:title=" ">
<polygon fill="#e0e0e0" stroke="#999999" points="697.51,-74 645.51,-74 645.51,-55 697.51,-55 697.51,-74"/>
<text text-anchor="middle" x="671.51" y="-62" font-family="Helvetica,sans-Serif" font-size="10.00">cassert</text>
</a>
</g>
</g>
<!-- Node25&#45;&gt;Node26 -->
<g id="edge38_Node000025_Node000026" class="edge">
<title>Node25&#45;&gt;Node26</title>
<g id="a_edge38_Node000025_Node000026"><a xlink:title=" ">
<path fill="none" stroke="#63b8ff" d="M667.25,-115.37C667.95,-107.25 669.01,-94.81 669.9,-84.39"/>
<polygon fill="#63b8ff" stroke="#63b8ff" points="673.41,-84.43 670.77,-74.17 666.43,-83.83 673.41,-84.43"/>
</a>
</g>
</g>
<!-- Node25&#45;&gt;Node27 -->
<g id="edge39_Node000025_Node000027" class="edge">
<title>Node25&#45;&gt;Node27</title>
<g id="a_edge39_Node000025_Node000027"><a xlink:title=" ">
<path fill="none" stroke="#63b8ff" d="M679.5,-115.37C693.54,-106.04 716.15,-91.01 732.88,-79.88"/>
<polygon fill="#63b8ff" stroke="#63b8ff" points="735.09,-82.62 741.48,-74.17 731.21,-76.79 735.09,-82.62"/>
</a>
</g>
</g>
<!-- Node27&#45;&gt;Node2 -->
<g id="edge40_Node000027_Node000002" class="edge">
<title>Node27&#45;&gt;Node2</title>
<g id="a_edge40_Node000027_Node000002"><a xlink:title=" ">
<path fill="none" stroke="#63b8ff" d="M715.77,-56.49C712.64,-55.97 709.53,-55.46 706.51,-55 598.98,-38.43 471.64,-22.77 407.99,-15.22"/>
<polygon fill="#63b8ff" stroke="#63b8ff" points="408.31,-11.73 397.97,-14.03 407.49,-18.68 408.31,-11.73"/>
</a>
</g>
</g>
<!-- Node28&#45;&gt;Node2 -->
<g id="edge42_Node000028_Node000002" class="edge">
<title>Node28&#45;&gt;Node2</title>
<g id="a_edge42_Node000028_Node000002"><a xlink:title=" ">
<path fill="none" stroke="#63b8ff" d="M501.62,-115.07C511.87,-101.01 528.19,-73.43 514.51,-55 490.18,-22.21 442.35,-12.72 407.84,-10.4"/>
<polygon fill="#63b8ff" stroke="#63b8ff" points="407.76,-6.89 397.6,-9.89 407.42,-13.88 407.76,-6.89"/>
</a>
</g>
</g>
<!-- Node28&#45;&gt;Node19 -->
<g id="edge43_Node000028_Node000019" class="edge">
<title>Node28&#45;&gt;Node19</title>
<g id="a_edge43_Node000028_Node000019"><a xlink:title=" ">
<path fill="none" stroke="#63b8ff" d="M483.45,-115.37C471.7,-106.21 452.93,-91.56 438.75,-80.51"/>
<polygon fill="#63b8ff" stroke="#63b8ff" points="440.66,-77.56 430.63,-74.17 436.36,-83.08 440.66,-77.56"/>
</a>
</g>
</g>
<!-- Node29&#45;&gt;Node3 -->
<g id="edge47_Node000029_Node000003" class="edge">
<title>Node29&#45;&gt;Node3</title>
<g id="a_edge47_Node000029_Node000003"><a xlink:title=" ">
<path fill="none" stroke="#63b8ff" d="M505.73,-177.89C502.62,-177.25 499.51,-176.61 496.51,-176 418.63,-160.17 327.04,-142.05 278.92,-132.57"/>
<polygon fill="#63b8ff" stroke="#63b8ff" points="279.55,-129.12 269.06,-130.63 278.19,-135.99 279.55,-129.12"/>
</a>
</g>
</g>
<!-- Node29&#45;&gt;Node4 -->
<g id="edge48_Node000029_Node000004" class="edge">
<title>Node29&#45;&gt;Node4</title>
<g id="a_edge48_Node000029_Node000004"><a xlink:title=" ">
<path fill="none" stroke="#63b8ff" d="M505.79,-177.57C502.66,-176.99 499.53,-176.46 496.51,-176 414.18,-163.53 198.89,-175.4 123.51,-140 116.18,-136.56 83.29,-102.42 63.58,-81.57"/>
<polygon fill="#63b8ff" stroke="#63b8ff" points="65.92,-78.96 56.52,-74.08 60.83,-83.75 65.92,-78.96"/>
</a>
</g>
</g>
<!-- Node29&#45;&gt;Node5 -->
<g id="edge45_Node000029_Node000005" class="edge">
<title>Node29&#45;&gt;Node5</title>
<g id="a_edge45_Node000029_Node000005"><a xlink:title=" ">
<path fill="none" stroke="#63b8ff" d="M548,-175.7C557.17,-167.42 570.15,-154.2 577.51,-140 586.65,-122.37 590.92,-99.89 592.88,-84.26"/>
<polygon fill="#63b8ff" stroke="#63b8ff" points="596.37,-84.56 593.94,-74.25 589.41,-83.83 596.37,-84.56"/>
</a>
</g>
</g>
<!-- Node29&#45;&gt;Node9 -->
<g id="edge49_Node000029_Node000009" class="edge">
<title>Node29&#45;&gt;Node9</title>
<g id="a_edge49_Node000029_Node000009"><a xlink:title=" ">
<path fill="none" stroke="#63b8ff" d="M569.04,-177.21C606.53,-168.54 670.24,-153.81 719.73,-142.37"/>
<polygon fill="#63b8ff" stroke="#63b8ff" points="720.79,-145.71 729.75,-140.05 719.21,-138.89 720.79,-145.71"/>
</a>
</g>
</g>
<!-- Node29&#45;&gt;Node20 -->
<g id="edge46_Node000029_Node000020" class="edge">
<title>Node29&#45;&gt;Node20</title>
<g id="a_edge46_Node000029_Node000020"><a xlink:title=" ">
<path fill="none" stroke="#63b8ff" d="M505.69,-177.49C454.87,-166.2 360.47,-144.76 354.51,-140 336.84,-125.88 326.94,-101.13 321.92,-84.06"/>
<polygon fill="#63b8ff" stroke="#63b8ff" points="325.23,-82.91 319.29,-74.14 318.47,-84.7 325.23,-82.91"/>
</a>
</g>
</g>
<!-- Node29&#45;&gt;Node23 -->
<g id="edge50_Node000029_Node000023" class="edge">
<title>Node29&#45;&gt;Node23</title>
<g id="a_edge50_Node000029_Node000023"><a xlink:title=" ">
<path fill="none" stroke="#63b8ff" d="M517.45,-175.99C494.15,-166.12 455.5,-149.73 428.84,-138.43"/>
<polygon fill="#63b8ff" stroke="#63b8ff" points="430.18,-135.2 419.6,-134.52 427.45,-141.64 430.18,-135.2"/>
</a>
</g>
</g>
<!-- Node29&#45;&gt;Node25 -->
<g id="edge51_Node000029_Node000025" class="edge">
<title>Node29&#45;&gt;Node25</title>
<g id="a_edge51_Node000029_Node000025"><a xlink:title=" ">
<path fill="none" stroke="#63b8ff" d="M556.27,-175.99C577.86,-166.2 613.54,-150.02 638.45,-138.73"/>
<polygon fill="#63b8ff" stroke="#63b8ff" points="640.07,-141.83 647.73,-134.52 637.18,-135.46 640.07,-141.83"/>
</a>
</g>
</g>
<!-- Node29&#45;&gt;Node28 -->
<g id="edge52_Node000029_Node000028" class="edge">
<title>Node29&#45;&gt;Node28</title>
<g id="a_edge52_Node000029_Node000028"><a xlink:title=" ">
<path fill="none" stroke="#63b8ff" d="M531.17,-175.87C524.82,-167.23 514.88,-153.7 506.95,-142.92"/>
<polygon fill="#63b8ff" stroke="#63b8ff" points="509.63,-140.65 500.88,-134.67 503.99,-144.8 509.63,-140.65"/>
</a>
</g>
</g>
<!-- Node31 -->
<g id="Node000031" class="node">
<title>Node31</title>
<g id="a_Node000031"><a xlink:href="protectedobject_8h.html" target="_top" xlink:title=" ">
<polygon fill="white" stroke="#666666" points="1946.51,-134.5 1844.51,-134.5 1844.51,-115.5 1946.51,-115.5 1946.51,-134.5"/>
<text text-anchor="middle" x="1895.51" y="-122.5" font-family="Helvetica,sans-Serif" font-size="10.00">protectedobject.h</text>
</a>
</g>
</g>
<!-- Node30&#45;&gt;Node31 -->
<g id="edge54_Node000030_Node000031" class="edge">
<title>Node30&#45;&gt;Node31</title>
<g id="a_edge54_Node000030_Node000031"><a xlink:title=" ">
<path fill="none" stroke="#63b8ff" d="M1895.51,-175.87C1895.51,-167.75 1895.51,-155.31 1895.51,-144.89"/>
<polygon fill="#63b8ff" stroke="#63b8ff" points="1899.01,-144.67 1895.51,-134.67 1892.01,-144.67 1899.01,-144.67"/>
</a>
</g>
</g>
</g>
</svg>
