<?xml version="1.0" encoding="UTF-8" standalone="no"?>
<!DOCTYPE svg PUBLIC "-//W3C//DTD SVG 1.1//EN"
 "http://www.w3.org/Graphics/SVG/1.1/DTD/svg11.dtd">
<!-- Generated by graphviz version 2.43.0 (0)
 -->
<!-- Title: main Pages: 1 -->
<svg width="347pt" height="101pt"
 viewBox="0.00 0.00 347.00 101.00" xmlns="http://www.w3.org/2000/svg" xmlns:xlink="http://www.w3.org/1999/xlink">
<g id="graph0" class="graph" transform="scale(1 1) rotate(0) translate(4 97)">
<title>main</title>
<!-- Node1 -->
<g id="Node000001" class="node">
<title>Node1</title>
<g id="a_Node000001"><a xlink:title=" ">
<polygon fill="#999999" stroke="#666666" points="41,-56 0,-56 0,-37 41,-37 41,-56"/>
<text text-anchor="middle" x="20.5" y="-44" font-family="Helvetica,sans-Serif" font-size="10.00">main</text>
</a>
</g>
</g>
<!-- Node2 -->
<g id="Node000002" class="node">
<title>Node2</title>
<g id="a_Node000002"><a xlink:href="freezeout_8h.html#a648ff02ea415c6d21a9d67f18b760748" target="_top" xlink:title=" ">
<polygon fill="white" stroke="#666666" points="202,-56 77,-56 77,-37 202,-37 202,-56"/>
<text text-anchor="middle" x="139.5" y="-44" font-family="Helvetica,sans-Serif" font-size="10.00">ProcessFreezeoutData</text>
</a>
</g>
</g>
<!-- Node1&#45;&gt;Node2 -->
<g id="edge1_Node000001_Node000002" class="edge">
<title>Node1&#45;&gt;Node2</title>
<g id="a_edge1_Node000001_Node000002"><a xlink:title=" ">
<path fill="none" stroke="#63b8ff" d="M41.08,-46.5C48.44,-46.5 57.3,-46.5 66.64,-46.5"/>
<polygon fill="#63b8ff" stroke="#63b8ff" points="66.92,-50 76.91,-46.5 66.91,-43 66.92,-50"/>
</a>
</g>
</g>
<!-- Node5 -->
<g id="Node000005" class="node">
<title>Node5</title>
<g id="a_Node000005"><a xlink:href="initdata_8h.html#adb67cc27cb6accb49529dfa82de80b86" target="_top" xlink:title=" ">
<polygon fill="white" stroke="#666666" points="192,-93 87,-93 87,-74 192,-74 192,-93"/>
<text text-anchor="middle" x="139.5" y="-81" font-family="Helvetica,sans-Serif" font-size="10.00">ProcessInitialData</text>
</a>
</g>
</g>
<!-- Node1&#45;&gt;Node5 -->
<g id="edge4_Node000001_Node000005" class="edge">
<title>Node1&#45;&gt;Node5</title>
<g id="a_edge4_Node000001_Node000005"><a xlink:title=" ">
<path fill="none" stroke="#63b8ff" d="M41.21,-53.49C51.78,-57.18 65.06,-61.71 77,-65.5 82.77,-67.33 88.87,-69.2 94.9,-71"/>
<polygon fill="#63b8ff" stroke="#63b8ff" points="94.32,-74.48 104.9,-73.96 96.31,-67.77 94.32,-74.48"/>
</a>
</g>
</g>
<!-- Node6 -->
<g id="Node000006" class="node">
<title>Node6</title>
<g id="a_Node000006"><a xlink:href="specV2_8cpp.html#a092dd53eb4ec3ed0d3179efe9e304ab8" target="_top" xlink:title=" ">
<polygon fill="white" stroke="#666666" points="170,-19 109,-19 109,0 170,0 170,-19"/>
<text text-anchor="middle" x="139.5" y="-7" font-family="Helvetica,sans-Serif" font-size="10.00">spectr_Jp</text>
</a>
</g>
</g>
<!-- Node1&#45;&gt;Node6 -->
<g id="edge7_Node000001_Node000006" class="edge">
<title>Node1&#45;&gt;Node6</title>
<g id="a_edge7_Node000001_Node000006"><a xlink:title=" ">
<path fill="none" stroke="#63b8ff" d="M41.21,-39.51C51.78,-35.82 65.06,-31.29 77,-27.5 84.07,-25.26 91.63,-22.96 98.95,-20.79"/>
<polygon fill="#63b8ff" stroke="#63b8ff" points="100.09,-24.1 108.7,-17.93 98.12,-17.39 100.09,-24.1"/>
</a>
</g>
</g>
<!-- Node3 -->
<g id="Node000003" class="node">
<title>Node3</title>
<g id="a_Node000003"><a xlink:href="extrapolate_8h.html#a9934822b458cce1bab6b6511a168692c" target="_top" xlink:title=" ">
<polygon fill="white" stroke="#666666" points="339,-93 238,-93 238,-74 339,-74 339,-93"/>
<text text-anchor="middle" x="288.5" y="-81" font-family="Helvetica,sans-Serif" font-size="10.00">linearExtrapolate</text>
</a>
</g>
</g>
<!-- Node2&#45;&gt;Node3 -->
<g id="edge2_Node000002_Node000003" class="edge">
<title>Node2&#45;&gt;Node3</title>
<g id="a_edge2_Node000002_Node000003"><a xlink:title=" ">
<path fill="none" stroke="#63b8ff" d="M178.36,-56.03C197.06,-60.74 219.82,-66.47 239.72,-71.47"/>
<polygon fill="#63b8ff" stroke="#63b8ff" points="238.97,-74.89 249.52,-73.94 240.67,-68.1 238.97,-74.89"/>
</a>
</g>
</g>
<!-- Node4 -->
<g id="Node000004" class="node">
<title>Node4</title>
<g id="a_Node000004"><a xlink:href="filereader_8h.html#a49ce595d6717f4010b9aed7327ec1022" target="_top" xlink:title=" ">
<polygon fill="white" stroke="#666666" points="316,-56 261,-56 261,-37 316,-37 316,-56"/>
<text text-anchor="middle" x="288.5" y="-44" font-family="Helvetica,sans-Serif" font-size="10.00">readcsv</text>
</a>
</g>
</g>
<!-- Node2&#45;&gt;Node4 -->
<g id="edge3_Node000002_Node000004" class="edge">
<title>Node2&#45;&gt;Node4</title>
<g id="a_edge3_Node000002_Node000004"><a xlink:title=" ">
<path fill="none" stroke="#63b8ff" d="M202.42,-46.5C218.83,-46.5 236.04,-46.5 250.65,-46.5"/>
<polygon fill="#63b8ff" stroke="#63b8ff" points="250.78,-50 260.78,-46.5 250.78,-43 250.78,-50"/>
</a>
</g>
</g>
<!-- Node5&#45;&gt;Node3 -->
<g id="edge5_Node000005_Node000003" class="edge">
<title>Node5&#45;&gt;Node3</title>
<g id="a_edge5_Node000005_Node000003"><a xlink:title=" ">
<path fill="none" stroke="#63b8ff" d="M192.33,-83.5C203.71,-83.5 215.85,-83.5 227.52,-83.5"/>
<polygon fill="#63b8ff" stroke="#63b8ff" points="227.62,-87 237.62,-83.5 227.62,-80 227.62,-87"/>
</a>
</g>
</g>
<!-- Node5&#45;&gt;Node4 -->
<g id="edge6_Node000005_Node000004" class="edge">
<title>Node5&#45;&gt;Node4</title>
<g id="a_edge6_Node000005_Node000004"><a xlink:title=" ">
<path fill="none" stroke="#63b8ff" d="M178.36,-73.97C200.78,-68.33 229.05,-61.21 251.2,-55.64"/>
<polygon fill="#63b8ff" stroke="#63b8ff" points="252.06,-59.03 260.9,-53.2 250.35,-52.24 252.06,-59.03"/>
</a>
</g>
</g>
</g>
</svg>
