<?xml version="1.0" encoding="UTF-8" standalone="no"?>
<!DOCTYPE svg PUBLIC "-//W3C//DTD SVG 1.1//EN"
 "http://www.w3.org/Graphics/SVG/1.1/DTD/svg11.dtd">
<!-- Generated by graphviz version 2.43.0 (0)
 -->
<!-- Title: F2integrand_logtrafo1 Pages: 1 -->
<svg width="451pt" height="296pt"
 viewBox="0.00 0.00 451.00 296.00" xmlns="http://www.w3.org/2000/svg" xmlns:xlink="http://www.w3.org/1999/xlink">
<g id="graph0" class="graph" transform="scale(1 1) rotate(0) translate(4 292)">
<title>F2integrand_logtrafo1</title>
<!-- Node1 -->
<g id="Node000001" class="node">
<title>Node1</title>
<g id="a_Node000001"><a xlink:title=" ">
<polygon fill="#999999" stroke="#666666" points="125,-232 0,-232 0,-213 125,-213 125,-232"/>
<text text-anchor="middle" x="62.5" y="-220" font-family="Helvetica,sans-Serif" font-size="10.00">F2integrand_logtrafo1</text>
</a>
</g>
</g>
<!-- Node2 -->
<g id="Node000002" class="node">
<title>Node2</title>
<g id="a_Node000002"><a xlink:href="structfunc_8h.html#aa4dc5cbd2ddc07970850d275ce8b8a44" target="_top" xlink:title="Computes all contributions to F2 that need to be integrated over, i.e. all contributions from coeffic...">
<polygon fill="white" stroke="#666666" points="236,-232 161,-232 161,-213 236,-213 236,-232"/>
<text text-anchor="middle" x="198.5" y="-220" font-family="Helvetica,sans-Serif" font-size="10.00">F2integrand</text>
</a>
</g>
</g>
<!-- Node1&#45;&gt;Node2 -->
<g id="edge1_Node000001_Node000002" class="edge">
<title>Node1&#45;&gt;Node2</title>
<g id="a_edge1_Node000001_Node000002"><a xlink:title=" ">
<path fill="none" stroke="#63b8ff" d="M125.01,-222.5C133.62,-222.5 142.35,-222.5 150.63,-222.5"/>
<polygon fill="#63b8ff" stroke="#63b8ff" points="150.84,-226 160.84,-222.5 150.84,-219 150.84,-226"/>
</a>
</g>
</g>
<!-- Node3 -->
<g id="Node000003" class="node">
<title>Node3</title>
<g id="a_Node000003"><a xlink:href="coefffunc_8h.html#aca4f6958287a3352a0f516ed379ee749" target="_top" xlink:title="from [Zijlstra, van Neerven; Nucl. Phys. B. 383 (3), 525, 1992] eq. B.2">
<polygon fill="white" stroke="#666666" points="354,-288 272,-288 272,-269 354,-269 354,-288"/>
<text text-anchor="middle" x="313" y="-276" font-family="Helvetica,sans-Serif" font-size="10.00">c2q_1_0_plus</text>
</a>
</g>
</g>
<!-- Node2&#45;&gt;Node3 -->
<g id="edge2_Node000002_Node000003" class="edge">
<title>Node2&#45;&gt;Node3</title>
<g id="a_edge2_Node000002_Node000003"><a xlink:title=" ">
<path fill="none" stroke="#63b8ff" d="M216.93,-232.01C231.52,-239.88 252.96,-251.24 272,-260.5 274.79,-261.86 277.7,-263.23 280.62,-264.6"/>
<polygon fill="#63b8ff" stroke="#63b8ff" points="279.33,-267.86 289.88,-268.83 282.25,-261.49 279.33,-267.86"/>
</a>
</g>
</g>
<!-- Node4 -->
<g id="Node000004" class="node">
<title>Node4</title>
<g id="a_Node000004"><a xlink:href="coefffunc_8h.html#ae4256e1ef32ca3e99ee5ce8a18f407b1" target="_top" xlink:title="The naming of the coefficient functions follows the scheme cnf_j_k_desc with c &#45; &quot;coefficient functio...">
<polygon fill="white" stroke="#666666" points="351.5,-251 274.5,-251 274.5,-232 351.5,-232 351.5,-251"/>
<text text-anchor="middle" x="313" y="-239" font-family="Helvetica,sans-Serif" font-size="10.00">c2q_1_0_reg</text>
</a>
</g>
</g>
<!-- Node2&#45;&gt;Node4 -->
<g id="edge3_Node000002_Node000004" class="edge">
<title>Node2&#45;&gt;Node4</title>
<g id="a_edge3_Node000002_Node000004"><a xlink:title=" ">
<path fill="none" stroke="#63b8ff" d="M236.03,-228.67C244.98,-230.18 254.69,-231.82 264.09,-233.41"/>
<polygon fill="#63b8ff" stroke="#63b8ff" points="263.67,-236.89 274.11,-235.1 264.83,-229.98 263.67,-236.89"/>
</a>
</g>
</g>
<!-- Node5 -->
<g id="Node000005" class="node">
<title>Node5</title>
<g id="a_Node000005"><a xlink:href="classPdf.html#a80fb579ab586ba61596bb084330d0ac6" target="_top" xlink:title=" ">
<polygon fill="white" stroke="#666666" points="443,-241 390,-241 390,-222 443,-222 443,-241"/>
<text text-anchor="middle" x="416.5" y="-229" font-family="Helvetica,sans-Serif" font-size="10.00">Pdf::get</text>
</a>
</g>
</g>
<!-- Node2&#45;&gt;Node5 -->
<g id="edge4_Node000002_Node000005" class="edge">
<title>Node2&#45;&gt;Node5</title>
<g id="a_edge4_Node000002_Node000005"><a xlink:title=" ">
<path fill="none" stroke="#63b8ff" d="M236.07,-221.47C267.41,-220.9 313.72,-220.76 354,-223.5 362.4,-224.07 371.41,-225.04 379.87,-226.11"/>
<polygon fill="#63b8ff" stroke="#63b8ff" points="379.46,-229.59 389.84,-227.45 380.39,-222.65 379.46,-229.59"/>
</a>
</g>
</g>
<!-- Node6 -->
<g id="Node000006" class="node">
<title>Node6</title>
<g id="a_Node000006"><a xlink:href="pdf_8h.html#a9baddbed7ad5f04071a998eb417a5b31" target="_top" xlink:title="Computes $\sum_i Q_i^2 x f(x,Q^2)$.">
<polygon fill="white" stroke="#666666" points="346,-148 280,-148 280,-129 346,-129 346,-148"/>
<text text-anchor="middle" x="313" y="-136" font-family="Helvetica,sans-Serif" font-size="10.00">xfiQi2sum</text>
</a>
</g>
</g>
<!-- Node2&#45;&gt;Node6 -->
<g id="edge5_Node000002_Node000006" class="edge">
<title>Node2&#45;&gt;Node6</title>
<g id="a_edge5_Node000002_Node000006"><a xlink:title=" ">
<path fill="none" stroke="#63b8ff" d="M212.41,-212.86C231.65,-198.5 268.06,-171.31 291.12,-154.09"/>
<polygon fill="#63b8ff" stroke="#63b8ff" points="293.33,-156.81 299.25,-148.02 289.14,-151.2 293.33,-156.81"/>
</a>
</g>
</g>
<!-- Node6&#45;&gt;Node5 -->
<g id="edge8_Node000006_Node000005" class="edge">
<title>Node6&#45;&gt;Node5</title>
<g id="a_edge8_Node000006_Node000005"><a xlink:title=" ">
<path fill="none" stroke="#63b8ff" d="M322.89,-148.25C336.63,-163.08 364.12,-191.85 390,-213.5 390.98,-214.32 392,-215.14 393.04,-215.96"/>
<polygon fill="#63b8ff" stroke="#63b8ff" points="391.05,-218.84 401.16,-222 395.22,-213.22 391.05,-218.84"/>
</a>
</g>
</g>
<!-- Node7 -->
<g id="Node000007" class="node">
<title>Node7</title>
<g id="a_Node000007"><a xlink:href="pdf_8h.html#a67a23f93417dbc43bb4f606cd9f4e33e" target="_top" xlink:title="&lt; gluon">
<polygon fill="white" stroke="#666666" points="431,-204 402,-204 402,-185 431,-185 431,-204"/>
<text text-anchor="middle" x="416.5" y="-192" font-family="Helvetica,sans-Serif" font-size="10.00">D</text>
</a>
</g>
</g>
<!-- Node6&#45;&gt;Node7 -->
<g id="edge6_Node000006_Node000007" class="edge">
<title>Node6&#45;&gt;Node7</title>
<g id="a_edge6_Node000006_Node000007"><a xlink:title=" ">
<path fill="none" stroke="#63b8ff" d="M331.68,-148.25C348.71,-157.65 374.52,-171.89 393.01,-182.09"/>
<polygon fill="#63b8ff" stroke="#63b8ff" points="391.47,-185.24 401.92,-187.01 394.85,-179.11 391.47,-185.24"/>
</a>
</g>
</g>
<!-- Node8 -->
<g id="Node000008" class="node">
<title>Node8</title>
<g id="a_Node000008"><a xlink:href="pdf_8h.html#ad53d91f9bcb1537b9d08d3f240b77857" target="_top" xlink:title="&lt; down">
<polygon fill="white" stroke="#666666" points="432,-167 401,-167 401,-148 432,-148 432,-167"/>
<text text-anchor="middle" x="416.5" y="-155" font-family="Helvetica,sans-Serif" font-size="10.00">DB</text>
</a>
</g>
</g>
<!-- Node6&#45;&gt;Node8 -->
<g id="edge7_Node000006_Node000008" class="edge">
<title>Node6&#45;&gt;Node8</title>
<g id="a_edge7_Node000006_Node000008"><a xlink:title=" ">
<path fill="none" stroke="#63b8ff" d="M346.12,-144.51C360.6,-147.22 377.43,-150.37 390.89,-152.89"/>
<polygon fill="#63b8ff" stroke="#63b8ff" points="390.38,-156.36 400.85,-154.76 391.66,-149.48 390.38,-156.36"/>
</a>
</g>
</g>
<!-- Node9 -->
<g id="Node000009" class="node">
<title>Node9</title>
<g id="a_Node000009"><a xlink:href="pdf_8h.html#a40da31d93d3ca1e11efacfe87a364996" target="_top" xlink:title="&lt; anti up">
<polygon fill="white" stroke="#666666" points="431,-130 402,-130 402,-111 431,-111 431,-130"/>
<text text-anchor="middle" x="416.5" y="-118" font-family="Helvetica,sans-Serif" font-size="10.00">S</text>
</a>
</g>
</g>
<!-- Node6&#45;&gt;Node9 -->
<g id="edge9_Node000006_Node000009" class="edge">
<title>Node6&#45;&gt;Node9</title>
<g id="a_edge9_Node000006_Node000009"><a xlink:title=" ">
<path fill="none" stroke="#63b8ff" d="M346.12,-132.8C360.96,-130.17 378.28,-127.1 391.9,-124.68"/>
<polygon fill="#63b8ff" stroke="#63b8ff" points="392.68,-128.1 401.92,-122.91 391.46,-121.21 392.68,-128.1"/>
</a>
</g>
</g>
<!-- Node10 -->
<g id="Node000010" class="node">
<title>Node10</title>
<g id="a_Node000010"><a xlink:href="pdf_8h.html#a7fb4dfc7dfed3e505bab1f893062a149" target="_top" xlink:title="&lt; strange">
<polygon fill="white" stroke="#666666" points="431,-93 402,-93 402,-74 431,-74 431,-93"/>
<text text-anchor="middle" x="416.5" y="-81" font-family="Helvetica,sans-Serif" font-size="10.00">SB</text>
</a>
</g>
</g>
<!-- Node6&#45;&gt;Node10 -->
<g id="edge10_Node000006_Node000010" class="edge">
<title>Node6&#45;&gt;Node10</title>
<g id="a_edge10_Node000006_Node000010"><a xlink:title=" ">
<path fill="none" stroke="#63b8ff" d="M331.68,-128.92C348.71,-119.69 374.52,-105.7 393.01,-95.69"/>
<polygon fill="#63b8ff" stroke="#63b8ff" points="394.79,-98.7 401.92,-90.86 391.46,-92.55 394.79,-98.7"/>
</a>
</g>
</g>
<!-- Node11 -->
<g id="Node000011" class="node">
<title>Node11</title>
<g id="a_Node000011"><a xlink:href="pdf_8h.html#a62b42e36a523520ca8494d451d44c3ac" target="_top" xlink:title="&lt; anti down">
<polygon fill="white" stroke="#666666" points="431,-56 402,-56 402,-37 431,-37 431,-56"/>
<text text-anchor="middle" x="416.5" y="-44" font-family="Helvetica,sans-Serif" font-size="10.00">U</text>
</a>
</g>
</g>
<!-- Node6&#45;&gt;Node11 -->
<g id="edge11_Node000006_Node000011" class="edge">
<title>Node6&#45;&gt;Node11</title>
<g id="a_edge11_Node000006_Node000011"><a xlink:title=" ">
<path fill="none" stroke="#63b8ff" d="M323.47,-128.65C337.51,-114.23 364.87,-86.79 390,-65.5 391.3,-64.4 392.66,-63.28 394.05,-62.17"/>
<polygon fill="#63b8ff" stroke="#63b8ff" points="396.22,-64.92 402.02,-56.05 391.96,-59.37 396.22,-64.92"/>
</a>
</g>
</g>
<!-- Node12 -->
<g id="Node000012" class="node">
<title>Node12</title>
<g id="a_Node000012"><a xlink:href="pdf_8h.html#a22cfa0441665fad14b723bd2b14ec5d8" target="_top" xlink:title="&lt; up">
<polygon fill="white" stroke="#666666" points="432,-19 401,-19 401,0 432,0 432,-19"/>
<text text-anchor="middle" x="416.5" y="-7" font-family="Helvetica,sans-Serif" font-size="10.00">UB</text>
</a>
</g>
</g>
<!-- Node6&#45;&gt;Node12 -->
<g id="edge12_Node000006_Node000012" class="edge">
<title>Node6&#45;&gt;Node12</title>
<g id="a_edge12_Node000006_Node000012"><a xlink:title=" ">
<path fill="none" stroke="#63b8ff" d="M319.1,-128.75C330.11,-108.33 357.7,-60.27 390,-27.5 390.9,-26.59 391.85,-25.69 392.83,-24.81"/>
<polygon fill="#63b8ff" stroke="#63b8ff" points="395.07,-27.51 400.76,-18.57 390.74,-22.01 395.07,-27.51"/>
</a>
</g>
</g>
</g>
</svg>
