<?xml version="1.0" encoding="UTF-8" standalone="no"?>
<!DOCTYPE svg PUBLIC "-//W3C//DTD SVG 1.1//EN"
 "http://www.w3.org/Graphics/SVG/1.1/DTD/svg11.dtd">
<!-- Generated by graphviz version 2.43.0 (0)
 -->
<!-- Title: F2integrand Pages: 1 -->
<svg width="290pt" height="296pt"
 viewBox="0.00 0.00 290.00 296.00" xmlns="http://www.w3.org/2000/svg" xmlns:xlink="http://www.w3.org/1999/xlink">
<g id="graph0" class="graph" transform="scale(1 1) rotate(0) translate(4 292)">
<title>F2integrand</title>
<!-- Node1 -->
<g id="Node000001" class="node">
<title>Node1</title>
<g id="a_Node000001"><a xlink:title="Computes all contributions to F2 that need to be integrated over, i.e. all contributions from coeffic...">
<polygon fill="#999999" stroke="#666666" points="75,-232 0,-232 0,-213 75,-213 75,-232"/>
<text text-anchor="middle" x="37.5" y="-220" font-family="Helvetica,sans-Serif" font-size="10.00">F2integrand</text>
</a>
</g>
</g>
<!-- Node2 -->
<g id="Node000002" class="node">
<title>Node2</title>
<g id="a_Node000002"><a xlink:href="coefffunc_8h.html#aca4f6958287a3352a0f516ed379ee749" target="_top" xlink:title="from [Zijlstra, van Neerven; Nucl. Phys. B. 383 (3), 525, 1992] eq. B.2">
<polygon fill="white" stroke="#666666" points="193,-288 111,-288 111,-269 193,-269 193,-288"/>
<text text-anchor="middle" x="152" y="-276" font-family="Helvetica,sans-Serif" font-size="10.00">c2q_1_0_plus</text>
</a>
</g>
</g>
<!-- Node1&#45;&gt;Node2 -->
<g id="edge1_Node000001_Node000002" class="edge">
<title>Node1&#45;&gt;Node2</title>
<g id="a_edge1_Node000001_Node000002"><a xlink:title=" ">
<path fill="none" stroke="#63b8ff" d="M55.93,-232.01C70.52,-239.88 91.96,-251.24 111,-260.5 113.79,-261.86 116.7,-263.23 119.62,-264.6"/>
<polygon fill="#63b8ff" stroke="#63b8ff" points="118.33,-267.86 128.88,-268.83 121.25,-261.49 118.33,-267.86"/>
</a>
</g>
</g>
<!-- Node3 -->
<g id="Node000003" class="node">
<title>Node3</title>
<g id="a_Node000003"><a xlink:href="coefffunc_8h.html#ae4256e1ef32ca3e99ee5ce8a18f407b1" target="_top" xlink:title="The naming of the coefficient functions follows the scheme cnf_j_k_desc with c &#45; &quot;coefficient functio...">
<polygon fill="white" stroke="#666666" points="190.5,-251 113.5,-251 113.5,-232 190.5,-232 190.5,-251"/>
<text text-anchor="middle" x="152" y="-239" font-family="Helvetica,sans-Serif" font-size="10.00">c2q_1_0_reg</text>
</a>
</g>
</g>
<!-- Node1&#45;&gt;Node3 -->
<g id="edge2_Node000001_Node000003" class="edge">
<title>Node1&#45;&gt;Node3</title>
<g id="a_edge2_Node000001_Node000003"><a xlink:title=" ">
<path fill="none" stroke="#63b8ff" d="M75.03,-228.67C83.98,-230.18 93.69,-231.82 103.09,-233.41"/>
<polygon fill="#63b8ff" stroke="#63b8ff" points="102.67,-236.89 113.11,-235.1 103.83,-229.98 102.67,-236.89"/>
</a>
</g>
</g>
<!-- Node4 -->
<g id="Node000004" class="node">
<title>Node4</title>
<g id="a_Node000004"><a xlink:href="classPdf.html#a80fb579ab586ba61596bb084330d0ac6" target="_top" xlink:title=" ">
<polygon fill="white" stroke="#666666" points="282,-241 229,-241 229,-222 282,-222 282,-241"/>
<text text-anchor="middle" x="255.5" y="-229" font-family="Helvetica,sans-Serif" font-size="10.00">Pdf::get</text>
</a>
</g>
</g>
<!-- Node1&#45;&gt;Node4 -->
<g id="edge3_Node000001_Node000004" class="edge">
<title>Node1&#45;&gt;Node4</title>
<g id="a_edge3_Node000001_Node000004"><a xlink:title=" ">
<path fill="none" stroke="#63b8ff" d="M75.07,-221.47C106.41,-220.9 152.72,-220.76 193,-223.5 201.4,-224.07 210.41,-225.04 218.87,-226.11"/>
<polygon fill="#63b8ff" stroke="#63b8ff" points="218.46,-229.59 228.84,-227.45 219.39,-222.65 218.46,-229.59"/>
</a>
</g>
</g>
<!-- Node5 -->
<g id="Node000005" class="node">
<title>Node5</title>
<g id="a_Node000005"><a xlink:href="pdf_8h.html#a9baddbed7ad5f04071a998eb417a5b31" target="_top" xlink:title="Computes $\sum_i Q_i^2 x f(x,Q^2)$.">
<polygon fill="white" stroke="#666666" points="185,-148 119,-148 119,-129 185,-129 185,-148"/>
<text text-anchor="middle" x="152" y="-136" font-family="Helvetica,sans-Serif" font-size="10.00">xfiQi2sum</text>
</a>
</g>
</g>
<!-- Node1&#45;&gt;Node5 -->
<g id="edge4_Node000001_Node000005" class="edge">
<title>Node1&#45;&gt;Node5</title>
<g id="a_edge4_Node000001_Node000005"><a xlink:title=" ">
<path fill="none" stroke="#63b8ff" d="M51.41,-212.86C70.65,-198.5 107.06,-171.31 130.12,-154.09"/>
<polygon fill="#63b8ff" stroke="#63b8ff" points="132.33,-156.81 138.25,-148.02 128.14,-151.2 132.33,-156.81"/>
</a>
</g>
</g>
<!-- Node5&#45;&gt;Node4 -->
<g id="edge7_Node000005_Node000004" class="edge">
<title>Node5&#45;&gt;Node4</title>
<g id="a_edge7_Node000005_Node000004"><a xlink:title=" ">
<path fill="none" stroke="#63b8ff" d="M161.89,-148.25C175.63,-163.08 203.12,-191.85 229,-213.5 229.98,-214.32 231,-215.14 232.04,-215.96"/>
<polygon fill="#63b8ff" stroke="#63b8ff" points="230.05,-218.84 240.16,-222 234.22,-213.22 230.05,-218.84"/>
</a>
</g>
</g>
<!-- Node6 -->
<g id="Node000006" class="node">
<title>Node6</title>
<g id="a_Node000006"><a xlink:href="pdf_8h.html#a67a23f93417dbc43bb4f606cd9f4e33e" target="_top" xlink:title="&lt; gluon">
<polygon fill="white" stroke="#666666" points="270,-204 241,-204 241,-185 270,-185 270,-204"/>
<text text-anchor="middle" x="255.5" y="-192" font-family="Helvetica,sans-Serif" font-size="10.00">D</text>
</a>
</g>
</g>
<!-- Node5&#45;&gt;Node6 -->
<g id="edge5_Node000005_Node000006" class="edge">
<title>Node5&#45;&gt;Node6</title>
<g id="a_edge5_Node000005_Node000006"><a xlink:title=" ">
<path fill="none" stroke="#63b8ff" d="M170.68,-148.25C187.71,-157.65 213.52,-171.89 232.01,-182.09"/>
<polygon fill="#63b8ff" stroke="#63b8ff" points="230.47,-185.24 240.92,-187.01 233.85,-179.11 230.47,-185.24"/>
</a>
</g>
</g>
<!-- Node7 -->
<g id="Node000007" class="node">
<title>Node7</title>
<g id="a_Node000007"><a xlink:href="pdf_8h.html#ad53d91f9bcb1537b9d08d3f240b77857" target="_top" xlink:title="&lt; down">
<polygon fill="white" stroke="#666666" points="271,-167 240,-167 240,-148 271,-148 271,-167"/>
<text text-anchor="middle" x="255.5" y="-155" font-family="Helvetica,sans-Serif" font-size="10.00">DB</text>
</a>
</g>
</g>
<!-- Node5&#45;&gt;Node7 -->
<g id="edge6_Node000005_Node000007" class="edge">
<title>Node5&#45;&gt;Node7</title>
<g id="a_edge6_Node000005_Node000007"><a xlink:title=" ">
<path fill="none" stroke="#63b8ff" d="M185.12,-144.51C199.6,-147.22 216.43,-150.37 229.89,-152.89"/>
<polygon fill="#63b8ff" stroke="#63b8ff" points="229.38,-156.36 239.85,-154.76 230.66,-149.48 229.38,-156.36"/>
</a>
</g>
</g>
<!-- Node8 -->
<g id="Node000008" class="node">
<title>Node8</title>
<g id="a_Node000008"><a xlink:href="pdf_8h.html#a40da31d93d3ca1e11efacfe87a364996" target="_top" xlink:title="&lt; anti up">
<polygon fill="white" stroke="#666666" points="270,-130 241,-130 241,-111 270,-111 270,-130"/>
<text text-anchor="middle" x="255.5" y="-118" font-family="Helvetica,sans-Serif" font-size="10.00">S</text>
</a>
</g>
</g>
<!-- Node5&#45;&gt;Node8 -->
<g id="edge8_Node000005_Node000008" class="edge">
<title>Node5&#45;&gt;Node8</title>
<g id="a_edge8_Node000005_Node000008"><a xlink:title=" ">
<path fill="none" stroke="#63b8ff" d="M185.12,-132.8C199.96,-130.17 217.28,-127.1 230.9,-124.68"/>
<polygon fill="#63b8ff" stroke="#63b8ff" points="231.68,-128.1 240.92,-122.91 230.46,-121.21 231.68,-128.1"/>
</a>
</g>
</g>
<!-- Node9 -->
<g id="Node000009" class="node">
<title>Node9</title>
<g id="a_Node000009"><a xlink:href="pdf_8h.html#a7fb4dfc7dfed3e505bab1f893062a149" target="_top" xlink:title="&lt; strange">
<polygon fill="white" stroke="#666666" points="270,-93 241,-93 241,-74 270,-74 270,-93"/>
<text text-anchor="middle" x="255.5" y="-81" font-family="Helvetica,sans-Serif" font-size="10.00">SB</text>
</a>
</g>
</g>
<!-- Node5&#45;&gt;Node9 -->
<g id="edge9_Node000005_Node000009" class="edge">
<title>Node5&#45;&gt;Node9</title>
<g id="a_edge9_Node000005_Node000009"><a xlink:title=" ">
<path fill="none" stroke="#63b8ff" d="M170.68,-128.92C187.71,-119.69 213.52,-105.7 232.01,-95.69"/>
<polygon fill="#63b8ff" stroke="#63b8ff" points="233.79,-98.7 240.92,-90.86 230.46,-92.55 233.79,-98.7"/>
</a>
</g>
</g>
<!-- Node10 -->
<g id="Node000010" class="node">
<title>Node10</title>
<g id="a_Node000010"><a xlink:href="pdf_8h.html#a62b42e36a523520ca8494d451d44c3ac" target="_top" xlink:title="&lt; anti down">
<polygon fill="white" stroke="#666666" points="270,-56 241,-56 241,-37 270,-37 270,-56"/>
<text text-anchor="middle" x="255.5" y="-44" font-family="Helvetica,sans-Serif" font-size="10.00">U</text>
</a>
</g>
</g>
<!-- Node5&#45;&gt;Node10 -->
<g id="edge10_Node000005_Node000010" class="edge">
<title>Node5&#45;&gt;Node10</title>
<g id="a_edge10_Node000005_Node000010"><a xlink:title=" ">
<path fill="none" stroke="#63b8ff" d="M162.47,-128.65C176.51,-114.23 203.87,-86.79 229,-65.5 230.3,-64.4 231.66,-63.28 233.05,-62.17"/>
<polygon fill="#63b8ff" stroke="#63b8ff" points="235.22,-64.92 241.02,-56.05 230.96,-59.37 235.22,-64.92"/>
</a>
</g>
</g>
<!-- Node11 -->
<g id="Node000011" class="node">
<title>Node11</title>
<g id="a_Node000011"><a xlink:href="pdf_8h.html#a22cfa0441665fad14b723bd2b14ec5d8" target="_top" xlink:title="&lt; up">
<polygon fill="white" stroke="#666666" points="271,-19 240,-19 240,0 271,0 271,-19"/>
<text text-anchor="middle" x="255.5" y="-7" font-family="Helvetica,sans-Serif" font-size="10.00">UB</text>
</a>
</g>
</g>
<!-- Node5&#45;&gt;Node11 -->
<g id="edge11_Node000005_Node000011" class="edge">
<title>Node5&#45;&gt;Node11</title>
<g id="a_edge11_Node000005_Node000011"><a xlink:title=" ">
<path fill="none" stroke="#63b8ff" d="M158.1,-128.75C169.11,-108.33 196.7,-60.27 229,-27.5 229.9,-26.59 230.85,-25.69 231.83,-24.81"/>
<polygon fill="#63b8ff" stroke="#63b8ff" points="234.07,-27.51 239.76,-18.57 229.74,-22.01 234.07,-27.51"/>
</a>
</g>
</g>
</g>
</svg>
