<?xml version="1.0" encoding="UTF-8" standalone="no"?>
<!DOCTYPE svg PUBLIC "-//W3C//DTD SVG 1.1//EN"
 "http://www.w3.org/Graphics/SVG/1.1/DTD/svg11.dtd">
<!-- Generated by graphviz version 2.43.0 (0)
 -->
<!-- Title: freezeoutData Pages: 1 -->
<svg width="192pt" height="93pt"
 viewBox="0.00 0.00 191.50 93.00" xmlns="http://www.w3.org/2000/svg" xmlns:xlink="http://www.w3.org/1999/xlink">
<g id="graph0" class="graph" transform="scale(1 1) rotate(0) translate(4 89)">
<title>freezeoutData</title>
<!-- Node1 -->
<g id="Node000001" class="node">
<title>Node1</title>
<g id="a_Node000001"><a xlink:title=" ">
<polygon fill="#999999" stroke="#666666" points="120.5,-19 34.5,-19 34.5,0 120.5,0 120.5,-19"/>
<text text-anchor="middle" x="77.5" y="-7" font-family="Helvetica,sans-Serif" font-size="10.00">freezeoutData</text>
</a>
</g>
</g>
<!-- Node2 -->
<g id="Node000002" class="node">
<title>Node2</title>
<g id="a_Node000002"><a xlink:href="structcsvdata.html" target="_top" xlink:title=" ">
<polygon fill="white" stroke="#666666" points="55,-85 0,-85 0,-66 55,-66 55,-85"/>
<text text-anchor="middle" x="27.5" y="-73" font-family="Helvetica,sans-Serif" font-size="10.00">csvdata</text>
</a>
</g>
</g>
<!-- Node2&#45;&gt;Node1 -->
<g id="edge1_Node000001_Node000002" class="edge">
<title>Node2&#45;&gt;Node1</title>
<g id="a_edge1_Node000001_Node000002"><a xlink:title=" ">
<path fill="none" stroke="#9a32cd" stroke-dasharray="5,2" d="M40.57,-57.77C50.16,-45.49 62.81,-29.3 70.54,-19.41"/>
<polygon fill="#9a32cd" stroke="#9a32cd" points="37.64,-55.83 34.24,-65.87 43.16,-60.14 37.64,-55.83"/>
</a>
</g>
<text text-anchor="middle" x="72" y="-40" font-family="Helvetica,sans-Serif" font-size="10.00" fill="grey"> foCSV</text>
</g>
<!-- Node3 -->
<g id="Node000003" class="node">
<title>Node3</title>
<g id="a_Node000003"><a xlink:href="structfreezeoutFunctions.html" target="_top" xlink:title=" ">
<polygon fill="white" stroke="#666666" points="183.5,-85 73.5,-85 73.5,-66 183.5,-66 183.5,-85"/>
<text text-anchor="middle" x="128.5" y="-73" font-family="Helvetica,sans-Serif" font-size="10.00">freezeoutFunctions</text>
</a>
</g>
</g>
<!-- Node3&#45;&gt;Node1 -->
<g id="edge2_Node000001_Node000003" class="edge">
<title>Node3&#45;&gt;Node1</title>
<g id="a_edge2_Node000001_Node000003"><a xlink:title=" ">
<path fill="none" stroke="#9a32cd" stroke-dasharray="5,2" d="M115.17,-57.77C105.38,-45.49 92.48,-29.3 84.6,-19.41"/>
<polygon fill="#9a32cd" stroke="#9a32cd" points="112.65,-60.23 121.62,-65.87 118.13,-55.87 112.65,-60.23"/>
</a>
</g>
<text text-anchor="middle" x="123.5" y="-40" font-family="Helvetica,sans-Serif" font-size="10.00" fill="grey"> foFunc</text>
</g>
</g>
</svg>
