<?xml version="1.0" encoding="UTF-8" standalone="no"?>
<!DOCTYPE svg PUBLIC "-//W3C//DTD SVG 1.1//EN"
 "http://www.w3.org/Graphics/SVG/1.1/DTD/svg11.dtd">
<!-- Generated by graphviz version 2.43.0 (0)
 -->
<!-- Title: F2 Pages: 1 -->
<svg width="516pt" height="364pt"
 viewBox="0.00 0.00 516.00 364.00" xmlns="http://www.w3.org/2000/svg" xmlns:xlink="http://www.w3.org/1999/xlink">
<g id="graph0" class="graph" transform="scale(1 1) rotate(0) translate(4 360)">
<title>F2</title>
<!-- Node1 -->
<g id="Node000001" class="node">
<title>Node1</title>
<g id="a_Node000001"><a xlink:title=" ">
<polygon fill="#999999" stroke="#666666" points="29,-243 0,-243 0,-224 29,-224 29,-243"/>
<text text-anchor="middle" x="14.5" y="-231" font-family="Helvetica,sans-Serif" font-size="10.00">F2</text>
</a>
</g>
</g>
<!-- Node2 -->
<g id="Node000002" class="node">
<title>Node2</title>
<g id="a_Node000002"><a xlink:href="coefffunc_8h.html#a084f37cd16e0c30e8001dbd66338350b" target="_top" xlink:title="from [Zijlstra, van Neerven; Nucl. Phys. B. 383 (3), 525, 1992] eq. B.2">
<polygon fill="white" stroke="#666666" points="170,-356 85,-356 85,-337 170,-337 170,-356"/>
<text text-anchor="middle" x="127.5" y="-344" font-family="Helvetica,sans-Serif" font-size="10.00">c2q_1_0_local</text>
</a>
</g>
</g>
<!-- Node1&#45;&gt;Node2 -->
<g id="edge1_Node000001_Node000002" class="edge">
<title>Node1&#45;&gt;Node2</title>
<g id="a_edge1_Node000001_Node000002"><a xlink:title=" ">
<path fill="none" stroke="#63b8ff" d="M17.82,-243.19C22.92,-262.41 36.97,-305.48 65,-328.5 68.15,-331.09 71.66,-333.3 75.36,-335.2"/>
<polygon fill="#63b8ff" stroke="#63b8ff" points="74.28,-338.55 84.85,-339.29 77.05,-332.12 74.28,-338.55"/>
</a>
</g>
</g>
<!-- Node3 -->
<g id="Node000003" class="node">
<title>Node3</title>
<g id="a_Node000003"><a xlink:href="coefffunc_8h.html#a894395aa259170e5142ce132238309e6" target="_top" xlink:title="from [Zijlstra, van Neerven; Nucl. Phys. B. 383 (3), 525, 1992] eq. B.2 contains the local contributi...">
<polygon fill="white" stroke="#666666" points="180,-319 75,-319 75,-300 180,-300 180,-319"/>
<text text-anchor="middle" x="127.5" y="-307" font-family="Helvetica,sans-Serif" font-size="10.00">c2q_1_0_localplus</text>
</a>
</g>
</g>
<!-- Node1&#45;&gt;Node3 -->
<g id="edge2_Node000001_Node000003" class="edge">
<title>Node1&#45;&gt;Node3</title>
<g id="a_edge2_Node000001_Node000003"><a xlink:title=" ">
<path fill="none" stroke="#63b8ff" d="M22.55,-243.16C31.35,-254.64 47.41,-273.69 65,-285.5 71.08,-289.58 77.97,-293.12 84.87,-296.14"/>
<polygon fill="#63b8ff" stroke="#63b8ff" points="83.63,-299.42 94.22,-299.92 86.26,-292.93 83.63,-299.42"/>
</a>
</g>
</g>
<!-- Node4 -->
<g id="Node000004" class="node">
<title>Node4</title>
<g id="a_Node000004"><a xlink:href="structfunc_8h.html#a72b9ad89e5a9cd71c67bbf6b73cfb3d6" target="_top" xlink:title=" ">
<polygon fill="white" stroke="#666666" points="190,-243 65,-243 65,-224 190,-224 190,-243"/>
<text text-anchor="middle" x="127.5" y="-231" font-family="Helvetica,sans-Serif" font-size="10.00">F2integrand_logtrafo0</text>
</a>
</g>
</g>
<!-- Node1&#45;&gt;Node4 -->
<g id="edge3_Node000001_Node000004" class="edge">
<title>Node1&#45;&gt;Node4</title>
<g id="a_edge3_Node000001_Node000004"><a xlink:title=" ">
<path fill="none" stroke="#63b8ff" d="M29.11,-233.5C35.99,-233.5 44.91,-233.5 54.56,-233.5"/>
<polygon fill="#63b8ff" stroke="#63b8ff" points="54.83,-237 64.83,-233.5 54.83,-230 54.83,-237"/>
</a>
</g>
</g>
<!-- Node8 -->
<g id="Node000008" class="node">
<title>Node8</title>
<g id="a_Node000008"><a xlink:href="classPdf.html#a80fb579ab586ba61596bb084330d0ac6" target="_top" xlink:title=" ">
<polygon fill="white" stroke="#666666" points="508,-241 455,-241 455,-222 508,-222 508,-241"/>
<text text-anchor="middle" x="481.5" y="-229" font-family="Helvetica,sans-Serif" font-size="10.00">Pdf::get</text>
</a>
</g>
</g>
<!-- Node1&#45;&gt;Node8 -->
<g id="edge18_Node000001_Node000008" class="edge">
<title>Node1&#45;&gt;Node8</title>
<g id="a_edge18_Node000001_Node000008"><a xlink:title=" ">
<path fill="none" stroke="#63b8ff" d="M29.39,-240.41C39.1,-244.84 52.51,-250.19 65,-252.5 219.7,-281.17 263.79,-278.27 419,-252.5 428.81,-250.87 439.15,-247.88 448.5,-244.65"/>
<polygon fill="#63b8ff" stroke="#63b8ff" points="449.99,-247.83 458.18,-241.11 447.59,-241.25 449.99,-247.83"/>
</a>
</g>
</g>
<!-- Node9 -->
<g id="Node000009" class="node">
<title>Node9</title>
<g id="a_Node000009"><a xlink:href="pdf_8h.html#a9baddbed7ad5f04071a998eb417a5b31" target="_top" xlink:title="Computes $\sum_i Q_i^2 x f(x,Q^2)$.">
<polygon fill="white" stroke="#666666" points="411,-130 345,-130 345,-111 411,-111 411,-130"/>
<text text-anchor="middle" x="378" y="-118" font-family="Helvetica,sans-Serif" font-size="10.00">xfiQi2sum</text>
</a>
</g>
</g>
<!-- Node1&#45;&gt;Node9 -->
<g id="edge20_Node000001_Node000009" class="edge">
<title>Node1&#45;&gt;Node9</title>
<g id="a_edge20_Node000001_Node000009"><a xlink:title=" ">
<path fill="none" stroke="#63b8ff" d="M21.2,-223.98C29.28,-211.41 45.28,-189.56 65,-178.5 110.64,-152.92 260.26,-133.37 334.48,-124.99"/>
<polygon fill="#63b8ff" stroke="#63b8ff" points="335.31,-128.42 344.86,-123.83 334.53,-121.46 335.31,-128.42"/>
</a>
</g>
</g>
<!-- Node16 -->
<g id="Node000016" class="node">
<title>Node16</title>
<g id="a_Node000016"><a xlink:href="structfunc_8h.html#a4c319327b228b6185e2cd88bf2c4b4f2" target="_top" xlink:title=" ">
<polygon fill="white" stroke="#666666" points="190,-206 65,-206 65,-187 190,-187 190,-206"/>
<text text-anchor="middle" x="127.5" y="-194" font-family="Helvetica,sans-Serif" font-size="10.00">F2integrand_logtrafo1</text>
</a>
</g>
</g>
<!-- Node1&#45;&gt;Node16 -->
<g id="edge16_Node000001_Node000016" class="edge">
<title>Node1&#45;&gt;Node16</title>
<g id="a_edge16_Node000001_Node000016"><a xlink:title=" ">
<path fill="none" stroke="#63b8ff" d="M29.3,-228.27C39.2,-224.58 52.86,-219.58 65,-215.5 71.41,-213.35 78.22,-211.15 84.88,-209.05"/>
<polygon fill="#63b8ff" stroke="#63b8ff" points="85.98,-212.38 94.48,-206.06 83.9,-205.69 85.98,-212.38"/>
</a>
</g>
</g>
<!-- Node17 -->
<g id="Node000017" class="node">
<title>Node17</title>
<g id="a_Node000017"><a xlink:href="integrate_8h.html#acb6e82bad718ff0e07895569bad0af6f" target="_top" xlink:title=" ">
<polygon fill="white" stroke="#666666" points="158,-130 97,-130 97,-111 158,-111 158,-130"/>
<text text-anchor="middle" x="127.5" y="-118" font-family="Helvetica,sans-Serif" font-size="10.00">integrate</text>
</a>
</g>
</g>
<!-- Node1&#45;&gt;Node17 -->
<g id="edge19_Node000001_Node000017" class="edge">
<title>Node1&#45;&gt;Node17</title>
<g id="a_edge19_Node000001_Node000017"><a xlink:title=" ">
<path fill="none" stroke="#63b8ff" d="M18.44,-223.78C24.37,-205.72 39.43,-166.82 65,-144.5 71.38,-138.93 79.21,-134.57 87.11,-131.19"/>
<polygon fill="#63b8ff" stroke="#63b8ff" points="88.6,-134.37 96.7,-127.55 86.11,-127.83 88.6,-134.37"/>
</a>
</g>
</g>
<!-- Node5 -->
<g id="Node000005" class="node">
<title>Node5</title>
<g id="a_Node000005"><a xlink:href="structfunc_8h.html#aa4dc5cbd2ddc07970850d275ce8b8a44" target="_top" xlink:title="Computes all contributions to F2 that need to be integrated over, i.e. all contributions from coeffic...">
<polygon fill="white" stroke="#666666" points="301,-206 226,-206 226,-187 301,-187 301,-206"/>
<text text-anchor="middle" x="263.5" y="-194" font-family="Helvetica,sans-Serif" font-size="10.00">F2integrand</text>
</a>
</g>
</g>
<!-- Node4&#45;&gt;Node5 -->
<g id="edge4_Node000004_Node000005" class="edge">
<title>Node4&#45;&gt;Node5</title>
<g id="a_edge4_Node000004_Node000005"><a xlink:title=" ">
<path fill="none" stroke="#63b8ff" d="M163.01,-223.97C179.76,-219.35 200.08,-213.73 217.98,-208.79"/>
<polygon fill="#63b8ff" stroke="#63b8ff" points="218.94,-212.16 227.64,-206.12 217.07,-205.41 218.94,-212.16"/>
</a>
</g>
</g>
<!-- Node6 -->
<g id="Node000006" class="node">
<title>Node6</title>
<g id="a_Node000006"><a xlink:href="coefffunc_8h.html#aca4f6958287a3352a0f516ed379ee749" target="_top" xlink:title="from [Zijlstra, van Neerven; Nucl. Phys. B. 383 (3), 525, 1992] eq. B.2">
<polygon fill="white" stroke="#666666" points="419,-206 337,-206 337,-187 419,-187 419,-206"/>
<text text-anchor="middle" x="378" y="-194" font-family="Helvetica,sans-Serif" font-size="10.00">c2q_1_0_plus</text>
</a>
</g>
</g>
<!-- Node5&#45;&gt;Node6 -->
<g id="edge5_Node000005_Node000006" class="edge">
<title>Node5&#45;&gt;Node6</title>
<g id="a_edge5_Node000005_Node000006"><a xlink:title=" ">
<path fill="none" stroke="#63b8ff" d="M301.03,-196.5C309.23,-196.5 318.08,-196.5 326.74,-196.5"/>
<polygon fill="#63b8ff" stroke="#63b8ff" points="326.77,-200 336.77,-196.5 326.77,-193 326.77,-200"/>
</a>
</g>
</g>
<!-- Node7 -->
<g id="Node000007" class="node">
<title>Node7</title>
<g id="a_Node000007"><a xlink:href="coefffunc_8h.html#ae4256e1ef32ca3e99ee5ce8a18f407b1" target="_top" xlink:title="The naming of the coefficient functions follows the scheme cnf_j_k_desc with c &#45; &quot;coefficient functio...">
<polygon fill="white" stroke="#666666" points="416.5,-243 339.5,-243 339.5,-224 416.5,-224 416.5,-243"/>
<text text-anchor="middle" x="378" y="-231" font-family="Helvetica,sans-Serif" font-size="10.00">c2q_1_0_reg</text>
</a>
</g>
</g>
<!-- Node5&#45;&gt;Node7 -->
<g id="edge6_Node000005_Node000007" class="edge">
<title>Node5&#45;&gt;Node7</title>
<g id="a_edge6_Node000005_Node000007"><a xlink:title=" ">
<path fill="none" stroke="#63b8ff" d="M293.47,-206.03C307.01,-210.48 323.34,-215.85 337.95,-220.66"/>
<polygon fill="#63b8ff" stroke="#63b8ff" points="337.14,-224.08 347.74,-223.88 339.33,-217.43 337.14,-224.08"/>
</a>
</g>
</g>
<!-- Node5&#45;&gt;Node8 -->
<g id="edge7_Node000005_Node000008" class="edge">
<title>Node5&#45;&gt;Node8</title>
<g id="a_edge7_Node000005_Node000008"><a xlink:title=" ">
<path fill="none" stroke="#63b8ff" d="M287.7,-186.99C318.77,-175.75 375.09,-160.67 419,-178.5 439.68,-186.89 437.83,-199.24 455,-213.5 455.98,-214.32 457.01,-215.14 458.05,-215.95"/>
<polygon fill="#63b8ff" stroke="#63b8ff" points="456.06,-218.84 466.18,-221.98 460.23,-213.21 456.06,-218.84"/>
</a>
</g>
</g>
<!-- Node5&#45;&gt;Node9 -->
<g id="edge8_Node000005_Node000009" class="edge">
<title>Node5&#45;&gt;Node9</title>
<g id="a_edge8_Node000005_Node000009"><a xlink:title=" ">
<path fill="none" stroke="#63b8ff" d="M279.6,-186.96C286.24,-182.66 294.09,-177.44 301,-172.5 317.48,-160.7 320.28,-155.96 337,-144.5 341.48,-141.43 346.35,-138.32 351.11,-135.41"/>
<polygon fill="#63b8ff" stroke="#63b8ff" points="353.2,-138.24 359.98,-130.1 349.6,-132.23 353.2,-138.24"/>
</a>
</g>
</g>
<!-- Node9&#45;&gt;Node8 -->
<g id="edge11_Node000009_Node000008" class="edge">
<title>Node9&#45;&gt;Node8</title>
<g id="a_edge11_Node000009_Node000008"><a xlink:title=" ">
<path fill="none" stroke="#63b8ff" d="M399.68,-130.04C406.42,-133.85 413.56,-138.72 419,-144.5 442.72,-169.68 432.23,-187.46 455,-213.5 455.51,-214.08 456.04,-214.65 456.59,-215.22"/>
<polygon fill="#63b8ff" stroke="#63b8ff" points="454.55,-218.08 464.43,-221.92 459.1,-212.76 454.55,-218.08"/>
</a>
</g>
</g>
<!-- Node10 -->
<g id="Node000010" class="node">
<title>Node10</title>
<g id="a_Node000010"><a xlink:href="pdf_8h.html#a67a23f93417dbc43bb4f606cd9f4e33e" target="_top" xlink:title="&lt; gluon">
<polygon fill="white" stroke="#666666" points="496,-204 467,-204 467,-185 496,-185 496,-204"/>
<text text-anchor="middle" x="481.5" y="-192" font-family="Helvetica,sans-Serif" font-size="10.00">D</text>
</a>
</g>
</g>
<!-- Node9&#45;&gt;Node10 -->
<g id="edge9_Node000009_Node000010" class="edge">
<title>Node9&#45;&gt;Node10</title>
<g id="a_edge9_Node000009_Node000010"><a xlink:title=" ">
<path fill="none" stroke="#63b8ff" d="M396.58,-130.1C403.73,-134.24 411.95,-139.32 419,-144.5 436.25,-157.17 438.23,-163.2 455,-176.5 456.17,-177.43 457.38,-178.36 458.61,-179.29"/>
<polygon fill="#63b8ff" stroke="#63b8ff" points="456.65,-182.19 466.79,-185.25 460.77,-176.53 456.65,-182.19"/>
</a>
</g>
</g>
<!-- Node11 -->
<g id="Node000011" class="node">
<title>Node11</title>
<g id="a_Node000011"><a xlink:href="pdf_8h.html#ad53d91f9bcb1537b9d08d3f240b77857" target="_top" xlink:title="&lt; down">
<polygon fill="white" stroke="#666666" points="497,-167 466,-167 466,-148 497,-148 497,-167"/>
<text text-anchor="middle" x="481.5" y="-155" font-family="Helvetica,sans-Serif" font-size="10.00">DB</text>
</a>
</g>
</g>
<!-- Node9&#45;&gt;Node11 -->
<g id="edge10_Node000009_Node000011" class="edge">
<title>Node9&#45;&gt;Node11</title>
<g id="a_edge10_Node000009_Node000011"><a xlink:title=" ">
<path fill="none" stroke="#63b8ff" d="M405.14,-130.03C420.79,-135.73 440.57,-142.94 455.93,-148.54"/>
<polygon fill="#63b8ff" stroke="#63b8ff" points="455.17,-151.99 465.76,-152.13 457.56,-145.41 455.17,-151.99"/>
</a>
</g>
</g>
<!-- Node12 -->
<g id="Node000012" class="node">
<title>Node12</title>
<g id="a_Node000012"><a xlink:href="pdf_8h.html#a40da31d93d3ca1e11efacfe87a364996" target="_top" xlink:title="&lt; anti up">
<polygon fill="white" stroke="#666666" points="496,-130 467,-130 467,-111 496,-111 496,-130"/>
<text text-anchor="middle" x="481.5" y="-118" font-family="Helvetica,sans-Serif" font-size="10.00">S</text>
</a>
</g>
</g>
<!-- Node9&#45;&gt;Node12 -->
<g id="edge12_Node000009_Node000012" class="edge">
<title>Node9&#45;&gt;Node12</title>
<g id="a_edge12_Node000009_Node000012"><a xlink:title=" ">
<path fill="none" stroke="#63b8ff" d="M411.12,-120.5C425.96,-120.5 443.28,-120.5 456.9,-120.5"/>
<polygon fill="#63b8ff" stroke="#63b8ff" points="456.92,-124 466.92,-120.5 456.92,-117 456.92,-124"/>
</a>
</g>
</g>
<!-- Node13 -->
<g id="Node000013" class="node">
<title>Node13</title>
<g id="a_Node000013"><a xlink:href="pdf_8h.html#a7fb4dfc7dfed3e505bab1f893062a149" target="_top" xlink:title="&lt; strange">
<polygon fill="white" stroke="#666666" points="496,-93 467,-93 467,-74 496,-74 496,-93"/>
<text text-anchor="middle" x="481.5" y="-81" font-family="Helvetica,sans-Serif" font-size="10.00">SB</text>
</a>
</g>
</g>
<!-- Node9&#45;&gt;Node13 -->
<g id="edge13_Node000009_Node000013" class="edge">
<title>Node9&#45;&gt;Node13</title>
<g id="a_edge13_Node000009_Node000013"><a xlink:title=" ">
<path fill="none" stroke="#63b8ff" d="M405.14,-110.97C421.33,-105.07 441.93,-97.56 457.5,-91.89"/>
<polygon fill="#63b8ff" stroke="#63b8ff" points="458.71,-95.17 466.9,-88.46 456.31,-88.59 458.71,-95.17"/>
</a>
</g>
</g>
<!-- Node14 -->
<g id="Node000014" class="node">
<title>Node14</title>
<g id="a_Node000014"><a xlink:href="pdf_8h.html#a62b42e36a523520ca8494d451d44c3ac" target="_top" xlink:title="&lt; anti down">
<polygon fill="white" stroke="#666666" points="496,-56 467,-56 467,-37 496,-37 496,-56"/>
<text text-anchor="middle" x="481.5" y="-44" font-family="Helvetica,sans-Serif" font-size="10.00">U</text>
</a>
</g>
</g>
<!-- Node9&#45;&gt;Node14 -->
<g id="edge14_Node000009_Node000014" class="edge">
<title>Node9&#45;&gt;Node14</title>
<g id="a_edge14_Node000009_Node000014"><a xlink:title=" ">
<path fill="none" stroke="#63b8ff" d="M391.85,-110.91C406.92,-99.69 432.67,-80.61 455,-64.5 456.21,-63.63 457.45,-62.74 458.71,-61.84"/>
<polygon fill="#63b8ff" stroke="#63b8ff" points="460.84,-64.62 466.96,-55.98 456.78,-58.91 460.84,-64.62"/>
</a>
</g>
</g>
<!-- Node15 -->
<g id="Node000015" class="node">
<title>Node15</title>
<g id="a_Node000015"><a xlink:href="pdf_8h.html#a22cfa0441665fad14b723bd2b14ec5d8" target="_top" xlink:title="&lt; up">
<polygon fill="white" stroke="#666666" points="497,-19 466,-19 466,0 497,0 497,-19"/>
<text text-anchor="middle" x="481.5" y="-7" font-family="Helvetica,sans-Serif" font-size="10.00">UB</text>
</a>
</g>
</g>
<!-- Node9&#45;&gt;Node15 -->
<g id="edge15_Node000009_Node000015" class="edge">
<title>Node9&#45;&gt;Node15</title>
<g id="a_edge15_Node000009_Node000015"><a xlink:title=" ">
<path fill="none" stroke="#63b8ff" d="M385.58,-110.81C397.9,-93.06 425.86,-54.65 455,-27.5 455.94,-26.63 456.92,-25.76 457.93,-24.91"/>
<polygon fill="#63b8ff" stroke="#63b8ff" points="460.14,-27.62 465.94,-18.76 455.88,-22.07 460.14,-27.62"/>
</a>
</g>
</g>
<!-- Node16&#45;&gt;Node5 -->
<g id="edge17_Node000016_Node000005" class="edge">
<title>Node16&#45;&gt;Node5</title>
<g id="a_edge17_Node000016_Node000005"><a xlink:title=" ">
<path fill="none" stroke="#63b8ff" d="M190.01,-196.5C198.62,-196.5 207.35,-196.5 215.63,-196.5"/>
<polygon fill="#63b8ff" stroke="#63b8ff" points="215.84,-200 225.84,-196.5 215.84,-193 215.84,-200"/>
</a>
</g>
</g>
</g>
</svg>
