<?xml version="1.0" encoding="UTF-8" standalone="no"?>
<!DOCTYPE svg PUBLIC "-//W3C//DTD SVG 1.1//EN"
 "http://www.w3.org/Graphics/SVG/1.1/DTD/svg11.dtd">
<!-- Generated by graphviz version 2.43.0 (0)
 -->
<!-- Title: include/structfunc.h Pages: 1 -->
<svg width="672pt" height="192pt"
 viewBox="0.00 0.00 672.00 192.00" xmlns="http://www.w3.org/2000/svg" xmlns:xlink="http://www.w3.org/1999/xlink">
<g id="graph0" class="graph" transform="scale(1 1) rotate(0) translate(4 188)">
<title>include/structfunc.h</title>
<!-- Node1 -->
<g id="Node000001" class="node">
<title>Node1</title>
<g id="a_Node000001"><a xlink:title=" ">
<polygon fill="#999999" stroke="#666666" points="490,-184 377,-184 377,-165 490,-165 490,-184"/>
<text text-anchor="middle" x="433.5" y="-172" font-family="Helvetica,sans-Serif" font-size="10.00">include/structfunc.h</text>
</a>
</g>
</g>
<!-- Node2 -->
<g id="Node000002" class="node">
<title>Node2</title>
<g id="a_Node000002"><a xlink:href="pdf_8h.html" target="_top" xlink:title=" ">
<polygon fill="white" stroke="#666666" points="174,-129 133,-129 133,-110 174,-110 174,-129"/>
<text text-anchor="middle" x="153.5" y="-117" font-family="Helvetica,sans-Serif" font-size="10.00">pdf.h</text>
</a>
</g>
</g>
<!-- Node1&#45;&gt;Node2 -->
<g id="edge1_Node000001_Node000002" class="edge">
<title>Node1&#45;&gt;Node2</title>
<g id="a_edge1_Node000001_Node000002"><a xlink:title=" ">
<path fill="none" stroke="#63b8ff" d="M388.51,-164.98C331.19,-154.13 233.64,-135.67 184.19,-126.31"/>
<polygon fill="#63b8ff" stroke="#63b8ff" points="184.59,-122.82 174.11,-124.4 183.29,-129.7 184.59,-122.82"/>
</a>
</g>
</g>
<!-- Node5 -->
<g id="Node000005" class="node">
<title>Node5</title>
<g id="a_Node000005"><a xlink:href="constants_8h.html" target="_top" xlink:title=" ">
<polygon fill="white" stroke="#666666" points="599,-74 526,-74 526,-55 599,-55 599,-74"/>
<text text-anchor="middle" x="562.5" y="-62" font-family="Helvetica,sans-Serif" font-size="10.00">constants.h</text>
</a>
</g>
</g>
<!-- Node1&#45;&gt;Node5 -->
<g id="edge4_Node000001_Node000005" class="edge">
<title>Node1&#45;&gt;Node5</title>
<g id="a_edge4_Node000001_Node000005"><a xlink:title=" ">
<path fill="none" stroke="#63b8ff" d="M444.06,-164.66C465.99,-146.3 516.74,-103.81 544.15,-80.87"/>
<polygon fill="#63b8ff" stroke="#63b8ff" points="546.74,-83.26 552.16,-74.16 542.24,-77.89 546.74,-83.26"/>
</a>
</g>
</g>
<!-- Node7 -->
<g id="Node000007" class="node">
<title>Node7</title>
<g id="a_Node000007"><a xlink:href="integrate_8h.html" target="_top" xlink:title=" ">
<polygon fill="white" stroke="#666666" points="403.5,-129 333.5,-129 333.5,-110 403.5,-110 403.5,-129"/>
<text text-anchor="middle" x="368.5" y="-117" font-family="Helvetica,sans-Serif" font-size="10.00">integrate.h</text>
</a>
</g>
</g>
<!-- Node1&#45;&gt;Node7 -->
<g id="edge6_Node000001_Node000007" class="edge">
<title>Node1&#45;&gt;Node7</title>
<g id="a_edge6_Node000001_Node000007"><a xlink:title=" ">
<path fill="none" stroke="#63b8ff" d="M423.06,-164.98C413.35,-157.07 398.68,-145.11 387,-135.58"/>
<polygon fill="#63b8ff" stroke="#63b8ff" points="389.1,-132.78 379.13,-129.17 384.67,-138.2 389.1,-132.78"/>
</a>
</g>
</g>
<!-- Node11 -->
<g id="Node000011" class="node">
<title>Node11</title>
<g id="a_Node000011"><a xlink:href="coefffunc_8h.html" target="_top" xlink:title=" ">
<polygon fill="white" stroke="#666666" points="598,-129 527,-129 527,-110 598,-110 598,-129"/>
<text text-anchor="middle" x="562.5" y="-117" font-family="Helvetica,sans-Serif" font-size="10.00">coefffunc.h</text>
</a>
</g>
</g>
<!-- Node1&#45;&gt;Node11 -->
<g id="edge11_Node000001_Node000011" class="edge">
<title>Node1&#45;&gt;Node11</title>
<g id="a_edge11_Node000001_Node000011"><a xlink:title=" ">
<path fill="none" stroke="#63b8ff" d="M454.23,-164.98C475.26,-156.34 508.05,-142.87 532.04,-133.02"/>
<polygon fill="#63b8ff" stroke="#63b8ff" points="533.48,-136.21 541.4,-129.17 530.82,-129.73 533.48,-136.21"/>
</a>
</g>
</g>
<!-- Node3 -->
<g id="Node000003" class="node">
<title>Node3</title>
<g id="a_Node000003"><a xlink:title=" ">
<polygon fill="#e0e0e0" stroke="#999999" points="183.5,-74 123.5,-74 123.5,-55 183.5,-55 183.5,-74"/>
<text text-anchor="middle" x="153.5" y="-62" font-family="Helvetica,sans-Serif" font-size="10.00">iostream</text>
</a>
</g>
</g>
<!-- Node2&#45;&gt;Node3 -->
<g id="edge2_Node000002_Node000003" class="edge">
<title>Node2&#45;&gt;Node3</title>
<g id="a_edge2_Node000002_Node000003"><a xlink:title=" ">
<path fill="none" stroke="#63b8ff" d="M153.5,-109.75C153.5,-102.8 153.5,-92.85 153.5,-84.13"/>
<polygon fill="#63b8ff" stroke="#63b8ff" points="157,-84.09 153.5,-74.09 150,-84.09 157,-84.09"/>
</a>
</g>
</g>
<!-- Node4 -->
<g id="Node000004" class="node">
<title>Node4</title>
<g id="a_Node000004"><a xlink:title=" ">
<polygon fill="#e0e0e0" stroke="#999999" points="105,-74 0,-74 0,-55 105,-55 105,-74"/>
<text text-anchor="middle" x="52.5" y="-62" font-family="Helvetica,sans-Serif" font-size="10.00">LHAPDF/LHAPDF.h</text>
</a>
</g>
</g>
<!-- Node2&#45;&gt;Node4 -->
<g id="edge3_Node000002_Node000004" class="edge">
<title>Node2&#45;&gt;Node4</title>
<g id="a_edge3_Node000002_Node000004"><a xlink:title=" ">
<path fill="none" stroke="#63b8ff" d="M137.27,-109.98C121.32,-101.61 96.72,-88.7 78.12,-78.95"/>
<polygon fill="#63b8ff" stroke="#63b8ff" points="79.5,-75.72 69.02,-74.17 76.25,-81.92 79.5,-75.72"/>
</a>
</g>
</g>
<!-- Node6 -->
<g id="Node000006" class="node">
<title>Node6</title>
<g id="a_Node000006"><a xlink:href="protectedobject_8h.html" target="_top" xlink:title=" ">
<polygon fill="white" stroke="#666666" points="613.5,-19 511.5,-19 511.5,0 613.5,0 613.5,-19"/>
<text text-anchor="middle" x="562.5" y="-7" font-family="Helvetica,sans-Serif" font-size="10.00">protectedobject.h</text>
</a>
</g>
</g>
<!-- Node5&#45;&gt;Node6 -->
<g id="edge5_Node000005_Node000006" class="edge">
<title>Node5&#45;&gt;Node6</title>
<g id="a_edge5_Node000005_Node000006"><a xlink:title=" ">
<path fill="none" stroke="#63b8ff" d="M562.5,-54.75C562.5,-47.8 562.5,-37.85 562.5,-29.13"/>
<polygon fill="#63b8ff" stroke="#63b8ff" points="566,-29.09 562.5,-19.09 559,-29.09 566,-29.09"/>
</a>
</g>
</g>
<!-- Node7&#45;&gt;Node3 -->
<g id="edge7_Node000007_Node000003" class="edge">
<title>Node7&#45;&gt;Node3</title>
<g id="a_edge7_Node000007_Node000003"><a xlink:title=" ">
<path fill="none" stroke="#63b8ff" d="M333.96,-109.98C295.66,-100.54 233.96,-85.34 193.57,-75.38"/>
<polygon fill="#63b8ff" stroke="#63b8ff" points="194.33,-71.96 183.79,-72.97 192.66,-78.76 194.33,-71.96"/>
</a>
</g>
</g>
<!-- Node8 -->
<g id="Node000008" class="node">
<title>Node8</title>
<g id="a_Node000008"><a xlink:title=" ">
<polygon fill="#e0e0e0" stroke="#999999" points="401,-74 336,-74 336,-55 401,-55 401,-74"/>
<text text-anchor="middle" x="368.5" y="-62" font-family="Helvetica,sans-Serif" font-size="10.00">functional</text>
</a>
</g>
</g>
<!-- Node7&#45;&gt;Node8 -->
<g id="edge8_Node000007_Node000008" class="edge">
<title>Node7&#45;&gt;Node8</title>
<g id="a_edge8_Node000007_Node000008"><a xlink:title=" ">
<path fill="none" stroke="#63b8ff" d="M368.5,-109.75C368.5,-102.8 368.5,-92.85 368.5,-84.13"/>
<polygon fill="#63b8ff" stroke="#63b8ff" points="372,-84.09 368.5,-74.09 365,-84.09 372,-84.09"/>
</a>
</g>
</g>
<!-- Node9 -->
<g id="Node000009" class="node">
<title>Node9</title>
<g id="a_Node000009"><a xlink:title=" ">
<polygon fill="#e0e0e0" stroke="#999999" points="507.5,-74 419.5,-74 419.5,-55 507.5,-55 507.5,-74"/>
<text text-anchor="middle" x="463.5" y="-62" font-family="Helvetica,sans-Serif" font-size="10.00">gsl/gsl_errno.h</text>
</a>
</g>
</g>
<!-- Node7&#45;&gt;Node9 -->
<g id="edge9_Node000007_Node000009" class="edge">
<title>Node7&#45;&gt;Node9</title>
<g id="a_edge9_Node000007_Node000009"><a xlink:title=" ">
<path fill="none" stroke="#63b8ff" d="M383.76,-109.98C398.63,-101.69 421.48,-88.94 438.92,-79.22"/>
<polygon fill="#63b8ff" stroke="#63b8ff" points="440.93,-82.1 447.96,-74.17 437.52,-75.99 440.93,-82.1"/>
</a>
</g>
</g>
<!-- Node10 -->
<g id="Node000010" class="node">
<title>Node10</title>
<g id="a_Node000010"><a xlink:title=" ">
<polygon fill="#e0e0e0" stroke="#999999" points="317.5,-74 201.5,-74 201.5,-55 317.5,-55 317.5,-74"/>
<text text-anchor="middle" x="259.5" y="-62" font-family="Helvetica,sans-Serif" font-size="10.00">gsl/gsl_integration.h</text>
</a>
</g>
</g>
<!-- Node7&#45;&gt;Node10 -->
<g id="edge10_Node000007_Node000010" class="edge">
<title>Node7&#45;&gt;Node10</title>
<g id="a_edge10_Node000007_Node000010"><a xlink:title=" ">
<path fill="none" stroke="#63b8ff" d="M350.99,-109.98C333.53,-101.5 306.49,-88.35 286.33,-78.54"/>
<polygon fill="#63b8ff" stroke="#63b8ff" points="287.86,-75.4 277.33,-74.17 284.79,-81.69 287.86,-75.4"/>
</a>
</g>
</g>
<!-- Node11&#45;&gt;Node5 -->
<g id="edge13_Node000011_Node000005" class="edge">
<title>Node11&#45;&gt;Node5</title>
<g id="a_edge13_Node000011_Node000005"><a xlink:title=" ">
<path fill="none" stroke="#63b8ff" d="M562.5,-109.75C562.5,-102.8 562.5,-92.85 562.5,-84.13"/>
<polygon fill="#63b8ff" stroke="#63b8ff" points="566,-84.09 562.5,-74.09 559,-84.09 566,-84.09"/>
</a>
</g>
</g>
<!-- Node12 -->
<g id="Node000012" class="node">
<title>Node12</title>
<g id="a_Node000012"><a xlink:title=" ">
<polygon fill="#e0e0e0" stroke="#999999" points="664,-74 617,-74 617,-55 664,-55 664,-74"/>
<text text-anchor="middle" x="640.5" y="-62" font-family="Helvetica,sans-Serif" font-size="10.00">cmath</text>
</a>
</g>
</g>
<!-- Node11&#45;&gt;Node12 -->
<g id="edge12_Node000011_Node000012" class="edge">
<title>Node11&#45;&gt;Node12</title>
<g id="a_edge12_Node000011_Node000012"><a xlink:title=" ">
<path fill="none" stroke="#63b8ff" d="M575.03,-109.98C586.9,-101.92 604.96,-89.65 619.11,-80.03"/>
<polygon fill="#63b8ff" stroke="#63b8ff" points="621.44,-82.69 627.74,-74.17 617.5,-76.9 621.44,-82.69"/>
</a>
</g>
</g>
</g>
</svg>
