<?xml version="1.0" encoding="UTF-8" standalone="no"?>
<!DOCTYPE svg PUBLIC "-//W3C//DTD SVG 1.1//EN"
 "http://www.w3.org/Graphics/SVG/1.1/DTD/svg11.dtd">
<!-- Generated by graphviz version 2.43.0 (0)
 -->
<!-- Title: src/structfunctest.cpp Pages: 1 -->
<svg width="672pt" height="247pt"
 viewBox="0.00 0.00 672.00 247.00" xmlns="http://www.w3.org/2000/svg" xmlns:xlink="http://www.w3.org/1999/xlink">
<g id="graph0" class="graph" transform="scale(1 1) rotate(0) translate(4 243)">
<title>src/structfunctest.cpp</title>
<!-- Node1 -->
<g id="Node000001" class="node">
<title>Node1</title>
<g id="a_Node000001"><a xlink:title=" ">
<polygon fill="#999999" stroke="#666666" points="469.5,-239 347.5,-239 347.5,-220 469.5,-220 469.5,-239"/>
<text text-anchor="middle" x="408.5" y="-227" font-family="Helvetica,sans-Serif" font-size="10.00">src/structfunctest.cpp</text>
</a>
</g>
</g>
<!-- Node2 -->
<g id="Node000002" class="node">
<title>Node2</title>
<g id="a_Node000002"><a xlink:title=" ">
<polygon fill="#e0e0e0" stroke="#999999" points="540.5,-74 480.5,-74 480.5,-55 540.5,-55 540.5,-74"/>
<text text-anchor="middle" x="510.5" y="-62" font-family="Helvetica,sans-Serif" font-size="10.00">iostream</text>
</a>
</g>
</g>
<!-- Node1&#45;&gt;Node2 -->
<g id="edge1_Node000001_Node000002" class="edge">
<title>Node1&#45;&gt;Node2</title>
<g id="a_edge1_Node000001_Node000002"><a xlink:title=" ">
<path fill="none" stroke="#63b8ff" d="M413.74,-219.83C425.63,-200.19 455.63,-150.82 481.5,-110 487.24,-100.95 493.74,-90.94 499.14,-82.71"/>
<polygon fill="#63b8ff" stroke="#63b8ff" points="502.08,-84.6 504.66,-74.32 496.24,-80.75 502.08,-84.6"/>
</a>
</g>
</g>
<!-- Node3 -->
<g id="Node000003" class="node">
<title>Node3</title>
<g id="a_Node000003"><a xlink:href="structfunc_8h.html" target="_top" xlink:title=" ">
<polygon fill="white" stroke="#666666" points="375.5,-184 301.5,-184 301.5,-165 375.5,-165 375.5,-184"/>
<text text-anchor="middle" x="338.5" y="-172" font-family="Helvetica,sans-Serif" font-size="10.00">structfunc.h</text>
</a>
</g>
</g>
<!-- Node1&#45;&gt;Node3 -->
<g id="edge2_Node000001_Node000003" class="edge">
<title>Node1&#45;&gt;Node3</title>
<g id="a_edge2_Node000001_Node000003"><a xlink:title=" ">
<path fill="none" stroke="#63b8ff" d="M397.25,-219.98C386.7,-212 370.7,-199.88 358.06,-190.31"/>
<polygon fill="#63b8ff" stroke="#63b8ff" points="360.04,-187.42 349.95,-184.17 355.81,-193 360.04,-187.42"/>
</a>
</g>
</g>
<!-- Node4 -->
<g id="Node000004" class="node">
<title>Node4</title>
<g id="a_Node000004"><a xlink:href="pdf_8h.html" target="_top" xlink:title=" ">
<polygon fill="white" stroke="#666666" points="531,-129 490,-129 490,-110 531,-110 531,-129"/>
<text text-anchor="middle" x="510.5" y="-117" font-family="Helvetica,sans-Serif" font-size="10.00">pdf.h</text>
</a>
</g>
</g>
<!-- Node3&#45;&gt;Node4 -->
<g id="edge3_Node000003_Node000004" class="edge">
<title>Node3&#45;&gt;Node4</title>
<g id="a_edge3_Node000003_Node000004"><a xlink:title=" ">
<path fill="none" stroke="#63b8ff" d="M366.13,-164.98C397.33,-155.37 447.91,-139.79 480.17,-129.85"/>
<polygon fill="#63b8ff" stroke="#63b8ff" points="481.42,-133.12 489.95,-126.83 479.36,-126.43 481.42,-133.12"/>
</a>
</g>
</g>
<!-- Node6 -->
<g id="Node000006" class="node">
<title>Node6</title>
<g id="a_Node000006"><a xlink:href="constants_8h.html" target="_top" xlink:title=" ">
<polygon fill="white" stroke="#666666" points="138,-74 65,-74 65,-55 138,-55 138,-74"/>
<text text-anchor="middle" x="101.5" y="-62" font-family="Helvetica,sans-Serif" font-size="10.00">constants.h</text>
</a>
</g>
</g>
<!-- Node3&#45;&gt;Node6 -->
<g id="edge6_Node000003_Node000006" class="edge">
<title>Node3&#45;&gt;Node6</title>
<g id="a_edge6_Node000003_Node000006"><a xlink:title=" ">
<path fill="none" stroke="#63b8ff" d="M319.51,-164.84C277.89,-145.88 178.48,-100.58 129.6,-78.31"/>
<polygon fill="#63b8ff" stroke="#63b8ff" points="130.81,-75.01 120.26,-74.05 127.9,-81.38 130.81,-75.01"/>
</a>
</g>
</g>
<!-- Node8 -->
<g id="Node000008" class="node">
<title>Node8</title>
<g id="a_Node000008"><a xlink:href="integrate_8h.html" target="_top" xlink:title=" ">
<polygon fill="white" stroke="#666666" points="373.5,-129 303.5,-129 303.5,-110 373.5,-110 373.5,-129"/>
<text text-anchor="middle" x="338.5" y="-117" font-family="Helvetica,sans-Serif" font-size="10.00">integrate.h</text>
</a>
</g>
</g>
<!-- Node3&#45;&gt;Node8 -->
<g id="edge8_Node000003_Node000008" class="edge">
<title>Node3&#45;&gt;Node8</title>
<g id="a_edge8_Node000003_Node000008"><a xlink:title=" ">
<path fill="none" stroke="#63b8ff" d="M338.5,-164.75C338.5,-157.8 338.5,-147.85 338.5,-139.13"/>
<polygon fill="#63b8ff" stroke="#63b8ff" points="342,-139.09 338.5,-129.09 335,-139.09 342,-139.09"/>
</a>
</g>
</g>
<!-- Node12 -->
<g id="Node000012" class="node">
<title>Node12</title>
<g id="a_Node000012"><a xlink:href="coefffunc_8h.html" target="_top" xlink:title=" ">
<polygon fill="white" stroke="#666666" points="137,-129 66,-129 66,-110 137,-110 137,-129"/>
<text text-anchor="middle" x="101.5" y="-117" font-family="Helvetica,sans-Serif" font-size="10.00">coefffunc.h</text>
</a>
</g>
</g>
<!-- Node3&#45;&gt;Node12 -->
<g id="edge13_Node000003_Node000012" class="edge">
<title>Node3&#45;&gt;Node12</title>
<g id="a_edge13_Node000003_Node000012"><a xlink:title=" ">
<path fill="none" stroke="#63b8ff" d="M301.47,-165.22C259.71,-155.88 191.8,-140.69 146.88,-130.65"/>
<polygon fill="#63b8ff" stroke="#63b8ff" points="147.63,-127.23 137.11,-128.46 146.1,-134.06 147.63,-127.23"/>
</a>
</g>
</g>
<!-- Node4&#45;&gt;Node2 -->
<g id="edge4_Node000004_Node000002" class="edge">
<title>Node4&#45;&gt;Node2</title>
<g id="a_edge4_Node000004_Node000002"><a xlink:title=" ">
<path fill="none" stroke="#63b8ff" d="M510.5,-109.75C510.5,-102.8 510.5,-92.85 510.5,-84.13"/>
<polygon fill="#63b8ff" stroke="#63b8ff" points="514,-84.09 510.5,-74.09 507,-84.09 514,-84.09"/>
</a>
</g>
</g>
<!-- Node5 -->
<g id="Node000005" class="node">
<title>Node5</title>
<g id="a_Node000005"><a xlink:title=" ">
<polygon fill="#e0e0e0" stroke="#999999" points="664,-74 559,-74 559,-55 664,-55 664,-74"/>
<text text-anchor="middle" x="611.5" y="-62" font-family="Helvetica,sans-Serif" font-size="10.00">LHAPDF/LHAPDF.h</text>
</a>
</g>
</g>
<!-- Node4&#45;&gt;Node5 -->
<g id="edge5_Node000004_Node000005" class="edge">
<title>Node4&#45;&gt;Node5</title>
<g id="a_edge5_Node000004_Node000005"><a xlink:title=" ">
<path fill="none" stroke="#63b8ff" d="M526.73,-109.98C542.68,-101.61 567.28,-88.7 585.88,-78.95"/>
<polygon fill="#63b8ff" stroke="#63b8ff" points="587.75,-81.92 594.98,-74.17 584.5,-75.72 587.75,-81.92"/>
</a>
</g>
</g>
<!-- Node7 -->
<g id="Node000007" class="node">
<title>Node7</title>
<g id="a_Node000007"><a xlink:href="protectedobject_8h.html" target="_top" xlink:title=" ">
<polygon fill="white" stroke="#666666" points="152.5,-19 50.5,-19 50.5,0 152.5,0 152.5,-19"/>
<text text-anchor="middle" x="101.5" y="-7" font-family="Helvetica,sans-Serif" font-size="10.00">protectedobject.h</text>
</a>
</g>
</g>
<!-- Node6&#45;&gt;Node7 -->
<g id="edge7_Node000006_Node000007" class="edge">
<title>Node6&#45;&gt;Node7</title>
<g id="a_edge7_Node000006_Node000007"><a xlink:title=" ">
<path fill="none" stroke="#63b8ff" d="M101.5,-54.75C101.5,-47.8 101.5,-37.85 101.5,-29.13"/>
<polygon fill="#63b8ff" stroke="#63b8ff" points="105,-29.09 101.5,-19.09 98,-29.09 105,-29.09"/>
</a>
</g>
</g>
<!-- Node8&#45;&gt;Node2 -->
<g id="edge9_Node000008_Node000002" class="edge">
<title>Node8&#45;&gt;Node2</title>
<g id="a_edge9_Node000008_Node000002"><a xlink:title=" ">
<path fill="none" stroke="#63b8ff" d="M366.13,-109.98C395.01,-101.09 440.51,-87.07 472.7,-77.15"/>
<polygon fill="#63b8ff" stroke="#63b8ff" points="474.12,-80.37 482.65,-74.08 472.06,-73.68 474.12,-80.37"/>
</a>
</g>
</g>
<!-- Node9 -->
<g id="Node000009" class="node">
<title>Node9</title>
<g id="a_Node000009"><a xlink:title=" ">
<polygon fill="#e0e0e0" stroke="#999999" points="462,-74 397,-74 397,-55 462,-55 462,-74"/>
<text text-anchor="middle" x="429.5" y="-62" font-family="Helvetica,sans-Serif" font-size="10.00">functional</text>
</a>
</g>
</g>
<!-- Node8&#45;&gt;Node9 -->
<g id="edge10_Node000008_Node000009" class="edge">
<title>Node8&#45;&gt;Node9</title>
<g id="a_edge10_Node000008_Node000009"><a xlink:title=" ">
<path fill="none" stroke="#63b8ff" d="M353.12,-109.98C367.36,-101.69 389.25,-88.94 405.95,-79.22"/>
<polygon fill="#63b8ff" stroke="#63b8ff" points="407.73,-82.23 414.61,-74.17 404.21,-76.18 407.73,-82.23"/>
</a>
</g>
</g>
<!-- Node10 -->
<g id="Node000010" class="node">
<title>Node10</title>
<g id="a_Node000010"><a xlink:title=" ">
<polygon fill="#e0e0e0" stroke="#999999" points="244.5,-74 156.5,-74 156.5,-55 244.5,-55 244.5,-74"/>
<text text-anchor="middle" x="200.5" y="-62" font-family="Helvetica,sans-Serif" font-size="10.00">gsl/gsl_errno.h</text>
</a>
</g>
</g>
<!-- Node8&#45;&gt;Node10 -->
<g id="edge11_Node000008_Node000010" class="edge">
<title>Node8&#45;&gt;Node10</title>
<g id="a_edge11_Node000008_Node000010"><a xlink:title=" ">
<path fill="none" stroke="#63b8ff" d="M316.33,-109.98C293.73,-101.3 258.44,-87.75 232.75,-77.88"/>
<polygon fill="#63b8ff" stroke="#63b8ff" points="233.67,-74.49 223.08,-74.17 231.16,-81.02 233.67,-74.49"/>
</a>
</g>
</g>
<!-- Node11 -->
<g id="Node000011" class="node">
<title>Node11</title>
<g id="a_Node000011"><a xlink:title=" ">
<polygon fill="#e0e0e0" stroke="#999999" points="378.5,-74 262.5,-74 262.5,-55 378.5,-55 378.5,-74"/>
<text text-anchor="middle" x="320.5" y="-62" font-family="Helvetica,sans-Serif" font-size="10.00">gsl/gsl_integration.h</text>
</a>
</g>
</g>
<!-- Node8&#45;&gt;Node11 -->
<g id="edge12_Node000008_Node000011" class="edge">
<title>Node8&#45;&gt;Node11</title>
<g id="a_edge12_Node000008_Node000011"><a xlink:title=" ">
<path fill="none" stroke="#63b8ff" d="M335.53,-109.75C333.14,-102.72 329.71,-92.62 326.73,-83.84"/>
<polygon fill="#63b8ff" stroke="#63b8ff" points="329.95,-82.43 323.42,-74.09 323.32,-84.68 329.95,-82.43"/>
</a>
</g>
</g>
<!-- Node12&#45;&gt;Node6 -->
<g id="edge15_Node000012_Node000006" class="edge">
<title>Node12&#45;&gt;Node6</title>
<g id="a_edge15_Node000012_Node000006"><a xlink:title=" ">
<path fill="none" stroke="#63b8ff" d="M101.5,-109.75C101.5,-102.8 101.5,-92.85 101.5,-84.13"/>
<polygon fill="#63b8ff" stroke="#63b8ff" points="105,-84.09 101.5,-74.09 98,-84.09 105,-84.09"/>
</a>
</g>
</g>
<!-- Node13 -->
<g id="Node000013" class="node">
<title>Node13</title>
<g id="a_Node000013"><a xlink:title=" ">
<polygon fill="#e0e0e0" stroke="#999999" points="47,-74 0,-74 0,-55 47,-55 47,-74"/>
<text text-anchor="middle" x="23.5" y="-62" font-family="Helvetica,sans-Serif" font-size="10.00">cmath</text>
</a>
</g>
</g>
<!-- Node12&#45;&gt;Node13 -->
<g id="edge14_Node000012_Node000013" class="edge">
<title>Node12&#45;&gt;Node13</title>
<g id="a_edge14_Node000012_Node000013"><a xlink:title=" ">
<path fill="none" stroke="#63b8ff" d="M88.97,-109.98C77.1,-101.92 59.04,-89.65 44.89,-80.03"/>
<polygon fill="#63b8ff" stroke="#63b8ff" points="46.5,-76.9 36.26,-74.17 42.56,-82.69 46.5,-76.9"/>
</a>
</g>
</g>
</g>
</svg>
