<?xml version="1.0" encoding="UTF-8" standalone="no"?>
<!DOCTYPE svg PUBLIC "-//W3C//DTD SVG 1.1//EN"
 "http://www.w3.org/Graphics/SVG/1.1/DTD/svg11.dtd">
<!-- Generated by graphviz version 2.43.0 (0)
 -->
<!-- Title: initData Pages: 1 -->
<svg width="160pt" height="93pt"
 viewBox="0.00 0.00 160.00 93.00" xmlns="http://www.w3.org/2000/svg" xmlns:xlink="http://www.w3.org/1999/xlink">
<g id="graph0" class="graph" transform="scale(1 1) rotate(0) translate(4 89)">
<title>initData</title>
<!-- Node1 -->
<g id="Node000001" class="node">
<title>Node1</title>
<g id="a_Node000001"><a xlink:title=" ">
<polygon fill="#999999" stroke="#666666" points="97.5,-19 41.5,-19 41.5,0 97.5,0 97.5,-19"/>
<text text-anchor="middle" x="69.5" y="-7" font-family="Helvetica,sans-Serif" font-size="10.00">initData</text>
</a>
</g>
</g>
<!-- Node2 -->
<g id="Node000002" class="node">
<title>Node2</title>
<g id="a_Node000002"><a xlink:href="structcsvdata.html" target="_top" xlink:title=" ">
<polygon fill="white" stroke="#666666" points="55,-85 0,-85 0,-66 55,-66 55,-85"/>
<text text-anchor="middle" x="27.5" y="-73" font-family="Helvetica,sans-Serif" font-size="10.00">csvdata</text>
</a>
</g>
</g>
<!-- Node2&#45;&gt;Node1 -->
<g id="edge1_Node000001_Node000002" class="edge">
<title>Node2&#45;&gt;Node1</title>
<g id="a_edge1_Node000001_Node000002"><a xlink:title=" ">
<path fill="none" stroke="#9a32cd" stroke-dasharray="5,2" d="M38.38,-57.28C42.46,-50.89 47.15,-43.59 51.5,-37 55.42,-31.06 59.92,-24.43 63.44,-19.29"/>
<polygon fill="#9a32cd" stroke="#9a32cd" points="35.37,-55.5 32.96,-65.82 41.28,-59.25 35.37,-55.5"/>
</a>
</g>
<text text-anchor="middle" x="71" y="-40" font-family="Helvetica,sans-Serif" font-size="10.00" fill="grey"> initCSV</text>
</g>
<!-- Node3 -->
<g id="Node000003" class="node">
<title>Node3</title>
<g id="a_Node000003"><a xlink:href="structinitFunctions.html" target="_top" xlink:title=" ">
<polygon fill="white" stroke="#666666" points="152,-85 73,-85 73,-66 152,-66 152,-85"/>
<text text-anchor="middle" x="112.5" y="-73" font-family="Helvetica,sans-Serif" font-size="10.00">initFunctions</text>
</a>
</g>
</g>
<!-- Node3&#45;&gt;Node1 -->
<g id="edge2_Node000001_Node000003" class="edge">
<title>Node3&#45;&gt;Node1</title>
<g id="a_edge2_Node000001_Node000003"><a xlink:title=" ">
<path fill="none" stroke="#9a32cd" stroke-dasharray="5,2" d="M102.81,-56.84C99.14,-50.46 94.81,-43.29 90.5,-37 86.26,-30.8 81.01,-24.18 76.82,-19.1"/>
<polygon fill="#9a32cd" stroke="#9a32cd" points="99.99,-58.95 107.93,-65.95 106.09,-55.52 99.99,-58.95"/>
</a>
</g>
<text text-anchor="middle" x="117.5" y="-40" font-family="Helvetica,sans-Serif" font-size="10.00" fill="grey"> initFunc</text>
</g>
</g>
</svg>
