<?xml version="1.0" encoding="UTF-8" standalone="no"?>
<!DOCTYPE svg PUBLIC "-//W3C//DTD SVG 1.1//EN"
 "http://www.w3.org/Graphics/SVG/1.1/DTD/svg11.dtd">
<!-- Generated by graphviz version 2.43.0 (0)
 -->
<!-- Title: src/teststructfunc.cpp Pages: 1 -->
<svg width="1058pt" height="302pt"
 viewBox="0.00 0.00 1057.50 302.00" xmlns="http://www.w3.org/2000/svg" xmlns:xlink="http://www.w3.org/1999/xlink">
<g id="graph0" class="graph" transform="scale(1 1) rotate(0) translate(4 298)">
<title>src/teststructfunc.cpp</title>
<!-- Node1 -->
<g id="Node000001" class="node">
<title>Node1</title>
<g id="a_Node000001"><a xlink:title=" ">
<polygon fill="#999999" stroke="#666666" points="399.5,-294 277.5,-294 277.5,-275 399.5,-275 399.5,-294"/>
<text text-anchor="middle" x="338.5" y="-282" font-family="Helvetica,sans-Serif" font-size="10.00">src/teststructfunc.cpp</text>
</a>
</g>
</g>
<!-- Node2 -->
<g id="Node000002" class="node">
<title>Node2</title>
<g id="a_Node000002"><a xlink:title=" ">
<polygon fill="#e0e0e0" stroke="#999999" points="807.5,-129 747.5,-129 747.5,-110 807.5,-110 807.5,-129"/>
<text text-anchor="middle" x="777.5" y="-117" font-family="Helvetica,sans-Serif" font-size="10.00">iostream</text>
</a>
</g>
</g>
<!-- Node1&#45;&gt;Node2 -->
<g id="edge1_Node000001_Node000002" class="edge">
<title>Node1&#45;&gt;Node2</title>
<g id="a_edge1_Node000001_Node000002"><a xlink:title=" ">
<path fill="none" stroke="#63b8ff" d="M399.57,-276.56C503.16,-263.59 707.06,-232.53 758.5,-184 770.65,-172.53 775.13,-153.65 776.73,-139.45"/>
<polygon fill="#63b8ff" stroke="#63b8ff" points="780.24,-139.53 777.49,-129.3 773.26,-139.01 780.24,-139.53"/>
</a>
</g>
</g>
<!-- Node3 -->
<g id="Node000003" class="node">
<title>Node3</title>
<g id="a_Node000003"><a xlink:title=" ">
<polygon fill="#e0e0e0" stroke="#999999" points="47,-129 0,-129 0,-110 47,-110 47,-129"/>
<text text-anchor="middle" x="23.5" y="-117" font-family="Helvetica,sans-Serif" font-size="10.00">cmath</text>
</a>
</g>
</g>
<!-- Node1&#45;&gt;Node3 -->
<g id="edge2_Node000001_Node000003" class="edge">
<title>Node1&#45;&gt;Node3</title>
<g id="a_edge2_Node000001_Node000003"><a xlink:title=" ">
<path fill="none" stroke="#63b8ff" d="M277.26,-276.12C214.28,-265.62 116.71,-240.87 53.5,-184 40.34,-172.16 32.46,-153.33 28.1,-139.24"/>
<polygon fill="#63b8ff" stroke="#63b8ff" points="31.36,-137.89 25.33,-129.18 24.61,-139.75 31.36,-137.89"/>
</a>
</g>
</g>
<!-- Node4 -->
<g id="Node000004" class="node">
<title>Node4</title>
<g id="a_Node000004"><a xlink:href="structfunc_8h.html" target="_top" xlink:title=" ">
<polygon fill="white" stroke="#666666" points="375.5,-239 301.5,-239 301.5,-220 375.5,-220 375.5,-239"/>
<text text-anchor="middle" x="338.5" y="-227" font-family="Helvetica,sans-Serif" font-size="10.00">structfunc.h</text>
</a>
</g>
</g>
<!-- Node1&#45;&gt;Node4 -->
<g id="edge3_Node000001_Node000004" class="edge">
<title>Node1&#45;&gt;Node4</title>
<g id="a_edge3_Node000001_Node000004"><a xlink:title=" ">
<path fill="none" stroke="#63b8ff" d="M338.5,-274.75C338.5,-267.8 338.5,-257.85 338.5,-249.13"/>
<polygon fill="#63b8ff" stroke="#63b8ff" points="342,-249.09 338.5,-239.09 335,-249.09 342,-249.09"/>
</a>
</g>
</g>
<!-- Node4&#45;&gt;Node3 -->
<g id="edge25_Node000004_Node000003" class="edge">
<title>Node4&#45;&gt;Node3</title>
<g id="a_edge25_Node000004_Node000003"><a xlink:title=" ">
<path fill="none" stroke="#63b8ff" d="M301.47,-225.12C239.51,-218.98 117.89,-204.67 80.5,-184 60.72,-173.06 44.27,-152.61 34.21,-137.86"/>
<polygon fill="#63b8ff" stroke="#63b8ff" points="36.93,-135.63 28.55,-129.16 31.06,-139.45 36.93,-135.63"/>
</a>
</g>
</g>
<!-- Node5 -->
<g id="Node000005" class="node">
<title>Node5</title>
<g id="a_Node000005"><a xlink:href="pdf_8h.html" target="_top" xlink:title=" ">
<polygon fill="white" stroke="#666666" points="682,-184 641,-184 641,-165 682,-165 682,-184"/>
<text text-anchor="middle" x="661.5" y="-172" font-family="Helvetica,sans-Serif" font-size="10.00">pdf.h</text>
</a>
</g>
</g>
<!-- Node4&#45;&gt;Node5 -->
<g id="edge4_Node000004_Node000005" class="edge">
<title>Node4&#45;&gt;Node5</title>
<g id="a_edge4_Node000004_Node000005"><a xlink:title=" ">
<path fill="none" stroke="#63b8ff" d="M375.77,-224.36C429.85,-218.02 533.32,-204.65 630.9,-183.86"/>
<polygon fill="#63b8ff" stroke="#63b8ff" points="631.89,-187.23 640.93,-181.7 630.42,-180.39 631.89,-187.23"/>
</a>
</g>
</g>
<!-- Node8 -->
<g id="Node000008" class="node">
<title>Node8</title>
<g id="a_Node000008"><a xlink:href="constants_8h.html" target="_top" xlink:title=" ">
<polygon fill="white" stroke="#666666" points="138,-129 65,-129 65,-110 138,-110 138,-129"/>
<text text-anchor="middle" x="101.5" y="-117" font-family="Helvetica,sans-Serif" font-size="10.00">constants.h</text>
</a>
</g>
</g>
<!-- Node4&#45;&gt;Node8 -->
<g id="edge8_Node000004_Node000008" class="edge">
<title>Node4&#45;&gt;Node8</title>
<g id="a_edge8_Node000004_Node000008"><a xlink:title=" ">
<path fill="none" stroke="#63b8ff" d="M319.51,-219.84C277.89,-200.88 178.48,-155.58 129.6,-133.31"/>
<polygon fill="#63b8ff" stroke="#63b8ff" points="130.81,-130.01 120.26,-129.05 127.9,-136.38 130.81,-130.01"/>
</a>
</g>
</g>
<!-- Node13 -->
<g id="Node000013" class="node">
<title>Node13</title>
<g id="a_Node000013"><a xlink:href="integrate_8h.html" target="_top" xlink:title=" ">
<polygon fill="white" stroke="#666666" points="622.5,-184 552.5,-184 552.5,-165 622.5,-165 622.5,-184"/>
<text text-anchor="middle" x="587.5" y="-172" font-family="Helvetica,sans-Serif" font-size="10.00">integrate.h</text>
</a>
</g>
</g>
<!-- Node4&#45;&gt;Node13 -->
<g id="edge13_Node000004_Node000013" class="edge">
<title>Node4&#45;&gt;Node13</title>
<g id="a_edge13_Node000004_Node000013"><a xlink:title=" ">
<path fill="none" stroke="#63b8ff" d="M375.51,-220.62C419.94,-211.17 494.42,-195.31 542.23,-185.14"/>
<polygon fill="#63b8ff" stroke="#63b8ff" points="543.25,-188.5 552.3,-182.99 541.79,-181.65 543.25,-188.5"/>
</a>
</g>
</g>
<!-- Node17 -->
<g id="Node000017" class="node">
<title>Node17</title>
<g id="a_Node000017"><a xlink:href="coefffunc_8h.html" target="_top" xlink:title=" ">
<polygon fill="white" stroke="#666666" points="161,-184 90,-184 90,-165 161,-165 161,-184"/>
<text text-anchor="middle" x="125.5" y="-172" font-family="Helvetica,sans-Serif" font-size="10.00">coefffunc.h</text>
</a>
</g>
</g>
<!-- Node4&#45;&gt;Node17 -->
<g id="edge18_Node000004_Node000017" class="edge">
<title>Node4&#45;&gt;Node17</title>
<g id="a_edge18_Node000004_Node000017"><a xlink:title=" ">
<path fill="none" stroke="#63b8ff" d="M304.28,-219.98C267.74,-210.89 209.72,-196.46 169.74,-186.51"/>
<polygon fill="#63b8ff" stroke="#63b8ff" points="170.54,-183.1 159.99,-184.08 168.85,-189.89 170.54,-183.1"/>
</a>
</g>
</g>
<!-- Node18 -->
<g id="Node000018" class="node">
<title>Node18</title>
<g id="a_Node000018"><a xlink:href="hqcoeff_8h.html" target="_top" xlink:title=" ">
<polygon fill="white" stroke="#666666" points="369.5,-184 307.5,-184 307.5,-165 369.5,-165 369.5,-184"/>
<text text-anchor="middle" x="338.5" y="-172" font-family="Helvetica,sans-Serif" font-size="10.00">hqcoeff.h</text>
</a>
</g>
</g>
<!-- Node4&#45;&gt;Node18 -->
<g id="edge21_Node000004_Node000018" class="edge">
<title>Node4&#45;&gt;Node18</title>
<g id="a_edge21_Node000004_Node000018"><a xlink:title=" ">
<path fill="none" stroke="#63b8ff" d="M338.5,-219.75C338.5,-212.8 338.5,-202.85 338.5,-194.13"/>
<polygon fill="#63b8ff" stroke="#63b8ff" points="342,-194.09 338.5,-184.09 335,-194.09 342,-194.09"/>
</a>
</g>
</g>
<!-- Node21 -->
<g id="Node000021" class="node">
<title>Node21</title>
<g id="a_Node000021"><a xlink:href="flags_8h.html" target="_top" xlink:title=" ">
<polygon fill="white" stroke="#666666" points="749,-184 700,-184 700,-165 749,-165 749,-184"/>
<text text-anchor="middle" x="724.5" y="-172" font-family="Helvetica,sans-Serif" font-size="10.00">flags.h</text>
</a>
</g>
</g>
<!-- Node4&#45;&gt;Node21 -->
<g id="edge24_Node000004_Node000021" class="edge">
<title>Node4&#45;&gt;Node21</title>
<g id="a_edge24_Node000004_Node000021"><a xlink:title=" ">
<path fill="none" stroke="#63b8ff" d="M375.59,-225.38C438.4,-219.77 569.84,-206.57 689.64,-184.16"/>
<polygon fill="#63b8ff" stroke="#63b8ff" points="690.54,-187.55 699.71,-182.24 689.23,-180.67 690.54,-187.55"/>
</a>
</g>
</g>
<!-- Node5&#45;&gt;Node2 -->
<g id="edge5_Node000005_Node000002" class="edge">
<title>Node5&#45;&gt;Node2</title>
<g id="a_edge5_Node000005_Node000002"><a xlink:title=" ">
<path fill="none" stroke="#63b8ff" d="M680.14,-164.98C698.8,-156.46 727.75,-143.23 749.24,-133.41"/>
<polygon fill="#63b8ff" stroke="#63b8ff" points="750.88,-136.51 758.52,-129.17 747.97,-130.14 750.88,-136.51"/>
</a>
</g>
</g>
<!-- Node6 -->
<g id="Node000006" class="node">
<title>Node6</title>
<g id="a_Node000006"><a xlink:title=" ">
<polygon fill="#e0e0e0" stroke="#999999" points="931,-129 826,-129 826,-110 931,-110 931,-129"/>
<text text-anchor="middle" x="878.5" y="-117" font-family="Helvetica,sans-Serif" font-size="10.00">LHAPDF/LHAPDF.h</text>
</a>
</g>
</g>
<!-- Node5&#45;&gt;Node6 -->
<g id="edge6_Node000005_Node000006" class="edge">
<title>Node5&#45;&gt;Node6</title>
<g id="a_edge6_Node000005_Node000006"><a xlink:title=" ">
<path fill="none" stroke="#63b8ff" d="M682.13,-167.53C685.26,-166.66 688.46,-165.79 691.5,-165 738.43,-152.77 792.35,-140.09 830.19,-131.4"/>
<polygon fill="#63b8ff" stroke="#63b8ff" points="831.45,-134.7 840.42,-129.06 829.89,-127.88 831.45,-134.7"/>
</a>
</g>
</g>
<!-- Node7 -->
<g id="Node000007" class="node">
<title>Node7</title>
<g id="a_Node000007"><a xlink:href="fortransymbols_8h.html" target="_top" xlink:title=" ">
<polygon fill="white" stroke="#666666" points="1049.5,-129 949.5,-129 949.5,-110 1049.5,-110 1049.5,-129"/>
<text text-anchor="middle" x="999.5" y="-117" font-family="Helvetica,sans-Serif" font-size="10.00">fortransymbols.h</text>
</a>
</g>
</g>
<!-- Node5&#45;&gt;Node7 -->
<g id="edge7_Node000005_Node000007" class="edge">
<title>Node5&#45;&gt;Node7</title>
<g id="a_edge7_Node000005_Node000007"><a xlink:title=" ">
<path fill="none" stroke="#63b8ff" d="M682.07,-167.28C685.21,-166.45 688.43,-165.65 691.5,-165 693.01,-164.68 850.08,-142.03 939.3,-129.17"/>
<polygon fill="#63b8ff" stroke="#63b8ff" points="939.9,-132.62 949.3,-127.73 938.9,-125.69 939.9,-132.62"/>
</a>
</g>
</g>
<!-- Node9 -->
<g id="Node000009" class="node">
<title>Node9</title>
<g id="a_Node000009"><a xlink:title=" ">
<polygon fill="#e0e0e0" stroke="#999999" points="81.5,-74 25.5,-74 25.5,-55 81.5,-55 81.5,-74"/>
<text text-anchor="middle" x="53.5" y="-62" font-family="Helvetica,sans-Serif" font-size="10.00">assert.h</text>
</a>
</g>
</g>
<!-- Node8&#45;&gt;Node9 -->
<g id="edge9_Node000008_Node000009" class="edge">
<title>Node8&#45;&gt;Node9</title>
<g id="a_edge9_Node000008_Node000009"><a xlink:title=" ">
<path fill="none" stroke="#63b8ff" d="M93.57,-109.75C86.65,-102.11 76.43,-90.82 68.05,-81.56"/>
<polygon fill="#63b8ff" stroke="#63b8ff" points="70.59,-79.15 61.28,-74.09 65.4,-83.85 70.59,-79.15"/>
</a>
</g>
</g>
<!-- Node10 -->
<g id="Node000010" class="node">
<title>Node10</title>
<g id="a_Node000010"><a xlink:href="protectedobject_8h.html" target="_top" xlink:title=" ">
<polygon fill="white" stroke="#666666" points="201.5,-74 99.5,-74 99.5,-55 201.5,-55 201.5,-74"/>
<text text-anchor="middle" x="150.5" y="-62" font-family="Helvetica,sans-Serif" font-size="10.00">protectedobject.h</text>
</a>
</g>
</g>
<!-- Node8&#45;&gt;Node10 -->
<g id="edge10_Node000008_Node000010" class="edge">
<title>Node8&#45;&gt;Node10</title>
<g id="a_edge10_Node000008_Node000010"><a xlink:title=" ">
<path fill="none" stroke="#63b8ff" d="M109.59,-109.75C116.66,-102.11 127.09,-90.82 135.65,-81.56"/>
<polygon fill="#63b8ff" stroke="#63b8ff" points="138.34,-83.81 142.56,-74.09 133.2,-79.06 138.34,-83.81"/>
</a>
</g>
</g>
<!-- Node11 -->
<g id="Node000011" class="node">
<title>Node11</title>
<g id="a_Node000011"><a xlink:title=" ">
<polygon fill="#e0e0e0" stroke="#999999" points="137,-19 88,-19 88,0 137,0 137,-19"/>
<text text-anchor="middle" x="112.5" y="-7" font-family="Helvetica,sans-Serif" font-size="10.00">cstdlib</text>
</a>
</g>
</g>
<!-- Node10&#45;&gt;Node11 -->
<g id="edge11_Node000010_Node000011" class="edge">
<title>Node10&#45;&gt;Node11</title>
<g id="a_edge11_Node000010_Node000011"><a xlink:title=" ">
<path fill="none" stroke="#63b8ff" d="M144.23,-54.75C138.91,-47.34 131.14,-36.5 124.62,-27.41"/>
<polygon fill="#63b8ff" stroke="#63b8ff" points="127.33,-25.18 118.66,-19.09 121.64,-29.26 127.33,-25.18"/>
</a>
</g>
</g>
<!-- Node12 -->
<g id="Node000012" class="node">
<title>Node12</title>
<g id="a_Node000012"><a xlink:title=" ">
<polygon fill="#e0e0e0" stroke="#999999" points="219.5,-19 155.5,-19 155.5,0 219.5,0 219.5,-19"/>
<text text-anchor="middle" x="187.5" y="-7" font-family="Helvetica,sans-Serif" font-size="10.00">algorithm</text>
</a>
</g>
</g>
<!-- Node10&#45;&gt;Node12 -->
<g id="edge12_Node000010_Node000012" class="edge">
<title>Node10&#45;&gt;Node12</title>
<g id="a_edge12_Node000010_Node000012"><a xlink:title=" ">
<path fill="none" stroke="#63b8ff" d="M156.61,-54.75C161.78,-47.34 169.35,-36.5 175.69,-27.41"/>
<polygon fill="#63b8ff" stroke="#63b8ff" points="178.65,-29.29 181.5,-19.09 172.91,-25.29 178.65,-29.29"/>
</a>
</g>
</g>
<!-- Node13&#45;&gt;Node2 -->
<g id="edge14_Node000013_Node000002" class="edge">
<title>Node13&#45;&gt;Node2</title>
<g id="a_edge14_Node000013_Node000002"><a xlink:title=" ">
<path fill="none" stroke="#63b8ff" d="M618.03,-164.98C650.39,-155.96 701.66,-141.65 737.3,-131.71"/>
<polygon fill="#63b8ff" stroke="#63b8ff" points="738.67,-134.96 747.36,-128.91 736.79,-128.22 738.67,-134.96"/>
</a>
</g>
</g>
<!-- Node14 -->
<g id="Node000014" class="node">
<title>Node14</title>
<g id="a_Node000014"><a xlink:title=" ">
<polygon fill="#e0e0e0" stroke="#999999" points="729,-129 664,-129 664,-110 729,-110 729,-129"/>
<text text-anchor="middle" x="696.5" y="-117" font-family="Helvetica,sans-Serif" font-size="10.00">functional</text>
</a>
</g>
</g>
<!-- Node13&#45;&gt;Node14 -->
<g id="edge15_Node000013_Node000014" class="edge">
<title>Node13&#45;&gt;Node14</title>
<g id="a_edge15_Node000013_Node000014"><a xlink:title=" ">
<path fill="none" stroke="#63b8ff" d="M605.01,-164.98C622.47,-156.5 649.51,-143.35 669.67,-133.54"/>
<polygon fill="#63b8ff" stroke="#63b8ff" points="671.21,-136.69 678.67,-129.17 668.14,-130.4 671.21,-136.69"/>
</a>
</g>
</g>
<!-- Node15 -->
<g id="Node000015" class="node">
<title>Node15</title>
<g id="a_Node000015"><a xlink:title=" ">
<polygon fill="#e0e0e0" stroke="#999999" points="511.5,-129 423.5,-129 423.5,-110 511.5,-110 511.5,-129"/>
<text text-anchor="middle" x="467.5" y="-117" font-family="Helvetica,sans-Serif" font-size="10.00">gsl/gsl_errno.h</text>
</a>
</g>
</g>
<!-- Node13&#45;&gt;Node15 -->
<g id="edge16_Node000013_Node000015" class="edge">
<title>Node13&#45;&gt;Node15</title>
<g id="a_edge16_Node000013_Node000015"><a xlink:title=" ">
<path fill="none" stroke="#63b8ff" d="M568.22,-164.98C548.83,-156.42 518.69,-143.11 496.43,-133.28"/>
<polygon fill="#63b8ff" stroke="#63b8ff" points="497.69,-130.01 487.13,-129.17 494.86,-136.41 497.69,-130.01"/>
</a>
</g>
</g>
<!-- Node16 -->
<g id="Node000016" class="node">
<title>Node16</title>
<g id="a_Node000016"><a xlink:title=" ">
<polygon fill="#e0e0e0" stroke="#999999" points="645.5,-129 529.5,-129 529.5,-110 645.5,-110 645.5,-129"/>
<text text-anchor="middle" x="587.5" y="-117" font-family="Helvetica,sans-Serif" font-size="10.00">gsl/gsl_integration.h</text>
</a>
</g>
</g>
<!-- Node13&#45;&gt;Node16 -->
<g id="edge17_Node000013_Node000016" class="edge">
<title>Node13&#45;&gt;Node16</title>
<g id="a_edge17_Node000013_Node000016"><a xlink:title=" ">
<path fill="none" stroke="#63b8ff" d="M587.5,-164.75C587.5,-157.8 587.5,-147.85 587.5,-139.13"/>
<polygon fill="#63b8ff" stroke="#63b8ff" points="591,-139.09 587.5,-129.09 584,-139.09 591,-139.09"/>
</a>
</g>
</g>
<!-- Node17&#45;&gt;Node3 -->
<g id="edge19_Node000017_Node000003" class="edge">
<title>Node17&#45;&gt;Node3</title>
<g id="a_edge19_Node000017_Node000003"><a xlink:title=" ">
<path fill="none" stroke="#63b8ff" d="M109.11,-164.98C92.93,-156.57 67.93,-143.59 49.12,-133.81"/>
<polygon fill="#63b8ff" stroke="#63b8ff" points="50.67,-130.68 40.19,-129.17 47.45,-136.89 50.67,-130.68"/>
</a>
</g>
</g>
<!-- Node17&#45;&gt;Node8 -->
<g id="edge20_Node000017_Node000008" class="edge">
<title>Node17&#45;&gt;Node8</title>
<g id="a_edge20_Node000017_Node000008"><a xlink:title=" ">
<path fill="none" stroke="#63b8ff" d="M121.54,-164.75C118.29,-157.57 113.58,-147.18 109.55,-138.27"/>
<polygon fill="#63b8ff" stroke="#63b8ff" points="112.7,-136.75 105.39,-129.09 106.33,-139.64 112.7,-136.75"/>
</a>
</g>
</g>
<!-- Node19 -->
<g id="Node000019" class="node">
<title>Node19</title>
<g id="a_Node000019"><a xlink:title=" ">
<polygon fill="#e0e0e0" stroke="#999999" points="315,-129 156,-129 156,-110 315,-110 315,-129"/>
<text text-anchor="middle" x="235.5" y="-117" font-family="Helvetica,sans-Serif" font-size="10.00">libInterpolate/Interpolate.hpp</text>
</a>
</g>
</g>
<!-- Node18&#45;&gt;Node19 -->
<g id="edge22_Node000018_Node000019" class="edge">
<title>Node18&#45;&gt;Node19</title>
<g id="a_edge22_Node000018_Node000019"><a xlink:title=" ">
<path fill="none" stroke="#63b8ff" d="M321.95,-164.98C305.61,-156.57 280.37,-143.59 261.37,-133.81"/>
<polygon fill="#63b8ff" stroke="#63b8ff" points="262.84,-130.63 252.35,-129.17 259.64,-136.86 262.84,-130.63"/>
</a>
</g>
</g>
<!-- Node20 -->
<g id="Node000020" class="node">
<title>Node20</title>
<g id="a_Node000020"><a xlink:title=" ">
<polygon fill="#e0e0e0" stroke="#999999" points="405.5,-129 333.5,-129 333.5,-110 405.5,-110 405.5,-129"/>
<text text-anchor="middle" x="369.5" y="-117" font-family="Helvetica,sans-Serif" font-size="10.00">ome/ome.h</text>
</a>
</g>
</g>
<!-- Node18&#45;&gt;Node20 -->
<g id="edge23_Node000018_Node000020" class="edge">
<title>Node18&#45;&gt;Node20</title>
<g id="a_edge23_Node000018_Node000020"><a xlink:title=" ">
<path fill="none" stroke="#63b8ff" d="M343.62,-164.75C347.86,-157.49 354.03,-146.95 359.28,-137.98"/>
<polygon fill="#63b8ff" stroke="#63b8ff" points="362.45,-139.49 364.48,-129.09 356.41,-135.95 362.45,-139.49"/>
</a>
</g>
</g>
</g>
</svg>
