<?xml version="1.0" encoding="UTF-8" standalone="no"?>
<!DOCTYPE svg PUBLIC "-//W3C//DTD SVG 1.1//EN"
 "http://www.w3.org/Graphics/SVG/1.1/DTD/svg11.dtd">
<!-- Generated by graphviz version 2.43.0 (0)
 -->
<!-- Title: src/testF2heavyintegrand.cpp Pages: 1 -->
<svg width="1033pt" height="302pt"
 viewBox="0.00 0.00 1032.50 302.00" xmlns="http://www.w3.org/2000/svg" xmlns:xlink="http://www.w3.org/1999/xlink">
<g id="graph0" class="graph" transform="scale(1 1) rotate(0) translate(4 298)">
<title>src/testF2heavyintegrand.cpp</title>
<!-- Node1 -->
<g id="Node000001" class="node">
<title>Node1</title>
<g id="a_Node000001"><a xlink:title=" ">
<polygon fill="#999999" stroke="#666666" points="476,-294 315,-294 315,-275 476,-275 476,-294"/>
<text text-anchor="middle" x="395.5" y="-282" font-family="Helvetica,sans-Serif" font-size="10.00">src/testF2heavyintegrand.cpp</text>
</a>
</g>
</g>
<!-- Node2 -->
<g id="Node000002" class="node">
<title>Node2</title>
<g id="a_Node000002"><a xlink:title=" ">
<polygon fill="#e0e0e0" stroke="#999999" points="700.5,-129 640.5,-129 640.5,-110 700.5,-110 700.5,-129"/>
<text text-anchor="middle" x="670.5" y="-117" font-family="Helvetica,sans-Serif" font-size="10.00">iostream</text>
</a>
</g>
</g>
<!-- Node1&#45;&gt;Node2 -->
<g id="edge1_Node000001_Node000002" class="edge">
<title>Node1&#45;&gt;Node2</title>
<g id="a_edge1_Node000001_Node000002"><a xlink:title=" ">
<path fill="none" stroke="#63b8ff" d="M409.89,-274.99C438.93,-257.8 506.64,-217.71 563.5,-184 592.31,-166.92 625.47,-147.23 647.15,-134.37"/>
<polygon fill="#63b8ff" stroke="#63b8ff" points="649.15,-137.25 655.96,-129.13 645.58,-131.23 649.15,-137.25"/>
</a>
</g>
</g>
<!-- Node3 -->
<g id="Node000003" class="node">
<title>Node3</title>
<g id="a_Node000003"><a xlink:title=" ">
<polygon fill="#e0e0e0" stroke="#999999" points="290,-129 243,-129 243,-110 290,-110 290,-129"/>
<text text-anchor="middle" x="266.5" y="-117" font-family="Helvetica,sans-Serif" font-size="10.00">cmath</text>
</a>
</g>
</g>
<!-- Node1&#45;&gt;Node3 -->
<g id="edge2_Node000001_Node000003" class="edge">
<title>Node1&#45;&gt;Node3</title>
<g id="a_edge2_Node000001_Node000003"><a xlink:title=" ">
<path fill="none" stroke="#63b8ff" d="M331.93,-274.97C239.39,-261.1 74.75,-230.46 39.5,-184 34.4,-177.27 34.13,-171.52 39.5,-165 51.69,-150.19 172.09,-132.7 232.41,-124.78"/>
<polygon fill="#63b8ff" stroke="#63b8ff" points="233.13,-128.22 242.59,-123.46 232.23,-121.28 233.13,-128.22"/>
</a>
</g>
</g>
<!-- Node4 -->
<g id="Node000004" class="node">
<title>Node4</title>
<g id="a_Node000004"><a xlink:href="structfunc_8h.html" target="_top" xlink:title=" ">
<polygon fill="white" stroke="#666666" points="381.5,-239 307.5,-239 307.5,-220 381.5,-220 381.5,-239"/>
<text text-anchor="middle" x="344.5" y="-227" font-family="Helvetica,sans-Serif" font-size="10.00">structfunc.h</text>
</a>
</g>
</g>
<!-- Node1&#45;&gt;Node4 -->
<g id="edge3_Node000001_Node000004" class="edge">
<title>Node1&#45;&gt;Node4</title>
<g id="a_edge3_Node000001_Node000004"><a xlink:title=" ">
<path fill="none" stroke="#63b8ff" d="M387.08,-274.75C379.73,-267.11 368.87,-255.82 359.96,-246.56"/>
<polygon fill="#63b8ff" stroke="#63b8ff" points="362.22,-243.87 352.76,-239.09 357.18,-248.72 362.22,-243.87"/>
</a>
</g>
</g>
<!-- Node8 -->
<g id="Node000008" class="node">
<title>Node8</title>
<g id="a_Node000008"><a xlink:href="constants_8h.html" target="_top" xlink:title=" ">
<polygon fill="white" stroke="#666666" points="381,-129 308,-129 308,-110 381,-110 381,-129"/>
<text text-anchor="middle" x="344.5" y="-117" font-family="Helvetica,sans-Serif" font-size="10.00">constants.h</text>
</a>
</g>
</g>
<!-- Node1&#45;&gt;Node8 -->
<g id="edge26_Node000001_Node000008" class="edge">
<title>Node1&#45;&gt;Node8</title>
<g id="a_edge26_Node000001_Node000008"><a xlink:title=" ">
<path fill="none" stroke="#63b8ff" d="M398.9,-274.88C406.36,-254.51 422.08,-202.28 403.5,-165 396.93,-151.82 384.4,-141.52 372.57,-134.16"/>
<polygon fill="#63b8ff" stroke="#63b8ff" points="374.18,-131.05 363.77,-129.1 370.7,-137.12 374.18,-131.05"/>
</a>
</g>
</g>
<!-- Node4&#45;&gt;Node3 -->
<g id="edge24_Node000004_Node000003" class="edge">
<title>Node4&#45;&gt;Node3</title>
<g id="a_edge24_Node000004_Node000003"><a xlink:title=" ">
<path fill="none" stroke="#63b8ff" d="M333.92,-219.75C324.15,-211.3 309.67,-197.8 299.5,-184 289.03,-169.79 280.02,-151.81 274.07,-138.6"/>
<polygon fill="#63b8ff" stroke="#63b8ff" points="277.19,-136.98 269.99,-129.21 270.76,-139.77 277.19,-136.98"/>
</a>
</g>
</g>
<!-- Node5 -->
<g id="Node000005" class="node">
<title>Node5</title>
<g id="a_Node000005"><a xlink:href="pdf_8h.html" target="_top" xlink:title=" ">
<polygon fill="white" stroke="#666666" points="555,-184 514,-184 514,-165 555,-165 555,-184"/>
<text text-anchor="middle" x="534.5" y="-172" font-family="Helvetica,sans-Serif" font-size="10.00">pdf.h</text>
</a>
</g>
</g>
<!-- Node4&#45;&gt;Node5 -->
<g id="edge4_Node000004_Node000005" class="edge">
<title>Node4&#45;&gt;Node5</title>
<g id="a_edge4_Node000004_Node000005"><a xlink:title=" ">
<path fill="none" stroke="#63b8ff" d="M375.03,-219.98C410.45,-210.1 468.51,-193.91 503.94,-184.02"/>
<polygon fill="#63b8ff" stroke="#63b8ff" points="505.04,-187.35 513.73,-181.29 503.16,-180.61 505.04,-187.35"/>
</a>
</g>
</g>
<!-- Node4&#45;&gt;Node8 -->
<g id="edge8_Node000004_Node000008" class="edge">
<title>Node4&#45;&gt;Node8</title>
<g id="a_edge8_Node000004_Node000008"><a xlink:title=" ">
<path fill="none" stroke="#63b8ff" d="M357.28,-220C367.89,-212.1 382.22,-199.27 388.5,-184 396.03,-165.68 380.23,-147.37 365.52,-135.15"/>
<polygon fill="#63b8ff" stroke="#63b8ff" points="367.66,-132.38 357.61,-129.03 363.37,-137.92 367.66,-132.38"/>
</a>
</g>
</g>
<!-- Node13 -->
<g id="Node000013" class="node">
<title>Node13</title>
<g id="a_Node000013"><a xlink:href="integrate_8h.html" target="_top" xlink:title=" ">
<polygon fill="white" stroke="#666666" points="786.5,-184 716.5,-184 716.5,-165 786.5,-165 786.5,-184"/>
<text text-anchor="middle" x="751.5" y="-172" font-family="Helvetica,sans-Serif" font-size="10.00">integrate.h</text>
</a>
</g>
</g>
<!-- Node4&#45;&gt;Node13 -->
<g id="edge13_Node000004_Node000013" class="edge">
<title>Node4&#45;&gt;Node13</title>
<g id="a_edge13_Node000004_Node000013"><a xlink:title=" ">
<path fill="none" stroke="#63b8ff" d="M381.7,-223.66C456.44,-213.92 624.64,-192.02 705.88,-181.44"/>
<polygon fill="#63b8ff" stroke="#63b8ff" points="706.82,-184.85 716.28,-180.09 705.91,-177.91 706.82,-184.85"/>
</a>
</g>
</g>
<!-- Node17 -->
<g id="Node000017" class="node">
<title>Node17</title>
<g id="a_Node000017"><a xlink:href="coefffunc_8h.html" target="_top" xlink:title=" ">
<polygon fill="white" stroke="#666666" points="380,-184 309,-184 309,-165 380,-165 380,-184"/>
<text text-anchor="middle" x="344.5" y="-172" font-family="Helvetica,sans-Serif" font-size="10.00">coefffunc.h</text>
</a>
</g>
</g>
<!-- Node4&#45;&gt;Node17 -->
<g id="edge18_Node000004_Node000017" class="edge">
<title>Node4&#45;&gt;Node17</title>
<g id="a_edge18_Node000004_Node000017"><a xlink:title=" ">
<path fill="none" stroke="#63b8ff" d="M344.5,-219.75C344.5,-212.8 344.5,-202.85 344.5,-194.13"/>
<polygon fill="#63b8ff" stroke="#63b8ff" points="348,-194.09 344.5,-184.09 341,-194.09 348,-194.09"/>
</a>
</g>
</g>
<!-- Node18 -->
<g id="Node000018" class="node">
<title>Node18</title>
<g id="a_Node000018"><a xlink:href="hqcoeff_8h.html" target="_top" xlink:title=" ">
<polygon fill="white" stroke="#666666" points="110.5,-184 48.5,-184 48.5,-165 110.5,-165 110.5,-184"/>
<text text-anchor="middle" x="79.5" y="-172" font-family="Helvetica,sans-Serif" font-size="10.00">hqcoeff.h</text>
</a>
</g>
</g>
<!-- Node4&#45;&gt;Node18 -->
<g id="edge21_Node000004_Node000018" class="edge">
<title>Node4&#45;&gt;Node18</title>
<g id="a_edge21_Node000004_Node000018"><a xlink:title=" ">
<path fill="none" stroke="#63b8ff" d="M307.44,-221.34C264.82,-213.06 192.49,-198.91 121.01,-184.29"/>
<polygon fill="#63b8ff" stroke="#63b8ff" points="121.43,-180.8 110.93,-182.22 120.03,-187.66 121.43,-180.8"/>
</a>
</g>
</g>
<!-- Node20 -->
<g id="Node000020" class="node">
<title>Node20</title>
<g id="a_Node000020"><a xlink:href="flags_8h.html" target="_top" xlink:title=" ">
<polygon fill="white" stroke="#666666" points="178,-184 129,-184 129,-165 178,-165 178,-184"/>
<text text-anchor="middle" x="153.5" y="-172" font-family="Helvetica,sans-Serif" font-size="10.00">flags.h</text>
</a>
</g>
</g>
<!-- Node4&#45;&gt;Node20 -->
<g id="edge23_Node000004_Node000020" class="edge">
<title>Node4&#45;&gt;Node20</title>
<g id="a_edge23_Node000004_Node000020"><a xlink:title=" ">
<path fill="none" stroke="#63b8ff" d="M313.81,-219.98C279.45,-210.45 223.9,-195.03 188.04,-185.09"/>
<polygon fill="#63b8ff" stroke="#63b8ff" points="188.61,-181.61 178.04,-182.31 186.74,-188.36 188.61,-181.61"/>
</a>
</g>
</g>
<!-- Node21 -->
<g id="Node000021" class="node">
<title>Node21</title>
<g id="a_Node000021"><a xlink:title=" ">
<polygon fill="#e0e0e0" stroke="#999999" points="252.5,-184 196.5,-184 196.5,-165 252.5,-165 252.5,-184"/>
<text text-anchor="middle" x="224.5" y="-172" font-family="Helvetica,sans-Serif" font-size="10.00">optional</text>
</a>
</g>
</g>
<!-- Node4&#45;&gt;Node21 -->
<g id="edge25_Node000004_Node000021" class="edge">
<title>Node4&#45;&gt;Node21</title>
<g id="a_edge25_Node000004_Node000021"><a xlink:title=" ">
<path fill="none" stroke="#63b8ff" d="M325.22,-219.98C305.83,-211.42 275.69,-198.11 253.43,-188.28"/>
<polygon fill="#63b8ff" stroke="#63b8ff" points="254.69,-185.01 244.13,-184.17 251.86,-191.41 254.69,-185.01"/>
</a>
</g>
</g>
<!-- Node5&#45;&gt;Node2 -->
<g id="edge5_Node000005_Node000002" class="edge">
<title>Node5&#45;&gt;Node2</title>
<g id="a_edge5_Node000005_Node000002"><a xlink:title=" ">
<path fill="none" stroke="#63b8ff" d="M555.16,-165.45C577.43,-156.77 613.15,-142.85 638.94,-132.8"/>
<polygon fill="#63b8ff" stroke="#63b8ff" points="640.25,-136.05 648.29,-129.15 637.7,-129.52 640.25,-136.05"/>
</a>
</g>
</g>
<!-- Node6 -->
<g id="Node000006" class="node">
<title>Node6</title>
<g id="a_Node000006"><a xlink:title=" ">
<polygon fill="#e0e0e0" stroke="#999999" points="504,-129 399,-129 399,-110 504,-110 504,-129"/>
<text text-anchor="middle" x="451.5" y="-117" font-family="Helvetica,sans-Serif" font-size="10.00">LHAPDF/LHAPDF.h</text>
</a>
</g>
</g>
<!-- Node5&#45;&gt;Node6 -->
<g id="edge6_Node000005_Node000006" class="edge">
<title>Node5&#45;&gt;Node6</title>
<g id="a_edge6_Node000005_Node000006"><a xlink:title=" ">
<path fill="none" stroke="#63b8ff" d="M521.16,-164.98C508.41,-156.84 488.95,-144.41 473.83,-134.76"/>
<polygon fill="#63b8ff" stroke="#63b8ff" points="475.39,-131.6 465.08,-129.17 471.62,-137.5 475.39,-131.6"/>
</a>
</g>
</g>
<!-- Node7 -->
<g id="Node000007" class="node">
<title>Node7</title>
<g id="a_Node000007"><a xlink:href="fortransymbols_8h.html" target="_top" xlink:title=" ">
<polygon fill="white" stroke="#666666" points="622.5,-129 522.5,-129 522.5,-110 622.5,-110 622.5,-129"/>
<text text-anchor="middle" x="572.5" y="-117" font-family="Helvetica,sans-Serif" font-size="10.00">fortransymbols.h</text>
</a>
</g>
</g>
<!-- Node5&#45;&gt;Node7 -->
<g id="edge7_Node000005_Node000007" class="edge">
<title>Node5&#45;&gt;Node7</title>
<g id="a_edge7_Node000005_Node000007"><a xlink:title=" ">
<path fill="none" stroke="#63b8ff" d="M540.77,-164.75C546.09,-157.34 553.86,-146.5 560.38,-137.41"/>
<polygon fill="#63b8ff" stroke="#63b8ff" points="563.36,-139.26 566.34,-129.09 557.67,-135.18 563.36,-139.26"/>
</a>
</g>
</g>
<!-- Node9 -->
<g id="Node000009" class="node">
<title>Node9</title>
<g id="a_Node000009"><a xlink:title=" ">
<polygon fill="#e0e0e0" stroke="#999999" points="323.5,-74 267.5,-74 267.5,-55 323.5,-55 323.5,-74"/>
<text text-anchor="middle" x="295.5" y="-62" font-family="Helvetica,sans-Serif" font-size="10.00">assert.h</text>
</a>
</g>
</g>
<!-- Node8&#45;&gt;Node9 -->
<g id="edge9_Node000008_Node000009" class="edge">
<title>Node8&#45;&gt;Node9</title>
<g id="a_edge9_Node000008_Node000009"><a xlink:title=" ">
<path fill="none" stroke="#63b8ff" d="M336.41,-109.75C329.34,-102.11 318.91,-90.82 310.35,-81.56"/>
<polygon fill="#63b8ff" stroke="#63b8ff" points="312.8,-79.06 303.44,-74.09 307.66,-83.81 312.8,-79.06"/>
</a>
</g>
</g>
<!-- Node10 -->
<g id="Node000010" class="node">
<title>Node10</title>
<g id="a_Node000010"><a xlink:href="protectedobject_8h.html" target="_top" xlink:title=" ">
<polygon fill="white" stroke="#666666" points="443.5,-74 341.5,-74 341.5,-55 443.5,-55 443.5,-74"/>
<text text-anchor="middle" x="392.5" y="-62" font-family="Helvetica,sans-Serif" font-size="10.00">protectedobject.h</text>
</a>
</g>
</g>
<!-- Node8&#45;&gt;Node10 -->
<g id="edge10_Node000008_Node000010" class="edge">
<title>Node8&#45;&gt;Node10</title>
<g id="a_edge10_Node000008_Node000010"><a xlink:title=" ">
<path fill="none" stroke="#63b8ff" d="M352.43,-109.75C359.35,-102.11 369.57,-90.82 377.95,-81.56"/>
<polygon fill="#63b8ff" stroke="#63b8ff" points="380.6,-83.85 384.72,-74.09 375.41,-79.15 380.6,-83.85"/>
</a>
</g>
</g>
<!-- Node11 -->
<g id="Node000011" class="node">
<title>Node11</title>
<g id="a_Node000011"><a xlink:title=" ">
<polygon fill="#e0e0e0" stroke="#999999" points="380,-19 331,-19 331,0 380,0 380,-19"/>
<text text-anchor="middle" x="355.5" y="-7" font-family="Helvetica,sans-Serif" font-size="10.00">cstdlib</text>
</a>
</g>
</g>
<!-- Node10&#45;&gt;Node11 -->
<g id="edge11_Node000010_Node000011" class="edge">
<title>Node10&#45;&gt;Node11</title>
<g id="a_edge11_Node000010_Node000011"><a xlink:title=" ">
<path fill="none" stroke="#63b8ff" d="M386.39,-54.75C381.22,-47.34 373.65,-36.5 367.31,-27.41"/>
<polygon fill="#63b8ff" stroke="#63b8ff" points="370.09,-25.29 361.5,-19.09 364.35,-29.29 370.09,-25.29"/>
</a>
</g>
</g>
<!-- Node12 -->
<g id="Node000012" class="node">
<title>Node12</title>
<g id="a_Node000012"><a xlink:title=" ">
<polygon fill="#e0e0e0" stroke="#999999" points="462.5,-19 398.5,-19 398.5,0 462.5,0 462.5,-19"/>
<text text-anchor="middle" x="430.5" y="-7" font-family="Helvetica,sans-Serif" font-size="10.00">algorithm</text>
</a>
</g>
</g>
<!-- Node10&#45;&gt;Node12 -->
<g id="edge12_Node000010_Node000012" class="edge">
<title>Node10&#45;&gt;Node12</title>
<g id="a_edge12_Node000010_Node000012"><a xlink:title=" ">
<path fill="none" stroke="#63b8ff" d="M398.77,-54.75C404.09,-47.34 411.86,-36.5 418.38,-27.41"/>
<polygon fill="#63b8ff" stroke="#63b8ff" points="421.36,-29.26 424.34,-19.09 415.67,-25.18 421.36,-29.26"/>
</a>
</g>
</g>
<!-- Node13&#45;&gt;Node2 -->
<g id="edge14_Node000013_Node000002" class="edge">
<title>Node13&#45;&gt;Node2</title>
<g id="a_edge14_Node000013_Node000002"><a xlink:title=" ">
<path fill="none" stroke="#63b8ff" d="M738.49,-164.98C726.04,-156.84 707.04,-144.41 692.29,-134.76"/>
<polygon fill="#63b8ff" stroke="#63b8ff" points="694.04,-131.72 683.75,-129.17 690.2,-137.57 694.04,-131.72"/>
</a>
</g>
</g>
<!-- Node14 -->
<g id="Node000014" class="node">
<title>Node14</title>
<g id="a_Node000014"><a xlink:title=" ">
<polygon fill="#e0e0e0" stroke="#999999" points="784,-129 719,-129 719,-110 784,-110 784,-129"/>
<text text-anchor="middle" x="751.5" y="-117" font-family="Helvetica,sans-Serif" font-size="10.00">functional</text>
</a>
</g>
</g>
<!-- Node13&#45;&gt;Node14 -->
<g id="edge15_Node000013_Node000014" class="edge">
<title>Node13&#45;&gt;Node14</title>
<g id="a_edge15_Node000013_Node000014"><a xlink:title=" ">
<path fill="none" stroke="#63b8ff" d="M751.5,-164.75C751.5,-157.8 751.5,-147.85 751.5,-139.13"/>
<polygon fill="#63b8ff" stroke="#63b8ff" points="755,-139.09 751.5,-129.09 748,-139.09 755,-139.09"/>
</a>
</g>
</g>
<!-- Node15 -->
<g id="Node000015" class="node">
<title>Node15</title>
<g id="a_Node000015"><a xlink:title=" ">
<polygon fill="#e0e0e0" stroke="#999999" points="890.5,-129 802.5,-129 802.5,-110 890.5,-110 890.5,-129"/>
<text text-anchor="middle" x="846.5" y="-117" font-family="Helvetica,sans-Serif" font-size="10.00">gsl/gsl_errno.h</text>
</a>
</g>
</g>
<!-- Node13&#45;&gt;Node15 -->
<g id="edge16_Node000013_Node000015" class="edge">
<title>Node13&#45;&gt;Node15</title>
<g id="a_edge16_Node000013_Node000015"><a xlink:title=" ">
<path fill="none" stroke="#63b8ff" d="M766.76,-164.98C781.63,-156.69 804.48,-143.94 821.92,-134.22"/>
<polygon fill="#63b8ff" stroke="#63b8ff" points="823.93,-137.1 830.96,-129.17 820.52,-130.99 823.93,-137.1"/>
</a>
</g>
</g>
<!-- Node16 -->
<g id="Node000016" class="node">
<title>Node16</title>
<g id="a_Node000016"><a xlink:title=" ">
<polygon fill="#e0e0e0" stroke="#999999" points="1024.5,-129 908.5,-129 908.5,-110 1024.5,-110 1024.5,-129"/>
<text text-anchor="middle" x="966.5" y="-117" font-family="Helvetica,sans-Serif" font-size="10.00">gsl/gsl_integration.h</text>
</a>
</g>
</g>
<!-- Node13&#45;&gt;Node16 -->
<g id="edge17_Node000013_Node000016" class="edge">
<title>Node13&#45;&gt;Node16</title>
<g id="a_edge17_Node000013_Node000016"><a xlink:title=" ">
<path fill="none" stroke="#63b8ff" d="M786.04,-164.98C822.92,-155.89 881.49,-141.46 921.84,-131.51"/>
<polygon fill="#63b8ff" stroke="#63b8ff" points="922.81,-134.87 931.69,-129.08 921.14,-128.08 922.81,-134.87"/>
</a>
</g>
</g>
<!-- Node17&#45;&gt;Node3 -->
<g id="edge19_Node000017_Node000003" class="edge">
<title>Node17&#45;&gt;Node3</title>
<g id="a_edge19_Node000017_Node000003"><a xlink:title=" ">
<path fill="none" stroke="#63b8ff" d="M331.97,-164.98C320.1,-156.92 302.04,-144.65 287.89,-135.03"/>
<polygon fill="#63b8ff" stroke="#63b8ff" points="289.5,-131.9 279.26,-129.17 285.56,-137.69 289.5,-131.9"/>
</a>
</g>
</g>
<!-- Node17&#45;&gt;Node8 -->
<g id="edge20_Node000017_Node000008" class="edge">
<title>Node17&#45;&gt;Node8</title>
<g id="a_edge20_Node000017_Node000008"><a xlink:title=" ">
<path fill="none" stroke="#63b8ff" d="M344.5,-164.75C344.5,-157.8 344.5,-147.85 344.5,-139.13"/>
<polygon fill="#63b8ff" stroke="#63b8ff" points="348,-139.09 344.5,-129.09 341,-139.09 348,-139.09"/>
</a>
</g>
</g>
<!-- Node19 -->
<g id="Node000019" class="node">
<title>Node19</title>
<g id="a_Node000019"><a xlink:title=" ">
<polygon fill="#e0e0e0" stroke="#999999" points="159,-129 0,-129 0,-110 159,-110 159,-129"/>
<text text-anchor="middle" x="79.5" y="-117" font-family="Helvetica,sans-Serif" font-size="10.00">libInterpolate/Interpolate.hpp</text>
</a>
</g>
</g>
<!-- Node18&#45;&gt;Node19 -->
<g id="edge22_Node000018_Node000019" class="edge">
<title>Node18&#45;&gt;Node19</title>
<g id="a_edge22_Node000018_Node000019"><a xlink:title=" ">
<path fill="none" stroke="#63b8ff" d="M79.5,-164.75C79.5,-157.8 79.5,-147.85 79.5,-139.13"/>
<polygon fill="#63b8ff" stroke="#63b8ff" points="83,-139.09 79.5,-129.09 76,-139.09 83,-139.09"/>
</a>
</g>
</g>
</g>
</svg>
