<?xml version="1.0" encoding="UTF-8" standalone="no"?>
<!DOCTYPE svg PUBLIC "-//W3C//DTD SVG 1.1//EN"
 "http://www.w3.org/Graphics/SVG/1.1/DTD/svg11.dtd">
<!-- Generated by graphviz version 2.43.0 (0)
 -->
<!-- Title: src/testF2heavyintegrand.cpp Pages: 1 -->
<svg width="1059pt" height="302pt"
 viewBox="0.00 0.00 1058.50 302.00" xmlns="http://www.w3.org/2000/svg" xmlns:xlink="http://www.w3.org/1999/xlink">
<g id="graph0" class="graph" transform="scale(1 1) rotate(0) translate(4 298)">
<title>src/testF2heavyintegrand.cpp</title>
<!-- Node1 -->
<g id="Node000001" class="node">
<title>Node1</title>
<g id="a_Node000001"><a xlink:title=" ">
<polygon fill="#999999" stroke="#666666" points="239,-294 78,-294 78,-275 239,-275 239,-294"/>
<text text-anchor="middle" x="158.5" y="-282" font-family="Helvetica,sans-Serif" font-size="10.00">src/testF2heavyintegrand.cpp</text>
</a>
</g>
</g>
<!-- Node2 -->
<g id="Node000002" class="node">
<title>Node2</title>
<g id="a_Node000002"><a xlink:title=" ">
<polygon fill="#e0e0e0" stroke="#999999" points="458.5,-129 398.5,-129 398.5,-110 458.5,-110 458.5,-129"/>
<text text-anchor="middle" x="428.5" y="-117" font-family="Helvetica,sans-Serif" font-size="10.00">iostream</text>
</a>
</g>
</g>
<!-- Node1&#45;&gt;Node2 -->
<g id="edge1_Node000001_Node000002" class="edge">
<title>Node1&#45;&gt;Node2</title>
<g id="a_edge1_Node000001_Node000002"><a xlink:title=" ">
<path fill="none" stroke="#63b8ff" d="M202.54,-274.99C233.96,-267.91 276.64,-256.18 311.5,-239 348.58,-220.73 357.99,-213.93 386.5,-184 399.71,-170.14 411.41,-151.64 419.09,-138.18"/>
<polygon fill="#63b8ff" stroke="#63b8ff" points="422.16,-139.86 423.93,-129.41 416.03,-136.47 422.16,-139.86"/>
</a>
</g>
</g>
<!-- Node3 -->
<g id="Node000003" class="node">
<title>Node3</title>
<g id="a_Node000003"><a xlink:title=" ">
<polygon fill="#e0e0e0" stroke="#999999" points="47,-129 0,-129 0,-110 47,-110 47,-129"/>
<text text-anchor="middle" x="23.5" y="-117" font-family="Helvetica,sans-Serif" font-size="10.00">cmath</text>
</a>
</g>
</g>
<!-- Node1&#45;&gt;Node3 -->
<g id="edge2_Node000001_Node000003" class="edge">
<title>Node1&#45;&gt;Node3</title>
<g id="a_edge2_Node000001_Node000003"><a xlink:title=" ">
<path fill="none" stroke="#63b8ff" d="M151.24,-274.74C129.72,-248.76 66.01,-171.83 37.53,-137.44"/>
<polygon fill="#63b8ff" stroke="#63b8ff" points="39.87,-134.78 30.79,-129.31 34.48,-139.24 39.87,-134.78"/>
</a>
</g>
</g>
<!-- Node4 -->
<g id="Node000004" class="node">
<title>Node4</title>
<g id="a_Node000004"><a xlink:href="structfunc_8h.html" target="_top" xlink:title=" ">
<polygon fill="white" stroke="#666666" points="302.5,-239 228.5,-239 228.5,-220 302.5,-220 302.5,-239"/>
<text text-anchor="middle" x="265.5" y="-227" font-family="Helvetica,sans-Serif" font-size="10.00">structfunc.h</text>
</a>
</g>
</g>
<!-- Node1&#45;&gt;Node4 -->
<g id="edge3_Node000001_Node000004" class="edge">
<title>Node1&#45;&gt;Node4</title>
<g id="a_edge3_Node000001_Node000004"><a xlink:title=" ">
<path fill="none" stroke="#63b8ff" d="M175.69,-274.98C192.75,-266.54 219.13,-253.47 238.9,-243.68"/>
<polygon fill="#63b8ff" stroke="#63b8ff" points="240.59,-246.75 248,-239.17 237.48,-240.47 240.59,-246.75"/>
</a>
</g>
</g>
<!-- Node8 -->
<g id="Node000008" class="node">
<title>Node8</title>
<g id="a_Node000008"><a xlink:href="constants_8h.html" target="_top" xlink:title=" ">
<polygon fill="white" stroke="#666666" points="138,-129 65,-129 65,-110 138,-110 138,-129"/>
<text text-anchor="middle" x="101.5" y="-117" font-family="Helvetica,sans-Serif" font-size="10.00">constants.h</text>
</a>
</g>
</g>
<!-- Node1&#45;&gt;Node8 -->
<g id="edge26_Node000001_Node000008" class="edge">
<title>Node1&#45;&gt;Node8</title>
<g id="a_edge26_Node000001_Node000008"><a xlink:title=" ">
<path fill="none" stroke="#63b8ff" d="M155.44,-274.74C146.47,-249.09 120.13,-173.78 107.89,-138.78"/>
<polygon fill="#63b8ff" stroke="#63b8ff" points="111.18,-137.59 104.58,-129.31 104.58,-139.9 111.18,-137.59"/>
</a>
</g>
</g>
<!-- Node4&#45;&gt;Node3 -->
<g id="edge25_Node000004_Node000003" class="edge">
<title>Node4&#45;&gt;Node3</title>
<g id="a_edge25_Node000004_Node000003"><a xlink:title=" ">
<path fill="none" stroke="#63b8ff" d="M234.18,-219.99C206.78,-212.09 166.21,-199.27 132.5,-184 100.7,-169.6 66.24,-148.51 44.76,-134.65"/>
<polygon fill="#63b8ff" stroke="#63b8ff" points="46.42,-131.55 36.13,-129.01 42.59,-137.41 46.42,-131.55"/>
</a>
</g>
</g>
<!-- Node5 -->
<g id="Node000005" class="node">
<title>Node5</title>
<g id="a_Node000005"><a xlink:href="pdf_8h.html" target="_top" xlink:title=" ">
<polygon fill="white" stroke="#666666" points="311,-184 270,-184 270,-165 311,-165 311,-184"/>
<text text-anchor="middle" x="290.5" y="-172" font-family="Helvetica,sans-Serif" font-size="10.00">pdf.h</text>
</a>
</g>
</g>
<!-- Node4&#45;&gt;Node5 -->
<g id="edge4_Node000004_Node000005" class="edge">
<title>Node4&#45;&gt;Node5</title>
<g id="a_edge4_Node000004_Node000005"><a xlink:title=" ">
<path fill="none" stroke="#63b8ff" d="M269.63,-219.75C273.01,-212.57 277.92,-202.18 282.12,-193.27"/>
<polygon fill="#63b8ff" stroke="#63b8ff" points="285.35,-194.63 286.45,-184.09 279.02,-191.64 285.35,-194.63"/>
</a>
</g>
</g>
<!-- Node4&#45;&gt;Node8 -->
<g id="edge8_Node000004_Node000008" class="edge">
<title>Node4&#45;&gt;Node8</title>
<g id="a_edge8_Node000004_Node000008"><a xlink:title=" ">
<path fill="none" stroke="#63b8ff" d="M261.64,-219.85C255.2,-206.32 241,-180.13 221.5,-165 200.07,-148.37 171.8,-137.48 148.08,-130.64"/>
<polygon fill="#63b8ff" stroke="#63b8ff" points="148.79,-127.21 138.22,-127.95 146.95,-133.96 148.79,-127.21"/>
</a>
</g>
</g>
<!-- Node13 -->
<g id="Node000013" class="node">
<title>Node13</title>
<g id="a_Node000013"><a xlink:href="integrate_8h.html" target="_top" xlink:title=" ">
<polygon fill="white" stroke="#666666" points="544.5,-184 474.5,-184 474.5,-165 544.5,-165 544.5,-184"/>
<text text-anchor="middle" x="509.5" y="-172" font-family="Helvetica,sans-Serif" font-size="10.00">integrate.h</text>
</a>
</g>
</g>
<!-- Node4&#45;&gt;Node13 -->
<g id="edge13_Node000004_Node000013" class="edge">
<title>Node4&#45;&gt;Node13</title>
<g id="a_edge13_Node000004_Node000013"><a xlink:title=" ">
<path fill="none" stroke="#63b8ff" d="M302.56,-220.45C346.03,-211.01 418.06,-195.36 464.65,-185.24"/>
<polygon fill="#63b8ff" stroke="#63b8ff" points="465.44,-188.65 474.47,-183.11 463.96,-181.81 465.44,-188.65"/>
</a>
</g>
</g>
<!-- Node17 -->
<g id="Node000017" class="node">
<title>Node17</title>
<g id="a_Node000017"><a xlink:href="coefffunc_8h.html" target="_top" xlink:title=" ">
<polygon fill="white" stroke="#666666" points="213,-184 142,-184 142,-165 213,-165 213,-184"/>
<text text-anchor="middle" x="177.5" y="-172" font-family="Helvetica,sans-Serif" font-size="10.00">coefffunc.h</text>
</a>
</g>
</g>
<!-- Node4&#45;&gt;Node17 -->
<g id="edge18_Node000004_Node000017" class="edge">
<title>Node4&#45;&gt;Node17</title>
<g id="a_edge18_Node000004_Node000017"><a xlink:title=" ">
<path fill="none" stroke="#63b8ff" d="M251.36,-219.98C237.71,-211.77 216.81,-199.18 200.72,-189.49"/>
<polygon fill="#63b8ff" stroke="#63b8ff" points="202.27,-186.33 191.9,-184.17 198.66,-192.33 202.27,-186.33"/>
</a>
</g>
</g>
<!-- Node18 -->
<g id="Node000018" class="node">
<title>Node18</title>
<g id="a_Node000018"><a xlink:href="hqcoeff_8h.html" target="_top" xlink:title=" ">
<polygon fill="white" stroke="#666666" points="911.5,-184 849.5,-184 849.5,-165 911.5,-165 911.5,-184"/>
<text text-anchor="middle" x="880.5" y="-172" font-family="Helvetica,sans-Serif" font-size="10.00">hqcoeff.h</text>
</a>
</g>
</g>
<!-- Node4&#45;&gt;Node18 -->
<g id="edge21_Node000004_Node000018" class="edge">
<title>Node4&#45;&gt;Node18</title>
<g id="a_edge21_Node000004_Node000018"><a xlink:title=" ">
<path fill="none" stroke="#63b8ff" d="M302.59,-225.3C410.87,-215.97 726.1,-188.81 839.37,-179.04"/>
<polygon fill="#63b8ff" stroke="#63b8ff" points="839.71,-182.53 849.37,-178.18 839.11,-175.55 839.71,-182.53"/>
</a>
</g>
</g>
<!-- Node21 -->
<g id="Node000021" class="node">
<title>Node21</title>
<g id="a_Node000021"><a xlink:href="flags_8h.html" target="_top" xlink:title=" ">
<polygon fill="white" stroke="#666666" points="378,-184 329,-184 329,-165 378,-165 378,-184"/>
<text text-anchor="middle" x="353.5" y="-172" font-family="Helvetica,sans-Serif" font-size="10.00">flags.h</text>
</a>
</g>
</g>
<!-- Node4&#45;&gt;Node21 -->
<g id="edge24_Node000004_Node000021" class="edge">
<title>Node4&#45;&gt;Node21</title>
<g id="a_edge24_Node000004_Node000021"><a xlink:title=" ">
<path fill="none" stroke="#63b8ff" d="M279.64,-219.98C293.29,-211.77 314.19,-199.18 330.28,-189.49"/>
<polygon fill="#63b8ff" stroke="#63b8ff" points="332.34,-192.33 339.1,-184.17 328.73,-186.33 332.34,-192.33"/>
</a>
</g>
</g>
<!-- Node5&#45;&gt;Node2 -->
<g id="edge5_Node000005_Node000002" class="edge">
<title>Node5&#45;&gt;Node2</title>
<g id="a_edge5_Node000005_Node000002"><a xlink:title=" ">
<path fill="none" stroke="#63b8ff" d="M311.16,-165.57C333.83,-156.86 370.49,-142.78 396.8,-132.68"/>
<polygon fill="#63b8ff" stroke="#63b8ff" points="398.25,-135.87 406.33,-129.02 395.74,-129.33 398.25,-135.87"/>
</a>
</g>
</g>
<!-- Node6 -->
<g id="Node000006" class="node">
<title>Node6</title>
<g id="a_Node000006"><a xlink:title=" ">
<polygon fill="#e0e0e0" stroke="#999999" points="380,-129 275,-129 275,-110 380,-110 380,-129"/>
<text text-anchor="middle" x="327.5" y="-117" font-family="Helvetica,sans-Serif" font-size="10.00">LHAPDF/LHAPDF.h</text>
</a>
</g>
</g>
<!-- Node5&#45;&gt;Node6 -->
<g id="edge6_Node000005_Node000006" class="edge">
<title>Node5&#45;&gt;Node6</title>
<g id="a_edge6_Node000005_Node000006"><a xlink:title=" ">
<path fill="none" stroke="#63b8ff" d="M296.61,-164.75C301.78,-157.34 309.35,-146.5 315.69,-137.41"/>
<polygon fill="#63b8ff" stroke="#63b8ff" points="318.65,-139.29 321.5,-129.09 312.91,-135.29 318.65,-139.29"/>
</a>
</g>
</g>
<!-- Node7 -->
<g id="Node000007" class="node">
<title>Node7</title>
<g id="a_Node000007"><a xlink:href="fortransymbols_8h.html" target="_top" xlink:title=" ">
<polygon fill="white" stroke="#666666" points="256.5,-129 156.5,-129 156.5,-110 256.5,-110 256.5,-129"/>
<text text-anchor="middle" x="206.5" y="-117" font-family="Helvetica,sans-Serif" font-size="10.00">fortransymbols.h</text>
</a>
</g>
</g>
<!-- Node5&#45;&gt;Node7 -->
<g id="edge7_Node000005_Node000007" class="edge">
<title>Node5&#45;&gt;Node7</title>
<g id="a_edge7_Node000005_Node000007"><a xlink:title=" ">
<path fill="none" stroke="#63b8ff" d="M277,-164.98C264.1,-156.84 244.4,-144.41 229.1,-134.76"/>
<polygon fill="#63b8ff" stroke="#63b8ff" points="230.57,-131.55 220.24,-129.17 226.83,-137.47 230.57,-131.55"/>
</a>
</g>
</g>
<!-- Node9 -->
<g id="Node000009" class="node">
<title>Node9</title>
<g id="a_Node000009"><a xlink:title=" ">
<polygon fill="#e0e0e0" stroke="#999999" points="81.5,-74 25.5,-74 25.5,-55 81.5,-55 81.5,-74"/>
<text text-anchor="middle" x="53.5" y="-62" font-family="Helvetica,sans-Serif" font-size="10.00">assert.h</text>
</a>
</g>
</g>
<!-- Node8&#45;&gt;Node9 -->
<g id="edge9_Node000008_Node000009" class="edge">
<title>Node8&#45;&gt;Node9</title>
<g id="a_edge9_Node000008_Node000009"><a xlink:title=" ">
<path fill="none" stroke="#63b8ff" d="M93.57,-109.75C86.65,-102.11 76.43,-90.82 68.05,-81.56"/>
<polygon fill="#63b8ff" stroke="#63b8ff" points="70.59,-79.15 61.28,-74.09 65.4,-83.85 70.59,-79.15"/>
</a>
</g>
</g>
<!-- Node10 -->
<g id="Node000010" class="node">
<title>Node10</title>
<g id="a_Node000010"><a xlink:href="protectedobject_8h.html" target="_top" xlink:title=" ">
<polygon fill="white" stroke="#666666" points="201.5,-74 99.5,-74 99.5,-55 201.5,-55 201.5,-74"/>
<text text-anchor="middle" x="150.5" y="-62" font-family="Helvetica,sans-Serif" font-size="10.00">protectedobject.h</text>
</a>
</g>
</g>
<!-- Node8&#45;&gt;Node10 -->
<g id="edge10_Node000008_Node000010" class="edge">
<title>Node8&#45;&gt;Node10</title>
<g id="a_edge10_Node000008_Node000010"><a xlink:title=" ">
<path fill="none" stroke="#63b8ff" d="M109.59,-109.75C116.66,-102.11 127.09,-90.82 135.65,-81.56"/>
<polygon fill="#63b8ff" stroke="#63b8ff" points="138.34,-83.81 142.56,-74.09 133.2,-79.06 138.34,-83.81"/>
</a>
</g>
</g>
<!-- Node11 -->
<g id="Node000011" class="node">
<title>Node11</title>
<g id="a_Node000011"><a xlink:title=" ">
<polygon fill="#e0e0e0" stroke="#999999" points="137,-19 88,-19 88,0 137,0 137,-19"/>
<text text-anchor="middle" x="112.5" y="-7" font-family="Helvetica,sans-Serif" font-size="10.00">cstdlib</text>
</a>
</g>
</g>
<!-- Node10&#45;&gt;Node11 -->
<g id="edge11_Node000010_Node000011" class="edge">
<title>Node10&#45;&gt;Node11</title>
<g id="a_edge11_Node000010_Node000011"><a xlink:title=" ">
<path fill="none" stroke="#63b8ff" d="M144.23,-54.75C138.91,-47.34 131.14,-36.5 124.62,-27.41"/>
<polygon fill="#63b8ff" stroke="#63b8ff" points="127.33,-25.18 118.66,-19.09 121.64,-29.26 127.33,-25.18"/>
</a>
</g>
</g>
<!-- Node12 -->
<g id="Node000012" class="node">
<title>Node12</title>
<g id="a_Node000012"><a xlink:title=" ">
<polygon fill="#e0e0e0" stroke="#999999" points="219.5,-19 155.5,-19 155.5,0 219.5,0 219.5,-19"/>
<text text-anchor="middle" x="187.5" y="-7" font-family="Helvetica,sans-Serif" font-size="10.00">algorithm</text>
</a>
</g>
</g>
<!-- Node10&#45;&gt;Node12 -->
<g id="edge12_Node000010_Node000012" class="edge">
<title>Node10&#45;&gt;Node12</title>
<g id="a_edge12_Node000010_Node000012"><a xlink:title=" ">
<path fill="none" stroke="#63b8ff" d="M156.61,-54.75C161.78,-47.34 169.35,-36.5 175.69,-27.41"/>
<polygon fill="#63b8ff" stroke="#63b8ff" points="178.65,-29.29 181.5,-19.09 172.91,-25.29 178.65,-29.29"/>
</a>
</g>
</g>
<!-- Node13&#45;&gt;Node2 -->
<g id="edge14_Node000013_Node000002" class="edge">
<title>Node13&#45;&gt;Node2</title>
<g id="a_edge14_Node000013_Node000002"><a xlink:title=" ">
<path fill="none" stroke="#63b8ff" d="M496.49,-164.98C484.04,-156.84 465.04,-144.41 450.29,-134.76"/>
<polygon fill="#63b8ff" stroke="#63b8ff" points="452.04,-131.72 441.75,-129.17 448.2,-137.57 452.04,-131.72"/>
</a>
</g>
</g>
<!-- Node14 -->
<g id="Node000014" class="node">
<title>Node14</title>
<g id="a_Node000014"><a xlink:title=" ">
<polygon fill="#e0e0e0" stroke="#999999" points="542,-129 477,-129 477,-110 542,-110 542,-129"/>
<text text-anchor="middle" x="509.5" y="-117" font-family="Helvetica,sans-Serif" font-size="10.00">functional</text>
</a>
</g>
</g>
<!-- Node13&#45;&gt;Node14 -->
<g id="edge15_Node000013_Node000014" class="edge">
<title>Node13&#45;&gt;Node14</title>
<g id="a_edge15_Node000013_Node000014"><a xlink:title=" ">
<path fill="none" stroke="#63b8ff" d="M509.5,-164.75C509.5,-157.8 509.5,-147.85 509.5,-139.13"/>
<polygon fill="#63b8ff" stroke="#63b8ff" points="513,-139.09 509.5,-129.09 506,-139.09 513,-139.09"/>
</a>
</g>
</g>
<!-- Node15 -->
<g id="Node000015" class="node">
<title>Node15</title>
<g id="a_Node000015"><a xlink:title=" ">
<polygon fill="#e0e0e0" stroke="#999999" points="648.5,-129 560.5,-129 560.5,-110 648.5,-110 648.5,-129"/>
<text text-anchor="middle" x="604.5" y="-117" font-family="Helvetica,sans-Serif" font-size="10.00">gsl/gsl_errno.h</text>
</a>
</g>
</g>
<!-- Node13&#45;&gt;Node15 -->
<g id="edge16_Node000013_Node000015" class="edge">
<title>Node13&#45;&gt;Node15</title>
<g id="a_edge16_Node000013_Node000015"><a xlink:title=" ">
<path fill="none" stroke="#63b8ff" d="M524.76,-164.98C539.63,-156.69 562.48,-143.94 579.92,-134.22"/>
<polygon fill="#63b8ff" stroke="#63b8ff" points="581.93,-137.1 588.96,-129.17 578.52,-130.99 581.93,-137.1"/>
</a>
</g>
</g>
<!-- Node16 -->
<g id="Node000016" class="node">
<title>Node16</title>
<g id="a_Node000016"><a xlink:title=" ">
<polygon fill="#e0e0e0" stroke="#999999" points="782.5,-129 666.5,-129 666.5,-110 782.5,-110 782.5,-129"/>
<text text-anchor="middle" x="724.5" y="-117" font-family="Helvetica,sans-Serif" font-size="10.00">gsl/gsl_integration.h</text>
</a>
</g>
</g>
<!-- Node13&#45;&gt;Node16 -->
<g id="edge17_Node000013_Node000016" class="edge">
<title>Node13&#45;&gt;Node16</title>
<g id="a_edge17_Node000013_Node000016"><a xlink:title=" ">
<path fill="none" stroke="#63b8ff" d="M544.04,-164.98C580.92,-155.89 639.49,-141.46 679.84,-131.51"/>
<polygon fill="#63b8ff" stroke="#63b8ff" points="680.81,-134.87 689.69,-129.08 679.14,-128.08 680.81,-134.87"/>
</a>
</g>
</g>
<!-- Node17&#45;&gt;Node3 -->
<g id="edge19_Node000017_Node000003" class="edge">
<title>Node17&#45;&gt;Node3</title>
<g id="a_edge19_Node000017_Node000003"><a xlink:title=" ">
<path fill="none" stroke="#63b8ff" d="M152.76,-164.98C126.75,-156.03 85.67,-141.9 56.82,-131.97"/>
<polygon fill="#63b8ff" stroke="#63b8ff" points="57.76,-128.59 47.17,-128.65 55.49,-135.21 57.76,-128.59"/>
</a>
</g>
</g>
<!-- Node17&#45;&gt;Node8 -->
<g id="edge20_Node000017_Node000008" class="edge">
<title>Node17&#45;&gt;Node8</title>
<g id="a_edge20_Node000017_Node000008"><a xlink:title=" ">
<path fill="none" stroke="#63b8ff" d="M165.29,-164.98C153.72,-156.92 136.12,-144.65 122.34,-135.03"/>
<polygon fill="#63b8ff" stroke="#63b8ff" points="124.14,-132.02 113.93,-129.17 120.13,-137.76 124.14,-132.02"/>
</a>
</g>
</g>
<!-- Node19 -->
<g id="Node000019" class="node">
<title>Node19</title>
<g id="a_Node000019"><a xlink:title=" ">
<polygon fill="#e0e0e0" stroke="#999999" points="960,-129 801,-129 801,-110 960,-110 960,-129"/>
<text text-anchor="middle" x="880.5" y="-117" font-family="Helvetica,sans-Serif" font-size="10.00">libInterpolate/Interpolate.hpp</text>
</a>
</g>
</g>
<!-- Node18&#45;&gt;Node19 -->
<g id="edge22_Node000018_Node000019" class="edge">
<title>Node18&#45;&gt;Node19</title>
<g id="a_edge22_Node000018_Node000019"><a xlink:title=" ">
<path fill="none" stroke="#63b8ff" d="M880.5,-164.75C880.5,-157.8 880.5,-147.85 880.5,-139.13"/>
<polygon fill="#63b8ff" stroke="#63b8ff" points="884,-139.09 880.5,-129.09 877,-139.09 884,-139.09"/>
</a>
</g>
</g>
<!-- Node20 -->
<g id="Node000020" class="node">
<title>Node20</title>
<g id="a_Node000020"><a xlink:title=" ">
<polygon fill="#e0e0e0" stroke="#999999" points="1050.5,-129 978.5,-129 978.5,-110 1050.5,-110 1050.5,-129"/>
<text text-anchor="middle" x="1014.5" y="-117" font-family="Helvetica,sans-Serif" font-size="10.00">ome/ome.h</text>
</a>
</g>
</g>
<!-- Node18&#45;&gt;Node20 -->
<g id="edge23_Node000018_Node000020" class="edge">
<title>Node18&#45;&gt;Node20</title>
<g id="a_edge23_Node000018_Node000020"><a xlink:title=" ">
<path fill="none" stroke="#63b8ff" d="M902.03,-164.98C923.97,-156.3 958.24,-142.75 983.19,-132.88"/>
<polygon fill="#63b8ff" stroke="#63b8ff" points="984.57,-136.1 992.58,-129.17 981.99,-129.59 984.57,-136.1"/>
</a>
</g>
</g>
</g>
</svg>
